<svg width="1653" height="755" xmlns="http://www.w3.org/2000/svg" xmlns:xlink="http://www.w3.org/1999/xlink" xml:space="preserve" overflow="hidden"><g transform="translate(1 1)"><rect x="0" y="0" width="1650" height="752" fill="#FFFFFF"/><g><path d="M139.5 402.513 1599.5 402.513M139.5 314.51 1599.5 314.51M139.5 226.508 1599.5 226.508M139.5 138.505 1599.5 138.505M139.5 50.5 1599.5 50.5" stroke="#D9D9D9" stroke-width="3.4375" stroke-linejoin="round" stroke-miterlimit="10" fill="none"/></g><g><path d="M211.507 410.514 276.509 410.514 276.509 490.5 211.507 490.5ZM503.517 191.506 568.519 191.506 568.519 490.5 503.517 490.5ZM795.526 331.511 860.528 331.511 860.528 490.5 795.526 490.5ZM1087.54 402.513 1152.54 402.513 1152.54 490.5 1087.54 490.5ZM1379.55 235.508 1444.55 235.508 1444.55 490.5 1379.55 490.5Z" stroke="#000000" stroke-width="3.4375" stroke-linejoin="round" stroke-miterlimit="10" fill="#E3ECF8"/></g><g><path d="M294.51 94.5033 359.512 94.5033 359.512 490.5 294.51 490.5ZM586.519 129.504 651.522 129.504 651.522 490.5 586.519 490.5ZM878.529 410.514 943.531 410.514 943.531 490.5 878.529 490.5ZM1170.54 463.515 1235.54 463.515 1235.54 490.5 1170.54 490.5ZM1462.55 472.516 1527.55 472.516 1527.55 490.5 1462.55 490.5Z" stroke="#000000" stroke-width="3.4375" stroke-linejoin="round" stroke-miterlimit="10" fill="#DDD9C3"/></g><g><path d="M139.5 490.5 1599.5 490.5" stroke="#D9D9D9" stroke-width="3.4375" stroke-linejoin="round" stroke-miterlimit="10" fill="none" fill-rule="evenodd"/></g><g><text fill="#595959" font-family="Calibri,Calibri_MSFontService,sans-serif" font-weight="400" font-size="41" transform="matrix(1 0 0 1 50.6917 502)">0%</text></g><g><text fill="#595959" font-family="Calibri,Calibri_MSFontService,sans-serif" font-weight="400" font-size="41" transform="matrix(1 0 0 1 29.7917 414)">10%</text></g><g><text fill="#595959" font-family="Calibri,Calibri_MSFontService,sans-serif" font-weight="400" font-size="41" transform="matrix(1 0 0 1 29.7917 326)">20%</text></g><g><text fill="#595959" font-family="Calibri,Calibri_MSFontService,sans-serif" font-weight="400" font-size="41" transform="matrix(1 0 0 1 29.7917 238)">30%</text></g><g><text fill="#595959" font-family="Calibri,Calibri_MSFontService,sans-serif" font-weight="400" font-size="41" transform="matrix(1 0 0 1 29.7917 150)">40%</text></g><g><text fill="#595959" font-family="Calibri,Calibri_MSFontService,sans-serif" font-weight="400" font-size="41" transform="matrix(1 0 0 1 29.7917 62)">50%</text></g><g><text fill="#595959" font-family="Calibri,Calibri_MSFontService,sans-serif" font-weight="400" font-size="41" transform="matrix(1 0 0 1 176.647 555)">$57,375 and</text></g><g><text fill="#595959" font-family="Calibri,Calibri_MSFontService,sans-serif" font-weight="400" font-size="41" transform="matrix(1 0 0 1 230.731 606)">under</text></g><g><text fill="#595959" font-family="Calibri,Calibri_MSFontService,sans-serif" font-weight="400" font-size="41" transform="matrix(1 0 0 1 482.466 555)">$57,375 to</text></g><g><text fill="#595959" font-family="Calibri,Calibri_MSFontService,sans-serif" font-weight="400" font-size="41" transform="matrix(1 0 0 1 494.463 606)">$114,750</text></g><g><text fill="#595959" font-family="Calibri,Calibri_MSFontService,sans-serif" font-weight="400" font-size="41" transform="matrix(1 0 0 1 764.063 555)">$114,750 to</text></g><g><text fill="#595959" font-family="Calibri,Calibri_MSFontService,sans-serif" font-weight="400" font-size="41" transform="matrix(1 0 0 1 786.51 606)">$177,882</text></g><g><text fill="#595959" font-family="Calibri,Calibri_MSFontService,sans-serif" font-weight="400" font-size="41" transform="matrix(1 0 0 1 1056.11 555)">$177,882 to</text></g><g><text fill="#595959" font-family="Calibri,Calibri_MSFontService,sans-serif" font-weight="400" font-size="41" transform="matrix(1 0 0 1 1078.56 606)">$253,414</text></g><g><text fill="#595959" font-family="Calibri,Calibri_MSFontService,sans-serif" font-weight="400" font-size="41" transform="matrix(1 0 0 1 1325.5 555)">Over $253,414</text></g><g><rect x="472.5" y="674.5" width="22.9997" height="22" stroke="#000000" stroke-width="3.4375" stroke-linejoin="round" stroke-miterlimit="10" fill="#E3ECF8"/></g><g><text fill="#595959" font-family="Calibri,Calibri_MSFontService,sans-serif" font-weight="400" font-size="41" transform="matrix(1 0 0 1 504.83 697)">Share of Tax Paid</text></g><g><rect x="851.5" y="674.5" width="22" height="22" stroke="#000000" stroke-width="3.4375" stroke-linejoin="round" stroke-miterlimit="10" fill="#DDD9C3"/></g><g><text fill="#595959" font-family="Calibri,Calibri_MSFontService,sans-serif" font-weight="400" font-size="41" transform="matrix(1 0 0 1 883.603 697)">Share of Tax Relief</text></g><rect x="0.499836" y="0.499836" width="1650" height="752" stroke="#D9D9D9" stroke-width="3.4375" stroke-linejoin="round" stroke-miterlimit="10" fill="none"/></g></svg>