<svg width="1030" height="1034" xmlns="http://www.w3.org/2000/svg" xmlns:xlink="http://www.w3.org/1999/xlink" xml:space="preserve" overflow="hidden"><g><rect x="0" y="0" width="1030" height="1034" fill="#FFFFFF"/><g><rect x="159.5" y="309.5" width="55" height="539" stroke="#000000" stroke-width="3.4375" stroke-linejoin="round" stroke-miterlimit="10" fill="#C55A11" fill-opacity="0.721569"/></g><g><path d="M389.513 565.519 443.515 565.519 443.515 848.5 389.513 848.5ZM618.521 710.523 672.522 710.523 672.522 848.5 618.521 848.5ZM847.528 728.524 902.53 728.524 902.53 848.5 847.528 848.5Z" stroke="#000000" stroke-width="3.4375" stroke-linejoin="round" stroke-miterlimit="10" fill="#C55A11" fill-opacity="0.721569"/></g><g><path d="M214.507 218.507 269.509 218.507 269.509 848.5 214.507 848.5ZM443.515 674.522 498.517 674.522 498.517 848.5 443.515 848.5ZM672.522 634.521 727.524 634.521 727.524 848.5 672.522 848.5ZM902.53 602.52 956.532 602.52 956.532 848.5 902.53 848.5Z" stroke="#000000" stroke-width="3.4375" stroke-linejoin="round" stroke-miterlimit="10" fill="#2F5597" fill-opacity="0.831373"/></g><g><path d="M100.5 848.5 1016.5 848.5" stroke="#000000" stroke-width="6.875" stroke-linejoin="round" stroke-miterlimit="10" fill="none" fill-rule="evenodd"/></g><g><path d="M100.5 835.5 100.5 860.5M329.511 835.5 329.511 860.5M558.518 835.5 558.518 860.5M787.526 835.5 787.526 860.5M1016.5 835.5 1016.5 860.5" stroke="#000000" stroke-width="6.875" stroke-linejoin="round" stroke-miterlimit="10" fill="none"/></g><g><text font-family="Arial,Arial_MSFontService,sans-serif" font-weight="400" font-size="41" transform="matrix(1 0 0 1 41.6398 861)">0</text></g><g><text font-family="Arial,Arial_MSFontService,sans-serif" font-weight="400" font-size="41" transform="matrix(1 0 0 1 41.6398 716)">4</text></g><g><text font-family="Arial,Arial_MSFontService,sans-serif" font-weight="400" font-size="41" transform="matrix(1 0 0 1 41.6398 572)">8</text></g><g><text font-family="Arial,Arial_MSFontService,sans-serif" font-weight="400" font-size="41" transform="matrix(1 0 0 1 18.7 427)">12</text></g><g><text font-family="Arial,Arial_MSFontService,sans-serif" font-weight="400" font-size="41" transform="matrix(1 0 0 1 18.7 282)">16</text></g><g><text font-family="Arial,Arial_MSFontService,sans-serif" font-weight="400" font-size="41" transform="matrix(1 0 0 1 18.7 138)">20</text></g><g><text font-family="Arial,Arial_MSFontService,sans-serif" font-weight="400" font-size="41" transform="matrix(1 0 0 1 168.773 910)">Total</text></g><g><text font-family="Arial,Arial_MSFontService,sans-serif" font-weight="400" font-size="41" transform="matrix(1 0 0 1 360.075 910)">Buildings</text></g><g><text font-family="Arial,Arial_MSFontService,sans-serif" font-weight="400" font-size="41" transform="matrix(1 0 0 1 409.369 957)">and</text></g><g><text font-family="Arial,Arial_MSFontService,sans-serif" font-weight="400" font-size="41" transform="matrix(1 0 0 1 353.246 1005)">structures</text></g><g><text font-family="Arial,Arial_MSFontService,sans-serif" font-weight="400" font-size="41" transform="matrix(1 0 0 1 577.8 910)">Machinery</text></g><g><text font-family="Arial,Arial_MSFontService,sans-serif" font-weight="400" font-size="41" transform="matrix(1 0 0 1 638.518 957)">and</text></g><g><text font-family="Arial,Arial_MSFontService,sans-serif" font-weight="400" font-size="41" transform="matrix(1 0 0 1 576.62 1005)">equipment</text></g><g><text font-family="Arial,Arial_MSFontService,sans-serif" font-weight="400" font-size="41" transform="matrix(1 0 0 1 803.477 910)">Intellectual</text></g><g><text font-family="Arial,Arial_MSFontService,sans-serif" font-weight="400" font-size="41" transform="matrix(1 0 0 1 826.428 957)">property</text></g><g><text font-family="Arial,Arial_MSFontService,sans-serif" font-weight="400" font-size="41" transform="matrix(1 0 0 1 822.979 1005)">products</text></g><g><rect x="456.5" y="245.5" width="21" height="21" stroke="#000000" stroke-width="3.4375" stroke-linejoin="round" stroke-miterlimit="10" fill="#C55A11" fill-opacity="0.721569"/></g><g><text font-family="Arial,Arial_MSFontService,sans-serif" font-weight="400" font-size="41" transform="matrix(1 0 0 1 486.175 269)">Canada</text></g><g><rect x="682.5" y="245.5" width="21.0003" height="21" stroke="#000000" stroke-width="3.4375" stroke-linejoin="round" stroke-miterlimit="10" fill="#2F5597" fill-opacity="0.831373"/></g><g><text font-family="Arial,Arial_MSFontService,sans-serif" font-weight="400" font-size="41" transform="matrix(1 0 0 1 711.695 269)">U.S.</text></g><g><text font-family="Arial,Arial_MSFontService,sans-serif" font-weight="400" font-size="37" transform="matrix(1 0 0 1 33 51)">per cent</text></g></g></svg>