<svg width="977" height="1033" xmlns="http://www.w3.org/2000/svg" xmlns:xlink="http://www.w3.org/1999/xlink" xml:space="preserve" overflow="hidden"><g><rect x="0" y="0" width="977" height="1033" fill="#FFFFFF"/><g><path d="M121.5 835.5 907.5 835.501" stroke="#000000" stroke-width="6.875" stroke-linejoin="round" stroke-miterlimit="10" fill="none" fill-rule="evenodd"/></g><g><path d="M121.5 835.5 121.5 848.5M275.509 835.5 275.509 848.5M429.514 835.5 429.514 848.5M583.519 835.5 583.519 848.5M737.524 835.5 737.524 848.5M891.5 835.5 891.5 848.5" stroke="#000000" stroke-width="6.875" stroke-linejoin="round" stroke-miterlimit="10" fill="none"/></g><g><path d="M125 836.027 133.004 830.027 141.005 830.027 148.005 832.027 156.005 822.027 164.005 817.027 172.006 816.027 179.006 855.028 187.006 864 195.006 857.028 202.007 848.028 210.007 850.028 218.007 842.028 225.007 832.027 233.008 815.027 241.008 800.026 249.008 788.026 256.008 780.026 264.009 769.025 272.009 761.025 279.009 738.024 287.009 725.024 295.01 698.023 302.01 678.022 310.01 669.022 318.01 655.021 326.011 646.021 333.011 643.021 341.011 644.021 349.011 640.021 356.012 636.021 364.012 623.02 372.012 597.02 380.012 596.02 387.013 599.02 395.013 636.021 403.013 741.024 410.013 766.025 418.014 761.025 426.014 745.024 433.014 713.023 441.014 683.022 449.015 661.022 457.015 633.021 464.015 619.02 472.015 597.02 480.016 591.019 487.016 573.019 495.016 557.018 503.016 542.018 510.017 539.018 518.017 526.017 526.017 511.017 534.018 507.017 541.018 501.016 549.018 491.016 557.018 481.016 564.018 476.016 572.019 466.015 580.019 447 587.019 523.017 595.02 559.018 603.02 586.019 611.02 601.02 618.02 639.021 626.021 648.021 634.021 643.021 641.021 673.022 649.021 646.021 657.022 635.021 664.022 629.021 672.022 609.02 680.022 597.02 688.023 585.019 695.023 600.02 703.023 598.02 711.023 562.018 718.024 580.019 726.024 564.018 734.024 577.019 741.024 581.019 749.025 710.023 757.025 664.022 765.025 644.021 772.025 628.021 780.026 588.019 788.026 587.019 795.026 569.019 803.026 558.018 811.027 535.018 819.027 529.017 826.027 537.018 834.027 524.017 842.028 501.016 849.028 530.017 857.028 552.018 865.028 553.018 872.029 530.017 880.029 548.018 888.029 539.018 896.029 538.018 903 554.018" stroke="#C55A11" stroke-width="10.3125" stroke-linecap="round" stroke-linejoin="round" stroke-miterlimit="10" fill="none"/></g><g><path d="M125 836.027 133.004 820.027 141.005 814.027 148.005 812.027 156.005 817.027 164.005 828.027 172.006 834.027 179.006 849.028 187.006 861.028 195.006 866.028 202.007 868.028 210.007 874 218.007 872.029 225.007 859.028 233.008 848.028 241.008 842.028 249.008 847.028 256.008 834.027 264.009 820.027 272.009 809.026 279.009 801.026 287.009 792.026 295.01 781.026 302.01 776.026 310.01 757.025 318.01 747.025 326.011 737.024 333.011 730.024 341.011 719.024 349.011 705.023 356.012 695.023 364.012 685.022 372.012 683.022 380.012 681.022 387.013 694.023 395.013 732.024 403.013 778.026 410.013 795.026 418.014 799.026 426.014 795.026 433.014 791.026 441.014 773.025 449.015 757.025 457.015 745.024 464.015 746.024 472.015 730.024 480.016 701.023 487.016 685.022 495.016 668.022 503.016 653.021 510.017 655.021 518.017 647.021 526.017 636.021 534.018 633.021 541.018 620.02 549.018 602.02 557.018 590.019 564.018 569.019 572.019 552.018 580.019 545.018 587.019 544.018 595.02 539.018 603.02 534.018 611.02 538.018 618.02 537.018 626.021 530.017 634.021 518.017 641.021 511.017 649.021 503.017 657.022 493.016 664.022 485.016 672.022 464.015 680.022 440.014 688.023 429.014 695.023 424.014 703.023 415.014 711.023 409.013 718.024 391.013 726.024 382.013 734.024 386.013 741.024 404.013 749.025 480.016 757.025 442.014 765.025 418.014 772.025 397.013 780.026 376.012 788.026 380.012 795.026 372.012 803.026 341.011 811.027 323.011 819.027 304.01 826.027 289.009 834.027 276.009 842.028 250.008 849.028 247.008 857.028 237.008 865.028 224.007 872.029 214.007 880.029 202.007 888.029 211.007 896.029 183.006 903 166" stroke="#657D9D" stroke-width="10.3125" stroke-linecap="round" stroke-linejoin="round" stroke-miterlimit="10" fill="none"/></g><g><text font-family="Arial,Arial_MSFontService,sans-serif" font-weight="400" font-size="41" transform="matrix(1 0 0 1 40.1587 951)">80</text></g><g><text font-family="Arial,Arial_MSFontService,sans-serif" font-weight="400" font-size="41" transform="matrix(1 0 0 1 17.2189 849)">100</text></g><g><text font-family="Arial,Arial_MSFontService,sans-serif" font-weight="400" font-size="41" transform="matrix(1 0 0 1 17.2189 746)">120</text></g><g><text font-family="Arial,Arial_MSFontService,sans-serif" font-weight="400" font-size="41" transform="matrix(1 0 0 1 17.2189 644)">140</text></g><g><text font-family="Arial,Arial_MSFontService,sans-serif" font-weight="400" font-size="41" transform="matrix(1 0 0 1 17.2189 542)">160</text></g><g><text font-family="Arial,Arial_MSFontService,sans-serif" font-weight="400" font-size="41" transform="matrix(1 0 0 1 17.2189 440)">180</text></g><g><text font-family="Arial,Arial_MSFontService,sans-serif" font-weight="400" font-size="41" transform="matrix(1 0 0 1 17.2189 338)">200</text></g><g><text font-family="Arial,Arial_MSFontService,sans-serif" font-weight="400" font-size="41" transform="matrix(1 0 0 1 17.2189 235)">220</text></g><g><text font-family="Arial,Arial_MSFontService,sans-serif" font-weight="400" font-size="41" transform="matrix(1 0 0 1 17.2189 133)">240</text></g><g><text font-family="Arial,Arial_MSFontService,sans-serif" font-weight="400" font-size="41" transform="matrix(1 0 0 1 79.4847 1000)">2000</text></g><g><text font-family="Arial,Arial_MSFontService,sans-serif" font-weight="400" font-size="41" transform="matrix(1 0 0 1 233.524 1000)">2005</text></g><g><text font-family="Arial,Arial_MSFontService,sans-serif" font-weight="400" font-size="41" transform="matrix(1 0 0 1 387.563 1000)">2010</text></g><g><text font-family="Arial,Arial_MSFontService,sans-serif" font-weight="400" font-size="41" transform="matrix(1 0 0 1 541.602 1000)">2015</text></g><g><text font-family="Arial,Arial_MSFontService,sans-serif" font-weight="400" font-size="41" transform="matrix(1 0 0 1 695.642 1000)">2020</text></g><g><text font-family="Arial,Arial_MSFontService,sans-serif" font-weight="400" font-size="41" transform="matrix(1 0 0 1 849.681 1000)">2025</text></g><g><path d="M249 223 337 223" stroke="#C55A11" stroke-width="10.3125" stroke-linecap="round" stroke-linejoin="round" stroke-miterlimit="10" fill="none" fill-rule="evenodd"/></g><g><text font-family="Arial,Arial_MSFontService,sans-serif" font-weight="400" font-size="41" transform="matrix(1 0 0 1 345.822 236)">Canada</text></g><g><path d="M559 223 647 223" stroke="#657D9D" stroke-width="10.3125" stroke-linecap="round" stroke-linejoin="round" stroke-miterlimit="10" fill="none" fill-rule="evenodd"/></g><g><text font-family="Arial,Arial_MSFontService,sans-serif" font-weight="400" font-size="41" transform="matrix(1 0 0 1 656.604 236)">U.S.</text></g><g><text font-family="Arial,Arial_MSFontService,sans-serif" font-weight="400" font-size="37" transform="matrix(1 0 0 1 33 56)">index, </text></g><g><text font-family="Arial,Arial_MSFontService,sans-serif" font-weight="400" font-size="37" transform="matrix(1 0 0 1 141.052 56)">2000Q1</text></g><g><text font-family="Arial,Arial_MSFontService,sans-serif" font-weight="400" font-size="37" transform="matrix(1 0 0 1 281.76 56)">= 100</text></g></g></svg>