<svg id="my-svg" width="100%" xmlns="http://www.w3.org/2000/svg" xmlns:xlink="http://www.w3.org/1999/xlink" style="max-width: 700px; background-color: white;" viewBox="0 0 700 500" role="graphics-document document" aria-roledescription="xychart"><style>#my-svg{font-family:"trebuchet ms",verdana,arial,sans-serif;font-size:16px;fill:#333;}@keyframes edge-animation-frame{from{stroke-dashoffset:0;}}@keyframes dash{to{stroke-dashoffset:0;}}#my-svg .edge-animation-slow{stroke-dasharray:9,5!important;stroke-dashoffset:900;animation:dash 50s linear infinite;stroke-linecap:round;}#my-svg .edge-animation-fast{stroke-dasharray:9,5!important;stroke-dashoffset:900;animation:dash 20s linear infinite;stroke-linecap:round;}#my-svg .error-icon{fill:#552222;}#my-svg .error-text{fill:#552222;stroke:#552222;}#my-svg .edge-thickness-normal{stroke-width:1px;}#my-svg .edge-thickness-thick{stroke-width:3.5px;}#my-svg .edge-pattern-solid{stroke-dasharray:0;}#my-svg .edge-thickness-invisible{stroke-width:0;fill:none;}#my-svg .edge-pattern-dashed{stroke-dasharray:3;}#my-svg .edge-pattern-dotted{stroke-dasharray:2;}#my-svg .marker{fill:#333333;stroke:#333333;}#my-svg .marker.cross{stroke:#333333;}#my-svg svg{font-family:"trebuchet ms",verdana,arial,sans-serif;font-size:16px;}#my-svg p{margin:0;}#my-svg .node .neo-node{stroke:#9370DB;}#my-svg [data-look="neo"].node rect,#my-svg [data-look="neo"].cluster rect,#my-svg [data-look="neo"].node polygon{stroke:#9370DB;filter:drop-shadow(1px 2px 2px rgba(185, 185, 185, 1));}#my-svg [data-look="neo"].node path{stroke:#9370DB;stroke-width:1px;}#my-svg [data-look="neo"].node .outer-path{filter:drop-shadow(1px 2px 2px rgba(185, 185, 185, 1));}#my-svg [data-look="neo"].node .neo-line path{stroke:#9370DB;filter:none;}#my-svg [data-look="neo"].node circle{stroke:#9370DB;filter:drop-shadow(1px 2px 2px rgba(185, 185, 185, 1));}#my-svg [data-look="neo"].node circle .state-start{fill:#000000;}#my-svg [data-look="neo"].icon-shape .icon{fill:#9370DB;filter:drop-shadow(1px 2px 2px rgba(185, 185, 185, 1));}#my-svg [data-look="neo"].icon-shape .icon-neo path{stroke:#9370DB;filter:drop-shadow(1px 2px 2px rgba(185, 185, 185, 1));}#my-svg :root{--mermaid-font-family:"trebuchet ms",verdana,arial,sans-serif;}</style><g/><g class="main"><rect width="700" height="500" class="background" fill="white"/><g class="chart-title"><text x="0" y="0" fill="#131300" font-size="20" dominant-baseline="middle" text-anchor="middle" transform="translate(350, 21.5) rotate(0)">GC News — TYPE_EN per day (last 30 days)</text></g><g class="plot"><g class="bar-plot-0"><rect x="86.70025258858999" y="459" width="17.998912700017293" height="8" fill="#ECECFF" stroke="#ECECFF" stroke-width="0"/><rect x="106.29979454868142" y="396.2307692307692" width="17.998912700017293" height="70.76923076923077" fill="#ECECFF" stroke="#ECECFF" stroke-width="0"/><rect x="125.89933650877285" y="448.53846153846155" width="17.998912700017293" height="18.461538461538453" fill="#ECECFF" stroke="#ECECFF" stroke-width="0"/><rect x="145.49887846886426" y="417.1538461538462" width="17.998912700017293" height="49.84615384615381" fill="#ECECFF" stroke="#ECECFF" stroke-width="0"/><rect x="165.0984204289557" y="448.53846153846155" width="17.998912700017293" height="18.461538461538453" fill="#ECECFF" stroke="#ECECFF" stroke-width="0"/><rect x="184.69796238904712" y="448.53846153846155" width="17.998912700017293" height="18.461538461538453" fill="#ECECFF" stroke="#ECECFF" stroke-width="0"/><rect x="204.29750434913853" y="459" width="17.998912700017293" height="8" fill="#ECECFF" stroke="#ECECFF" stroke-width="0"/><rect x="223.89704630922998" y="459" width="17.998912700017293" height="8" fill="#ECECFF" stroke="#ECECFF" stroke-width="0"/><rect x="243.4965882693214" y="406.6923076923077" width="17.998912700017293" height="60.30769230769232" fill="#ECECFF" stroke="#ECECFF" stroke-width="0"/><rect x="263.09613022941284" y="438.0769230769231" width="17.998912700017293" height="28.923076923076906" fill="#ECECFF" stroke="#ECECFF" stroke-width="0"/><rect x="282.69567218950425" y="438.0769230769231" width="17.998912700017293" height="28.923076923076906" fill="#ECECFF" stroke="#ECECFF" stroke-width="0"/><rect x="302.29521414959567" y="438.0769230769231" width="17.998912700017293" height="28.923076923076906" fill="#ECECFF" stroke="#ECECFF" stroke-width="0"/><rect x="321.8947561096871" y="459" width="17.998912700017293" height="8" fill="#ECECFF" stroke="#ECECFF" stroke-width="0"/><rect x="341.4942980697785" y="459" width="17.998912700017293" height="8" fill="#ECECFF" stroke="#ECECFF" stroke-width="0"/><rect x="361.09384002986997" y="459" width="17.998912700017293" height="8" fill="#ECECFF" stroke="#ECECFF" stroke-width="0"/><rect x="380.6933819899614" y="459" width="17.998912700017293" height="8" fill="#ECECFF" stroke="#ECECFF" stroke-width="0"/><rect x="400.2929239500528" y="427.61538461538464" width="17.998912700017293" height="39.38461538461536" fill="#ECECFF" stroke="#ECECFF" stroke-width="0"/><rect x="419.8924659101442" y="438.0769230769231" width="17.998912700017293" height="28.923076923076906" fill="#ECECFF" stroke="#ECECFF" stroke-width="0"/><rect x="439.4920078702356" y="459" width="17.998912700017293" height="8" fill="#ECECFF" stroke="#ECECFF" stroke-width="0"/><rect x="459.0915498303271" y="427.61538461538464" width="17.998912700017293" height="39.38461538461536" fill="#ECECFF" stroke="#ECECFF" stroke-width="0"/><rect x="478.6910917904185" y="459" width="17.998912700017293" height="8" fill="#ECECFF" stroke="#ECECFF" stroke-width="0"/><rect x="498.2906337505099" y="459" width="17.998912700017293" height="8" fill="#ECECFF" stroke="#ECECFF" stroke-width="0"/><rect x="517.8901757106013" y="438.0769230769231" width="17.998912700017293" height="28.923076923076906" fill="#ECECFF" stroke="#ECECFF" stroke-width="0"/><rect x="537.4897176706927" y="427.61538461538464" width="17.998912700017293" height="39.38461538461536" fill="#ECECFF" stroke="#ECECFF" stroke-width="0"/><rect x="557.0892596307841" y="448.53846153846155" width="17.998912700017293" height="18.461538461538453" fill="#ECECFF" stroke="#ECECFF" stroke-width="0"/><rect x="576.6888015908756" y="438.0769230769231" width="17.998912700017293" height="28.923076923076906" fill="#ECECFF" stroke="#ECECFF" stroke-width="0"/><rect x="596.2883435509669" y="438.0769230769231" width="17.998912700017293" height="28.923076923076906" fill="#ECECFF" stroke="#ECECFF" stroke-width="0"/><rect x="615.8878855110585" y="459" width="17.998912700017293" height="8" fill="#ECECFF" stroke="#ECECFF" stroke-width="0"/><rect x="635.4874274711499" y="459" width="17.998912700017293" height="8" fill="#ECECFF" stroke="#ECECFF" stroke-width="0"/><rect x="655.0869694312413" y="427.61538461538464" width="17.998912700017293" height="39.38461538461536" fill="#ECECFF" stroke="#ECECFF" stroke-width="0"/></g><g class="bar-plot-1"><rect x="86.70025258858999" y="459" width="17.998912700017293" height="8" fill="#8493A6" stroke="#8493A6" stroke-width="0"/><rect x="106.29979454868142" y="354.3846153846154" width="17.998912700017293" height="112.61538461538458" fill="#8493A6" stroke="#8493A6" stroke-width="0"/><rect x="125.89933650877285" y="396.2307692307692" width="17.998912700017293" height="70.76923076923077" fill="#8493A6" stroke="#8493A6" stroke-width="0"/><rect x="145.49887846886426" y="375.3076923076923" width="17.998912700017293" height="91.69230769230768" fill="#8493A6" stroke="#8493A6" stroke-width="0"/><rect x="165.0984204289557" y="406.6923076923077" width="17.998912700017293" height="60.30769230769232" fill="#8493A6" stroke="#8493A6" stroke-width="0"/><rect x="184.69796238904712" y="406.6923076923077" width="17.998912700017293" height="60.30769230769232" fill="#8493A6" stroke="#8493A6" stroke-width="0"/><rect x="204.29750434913853" y="459" width="17.998912700017293" height="8" fill="#8493A6" stroke="#8493A6" stroke-width="0"/><rect x="223.89704630922998" y="417.1538461538462" width="17.998912700017293" height="49.84615384615381" fill="#8493A6" stroke="#8493A6" stroke-width="0"/><rect x="243.4965882693214" y="375.3076923076923" width="17.998912700017293" height="91.69230769230768" fill="#8493A6" stroke="#8493A6" stroke-width="0"/><rect x="263.09613022941284" y="396.2307692307692" width="17.998912700017293" height="70.76923076923077" fill="#8493A6" stroke="#8493A6" stroke-width="0"/><rect x="282.69567218950425" y="406.6923076923077" width="17.998912700017293" height="60.30769230769232" fill="#8493A6" stroke="#8493A6" stroke-width="0"/><rect x="302.29521414959567" y="302.0769230769231" width="17.998912700017293" height="164.9230769230769" fill="#8493A6" stroke="#8493A6" stroke-width="0"/><rect x="321.8947561096871" y="417.1538461538462" width="17.998912700017293" height="49.84615384615381" fill="#8493A6" stroke="#8493A6" stroke-width="0"/><rect x="341.4942980697785" y="459" width="17.998912700017293" height="8" fill="#8493A6" stroke="#8493A6" stroke-width="0"/><rect x="361.09384002986997" y="459" width="17.998912700017293" height="8" fill="#8493A6" stroke="#8493A6" stroke-width="0"/><rect x="380.6933819899614" y="438.0769230769231" width="17.998912700017293" height="28.923076923076906" fill="#8493A6" stroke="#8493A6" stroke-width="0"/><rect x="400.2929239500528" y="396.2307692307692" width="17.998912700017293" height="70.76923076923077" fill="#8493A6" stroke="#8493A6" stroke-width="0"/><rect x="419.8924659101442" y="364.8461538461538" width="17.998912700017293" height="102.15384615384619" fill="#8493A6" stroke="#8493A6" stroke-width="0"/><rect x="439.4920078702356" y="385.7692307692307" width="17.998912700017293" height="81.23076923076928" fill="#8493A6" stroke="#8493A6" stroke-width="0"/><rect x="459.0915498303271" y="364.8461538461538" width="17.998912700017293" height="102.15384615384619" fill="#8493A6" stroke="#8493A6" stroke-width="0"/><rect x="478.6910917904185" y="459" width="17.998912700017293" height="8" fill="#8493A6" stroke="#8493A6" stroke-width="0"/><rect x="498.2906337505099" y="459" width="17.998912700017293" height="8" fill="#8493A6" stroke="#8493A6" stroke-width="0"/><rect x="517.8901757106013" y="406.6923076923077" width="17.998912700017293" height="60.30769230769232" fill="#8493A6" stroke="#8493A6" stroke-width="0"/><rect x="537.4897176706927" y="417.1538461538462" width="17.998912700017293" height="49.84615384615381" fill="#8493A6" stroke="#8493A6" stroke-width="0"/><rect x="557.0892596307841" y="448.53846153846155" width="17.998912700017293" height="18.461538461538453" fill="#8493A6" stroke="#8493A6" stroke-width="0"/><rect x="576.6888015908756" y="375.3076923076923" width="17.998912700017293" height="91.69230769230768" fill="#8493A6" stroke="#8493A6" stroke-width="0"/><rect x="596.2883435509669" y="333.46153846153845" width="17.998912700017293" height="133.53846153846155" fill="#8493A6" stroke="#8493A6" stroke-width="0"/><rect x="615.8878855110585" y="459" width="17.998912700017293" height="8" fill="#8493A6" stroke="#8493A6" stroke-width="0"/><rect x="635.4874274711499" y="438.0769230769231" width="17.998912700017293" height="28.923076923076906" fill="#8493A6" stroke="#8493A6" stroke-width="0"/><rect x="655.0869694312413" y="291.6153846153846" width="17.998912700017293" height="175.38461538461542" fill="#8493A6" stroke="#8493A6" stroke-width="0"/></g><g class="bar-plot-2"><rect x="86.70025258858999" y="459" width="17.998912700017293" height="8" fill="#FFC3A0" stroke="#FFC3A0" stroke-width="0"/><rect x="106.29979454868142" y="281.15384615384613" width="17.998912700017293" height="185.84615384615387" fill="#FFC3A0" stroke="#FFC3A0" stroke-width="0"/><rect x="125.89933650877285" y="323.00000000000006" width="17.998912700017293" height="143.99999999999994" fill="#FFC3A0" stroke="#FFC3A0" stroke-width="0"/><rect x="145.49887846886426" y="260.2307692307692" width="17.998912700017293" height="206.76923076923077" fill="#FFC3A0" stroke="#FFC3A0" stroke-width="0"/><rect x="165.0984204289557" y="260.2307692307692" width="17.998912700017293" height="206.76923076923077" fill="#FFC3A0" stroke="#FFC3A0" stroke-width="0"/><rect x="184.69796238904712" y="207.9230769230769" width="17.998912700017293" height="259.0769230769231" fill="#FFC3A0" stroke="#FFC3A0" stroke-width="0"/><rect x="204.29750434913853" y="438.0769230769231" width="17.998912700017293" height="28.923076923076906" fill="#FFC3A0" stroke="#FFC3A0" stroke-width="0"/><rect x="223.89704630922998" y="417.1538461538462" width="17.998912700017293" height="49.84615384615381" fill="#FFC3A0" stroke="#FFC3A0" stroke-width="0"/><rect x="243.4965882693214" y="249.7692307692308" width="17.998912700017293" height="217.2307692307692" fill="#FFC3A0" stroke="#FFC3A0" stroke-width="0"/><rect x="263.09613022941284" y="291.6153846153846" width="17.998912700017293" height="175.38461538461542" fill="#FFC3A0" stroke="#FFC3A0" stroke-width="0"/><rect x="282.69567218950425" y="323.00000000000006" width="17.998912700017293" height="143.99999999999994" fill="#FFC3A0" stroke="#FFC3A0" stroke-width="0"/><rect x="302.29521414959567" y="187.00000000000003" width="17.998912700017293" height="280" fill="#FFC3A0" stroke="#FFC3A0" stroke-width="0"/><rect x="321.8947561096871" y="166.07692307692307" width="17.998912700017293" height="300.9230769230769" fill="#FFC3A0" stroke="#FFC3A0" stroke-width="0"/><rect x="341.4942980697785" y="459" width="17.998912700017293" height="8" fill="#FFC3A0" stroke="#FFC3A0" stroke-width="0"/><rect x="361.09384002986997" y="459" width="17.998912700017293" height="8" fill="#FFC3A0" stroke="#FFC3A0" stroke-width="0"/><rect x="380.6933819899614" y="281.15384615384613" width="17.998912700017293" height="185.84615384615387" fill="#FFC3A0" stroke="#FFC3A0" stroke-width="0"/><rect x="400.2929239500528" y="291.6153846153846" width="17.998912700017293" height="175.38461538461542" fill="#FFC3A0" stroke="#FFC3A0" stroke-width="0"/><rect x="419.8924659101442" y="270.6923076923077" width="17.998912700017293" height="196.30769230769232" fill="#FFC3A0" stroke="#FFC3A0" stroke-width="0"/><rect x="439.4920078702356" y="260.2307692307692" width="17.998912700017293" height="206.76923076923077" fill="#FFC3A0" stroke="#FFC3A0" stroke-width="0"/><rect x="459.0915498303271" y="207.9230769230769" width="17.998912700017293" height="259.0769230769231" fill="#FFC3A0" stroke="#FFC3A0" stroke-width="0"/><rect x="478.6910917904185" y="459" width="17.998912700017293" height="8" fill="#FFC3A0" stroke="#FFC3A0" stroke-width="0"/><rect x="498.2906337505099" y="459" width="17.998912700017293" height="8" fill="#FFC3A0" stroke="#FFC3A0" stroke-width="0"/><rect x="517.8901757106013" y="333.46153846153845" width="17.998912700017293" height="133.53846153846155" fill="#FFC3A0" stroke="#FFC3A0" stroke-width="0"/><rect x="537.4897176706927" y="260.2307692307692" width="17.998912700017293" height="206.76923076923077" fill="#FFC3A0" stroke="#FFC3A0" stroke-width="0"/><rect x="557.0892596307841" y="396.2307692307692" width="17.998912700017293" height="70.76923076923077" fill="#FFC3A0" stroke="#FFC3A0" stroke-width="0"/><rect x="576.6888015908756" y="260.2307692307692" width="17.998912700017293" height="206.76923076923077" fill="#FFC3A0" stroke="#FFC3A0" stroke-width="0"/><rect x="596.2883435509669" y="124.23076923076925" width="17.998912700017293" height="342.7692307692307" fill="#FFC3A0" stroke="#FFC3A0" stroke-width="0"/><rect x="615.8878855110585" y="438.0769230769231" width="17.998912700017293" height="28.923076923076906" fill="#FFC3A0" stroke="#FFC3A0" stroke-width="0"/><rect x="635.4874274711499" y="417.1538461538462" width="17.998912700017293" height="49.84615384615381" fill="#FFC3A0" stroke="#FFC3A0" stroke-width="0"/><rect x="655.0869694312413" y="71.92307692307693" width="17.998912700017293" height="395.0769230769231" fill="#FFC3A0" stroke="#FFC3A0" stroke-width="0"/></g><g class="bar-plot-3"><rect x="86.70025258858999" y="459" width="17.998912700017293" height="8" fill="#DCDDE1" stroke="#DCDDE1" stroke-width="0"/><rect x="106.29979454868142" y="270.6923076923077" width="17.998912700017293" height="196.30769230769232" fill="#DCDDE1" stroke="#DCDDE1" stroke-width="0"/><rect x="125.89933650877285" y="291.6153846153846" width="17.998912700017293" height="175.38461538461542" fill="#DCDDE1" stroke="#DCDDE1" stroke-width="0"/><rect x="145.49887846886426" y="249.7692307692308" width="17.998912700017293" height="217.2307692307692" fill="#DCDDE1" stroke="#DCDDE1" stroke-width="0"/><rect x="165.0984204289557" y="260.2307692307692" width="17.998912700017293" height="206.76923076923077" fill="#DCDDE1" stroke="#DCDDE1" stroke-width="0"/><rect x="184.69796238904712" y="197.46153846153845" width="17.998912700017293" height="269.53846153846155" fill="#DCDDE1" stroke="#DCDDE1" stroke-width="0"/><rect x="204.29750434913853" y="438.0769230769231" width="17.998912700017293" height="28.923076923076906" fill="#DCDDE1" stroke="#DCDDE1" stroke-width="0"/><rect x="223.89704630922998" y="417.1538461538462" width="17.998912700017293" height="49.84615384615381" fill="#DCDDE1" stroke="#DCDDE1" stroke-width="0"/><rect x="243.4965882693214" y="239.30769230769232" width="17.998912700017293" height="227.69230769230768" fill="#DCDDE1" stroke="#DCDDE1" stroke-width="0"/><rect x="263.09613022941284" y="281.15384615384613" width="17.998912700017293" height="185.84615384615387" fill="#DCDDE1" stroke="#DCDDE1" stroke-width="0"/><rect x="282.69567218950425" y="312.53846153846155" width="17.998912700017293" height="154.46153846153845" fill="#DCDDE1" stroke="#DCDDE1" stroke-width="0"/><rect x="302.29521414959567" y="176.53846153846155" width="17.998912700017293" height="290.46153846153845" fill="#DCDDE1" stroke="#DCDDE1" stroke-width="0"/><rect x="321.8947561096871" y="155.6153846153846" width="17.998912700017293" height="311.38461538461536" fill="#DCDDE1" stroke="#DCDDE1" stroke-width="0"/><rect x="341.4942980697785" y="459" width="17.998912700017293" height="8" fill="#DCDDE1" stroke="#DCDDE1" stroke-width="0"/><rect x="361.09384002986997" y="459" width="17.998912700017293" height="8" fill="#DCDDE1" stroke="#DCDDE1" stroke-width="0"/><rect x="380.6933819899614" y="281.15384615384613" width="17.998912700017293" height="185.84615384615387" fill="#DCDDE1" stroke="#DCDDE1" stroke-width="0"/><rect x="400.2929239500528" y="291.6153846153846" width="17.998912700017293" height="175.38461538461542" fill="#DCDDE1" stroke="#DCDDE1" stroke-width="0"/><rect x="419.8924659101442" y="249.7692307692308" width="17.998912700017293" height="217.2307692307692" fill="#DCDDE1" stroke="#DCDDE1" stroke-width="0"/><rect x="439.4920078702356" y="249.7692307692308" width="17.998912700017293" height="217.2307692307692" fill="#DCDDE1" stroke="#DCDDE1" stroke-width="0"/><rect x="459.0915498303271" y="207.9230769230769" width="17.998912700017293" height="259.0769230769231" fill="#DCDDE1" stroke="#DCDDE1" stroke-width="0"/><rect x="478.6910917904185" y="459" width="17.998912700017293" height="8" fill="#DCDDE1" stroke="#DCDDE1" stroke-width="0"/><rect x="498.2906337505099" y="459" width="17.998912700017293" height="8" fill="#DCDDE1" stroke="#DCDDE1" stroke-width="0"/><rect x="517.8901757106013" y="333.46153846153845" width="17.998912700017293" height="133.53846153846155" fill="#DCDDE1" stroke="#DCDDE1" stroke-width="0"/><rect x="537.4897176706927" y="260.2307692307692" width="17.998912700017293" height="206.76923076923077" fill="#DCDDE1" stroke="#DCDDE1" stroke-width="0"/><rect x="557.0892596307841" y="396.2307692307692" width="17.998912700017293" height="70.76923076923077" fill="#DCDDE1" stroke="#DCDDE1" stroke-width="0"/><rect x="576.6888015908756" y="260.2307692307692" width="17.998912700017293" height="206.76923076923077" fill="#DCDDE1" stroke="#DCDDE1" stroke-width="0"/><rect x="596.2883435509669" y="124.23076923076925" width="17.998912700017293" height="342.7692307692307" fill="#DCDDE1" stroke="#DCDDE1" stroke-width="0"/><rect x="615.8878855110585" y="438.0769230769231" width="17.998912700017293" height="28.923076923076906" fill="#DCDDE1" stroke="#DCDDE1" stroke-width="0"/><rect x="635.4874274711499" y="417.1538461538462" width="17.998912700017293" height="49.84615384615381" fill="#DCDDE1" stroke="#DCDDE1" stroke-width="0"/><rect x="655.0869694312413" y="51" width="17.998912700017293" height="416" fill="#DCDDE1" stroke="#DCDDE1" stroke-width="0"/></g><g class="bar-plot-4"><rect x="86.70025258858999" y="459" width="17.998912700017293" height="8" fill="#B8E994" stroke="#B8E994" stroke-width="0"/><rect x="106.29979454868142" y="260.2307692307692" width="17.998912700017293" height="206.76923076923077" fill="#B8E994" stroke="#B8E994" stroke-width="0"/><rect x="125.89933650877285" y="291.6153846153846" width="17.998912700017293" height="175.38461538461542" fill="#B8E994" stroke="#B8E994" stroke-width="0"/><rect x="145.49887846886426" y="249.7692307692308" width="17.998912700017293" height="217.2307692307692" fill="#B8E994" stroke="#B8E994" stroke-width="0"/><rect x="165.0984204289557" y="260.2307692307692" width="17.998912700017293" height="206.76923076923077" fill="#B8E994" stroke="#B8E994" stroke-width="0"/><rect x="184.69796238904712" y="187.00000000000003" width="17.998912700017293" height="280" fill="#B8E994" stroke="#B8E994" stroke-width="0"/><rect x="204.29750434913853" y="438.0769230769231" width="17.998912700017293" height="28.923076923076906" fill="#B8E994" stroke="#B8E994" stroke-width="0"/><rect x="223.89704630922998" y="417.1538461538462" width="17.998912700017293" height="49.84615384615381" fill="#B8E994" stroke="#B8E994" stroke-width="0"/><rect x="243.4965882693214" y="239.30769230769232" width="17.998912700017293" height="227.69230769230768" fill="#B8E994" stroke="#B8E994" stroke-width="0"/><rect x="263.09613022941284" y="270.6923076923077" width="17.998912700017293" height="196.30769230769232" fill="#B8E994" stroke="#B8E994" stroke-width="0"/><rect x="282.69567218950425" y="312.53846153846155" width="17.998912700017293" height="154.46153846153845" fill="#B8E994" stroke="#B8E994" stroke-width="0"/><rect x="302.29521414959567" y="166.07692307692307" width="17.998912700017293" height="300.9230769230769" fill="#B8E994" stroke="#B8E994" stroke-width="0"/><rect x="321.8947561096871" y="155.6153846153846" width="17.998912700017293" height="311.38461538461536" fill="#B8E994" stroke="#B8E994" stroke-width="0"/><rect x="341.4942980697785" y="459" width="17.998912700017293" height="8" fill="#B8E994" stroke="#B8E994" stroke-width="0"/><rect x="361.09384002986997" y="459" width="17.998912700017293" height="8" fill="#B8E994" stroke="#B8E994" stroke-width="0"/><rect x="380.6933819899614" y="270.6923076923077" width="17.998912700017293" height="196.30769230769232" fill="#B8E994" stroke="#B8E994" stroke-width="0"/><rect x="400.2929239500528" y="291.6153846153846" width="17.998912700017293" height="175.38461538461542" fill="#B8E994" stroke="#B8E994" stroke-width="0"/><rect x="419.8924659101442" y="249.7692307692308" width="17.998912700017293" height="217.2307692307692" fill="#B8E994" stroke="#B8E994" stroke-width="0"/><rect x="439.4920078702356" y="249.7692307692308" width="17.998912700017293" height="217.2307692307692" fill="#B8E994" stroke="#B8E994" stroke-width="0"/><rect x="459.0915498303271" y="207.9230769230769" width="17.998912700017293" height="259.0769230769231" fill="#B8E994" stroke="#B8E994" stroke-width="0"/><rect x="478.6910917904185" y="459" width="17.998912700017293" height="8" fill="#B8E994" stroke="#B8E994" stroke-width="0"/><rect x="498.2906337505099" y="459" width="17.998912700017293" height="8" fill="#B8E994" stroke="#B8E994" stroke-width="0"/><rect x="517.8901757106013" y="312.53846153846155" width="17.998912700017293" height="154.46153846153845" fill="#B8E994" stroke="#B8E994" stroke-width="0"/><rect x="537.4897176706927" y="249.7692307692308" width="17.998912700017293" height="217.2307692307692" fill="#B8E994" stroke="#B8E994" stroke-width="0"/><rect x="557.0892596307841" y="396.2307692307692" width="17.998912700017293" height="70.76923076923077" fill="#B8E994" stroke="#B8E994" stroke-width="0"/><rect x="576.6888015908756" y="260.2307692307692" width="17.998912700017293" height="206.76923076923077" fill="#B8E994" stroke="#B8E994" stroke-width="0"/><rect x="596.2883435509669" y="124.23076923076925" width="17.998912700017293" height="342.7692307692307" fill="#B8E994" stroke="#B8E994" stroke-width="0"/><rect x="615.8878855110585" y="438.0769230769231" width="17.998912700017293" height="28.923076923076906" fill="#B8E994" stroke="#B8E994" stroke-width="0"/><rect x="635.4874274711499" y="417.1538461538462" width="17.998912700017293" height="49.84615384615381" fill="#B8E994" stroke="#B8E994" stroke-width="0"/><rect x="655.0869694312413" y="51" width="17.998912700017293" height="416" fill="#B8E994" stroke="#B8E994" stroke-width="0"/></g><g class="bar-plot-5"><rect x="86.70025258858999" y="459" width="17.998912700017293" height="8" fill="#D1A36F" stroke="#D1A36F" stroke-width="0"/><rect x="106.29979454868142" y="249.7692307692308" width="17.998912700017293" height="217.2307692307692" fill="#D1A36F" stroke="#D1A36F" stroke-width="0"/><rect x="125.89933650877285" y="281.15384615384613" width="17.998912700017293" height="185.84615384615387" fill="#D1A36F" stroke="#D1A36F" stroke-width="0"/><rect x="145.49887846886426" y="228.84615384615384" width="17.998912700017293" height="238.15384615384616" fill="#D1A36F" stroke="#D1A36F" stroke-width="0"/><rect x="165.0984204289557" y="239.30769230769232" width="17.998912700017293" height="227.69230769230768" fill="#D1A36F" stroke="#D1A36F" stroke-width="0"/><rect x="184.69796238904712" y="134.6923076923077" width="17.998912700017293" height="332.30769230769226" fill="#D1A36F" stroke="#D1A36F" stroke-width="0"/><rect x="204.29750434913853" y="427.61538461538464" width="17.998912700017293" height="39.38461538461536" fill="#D1A36F" stroke="#D1A36F" stroke-width="0"/><rect x="223.89704630922998" y="417.1538461538462" width="17.998912700017293" height="49.84615384615381" fill="#D1A36F" stroke="#D1A36F" stroke-width="0"/><rect x="243.4965882693214" y="176.53846153846155" width="17.998912700017293" height="290.46153846153845" fill="#D1A36F" stroke="#D1A36F" stroke-width="0"/><rect x="263.09613022941284" y="260.2307692307692" width="17.998912700017293" height="206.76923076923077" fill="#D1A36F" stroke="#D1A36F" stroke-width="0"/><rect x="282.69567218950425" y="281.15384615384613" width="17.998912700017293" height="185.84615384615387" fill="#D1A36F" stroke="#D1A36F" stroke-width="0"/><rect x="302.29521414959567" y="166.07692307692307" width="17.998912700017293" height="300.9230769230769" fill="#D1A36F" stroke="#D1A36F" stroke-width="0"/><rect x="321.8947561096871" y="124.23076923076925" width="17.998912700017293" height="342.7692307692307" fill="#D1A36F" stroke="#D1A36F" stroke-width="0"/><rect x="341.4942980697785" y="459" width="17.998912700017293" height="8" fill="#D1A36F" stroke="#D1A36F" stroke-width="0"/><rect x="361.09384002986997" y="448.53846153846155" width="17.998912700017293" height="18.461538461538453" fill="#D1A36F" stroke="#D1A36F" stroke-width="0"/><rect x="380.6933819899614" y="249.7692307692308" width="17.998912700017293" height="217.2307692307692" fill="#D1A36F" stroke="#D1A36F" stroke-width="0"/><rect x="400.2929239500528" y="281.15384615384613" width="17.998912700017293" height="185.84615384615387" fill="#D1A36F" stroke="#D1A36F" stroke-width="0"/><rect x="419.8924659101442" y="239.30769230769232" width="17.998912700017293" height="227.69230769230768" fill="#D1A36F" stroke="#D1A36F" stroke-width="0"/><rect x="439.4920078702356" y="239.30769230769232" width="17.998912700017293" height="227.69230769230768" fill="#D1A36F" stroke="#D1A36F" stroke-width="0"/><rect x="459.0915498303271" y="187.00000000000003" width="17.998912700017293" height="280" fill="#D1A36F" stroke="#D1A36F" stroke-width="0"/><rect x="478.6910917904185" y="459" width="17.998912700017293" height="8" fill="#D1A36F" stroke="#D1A36F" stroke-width="0"/><rect x="498.2906337505099" y="459" width="17.998912700017293" height="8" fill="#D1A36F" stroke="#D1A36F" stroke-width="0"/><rect x="517.8901757106013" y="291.6153846153846" width="17.998912700017293" height="175.38461538461542" fill="#D1A36F" stroke="#D1A36F" stroke-width="0"/><rect x="537.4897176706927" y="249.7692307692308" width="17.998912700017293" height="217.2307692307692" fill="#D1A36F" stroke="#D1A36F" stroke-width="0"/><rect x="557.0892596307841" y="385.7692307692307" width="17.998912700017293" height="81.23076923076928" fill="#D1A36F" stroke="#D1A36F" stroke-width="0"/><rect x="576.6888015908756" y="260.2307692307692" width="17.998912700017293" height="206.76923076923077" fill="#D1A36F" stroke="#D1A36F" stroke-width="0"/><rect x="596.2883435509669" y="113.76923076923077" width="17.998912700017293" height="353.2307692307692" fill="#D1A36F" stroke="#D1A36F" stroke-width="0"/><rect x="615.8878855110585" y="427.61538461538464" width="17.998912700017293" height="39.38461538461536" fill="#D1A36F" stroke="#D1A36F" stroke-width="0"/><rect x="635.4874274711499" y="406.6923076923077" width="17.998912700017293" height="60.30769230769232" fill="#D1A36F" stroke="#D1A36F" stroke-width="0"/><rect x="655.0869694312413" y="51" width="17.998912700017293" height="416" fill="#D1A36F" stroke="#D1A36F" stroke-width="0"/></g></g><g class="bottom-axis"><g class="axis-line"><path d="M 59.78613471984863,468 L 700,468" fill="none" stroke="#131300" stroke-width="2"/></g><g class="label"><text x="0" y="0" fill="#131300" font-size="14" dominant-baseline="text-before-edge" text-anchor="middle" transform="translate(95.69970893859863, 479) rotate(0)">2026-05-24</text><text x="0" y="0" fill="#131300" font-size="14" dominant-baseline="text-before-edge" text-anchor="middle" transform="translate(115.29925089869006, 479) rotate(0)">2026-05-25</text><text x="0" y="0" fill="#131300" font-size="14" dominant-baseline="text-before-edge" text-anchor="middle" transform="translate(134.8987928587815, 479) rotate(0)">2026-05-26</text><text x="0" y="0" fill="#131300" font-size="14" dominant-baseline="text-before-edge" text-anchor="middle" transform="translate(154.4983348188729, 479) rotate(0)">2026-05-27</text><text x="0" y="0" fill="#131300" font-size="14" dominant-baseline="text-before-edge" text-anchor="middle" transform="translate(174.09787677896435, 479) rotate(0)">2026-05-28</text><text x="0" y="0" fill="#131300" font-size="14" dominant-baseline="text-before-edge" text-anchor="middle" transform="translate(193.69741873905576, 479) rotate(0)">2026-05-29</text><text x="0" y="0" fill="#131300" font-size="14" dominant-baseline="text-before-edge" text-anchor="middle" transform="translate(213.29696069914718, 479) rotate(0)">2026-05-30</text><text x="0" y="0" fill="#131300" font-size="14" dominant-baseline="text-before-edge" text-anchor="middle" transform="translate(232.89650265923862, 479) rotate(0)">2026-05-31</text><text x="0" y="0" fill="#131300" font-size="14" dominant-baseline="text-before-edge" text-anchor="middle" transform="translate(252.49604461933004, 479) rotate(0)">2026-06-01</text><text x="0" y="0" fill="#131300" font-size="14" dominant-baseline="text-before-edge" text-anchor="middle" transform="translate(272.0955865794215, 479) rotate(0)">2026-06-02</text><text x="0" y="0" fill="#131300" font-size="14" dominant-baseline="text-before-edge" text-anchor="middle" transform="translate(291.6951285395129, 479) rotate(0)">2026-06-03</text><text x="0" y="0" fill="#131300" font-size="14" dominant-baseline="text-before-edge" text-anchor="middle" transform="translate(311.2946704996043, 479) rotate(0)">2026-06-04</text><text x="0" y="0" fill="#131300" font-size="14" dominant-baseline="text-before-edge" text-anchor="middle" transform="translate(330.8942124596957, 479) rotate(0)">2026-06-05</text><text x="0" y="0" fill="#131300" font-size="14" dominant-baseline="text-before-edge" text-anchor="middle" transform="translate(350.49375441978714, 479) rotate(0)">2026-06-06</text><text x="0" y="0" fill="#131300" font-size="14" dominant-baseline="text-before-edge" text-anchor="middle" transform="translate(370.0932963798786, 479) rotate(0)">2026-06-07</text><text x="0" y="0" fill="#131300" font-size="14" dominant-baseline="text-before-edge" text-anchor="middle" transform="translate(389.69283833997, 479) rotate(0)">2026-06-08</text><text x="0" y="0" fill="#131300" font-size="14" dominant-baseline="text-before-edge" text-anchor="middle" transform="translate(409.29238030006144, 479) rotate(0)">2026-06-09</text><text x="0" y="0" fill="#131300" font-size="14" dominant-baseline="text-before-edge" text-anchor="middle" transform="translate(428.89192226015285, 479) rotate(0)">2026-06-10</text><text x="0" y="0" fill="#131300" font-size="14" dominant-baseline="text-before-edge" text-anchor="middle" transform="translate(448.49146422024427, 479) rotate(0)">2026-06-11</text><text x="0" y="0" fill="#131300" font-size="14" dominant-baseline="text-before-edge" text-anchor="middle" transform="translate(468.09100618033574, 479) rotate(0)">2026-06-12</text><text x="0" y="0" fill="#131300" font-size="14" dominant-baseline="text-before-edge" text-anchor="middle" transform="translate(487.69054814042715, 479) rotate(0)">2026-06-13</text><text x="0" y="0" fill="#131300" font-size="14" dominant-baseline="text-before-edge" text-anchor="middle" transform="translate(507.29009010051857, 479) rotate(0)">2026-06-14</text><text x="0" y="0" fill="#131300" font-size="14" dominant-baseline="text-before-edge" text-anchor="middle" transform="translate(526.88963206061, 479) rotate(0)">2026-06-15</text><text x="0" y="0" fill="#131300" font-size="14" dominant-baseline="text-before-edge" text-anchor="middle" transform="translate(546.4891740207014, 479) rotate(0)">2026-06-16</text><text x="0" y="0" fill="#131300" font-size="14" dominant-baseline="text-before-edge" text-anchor="middle" transform="translate(566.0887159807928, 479) rotate(0)">2026-06-17</text><text x="0" y="0" fill="#131300" font-size="14" dominant-baseline="text-before-edge" text-anchor="middle" transform="translate(585.6882579408843, 479) rotate(0)">2026-06-18</text><text x="0" y="0" fill="#131300" font-size="14" dominant-baseline="text-before-edge" text-anchor="middle" transform="translate(605.2877999009756, 479) rotate(0)">2026-06-19</text><text x="0" y="0" fill="#131300" font-size="14" dominant-baseline="text-before-edge" text-anchor="middle" transform="translate(624.8873418610672, 479) rotate(0)">2026-06-20</text><text x="0" y="0" fill="#131300" font-size="14" dominant-baseline="text-before-edge" text-anchor="middle" transform="translate(644.4868838211586, 479) rotate(0)">2026-06-21</text><text x="0" y="0" fill="#131300" font-size="14" dominant-baseline="text-before-edge" text-anchor="middle" transform="translate(664.08642578125, 479) rotate(0)">2026-06-22</text></g><g class="ticks"><path d="M 95.69970893859863,469 L 95.69970893859863,474" fill="none" stroke="#131300" stroke-width="2"/><path d="M 115.29925089869006,469 L 115.29925089869006,474" fill="none" stroke="#131300" stroke-width="2"/><path d="M 134.8987928587815,469 L 134.8987928587815,474" fill="none" stroke="#131300" stroke-width="2"/><path d="M 154.4983348188729,469 L 154.4983348188729,474" fill="none" stroke="#131300" stroke-width="2"/><path d="M 174.09787677896435,469 L 174.09787677896435,474" fill="none" stroke="#131300" stroke-width="2"/><path d="M 193.69741873905576,469 L 193.69741873905576,474" fill="none" stroke="#131300" stroke-width="2"/><path d="M 213.29696069914718,469 L 213.29696069914718,474" fill="none" stroke="#131300" stroke-width="2"/><path d="M 232.89650265923862,469 L 232.89650265923862,474" fill="none" stroke="#131300" stroke-width="2"/><path d="M 252.49604461933004,469 L 252.49604461933004,474" fill="none" stroke="#131300" stroke-width="2"/><path d="M 272.0955865794215,469 L 272.0955865794215,474" fill="none" stroke="#131300" stroke-width="2"/><path d="M 291.6951285395129,469 L 291.6951285395129,474" fill="none" stroke="#131300" stroke-width="2"/><path d="M 311.2946704996043,469 L 311.2946704996043,474" fill="none" stroke="#131300" stroke-width="2"/><path d="M 330.8942124596957,469 L 330.8942124596957,474" fill="none" stroke="#131300" stroke-width="2"/><path d="M 350.49375441978714,469 L 350.49375441978714,474" fill="none" stroke="#131300" stroke-width="2"/><path d="M 370.0932963798786,469 L 370.0932963798786,474" fill="none" stroke="#131300" stroke-width="2"/><path d="M 389.69283833997,469 L 389.69283833997,474" fill="none" stroke="#131300" stroke-width="2"/><path d="M 409.29238030006144,469 L 409.29238030006144,474" fill="none" stroke="#131300" stroke-width="2"/><path d="M 428.89192226015285,469 L 428.89192226015285,474" fill="none" stroke="#131300" stroke-width="2"/><path d="M 448.49146422024427,469 L 448.49146422024427,474" fill="none" stroke="#131300" stroke-width="2"/><path d="M 468.09100618033574,469 L 468.09100618033574,474" fill="none" stroke="#131300" stroke-width="2"/><path d="M 487.69054814042715,469 L 487.69054814042715,474" fill="none" stroke="#131300" stroke-width="2"/><path d="M 507.29009010051857,469 L 507.29009010051857,474" fill="none" stroke="#131300" stroke-width="2"/><path d="M 526.88963206061,469 L 526.88963206061,474" fill="none" stroke="#131300" stroke-width="2"/><path d="M 546.4891740207014,469 L 546.4891740207014,474" fill="none" stroke="#131300" stroke-width="2"/><path d="M 566.0887159807928,469 L 566.0887159807928,474" fill="none" stroke="#131300" stroke-width="2"/><path d="M 585.6882579408843,469 L 585.6882579408843,474" fill="none" stroke="#131300" stroke-width="2"/><path d="M 605.2877999009756,469 L 605.2877999009756,474" fill="none" stroke="#131300" stroke-width="2"/><path d="M 624.8873418610672,469 L 624.8873418610672,474" fill="none" stroke="#131300" stroke-width="2"/><path d="M 644.4868838211586,469 L 644.4868838211586,474" fill="none" stroke="#131300" stroke-width="2"/><path d="M 664.08642578125,469 L 664.08642578125,474" fill="none" stroke="#131300" stroke-width="2"/></g></g><g class="left-axis"><g class="axisl-line"><path d="M 58.78613471984863,43 L 58.78613471984863,467" fill="none" stroke="#131300" stroke-width="2"/></g><g class="label"><text x="0" y="0" fill="#131300" font-size="14" dominant-baseline="middle" text-anchor="end" transform="translate(47.78613471984863, 92.84615384615384) rotate(0)">35</text><text x="0" y="0" fill="#131300" font-size="14" dominant-baseline="middle" text-anchor="end" transform="translate(47.78613471984863, 145.15384615384613) rotate(0)">30</text><text x="0" y="0" fill="#131300" font-size="14" dominant-baseline="middle" text-anchor="end" transform="translate(47.78613471984863, 197.46153846153845) rotate(0)">25</text><text x="0" y="0" fill="#131300" font-size="14" dominant-baseline="middle" text-anchor="end" transform="translate(47.78613471984863, 249.7692307692308) rotate(0)">20</text><text x="0" y="0" fill="#131300" font-size="14" dominant-baseline="middle" text-anchor="end" transform="translate(47.78613471984863, 302.0769230769231) rotate(0)">15</text><text x="0" y="0" fill="#131300" font-size="14" dominant-baseline="middle" text-anchor="end" transform="translate(47.78613471984863, 354.3846153846154) rotate(0)">10</text><text x="0" y="0" fill="#131300" font-size="14" dominant-baseline="middle" text-anchor="end" transform="translate(47.78613471984863, 406.6923076923077) rotate(0)">5</text><text x="0" y="0" fill="#131300" font-size="14" dominant-baseline="middle" text-anchor="end" transform="translate(47.78613471984863, 459) rotate(0)">0</text></g><g class="ticks"><path d="M 57.78613471984863,92.84615384615384 L 52.78613471984863,92.84615384615384" fill="none" stroke="#131300" stroke-width="2"/><path d="M 57.78613471984863,145.15384615384613 L 52.78613471984863,145.15384615384613" fill="none" stroke="#131300" stroke-width="2"/><path d="M 57.78613471984863,197.46153846153845 L 52.78613471984863,197.46153846153845" fill="none" stroke="#131300" stroke-width="2"/><path d="M 57.78613471984863,249.7692307692308 L 52.78613471984863,249.7692307692308" fill="none" stroke="#131300" stroke-width="2"/><path d="M 57.78613471984863,302.0769230769231 L 52.78613471984863,302.0769230769231" fill="none" stroke="#131300" stroke-width="2"/><path d="M 57.78613471984863,354.3846153846154 L 52.78613471984863,354.3846153846154" fill="none" stroke="#131300" stroke-width="2"/><path d="M 57.78613471984863,406.6923076923077 L 52.78613471984863,406.6923076923077" fill="none" stroke="#131300" stroke-width="2"/><path d="M 57.78613471984863,459 L 52.78613471984863,459" fill="none" stroke="#131300" stroke-width="2"/></g><g class="title"><text x="0" y="0" fill="#131300" font-size="16" dominant-baseline="text-before-edge" text-anchor="middle" transform="translate(5, 255) rotate(270)">Count</text></g></g></g><g class="mermaid-tmp-group"/></svg>