<svg id="my-svg" width="100%" xmlns="http://www.w3.org/2000/svg" xmlns:xlink="http://www.w3.org/1999/xlink" style="max-width: 700px; background-color: white;" viewBox="0 0 700 500" role="graphics-document document" aria-roledescription="xychart"><style>#my-svg{font-family:"trebuchet ms",verdana,arial,sans-serif;font-size:16px;fill:#333;}@keyframes edge-animation-frame{from{stroke-dashoffset:0;}}@keyframes dash{to{stroke-dashoffset:0;}}#my-svg .edge-animation-slow{stroke-dasharray:9,5!important;stroke-dashoffset:900;animation:dash 50s linear infinite;stroke-linecap:round;}#my-svg .edge-animation-fast{stroke-dasharray:9,5!important;stroke-dashoffset:900;animation:dash 20s linear infinite;stroke-linecap:round;}#my-svg .error-icon{fill:#552222;}#my-svg .error-text{fill:#552222;stroke:#552222;}#my-svg .edge-thickness-normal{stroke-width:1px;}#my-svg .edge-thickness-thick{stroke-width:3.5px;}#my-svg .edge-pattern-solid{stroke-dasharray:0;}#my-svg .edge-thickness-invisible{stroke-width:0;fill:none;}#my-svg .edge-pattern-dashed{stroke-dasharray:3;}#my-svg .edge-pattern-dotted{stroke-dasharray:2;}#my-svg .marker{fill:#333333;stroke:#333333;}#my-svg .marker.cross{stroke:#333333;}#my-svg svg{font-family:"trebuchet ms",verdana,arial,sans-serif;font-size:16px;}#my-svg p{margin:0;}#my-svg :root{--mermaid-font-family:"trebuchet ms",verdana,arial,sans-serif;}</style><g/><g class="main"><rect width="700" height="500" class="background" fill="white"/><g class="chart-title"><text x="0" y="0" fill="#131300" font-size="20" dominant-baseline="middle" text-anchor="middle" transform="translate(350, 21.5) rotate(0)">GC News — TYPE_EN per day (last 30 days)</text></g><g class="plot"><g class="bar-plot-0"><rect x="86.70025258858999" y="451.84210526315786" width="17.998912700017293" height="15.157894736842138" fill="#ECECFF" stroke="#ECECFF" stroke-width="0"/><rect x="106.29979454868142" y="459" width="17.998912700017293" height="8" fill="#ECECFF" stroke="#ECECFF" stroke-width="0"/><rect x="125.89933650877285" y="459" width="17.998912700017293" height="8" fill="#ECECFF" stroke="#ECECFF" stroke-width="0"/><rect x="145.49887846886426" y="459" width="17.998912700017293" height="8" fill="#ECECFF" stroke="#ECECFF" stroke-width="0"/><rect x="165.0984204289557" y="459" width="17.998912700017293" height="8" fill="#ECECFF" stroke="#ECECFF" stroke-width="0"/><rect x="184.69796238904712" y="459" width="17.998912700017293" height="8" fill="#ECECFF" stroke="#ECECFF" stroke-width="0"/><rect x="204.29750434913853" y="444.6842105263158" width="17.998912700017293" height="22.31578947368422" fill="#ECECFF" stroke="#ECECFF" stroke-width="0"/><rect x="223.89704630922998" y="459" width="17.998912700017293" height="8" fill="#ECECFF" stroke="#ECECFF" stroke-width="0"/><rect x="243.4965882693214" y="451.84210526315786" width="17.998912700017293" height="15.157894736842138" fill="#ECECFF" stroke="#ECECFF" stroke-width="0"/><rect x="263.09613022941284" y="459" width="17.998912700017293" height="8" fill="#ECECFF" stroke="#ECECFF" stroke-width="0"/><rect x="282.69567218950425" y="451.84210526315786" width="17.998912700017293" height="15.157894736842138" fill="#ECECFF" stroke="#ECECFF" stroke-width="0"/><rect x="302.29521414959567" y="459" width="17.998912700017293" height="8" fill="#ECECFF" stroke="#ECECFF" stroke-width="0"/><rect x="321.8947561096871" y="459" width="17.998912700017293" height="8" fill="#ECECFF" stroke="#ECECFF" stroke-width="0"/><rect x="341.4942980697785" y="451.84210526315786" width="17.998912700017293" height="15.157894736842138" fill="#ECECFF" stroke="#ECECFF" stroke-width="0"/><rect x="361.09384002986997" y="459" width="17.998912700017293" height="8" fill="#ECECFF" stroke="#ECECFF" stroke-width="0"/><rect x="380.6933819899614" y="451.84210526315786" width="17.998912700017293" height="15.157894736842138" fill="#ECECFF" stroke="#ECECFF" stroke-width="0"/><rect x="400.2929239500528" y="437.5263157894737" width="17.998912700017293" height="29.4736842105263" fill="#ECECFF" stroke="#ECECFF" stroke-width="0"/><rect x="419.8924659101442" y="451.84210526315786" width="17.998912700017293" height="15.157894736842138" fill="#ECECFF" stroke="#ECECFF" stroke-width="0"/><rect x="439.4920078702356" y="459" width="17.998912700017293" height="8" fill="#ECECFF" stroke="#ECECFF" stroke-width="0"/><rect x="459.0915498303271" y="459" width="17.998912700017293" height="8" fill="#ECECFF" stroke="#ECECFF" stroke-width="0"/><rect x="478.6910917904185" y="459" width="17.998912700017293" height="8" fill="#ECECFF" stroke="#ECECFF" stroke-width="0"/><rect x="498.2906337505099" y="451.84210526315786" width="17.998912700017293" height="15.157894736842138" fill="#ECECFF" stroke="#ECECFF" stroke-width="0"/><rect x="517.8901757106013" y="451.84210526315786" width="17.998912700017293" height="15.157894736842138" fill="#ECECFF" stroke="#ECECFF" stroke-width="0"/><rect x="537.4897176706927" y="444.6842105263158" width="17.998912700017293" height="22.31578947368422" fill="#ECECFF" stroke="#ECECFF" stroke-width="0"/><rect x="557.0892596307841" y="459" width="17.998912700017293" height="8" fill="#ECECFF" stroke="#ECECFF" stroke-width="0"/><rect x="576.6888015908756" y="451.84210526315786" width="17.998912700017293" height="15.157894736842138" fill="#ECECFF" stroke="#ECECFF" stroke-width="0"/><rect x="596.2883435509669" y="459" width="17.998912700017293" height="8" fill="#ECECFF" stroke="#ECECFF" stroke-width="0"/><rect x="615.8878855110585" y="459" width="17.998912700017293" height="8" fill="#ECECFF" stroke="#ECECFF" stroke-width="0"/><rect x="635.4874274711499" y="430.36842105263156" width="17.998912700017293" height="36.63157894736844" fill="#ECECFF" stroke="#ECECFF" stroke-width="0"/><rect x="655.0869694312413" y="416.05263157894734" width="17.998912700017293" height="50.94736842105266" fill="#ECECFF" stroke="#ECECFF" stroke-width="0"/></g><g class="bar-plot-1"><rect x="86.70025258858999" y="437.5263157894737" width="17.998912700017293" height="29.4736842105263" fill="#8493A6" stroke="#8493A6" stroke-width="0"/><rect x="106.29979454868142" y="437.5263157894737" width="17.998912700017293" height="29.4736842105263" fill="#8493A6" stroke="#8493A6" stroke-width="0"/><rect x="125.89933650877285" y="451.84210526315786" width="17.998912700017293" height="15.157894736842138" fill="#8493A6" stroke="#8493A6" stroke-width="0"/><rect x="145.49887846886426" y="444.6842105263158" width="17.998912700017293" height="22.31578947368422" fill="#8493A6" stroke="#8493A6" stroke-width="0"/><rect x="165.0984204289557" y="459" width="17.998912700017293" height="8" fill="#8493A6" stroke="#8493A6" stroke-width="0"/><rect x="184.69796238904712" y="451.84210526315786" width="17.998912700017293" height="15.157894736842138" fill="#8493A6" stroke="#8493A6" stroke-width="0"/><rect x="204.29750434913853" y="437.5263157894737" width="17.998912700017293" height="29.4736842105263" fill="#8493A6" stroke="#8493A6" stroke-width="0"/><rect x="223.89704630922998" y="451.84210526315786" width="17.998912700017293" height="15.157894736842138" fill="#8493A6" stroke="#8493A6" stroke-width="0"/><rect x="243.4965882693214" y="423.2105263157894" width="17.998912700017293" height="43.78947368421058" fill="#8493A6" stroke="#8493A6" stroke-width="0"/><rect x="263.09613022941284" y="330.15789473684214" width="17.998912700017293" height="136.84210526315786" fill="#8493A6" stroke="#8493A6" stroke-width="0"/><rect x="282.69567218950425" y="451.84210526315786" width="17.998912700017293" height="15.157894736842138" fill="#8493A6" stroke="#8493A6" stroke-width="0"/><rect x="302.29521414959567" y="459" width="17.998912700017293" height="8" fill="#8493A6" stroke="#8493A6" stroke-width="0"/><rect x="321.8947561096871" y="459" width="17.998912700017293" height="8" fill="#8493A6" stroke="#8493A6" stroke-width="0"/><rect x="341.4942980697785" y="416.05263157894734" width="17.998912700017293" height="50.94736842105266" fill="#8493A6" stroke="#8493A6" stroke-width="0"/><rect x="361.09384002986997" y="437.5263157894737" width="17.998912700017293" height="29.4736842105263" fill="#8493A6" stroke="#8493A6" stroke-width="0"/><rect x="380.6933819899614" y="416.05263157894734" width="17.998912700017293" height="50.94736842105266" fill="#8493A6" stroke="#8493A6" stroke-width="0"/><rect x="400.2929239500528" y="387.42105263157896" width="17.998912700017293" height="79.57894736842104" fill="#8493A6" stroke="#8493A6" stroke-width="0"/><rect x="419.8924659101442" y="437.5263157894737" width="17.998912700017293" height="29.4736842105263" fill="#8493A6" stroke="#8493A6" stroke-width="0"/><rect x="439.4920078702356" y="459" width="17.998912700017293" height="8" fill="#8493A6" stroke="#8493A6" stroke-width="0"/><rect x="459.0915498303271" y="459" width="17.998912700017293" height="8" fill="#8493A6" stroke="#8493A6" stroke-width="0"/><rect x="478.6910917904185" y="444.6842105263158" width="17.998912700017293" height="22.31578947368422" fill="#8493A6" stroke="#8493A6" stroke-width="0"/><rect x="498.2906337505099" y="444.6842105263158" width="17.998912700017293" height="22.31578947368422" fill="#8493A6" stroke="#8493A6" stroke-width="0"/><rect x="517.8901757106013" y="437.5263157894737" width="17.998912700017293" height="29.4736842105263" fill="#8493A6" stroke="#8493A6" stroke-width="0"/><rect x="537.4897176706927" y="437.5263157894737" width="17.998912700017293" height="29.4736842105263" fill="#8493A6" stroke="#8493A6" stroke-width="0"/><rect x="557.0892596307841" y="437.5263157894737" width="17.998912700017293" height="29.4736842105263" fill="#8493A6" stroke="#8493A6" stroke-width="0"/><rect x="576.6888015908756" y="451.84210526315786" width="17.998912700017293" height="15.157894736842138" fill="#8493A6" stroke="#8493A6" stroke-width="0"/><rect x="596.2883435509669" y="451.84210526315786" width="17.998912700017293" height="15.157894736842138" fill="#8493A6" stroke="#8493A6" stroke-width="0"/><rect x="615.8878855110585" y="430.36842105263156" width="17.998912700017293" height="36.63157894736844" fill="#8493A6" stroke="#8493A6" stroke-width="0"/><rect x="635.4874274711499" y="330.15789473684214" width="17.998912700017293" height="136.84210526315786" fill="#8493A6" stroke="#8493A6" stroke-width="0"/><rect x="655.0869694312413" y="287.2105263157895" width="17.998912700017293" height="179.78947368421052" fill="#8493A6" stroke="#8493A6" stroke-width="0"/></g><g class="bar-plot-2"><rect x="86.70025258858999" y="373.10526315789474" width="17.998912700017293" height="93.89473684210526" fill="#FFC3A0" stroke="#FFC3A0" stroke-width="0"/><rect x="106.29979454868142" y="408.89473684210526" width="17.998912700017293" height="58.10526315789474" fill="#FFC3A0" stroke="#FFC3A0" stroke-width="0"/><rect x="125.89933650877285" y="408.89473684210526" width="17.998912700017293" height="58.10526315789474" fill="#FFC3A0" stroke="#FFC3A0" stroke-width="0"/><rect x="145.49887846886426" y="416.05263157894734" width="17.998912700017293" height="50.94736842105266" fill="#FFC3A0" stroke="#FFC3A0" stroke-width="0"/><rect x="165.0984204289557" y="459" width="17.998912700017293" height="8" fill="#FFC3A0" stroke="#FFC3A0" stroke-width="0"/><rect x="184.69796238904712" y="451.84210526315786" width="17.998912700017293" height="15.157894736842138" fill="#FFC3A0" stroke="#FFC3A0" stroke-width="0"/><rect x="204.29750434913853" y="401.7368421052631" width="17.998912700017293" height="65.26315789473688" fill="#FFC3A0" stroke="#FFC3A0" stroke-width="0"/><rect x="223.89704630922998" y="423.2105263157894" width="17.998912700017293" height="43.78947368421058" fill="#FFC3A0" stroke="#FFC3A0" stroke-width="0"/><rect x="243.4965882693214" y="387.42105263157896" width="17.998912700017293" height="79.57894736842104" fill="#FFC3A0" stroke="#FFC3A0" stroke-width="0"/><rect x="263.09613022941284" y="265.7368421052632" width="17.998912700017293" height="201.26315789473682" fill="#FFC3A0" stroke="#FFC3A0" stroke-width="0"/><rect x="282.69567218950425" y="301.5263157894737" width="17.998912700017293" height="165.4736842105263" fill="#FFC3A0" stroke="#FFC3A0" stroke-width="0"/><rect x="302.29521414959567" y="451.84210526315786" width="17.998912700017293" height="15.157894736842138" fill="#FFC3A0" stroke="#FFC3A0" stroke-width="0"/><rect x="321.8947561096871" y="451.84210526315786" width="17.998912700017293" height="15.157894736842138" fill="#FFC3A0" stroke="#FFC3A0" stroke-width="0"/><rect x="341.4942980697785" y="344.47368421052636" width="17.998912700017293" height="122.52631578947364" fill="#FFC3A0" stroke="#FFC3A0" stroke-width="0"/><rect x="361.09384002986997" y="408.89473684210526" width="17.998912700017293" height="58.10526315789474" fill="#FFC3A0" stroke="#FFC3A0" stroke-width="0"/><rect x="380.6933819899614" y="301.5263157894737" width="17.998912700017293" height="165.4736842105263" fill="#FFC3A0" stroke="#FFC3A0" stroke-width="0"/><rect x="400.2929239500528" y="373.10526315789474" width="17.998912700017293" height="93.89473684210526" fill="#FFC3A0" stroke="#FFC3A0" stroke-width="0"/><rect x="419.8924659101442" y="323.00000000000006" width="17.998912700017293" height="143.99999999999994" fill="#FFC3A0" stroke="#FFC3A0" stroke-width="0"/><rect x="439.4920078702356" y="459" width="17.998912700017293" height="8" fill="#FFC3A0" stroke="#FFC3A0" stroke-width="0"/><rect x="459.0915498303271" y="459" width="17.998912700017293" height="8" fill="#FFC3A0" stroke="#FFC3A0" stroke-width="0"/><rect x="478.6910917904185" y="380.2631578947369" width="17.998912700017293" height="86.73684210526312" fill="#FFC3A0" stroke="#FFC3A0" stroke-width="0"/><rect x="498.2906337505099" y="394.578947368421" width="17.998912700017293" height="72.42105263157902" fill="#FFC3A0" stroke="#FFC3A0" stroke-width="0"/><rect x="517.8901757106013" y="416.05263157894734" width="17.998912700017293" height="50.94736842105266" fill="#FFC3A0" stroke="#FFC3A0" stroke-width="0"/><rect x="537.4897176706927" y="401.7368421052631" width="17.998912700017293" height="65.26315789473688" fill="#FFC3A0" stroke="#FFC3A0" stroke-width="0"/><rect x="557.0892596307841" y="358.7894736842105" width="17.998912700017293" height="108.21052631578948" fill="#FFC3A0" stroke="#FFC3A0" stroke-width="0"/><rect x="576.6888015908756" y="430.36842105263156" width="17.998912700017293" height="36.63157894736844" fill="#FFC3A0" stroke="#FFC3A0" stroke-width="0"/><rect x="596.2883435509669" y="437.5263157894737" width="17.998912700017293" height="29.4736842105263" fill="#FFC3A0" stroke="#FFC3A0" stroke-width="0"/><rect x="615.8878855110585" y="394.578947368421" width="17.998912700017293" height="72.42105263157902" fill="#FFC3A0" stroke="#FFC3A0" stroke-width="0"/><rect x="635.4874274711499" y="244.26315789473685" width="17.998912700017293" height="222.73684210526315" fill="#FFC3A0" stroke="#FFC3A0" stroke-width="0"/><rect x="655.0869694312413" y="108.26315789473685" width="17.998912700017293" height="358.7368421052631" fill="#FFC3A0" stroke="#FFC3A0" stroke-width="0"/></g><g class="bar-plot-3"><rect x="86.70025258858999" y="373.10526315789474" width="17.998912700017293" height="93.89473684210526" fill="#DCDDE1" stroke="#DCDDE1" stroke-width="0"/><rect x="106.29979454868142" y="408.89473684210526" width="17.998912700017293" height="58.10526315789474" fill="#DCDDE1" stroke="#DCDDE1" stroke-width="0"/><rect x="125.89933650877285" y="408.89473684210526" width="17.998912700017293" height="58.10526315789474" fill="#DCDDE1" stroke="#DCDDE1" stroke-width="0"/><rect x="145.49887846886426" y="416.05263157894734" width="17.998912700017293" height="50.94736842105266" fill="#DCDDE1" stroke="#DCDDE1" stroke-width="0"/><rect x="165.0984204289557" y="459" width="17.998912700017293" height="8" fill="#DCDDE1" stroke="#DCDDE1" stroke-width="0"/><rect x="184.69796238904712" y="451.84210526315786" width="17.998912700017293" height="15.157894736842138" fill="#DCDDE1" stroke="#DCDDE1" stroke-width="0"/><rect x="204.29750434913853" y="401.7368421052631" width="17.998912700017293" height="65.26315789473688" fill="#DCDDE1" stroke="#DCDDE1" stroke-width="0"/><rect x="223.89704630922998" y="416.05263157894734" width="17.998912700017293" height="50.94736842105266" fill="#DCDDE1" stroke="#DCDDE1" stroke-width="0"/><rect x="243.4965882693214" y="387.42105263157896" width="17.998912700017293" height="79.57894736842104" fill="#DCDDE1" stroke="#DCDDE1" stroke-width="0"/><rect x="263.09613022941284" y="237.1052631578947" width="17.998912700017293" height="229.8947368421053" fill="#DCDDE1" stroke="#DCDDE1" stroke-width="0"/><rect x="282.69567218950425" y="294.3684210526316" width="17.998912700017293" height="172.63157894736838" fill="#DCDDE1" stroke="#DCDDE1" stroke-width="0"/><rect x="302.29521414959567" y="451.84210526315786" width="17.998912700017293" height="15.157894736842138" fill="#DCDDE1" stroke="#DCDDE1" stroke-width="0"/><rect x="321.8947561096871" y="451.84210526315786" width="17.998912700017293" height="15.157894736842138" fill="#DCDDE1" stroke="#DCDDE1" stroke-width="0"/><rect x="341.4942980697785" y="344.47368421052636" width="17.998912700017293" height="122.52631578947364" fill="#DCDDE1" stroke="#DCDDE1" stroke-width="0"/><rect x="361.09384002986997" y="408.89473684210526" width="17.998912700017293" height="58.10526315789474" fill="#DCDDE1" stroke="#DCDDE1" stroke-width="0"/><rect x="380.6933819899614" y="301.5263157894737" width="17.998912700017293" height="165.4736842105263" fill="#DCDDE1" stroke="#DCDDE1" stroke-width="0"/><rect x="400.2929239500528" y="373.10526315789474" width="17.998912700017293" height="93.89473684210526" fill="#DCDDE1" stroke="#DCDDE1" stroke-width="0"/><rect x="419.8924659101442" y="308.6842105263158" width="17.998912700017293" height="158.31578947368422" fill="#DCDDE1" stroke="#DCDDE1" stroke-width="0"/><rect x="439.4920078702356" y="459" width="17.998912700017293" height="8" fill="#DCDDE1" stroke="#DCDDE1" stroke-width="0"/><rect x="459.0915498303271" y="444.6842105263158" width="17.998912700017293" height="22.31578947368422" fill="#DCDDE1" stroke="#DCDDE1" stroke-width="0"/><rect x="478.6910917904185" y="373.10526315789474" width="17.998912700017293" height="93.89473684210526" fill="#DCDDE1" stroke="#DCDDE1" stroke-width="0"/><rect x="498.2906337505099" y="394.578947368421" width="17.998912700017293" height="72.42105263157902" fill="#DCDDE1" stroke="#DCDDE1" stroke-width="0"/><rect x="517.8901757106013" y="416.05263157894734" width="17.998912700017293" height="50.94736842105266" fill="#DCDDE1" stroke="#DCDDE1" stroke-width="0"/><rect x="537.4897176706927" y="401.7368421052631" width="17.998912700017293" height="65.26315789473688" fill="#DCDDE1" stroke="#DCDDE1" stroke-width="0"/><rect x="557.0892596307841" y="351.63157894736844" width="17.998912700017293" height="115.36842105263156" fill="#DCDDE1" stroke="#DCDDE1" stroke-width="0"/><rect x="576.6888015908756" y="408.89473684210526" width="17.998912700017293" height="58.10526315789474" fill="#DCDDE1" stroke="#DCDDE1" stroke-width="0"/><rect x="596.2883435509669" y="430.36842105263156" width="17.998912700017293" height="36.63157894736844" fill="#DCDDE1" stroke="#DCDDE1" stroke-width="0"/><rect x="615.8878855110585" y="380.2631578947369" width="17.998912700017293" height="86.73684210526312" fill="#DCDDE1" stroke="#DCDDE1" stroke-width="0"/><rect x="635.4874274711499" y="237.1052631578947" width="17.998912700017293" height="229.8947368421053" fill="#DCDDE1" stroke="#DCDDE1" stroke-width="0"/><rect x="655.0869694312413" y="65.3157894736842" width="17.998912700017293" height="401.6842105263158" fill="#DCDDE1" stroke="#DCDDE1" stroke-width="0"/></g><g class="bar-plot-4"><rect x="86.70025258858999" y="373.10526315789474" width="17.998912700017293" height="93.89473684210526" fill="#B8E994" stroke="#B8E994" stroke-width="0"/><rect x="106.29979454868142" y="408.89473684210526" width="17.998912700017293" height="58.10526315789474" fill="#B8E994" stroke="#B8E994" stroke-width="0"/><rect x="125.89933650877285" y="408.89473684210526" width="17.998912700017293" height="58.10526315789474" fill="#B8E994" stroke="#B8E994" stroke-width="0"/><rect x="145.49887846886426" y="416.05263157894734" width="17.998912700017293" height="50.94736842105266" fill="#B8E994" stroke="#B8E994" stroke-width="0"/><rect x="165.0984204289557" y="459" width="17.998912700017293" height="8" fill="#B8E994" stroke="#B8E994" stroke-width="0"/><rect x="184.69796238904712" y="451.84210526315786" width="17.998912700017293" height="15.157894736842138" fill="#B8E994" stroke="#B8E994" stroke-width="0"/><rect x="204.29750434913853" y="401.7368421052631" width="17.998912700017293" height="65.26315789473688" fill="#B8E994" stroke="#B8E994" stroke-width="0"/><rect x="223.89704630922998" y="416.05263157894734" width="17.998912700017293" height="50.94736842105266" fill="#B8E994" stroke="#B8E994" stroke-width="0"/><rect x="243.4965882693214" y="387.42105263157896" width="17.998912700017293" height="79.57894736842104" fill="#B8E994" stroke="#B8E994" stroke-width="0"/><rect x="263.09613022941284" y="229.94736842105263" width="17.998912700017293" height="237.05263157894737" fill="#B8E994" stroke="#B8E994" stroke-width="0"/><rect x="282.69567218950425" y="294.3684210526316" width="17.998912700017293" height="172.63157894736838" fill="#B8E994" stroke="#B8E994" stroke-width="0"/><rect x="302.29521414959567" y="451.84210526315786" width="17.998912700017293" height="15.157894736842138" fill="#B8E994" stroke="#B8E994" stroke-width="0"/><rect x="321.8947561096871" y="451.84210526315786" width="17.998912700017293" height="15.157894736842138" fill="#B8E994" stroke="#B8E994" stroke-width="0"/><rect x="341.4942980697785" y="344.47368421052636" width="17.998912700017293" height="122.52631578947364" fill="#B8E994" stroke="#B8E994" stroke-width="0"/><rect x="361.09384002986997" y="408.89473684210526" width="17.998912700017293" height="58.10526315789474" fill="#B8E994" stroke="#B8E994" stroke-width="0"/><rect x="380.6933819899614" y="301.5263157894737" width="17.998912700017293" height="165.4736842105263" fill="#B8E994" stroke="#B8E994" stroke-width="0"/><rect x="400.2929239500528" y="373.10526315789474" width="17.998912700017293" height="93.89473684210526" fill="#B8E994" stroke="#B8E994" stroke-width="0"/><rect x="419.8924659101442" y="308.6842105263158" width="17.998912700017293" height="158.31578947368422" fill="#B8E994" stroke="#B8E994" stroke-width="0"/><rect x="439.4920078702356" y="459" width="17.998912700017293" height="8" fill="#B8E994" stroke="#B8E994" stroke-width="0"/><rect x="459.0915498303271" y="444.6842105263158" width="17.998912700017293" height="22.31578947368422" fill="#B8E994" stroke="#B8E994" stroke-width="0"/><rect x="478.6910917904185" y="365.9473684210526" width="17.998912700017293" height="101.0526315789474" fill="#B8E994" stroke="#B8E994" stroke-width="0"/><rect x="498.2906337505099" y="394.578947368421" width="17.998912700017293" height="72.42105263157902" fill="#B8E994" stroke="#B8E994" stroke-width="0"/><rect x="517.8901757106013" y="416.05263157894734" width="17.998912700017293" height="50.94736842105266" fill="#B8E994" stroke="#B8E994" stroke-width="0"/><rect x="537.4897176706927" y="401.7368421052631" width="17.998912700017293" height="65.26315789473688" fill="#B8E994" stroke="#B8E994" stroke-width="0"/><rect x="557.0892596307841" y="344.47368421052636" width="17.998912700017293" height="122.52631578947364" fill="#B8E994" stroke="#B8E994" stroke-width="0"/><rect x="576.6888015908756" y="408.89473684210526" width="17.998912700017293" height="58.10526315789474" fill="#B8E994" stroke="#B8E994" stroke-width="0"/><rect x="596.2883435509669" y="430.36842105263156" width="17.998912700017293" height="36.63157894736844" fill="#B8E994" stroke="#B8E994" stroke-width="0"/><rect x="615.8878855110585" y="380.2631578947369" width="17.998912700017293" height="86.73684210526312" fill="#B8E994" stroke="#B8E994" stroke-width="0"/><rect x="635.4874274711499" y="237.1052631578947" width="17.998912700017293" height="229.8947368421053" fill="#B8E994" stroke="#B8E994" stroke-width="0"/><rect x="655.0869694312413" y="58.157894736842124" width="17.998912700017293" height="408.84210526315786" fill="#B8E994" stroke="#B8E994" stroke-width="0"/></g><g class="bar-plot-5"><rect x="86.70025258858999" y="365.9473684210526" width="17.998912700017293" height="101.0526315789474" fill="#D1A36F" stroke="#D1A36F" stroke-width="0"/><rect x="106.29979454868142" y="401.7368421052631" width="17.998912700017293" height="65.26315789473688" fill="#D1A36F" stroke="#D1A36F" stroke-width="0"/><rect x="125.89933650877285" y="408.89473684210526" width="17.998912700017293" height="58.10526315789474" fill="#D1A36F" stroke="#D1A36F" stroke-width="0"/><rect x="145.49887846886426" y="408.89473684210526" width="17.998912700017293" height="58.10526315789474" fill="#D1A36F" stroke="#D1A36F" stroke-width="0"/><rect x="165.0984204289557" y="459" width="17.998912700017293" height="8" fill="#D1A36F" stroke="#D1A36F" stroke-width="0"/><rect x="184.69796238904712" y="451.84210526315786" width="17.998912700017293" height="15.157894736842138" fill="#D1A36F" stroke="#D1A36F" stroke-width="0"/><rect x="204.29750434913853" y="394.578947368421" width="17.998912700017293" height="72.42105263157902" fill="#D1A36F" stroke="#D1A36F" stroke-width="0"/><rect x="223.89704630922998" y="401.7368421052631" width="17.998912700017293" height="65.26315789473688" fill="#D1A36F" stroke="#D1A36F" stroke-width="0"/><rect x="243.4965882693214" y="380.2631578947369" width="17.998912700017293" height="86.73684210526312" fill="#D1A36F" stroke="#D1A36F" stroke-width="0"/><rect x="263.09613022941284" y="222.78947368421052" width="17.998912700017293" height="244.21052631578948" fill="#D1A36F" stroke="#D1A36F" stroke-width="0"/><rect x="282.69567218950425" y="280.05263157894734" width="17.998912700017293" height="186.94736842105266" fill="#D1A36F" stroke="#D1A36F" stroke-width="0"/><rect x="302.29521414959567" y="437.5263157894737" width="17.998912700017293" height="29.4736842105263" fill="#D1A36F" stroke="#D1A36F" stroke-width="0"/><rect x="321.8947561096871" y="444.6842105263158" width="17.998912700017293" height="22.31578947368422" fill="#D1A36F" stroke="#D1A36F" stroke-width="0"/><rect x="341.4942980697785" y="344.47368421052636" width="17.998912700017293" height="122.52631578947364" fill="#D1A36F" stroke="#D1A36F" stroke-width="0"/><rect x="361.09384002986997" y="401.7368421052631" width="17.998912700017293" height="65.26315789473688" fill="#D1A36F" stroke="#D1A36F" stroke-width="0"/><rect x="380.6933819899614" y="294.3684210526316" width="17.998912700017293" height="172.63157894736838" fill="#D1A36F" stroke="#D1A36F" stroke-width="0"/><rect x="400.2929239500528" y="351.63157894736844" width="17.998912700017293" height="115.36842105263156" fill="#D1A36F" stroke="#D1A36F" stroke-width="0"/><rect x="419.8924659101442" y="301.5263157894737" width="17.998912700017293" height="165.4736842105263" fill="#D1A36F" stroke="#D1A36F" stroke-width="0"/><rect x="439.4920078702356" y="459" width="17.998912700017293" height="8" fill="#D1A36F" stroke="#D1A36F" stroke-width="0"/><rect x="459.0915498303271" y="444.6842105263158" width="17.998912700017293" height="22.31578947368422" fill="#D1A36F" stroke="#D1A36F" stroke-width="0"/><rect x="478.6910917904185" y="358.7894736842105" width="17.998912700017293" height="108.21052631578948" fill="#D1A36F" stroke="#D1A36F" stroke-width="0"/><rect x="498.2906337505099" y="380.2631578947369" width="17.998912700017293" height="86.73684210526312" fill="#D1A36F" stroke="#D1A36F" stroke-width="0"/><rect x="517.8901757106013" y="416.05263157894734" width="17.998912700017293" height="50.94736842105266" fill="#D1A36F" stroke="#D1A36F" stroke-width="0"/><rect x="537.4897176706927" y="394.578947368421" width="17.998912700017293" height="72.42105263157902" fill="#D1A36F" stroke="#D1A36F" stroke-width="0"/><rect x="557.0892596307841" y="337.3157894736842" width="17.998912700017293" height="129.68421052631578" fill="#D1A36F" stroke="#D1A36F" stroke-width="0"/><rect x="576.6888015908756" y="401.7368421052631" width="17.998912700017293" height="65.26315789473688" fill="#D1A36F" stroke="#D1A36F" stroke-width="0"/><rect x="596.2883435509669" y="416.05263157894734" width="17.998912700017293" height="50.94736842105266" fill="#D1A36F" stroke="#D1A36F" stroke-width="0"/><rect x="615.8878855110585" y="373.10526315789474" width="17.998912700017293" height="93.89473684210526" fill="#D1A36F" stroke="#D1A36F" stroke-width="0"/><rect x="635.4874274711499" y="222.78947368421052" width="17.998912700017293" height="244.21052631578948" fill="#D1A36F" stroke="#D1A36F" stroke-width="0"/><rect x="655.0869694312413" y="51" width="17.998912700017293" height="416" fill="#D1A36F" stroke="#D1A36F" stroke-width="0"/></g></g><g class="bottom-axis"><g class="axis-line"><path d="M 59.78613471984863,468 L 700,468" fill="none" stroke="#131300" stroke-width="2"/></g><g class="label"><text x="0" y="0" fill="#131300" font-size="14" dominant-baseline="text-before-edge" text-anchor="middle" transform="translate(95.69970893859863, 479) rotate(0)">2026-01-20</text><text x="0" y="0" fill="#131300" font-size="14" dominant-baseline="text-before-edge" text-anchor="middle" transform="translate(115.29925089869006, 479) rotate(0)">2026-01-21</text><text x="0" y="0" fill="#131300" font-size="14" dominant-baseline="text-before-edge" text-anchor="middle" transform="translate(134.8987928587815, 479) rotate(0)">2026-01-22</text><text x="0" y="0" fill="#131300" font-size="14" dominant-baseline="text-before-edge" text-anchor="middle" transform="translate(154.4983348188729, 479) rotate(0)">2026-01-23</text><text x="0" y="0" fill="#131300" font-size="14" dominant-baseline="text-before-edge" text-anchor="middle" transform="translate(174.09787677896435, 479) rotate(0)">2026-01-24</text><text x="0" y="0" fill="#131300" font-size="14" dominant-baseline="text-before-edge" text-anchor="middle" transform="translate(193.69741873905576, 479) rotate(0)">2026-01-25</text><text x="0" y="0" fill="#131300" font-size="14" dominant-baseline="text-before-edge" text-anchor="middle" transform="translate(213.29696069914718, 479) rotate(0)">2026-01-26</text><text x="0" y="0" fill="#131300" font-size="14" dominant-baseline="text-before-edge" text-anchor="middle" transform="translate(232.89650265923862, 479) rotate(0)">2026-01-27</text><text x="0" y="0" fill="#131300" font-size="14" dominant-baseline="text-before-edge" text-anchor="middle" transform="translate(252.49604461933004, 479) rotate(0)">2026-01-28</text><text x="0" y="0" fill="#131300" font-size="14" dominant-baseline="text-before-edge" text-anchor="middle" transform="translate(272.0955865794215, 479) rotate(0)">2026-01-29</text><text x="0" y="0" fill="#131300" font-size="14" dominant-baseline="text-before-edge" text-anchor="middle" transform="translate(291.6951285395129, 479) rotate(0)">2026-01-30</text><text x="0" y="0" fill="#131300" font-size="14" dominant-baseline="text-before-edge" text-anchor="middle" transform="translate(311.2946704996043, 479) rotate(0)">2026-01-31</text><text x="0" y="0" fill="#131300" font-size="14" dominant-baseline="text-before-edge" text-anchor="middle" transform="translate(330.8942124596957, 479) rotate(0)">2026-02-01</text><text x="0" y="0" fill="#131300" font-size="14" dominant-baseline="text-before-edge" text-anchor="middle" transform="translate(350.49375441978714, 479) rotate(0)">2026-02-02</text><text x="0" y="0" fill="#131300" font-size="14" dominant-baseline="text-before-edge" text-anchor="middle" transform="translate(370.0932963798786, 479) rotate(0)">2026-02-03</text><text x="0" y="0" fill="#131300" font-size="14" dominant-baseline="text-before-edge" text-anchor="middle" transform="translate(389.69283833997, 479) rotate(0)">2026-02-04</text><text x="0" y="0" fill="#131300" font-size="14" dominant-baseline="text-before-edge" text-anchor="middle" transform="translate(409.29238030006144, 479) rotate(0)">2026-02-05</text><text x="0" y="0" fill="#131300" font-size="14" dominant-baseline="text-before-edge" text-anchor="middle" transform="translate(428.89192226015285, 479) rotate(0)">2026-02-06</text><text x="0" y="0" fill="#131300" font-size="14" dominant-baseline="text-before-edge" text-anchor="middle" transform="translate(448.49146422024427, 479) rotate(0)">2026-02-07</text><text x="0" y="0" fill="#131300" font-size="14" dominant-baseline="text-before-edge" text-anchor="middle" transform="translate(468.09100618033574, 479) rotate(0)">2026-02-08</text><text x="0" y="0" fill="#131300" font-size="14" dominant-baseline="text-before-edge" text-anchor="middle" transform="translate(487.69054814042715, 479) rotate(0)">2026-02-09</text><text x="0" y="0" fill="#131300" font-size="14" dominant-baseline="text-before-edge" text-anchor="middle" transform="translate(507.29009010051857, 479) rotate(0)">2026-02-10</text><text x="0" y="0" fill="#131300" font-size="14" dominant-baseline="text-before-edge" text-anchor="middle" transform="translate(526.88963206061, 479) rotate(0)">2026-02-11</text><text x="0" y="0" fill="#131300" font-size="14" dominant-baseline="text-before-edge" text-anchor="middle" transform="translate(546.4891740207014, 479) rotate(0)">2026-02-12</text><text x="0" y="0" fill="#131300" font-size="14" dominant-baseline="text-before-edge" text-anchor="middle" transform="translate(566.0887159807928, 479) rotate(0)">2026-02-13</text><text x="0" y="0" fill="#131300" font-size="14" dominant-baseline="text-before-edge" text-anchor="middle" transform="translate(585.6882579408843, 479) rotate(0)">2026-02-14</text><text x="0" y="0" fill="#131300" font-size="14" dominant-baseline="text-before-edge" text-anchor="middle" transform="translate(605.2877999009756, 479) rotate(0)">2026-02-15</text><text x="0" y="0" fill="#131300" font-size="14" dominant-baseline="text-before-edge" text-anchor="middle" transform="translate(624.8873418610672, 479) rotate(0)">2026-02-16</text><text x="0" y="0" fill="#131300" font-size="14" dominant-baseline="text-before-edge" text-anchor="middle" transform="translate(644.4868838211586, 479) rotate(0)">2026-02-17</text><text x="0" y="0" fill="#131300" font-size="14" dominant-baseline="text-before-edge" text-anchor="middle" transform="translate(664.08642578125, 479) rotate(0)">2026-02-18</text></g><g class="ticks"><path d="M 95.69970893859863,469 L 95.69970893859863,474" fill="none" stroke="#131300" stroke-width="2"/><path d="M 115.29925089869006,469 L 115.29925089869006,474" fill="none" stroke="#131300" stroke-width="2"/><path d="M 134.8987928587815,469 L 134.8987928587815,474" fill="none" stroke="#131300" stroke-width="2"/><path d="M 154.4983348188729,469 L 154.4983348188729,474" fill="none" stroke="#131300" stroke-width="2"/><path d="M 174.09787677896435,469 L 174.09787677896435,474" fill="none" stroke="#131300" stroke-width="2"/><path d="M 193.69741873905576,469 L 193.69741873905576,474" fill="none" stroke="#131300" stroke-width="2"/><path d="M 213.29696069914718,469 L 213.29696069914718,474" fill="none" stroke="#131300" stroke-width="2"/><path d="M 232.89650265923862,469 L 232.89650265923862,474" fill="none" stroke="#131300" stroke-width="2"/><path d="M 252.49604461933004,469 L 252.49604461933004,474" fill="none" stroke="#131300" stroke-width="2"/><path d="M 272.0955865794215,469 L 272.0955865794215,474" fill="none" stroke="#131300" stroke-width="2"/><path d="M 291.6951285395129,469 L 291.6951285395129,474" fill="none" stroke="#131300" stroke-width="2"/><path d="M 311.2946704996043,469 L 311.2946704996043,474" fill="none" stroke="#131300" stroke-width="2"/><path d="M 330.8942124596957,469 L 330.8942124596957,474" fill="none" stroke="#131300" stroke-width="2"/><path d="M 350.49375441978714,469 L 350.49375441978714,474" fill="none" stroke="#131300" stroke-width="2"/><path d="M 370.0932963798786,469 L 370.0932963798786,474" fill="none" stroke="#131300" stroke-width="2"/><path d="M 389.69283833997,469 L 389.69283833997,474" fill="none" stroke="#131300" stroke-width="2"/><path d="M 409.29238030006144,469 L 409.29238030006144,474" fill="none" stroke="#131300" stroke-width="2"/><path d="M 428.89192226015285,469 L 428.89192226015285,474" fill="none" stroke="#131300" stroke-width="2"/><path d="M 448.49146422024427,469 L 448.49146422024427,474" fill="none" stroke="#131300" stroke-width="2"/><path d="M 468.09100618033574,469 L 468.09100618033574,474" fill="none" stroke="#131300" stroke-width="2"/><path d="M 487.69054814042715,469 L 487.69054814042715,474" fill="none" stroke="#131300" stroke-width="2"/><path d="M 507.29009010051857,469 L 507.29009010051857,474" fill="none" stroke="#131300" stroke-width="2"/><path d="M 526.88963206061,469 L 526.88963206061,474" fill="none" stroke="#131300" stroke-width="2"/><path d="M 546.4891740207014,469 L 546.4891740207014,474" fill="none" stroke="#131300" stroke-width="2"/><path d="M 566.0887159807928,469 L 566.0887159807928,474" fill="none" stroke="#131300" stroke-width="2"/><path d="M 585.6882579408843,469 L 585.6882579408843,474" fill="none" stroke="#131300" stroke-width="2"/><path d="M 605.2877999009756,469 L 605.2877999009756,474" fill="none" stroke="#131300" stroke-width="2"/><path d="M 624.8873418610672,469 L 624.8873418610672,474" fill="none" stroke="#131300" stroke-width="2"/><path d="M 644.4868838211586,469 L 644.4868838211586,474" fill="none" stroke="#131300" stroke-width="2"/><path d="M 664.08642578125,469 L 664.08642578125,474" fill="none" stroke="#131300" stroke-width="2"/></g></g><g class="left-axis"><g class="axisl-line"><path d="M 58.78613471984863,43 L 58.78613471984863,467" fill="none" stroke="#131300" stroke-width="2"/></g><g class="label"><text x="0" y="0" fill="#131300" font-size="14" dominant-baseline="middle" text-anchor="end" transform="translate(47.78613471984863, 65.3157894736842) rotate(0)">55</text><text x="0" y="0" fill="#131300" font-size="14" dominant-baseline="middle" text-anchor="end" transform="translate(47.78613471984863, 101.10526315789477) rotate(0)">50</text><text x="0" y="0" fill="#131300" font-size="14" dominant-baseline="middle" text-anchor="end" transform="translate(47.78613471984863, 136.89473684210526) rotate(0)">45</text><text x="0" y="0" fill="#131300" font-size="14" dominant-baseline="middle" text-anchor="end" transform="translate(47.78613471984863, 172.6842105263158) rotate(0)">40</text><text x="0" y="0" fill="#131300" font-size="14" dominant-baseline="middle" text-anchor="end" transform="translate(47.78613471984863, 208.4736842105263) rotate(0)">35</text><text x="0" y="0" fill="#131300" font-size="14" dominant-baseline="middle" text-anchor="end" transform="translate(47.78613471984863, 244.26315789473685) rotate(0)">30</text><text x="0" y="0" fill="#131300" font-size="14" dominant-baseline="middle" text-anchor="end" transform="translate(47.78613471984863, 280.05263157894734) rotate(0)">25</text><text x="0" y="0" fill="#131300" font-size="14" dominant-baseline="middle" text-anchor="end" transform="translate(47.78613471984863, 315.8421052631579) rotate(0)">20</text><text x="0" y="0" fill="#131300" font-size="14" dominant-baseline="middle" text-anchor="end" transform="translate(47.78613471984863, 351.63157894736844) rotate(0)">15</text><text x="0" y="0" fill="#131300" font-size="14" dominant-baseline="middle" text-anchor="end" transform="translate(47.78613471984863, 387.42105263157896) rotate(0)">10</text><text x="0" y="0" fill="#131300" font-size="14" dominant-baseline="middle" text-anchor="end" transform="translate(47.78613471984863, 423.2105263157894) rotate(0)">5</text><text x="0" y="0" fill="#131300" font-size="14" dominant-baseline="middle" text-anchor="end" transform="translate(47.78613471984863, 459) rotate(0)">0</text></g><g class="ticks"><path d="M 57.78613471984863,65.3157894736842 L 52.78613471984863,65.3157894736842" fill="none" stroke="#131300" stroke-width="2"/><path d="M 57.78613471984863,101.10526315789477 L 52.78613471984863,101.10526315789477" fill="none" stroke="#131300" stroke-width="2"/><path d="M 57.78613471984863,136.89473684210526 L 52.78613471984863,136.89473684210526" fill="none" stroke="#131300" stroke-width="2"/><path d="M 57.78613471984863,172.6842105263158 L 52.78613471984863,172.6842105263158" fill="none" stroke="#131300" stroke-width="2"/><path d="M 57.78613471984863,208.4736842105263 L 52.78613471984863,208.4736842105263" fill="none" stroke="#131300" stroke-width="2"/><path d="M 57.78613471984863,244.26315789473685 L 52.78613471984863,244.26315789473685" fill="none" stroke="#131300" stroke-width="2"/><path d="M 57.78613471984863,280.05263157894734 L 52.78613471984863,280.05263157894734" fill="none" stroke="#131300" stroke-width="2"/><path d="M 57.78613471984863,315.8421052631579 L 52.78613471984863,315.8421052631579" fill="none" stroke="#131300" stroke-width="2"/><path d="M 57.78613471984863,351.63157894736844 L 52.78613471984863,351.63157894736844" fill="none" stroke="#131300" stroke-width="2"/><path d="M 57.78613471984863,387.42105263157896 L 52.78613471984863,387.42105263157896" fill="none" stroke="#131300" stroke-width="2"/><path d="M 57.78613471984863,423.2105263157894 L 52.78613471984863,423.2105263157894" fill="none" stroke="#131300" stroke-width="2"/><path d="M 57.78613471984863,459 L 52.78613471984863,459" fill="none" stroke="#131300" stroke-width="2"/></g><g class="title"><text x="0" y="0" fill="#131300" font-size="16" dominant-baseline="text-before-edge" text-anchor="middle" transform="translate(5, 255) rotate(270)">Count</text></g></g></g><g class="mermaid-tmp-group"/></svg>