<svg id="my-svg" width="100%" xmlns="http://www.w3.org/2000/svg" xmlns:xlink="http://www.w3.org/1999/xlink" style="max-width: 700px; background-color: white;" viewBox="0 0 700 500" role="graphics-document document" aria-roledescription="xychart"><style>#my-svg{font-family:"trebuchet ms",verdana,arial,sans-serif;font-size:16px;fill:#333;}@keyframes edge-animation-frame{from{stroke-dashoffset:0;}}@keyframes dash{to{stroke-dashoffset:0;}}#my-svg .edge-animation-slow{stroke-dasharray:9,5!important;stroke-dashoffset:900;animation:dash 50s linear infinite;stroke-linecap:round;}#my-svg .edge-animation-fast{stroke-dasharray:9,5!important;stroke-dashoffset:900;animation:dash 20s linear infinite;stroke-linecap:round;}#my-svg .error-icon{fill:#552222;}#my-svg .error-text{fill:#552222;stroke:#552222;}#my-svg .edge-thickness-normal{stroke-width:1px;}#my-svg .edge-thickness-thick{stroke-width:3.5px;}#my-svg .edge-pattern-solid{stroke-dasharray:0;}#my-svg .edge-thickness-invisible{stroke-width:0;fill:none;}#my-svg .edge-pattern-dashed{stroke-dasharray:3;}#my-svg .edge-pattern-dotted{stroke-dasharray:2;}#my-svg .marker{fill:#333333;stroke:#333333;}#my-svg .marker.cross{stroke:#333333;}#my-svg svg{font-family:"trebuchet ms",verdana,arial,sans-serif;font-size:16px;}#my-svg p{margin:0;}#my-svg .node .neo-node{stroke:#9370DB;}#my-svg [data-look="neo"].node rect,#my-svg [data-look="neo"].cluster rect,#my-svg [data-look="neo"].node polygon{stroke:#9370DB;filter:drop-shadow(1px 2px 2px rgba(185, 185, 185, 1));}#my-svg [data-look="neo"].node path{stroke:#9370DB;stroke-width:1px;}#my-svg [data-look="neo"].node .outer-path{filter:drop-shadow(1px 2px 2px rgba(185, 185, 185, 1));}#my-svg [data-look="neo"].node .neo-line path{stroke:#9370DB;filter:none;}#my-svg [data-look="neo"].node circle{stroke:#9370DB;filter:drop-shadow(1px 2px 2px rgba(185, 185, 185, 1));}#my-svg [data-look="neo"].node circle .state-start{fill:#000000;}#my-svg [data-look="neo"].icon-shape .icon{fill:#9370DB;filter:drop-shadow(1px 2px 2px rgba(185, 185, 185, 1));}#my-svg [data-look="neo"].icon-shape .icon-neo path{stroke:#9370DB;filter:drop-shadow(1px 2px 2px rgba(185, 185, 185, 1));}#my-svg :root{--mermaid-font-family:"trebuchet ms",verdana,arial,sans-serif;}</style><g/><g class="main"><rect width="700" height="500" class="background" fill="white"/><g class="chart-title"><text x="0" y="0" fill="#131300" font-size="20" dominant-baseline="middle" text-anchor="middle" transform="translate(350, 21.5) rotate(0)">GC News — TYPE_EN per day (last 30 days)</text></g><g class="plot"><g class="bar-plot-0"><rect x="86.70025258858999" y="431.18181818181824" width="17.998912700017293" height="35.818181818181756" fill="#ECECFF" stroke="#ECECFF" stroke-width="0"/><rect x="106.29979454868142" y="459" width="17.998912700017293" height="8" fill="#ECECFF" stroke="#ECECFF" stroke-width="0"/><rect x="125.89933650877285" y="459" width="17.998912700017293" height="8" fill="#ECECFF" stroke="#ECECFF" stroke-width="0"/><rect x="145.49887846886426" y="431.18181818181824" width="17.998912700017293" height="35.818181818181756" fill="#ECECFF" stroke="#ECECFF" stroke-width="0"/><rect x="165.0984204289557" y="459" width="17.998912700017293" height="8" fill="#ECECFF" stroke="#ECECFF" stroke-width="0"/><rect x="184.69796238904712" y="431.18181818181824" width="17.998912700017293" height="35.818181818181756" fill="#ECECFF" stroke="#ECECFF" stroke-width="0"/><rect x="204.29750434913853" y="421.9090909090909" width="17.998912700017293" height="45.09090909090912" fill="#ECECFF" stroke="#ECECFF" stroke-width="0"/><rect x="223.89704630922998" y="449.72727272727275" width="17.998912700017293" height="17.272727272727252" fill="#ECECFF" stroke="#ECECFF" stroke-width="0"/><rect x="243.4965882693214" y="459" width="17.998912700017293" height="8" fill="#ECECFF" stroke="#ECECFF" stroke-width="0"/><rect x="263.09613022941284" y="459" width="17.998912700017293" height="8" fill="#ECECFF" stroke="#ECECFF" stroke-width="0"/><rect x="282.69567218950425" y="449.72727272727275" width="17.998912700017293" height="17.272727272727252" fill="#ECECFF" stroke="#ECECFF" stroke-width="0"/><rect x="302.29521414959567" y="449.72727272727275" width="17.998912700017293" height="17.272727272727252" fill="#ECECFF" stroke="#ECECFF" stroke-width="0"/><rect x="321.8947561096871" y="449.72727272727275" width="17.998912700017293" height="17.272727272727252" fill="#ECECFF" stroke="#ECECFF" stroke-width="0"/><rect x="341.4942980697785" y="403.3636363636364" width="17.998912700017293" height="63.636363636363626" fill="#ECECFF" stroke="#ECECFF" stroke-width="0"/><rect x="361.09384002986997" y="421.9090909090909" width="17.998912700017293" height="45.09090909090912" fill="#ECECFF" stroke="#ECECFF" stroke-width="0"/><rect x="380.6933819899614" y="459" width="17.998912700017293" height="8" fill="#ECECFF" stroke="#ECECFF" stroke-width="0"/><rect x="400.2929239500528" y="459" width="17.998912700017293" height="8" fill="#ECECFF" stroke="#ECECFF" stroke-width="0"/><rect x="419.8924659101442" y="449.72727272727275" width="17.998912700017293" height="17.272727272727252" fill="#ECECFF" stroke="#ECECFF" stroke-width="0"/><rect x="439.4920078702356" y="431.18181818181824" width="17.998912700017293" height="35.818181818181756" fill="#ECECFF" stroke="#ECECFF" stroke-width="0"/><rect x="459.0915498303271" y="449.72727272727275" width="17.998912700017293" height="17.272727272727252" fill="#ECECFF" stroke="#ECECFF" stroke-width="0"/><rect x="478.6910917904185" y="412.6363636363636" width="17.998912700017293" height="54.363636363636374" fill="#ECECFF" stroke="#ECECFF" stroke-width="0"/><rect x="498.2906337505099" y="449.72727272727275" width="17.998912700017293" height="17.272727272727252" fill="#ECECFF" stroke="#ECECFF" stroke-width="0"/><rect x="517.8901757106013" y="459" width="17.998912700017293" height="8" fill="#ECECFF" stroke="#ECECFF" stroke-width="0"/><rect x="537.4897176706927" y="459" width="17.998912700017293" height="8" fill="#ECECFF" stroke="#ECECFF" stroke-width="0"/><rect x="557.0892596307841" y="459" width="17.998912700017293" height="8" fill="#ECECFF" stroke="#ECECFF" stroke-width="0"/><rect x="576.6888015908756" y="421.9090909090909" width="17.998912700017293" height="45.09090909090912" fill="#ECECFF" stroke="#ECECFF" stroke-width="0"/><rect x="596.2883435509669" y="449.72727272727275" width="17.998912700017293" height="17.272727272727252" fill="#ECECFF" stroke="#ECECFF" stroke-width="0"/><rect x="615.8878855110585" y="449.72727272727275" width="17.998912700017293" height="17.272727272727252" fill="#ECECFF" stroke="#ECECFF" stroke-width="0"/><rect x="635.4874274711499" y="459" width="17.998912700017293" height="8" fill="#ECECFF" stroke="#ECECFF" stroke-width="0"/><rect x="655.0869694312413" y="459" width="17.998912700017293" height="8" fill="#ECECFF" stroke="#ECECFF" stroke-width="0"/></g><g class="bar-plot-1"><rect x="86.70025258858999" y="394.0909090909091" width="17.998912700017293" height="72.90909090909088" fill="#8493A6" stroke="#8493A6" stroke-width="0"/><rect x="106.29979454868142" y="459" width="17.998912700017293" height="8" fill="#8493A6" stroke="#8493A6" stroke-width="0"/><rect x="125.89933650877285" y="449.72727272727275" width="17.998912700017293" height="17.272727272727252" fill="#8493A6" stroke="#8493A6" stroke-width="0"/><rect x="145.49887846886426" y="366.27272727272725" width="17.998912700017293" height="100.72727272727275" fill="#8493A6" stroke="#8493A6" stroke-width="0"/><rect x="165.0984204289557" y="329.18181818181824" width="17.998912700017293" height="137.81818181818176" fill="#8493A6" stroke="#8493A6" stroke-width="0"/><rect x="184.69796238904712" y="329.18181818181824" width="17.998912700017293" height="137.81818181818176" fill="#8493A6" stroke="#8493A6" stroke-width="0"/><rect x="204.29750434913853" y="375.5454545454545" width="17.998912700017293" height="91.4545454545455" fill="#8493A6" stroke="#8493A6" stroke-width="0"/><rect x="223.89704630922998" y="394.0909090909091" width="17.998912700017293" height="72.90909090909088" fill="#8493A6" stroke="#8493A6" stroke-width="0"/><rect x="243.4965882693214" y="459" width="17.998912700017293" height="8" fill="#8493A6" stroke="#8493A6" stroke-width="0"/><rect x="263.09613022941284" y="459" width="17.998912700017293" height="8" fill="#8493A6" stroke="#8493A6" stroke-width="0"/><rect x="282.69567218950425" y="440.4545454545455" width="17.998912700017293" height="26.545454545454504" fill="#8493A6" stroke="#8493A6" stroke-width="0"/><rect x="302.29521414959567" y="421.9090909090909" width="17.998912700017293" height="45.09090909090912" fill="#8493A6" stroke="#8493A6" stroke-width="0"/><rect x="321.8947561096871" y="412.6363636363636" width="17.998912700017293" height="54.363636363636374" fill="#8493A6" stroke="#8493A6" stroke-width="0"/><rect x="341.4942980697785" y="338.4545454545455" width="17.998912700017293" height="128.5454545454545" fill="#8493A6" stroke="#8493A6" stroke-width="0"/><rect x="361.09384002986997" y="375.5454545454545" width="17.998912700017293" height="91.4545454545455" fill="#8493A6" stroke="#8493A6" stroke-width="0"/><rect x="380.6933819899614" y="459" width="17.998912700017293" height="8" fill="#8493A6" stroke="#8493A6" stroke-width="0"/><rect x="400.2929239500528" y="440.4545454545455" width="17.998912700017293" height="26.545454545454504" fill="#8493A6" stroke="#8493A6" stroke-width="0"/><rect x="419.8924659101442" y="347.72727272727275" width="17.998912700017293" height="119.27272727272725" fill="#8493A6" stroke="#8493A6" stroke-width="0"/><rect x="439.4920078702356" y="338.4545454545455" width="17.998912700017293" height="128.5454545454545" fill="#8493A6" stroke="#8493A6" stroke-width="0"/><rect x="459.0915498303271" y="338.4545454545455" width="17.998912700017293" height="128.5454545454545" fill="#8493A6" stroke="#8493A6" stroke-width="0"/><rect x="478.6910917904185" y="310.6363636363636" width="17.998912700017293" height="156.36363636363637" fill="#8493A6" stroke="#8493A6" stroke-width="0"/><rect x="498.2906337505099" y="440.4545454545455" width="17.998912700017293" height="26.545454545454504" fill="#8493A6" stroke="#8493A6" stroke-width="0"/><rect x="517.8901757106013" y="384.81818181818176" width="17.998912700017293" height="82.18181818181824" fill="#8493A6" stroke="#8493A6" stroke-width="0"/><rect x="537.4897176706927" y="449.72727272727275" width="17.998912700017293" height="17.272727272727252" fill="#8493A6" stroke="#8493A6" stroke-width="0"/><rect x="557.0892596307841" y="431.18181818181824" width="17.998912700017293" height="35.818181818181756" fill="#8493A6" stroke="#8493A6" stroke-width="0"/><rect x="576.6888015908756" y="357" width="17.998912700017293" height="110" fill="#8493A6" stroke="#8493A6" stroke-width="0"/><rect x="596.2883435509669" y="384.81818181818176" width="17.998912700017293" height="82.18181818181824" fill="#8493A6" stroke="#8493A6" stroke-width="0"/><rect x="615.8878855110585" y="431.18181818181824" width="17.998912700017293" height="35.818181818181756" fill="#8493A6" stroke="#8493A6" stroke-width="0"/><rect x="635.4874274711499" y="421.9090909090909" width="17.998912700017293" height="45.09090909090912" fill="#8493A6" stroke="#8493A6" stroke-width="0"/><rect x="655.0869694312413" y="449.72727272727275" width="17.998912700017293" height="17.272727272727252" fill="#8493A6" stroke="#8493A6" stroke-width="0"/></g><g class="bar-plot-2"><rect x="86.70025258858999" y="236.45454545454547" width="17.998912700017293" height="230.54545454545453" fill="#FFC3A0" stroke="#FFC3A0" stroke-width="0"/><rect x="106.29979454868142" y="440.4545454545455" width="17.998912700017293" height="26.545454545454504" fill="#FFC3A0" stroke="#FFC3A0" stroke-width="0"/><rect x="125.89933650877285" y="449.72727272727275" width="17.998912700017293" height="17.272727272727252" fill="#FFC3A0" stroke="#FFC3A0" stroke-width="0"/><rect x="145.49887846886426" y="190.09090909090912" width="17.998912700017293" height="276.9090909090909" fill="#FFC3A0" stroke="#FFC3A0" stroke-width="0"/><rect x="165.0984204289557" y="245.72727272727275" width="17.998912700017293" height="221.27272727272725" fill="#FFC3A0" stroke="#FFC3A0" stroke-width="0"/><rect x="184.69796238904712" y="134.45454545454547" width="17.998912700017293" height="332.5454545454545" fill="#FFC3A0" stroke="#FFC3A0" stroke-width="0"/><rect x="204.29750434913853" y="227.18181818181816" width="17.998912700017293" height="239.81818181818184" fill="#FFC3A0" stroke="#FFC3A0" stroke-width="0"/><rect x="223.89704630922998" y="264.27272727272725" width="17.998912700017293" height="202.72727272727275" fill="#FFC3A0" stroke="#FFC3A0" stroke-width="0"/><rect x="243.4965882693214" y="449.72727272727275" width="17.998912700017293" height="17.272727272727252" fill="#FFC3A0" stroke="#FFC3A0" stroke-width="0"/><rect x="263.09613022941284" y="449.72727272727275" width="17.998912700017293" height="17.272727272727252" fill="#FFC3A0" stroke="#FFC3A0" stroke-width="0"/><rect x="282.69567218950425" y="375.5454545454545" width="17.998912700017293" height="91.4545454545455" fill="#FFC3A0" stroke="#FFC3A0" stroke-width="0"/><rect x="302.29521414959567" y="273.5454545454545" width="17.998912700017293" height="193.4545454545455" fill="#FFC3A0" stroke="#FFC3A0" stroke-width="0"/><rect x="321.8947561096871" y="338.4545454545455" width="17.998912700017293" height="128.5454545454545" fill="#FFC3A0" stroke="#FFC3A0" stroke-width="0"/><rect x="341.4942980697785" y="180.81818181818184" width="17.998912700017293" height="286.18181818181813" fill="#FFC3A0" stroke="#FFC3A0" stroke-width="0"/><rect x="361.09384002986997" y="115.90909090909089" width="17.998912700017293" height="351.0909090909091" fill="#FFC3A0" stroke="#FFC3A0" stroke-width="0"/><rect x="380.6933819899614" y="459" width="17.998912700017293" height="8" fill="#FFC3A0" stroke="#FFC3A0" stroke-width="0"/><rect x="400.2929239500528" y="440.4545454545455" width="17.998912700017293" height="26.545454545454504" fill="#FFC3A0" stroke="#FFC3A0" stroke-width="0"/><rect x="419.8924659101442" y="236.45454545454547" width="17.998912700017293" height="230.54545454545453" fill="#FFC3A0" stroke="#FFC3A0" stroke-width="0"/><rect x="439.4920078702356" y="199.36363636363637" width="17.998912700017293" height="267.6363636363636" fill="#FFC3A0" stroke="#FFC3A0" stroke-width="0"/><rect x="459.0915498303271" y="134.45454545454547" width="17.998912700017293" height="332.5454545454545" fill="#FFC3A0" stroke="#FFC3A0" stroke-width="0"/><rect x="478.6910917904185" y="69.54545454545453" width="17.998912700017293" height="397.4545454545455" fill="#FFC3A0" stroke="#FFC3A0" stroke-width="0"/><rect x="498.2906337505099" y="421.9090909090909" width="17.998912700017293" height="45.09090909090912" fill="#FFC3A0" stroke="#FFC3A0" stroke-width="0"/><rect x="517.8901757106013" y="375.5454545454545" width="17.998912700017293" height="91.4545454545455" fill="#FFC3A0" stroke="#FFC3A0" stroke-width="0"/><rect x="537.4897176706927" y="440.4545454545455" width="17.998912700017293" height="26.545454545454504" fill="#FFC3A0" stroke="#FFC3A0" stroke-width="0"/><rect x="557.0892596307841" y="421.9090909090909" width="17.998912700017293" height="45.09090909090912" fill="#FFC3A0" stroke="#FFC3A0" stroke-width="0"/><rect x="576.6888015908756" y="162.27272727272725" width="17.998912700017293" height="304.72727272727275" fill="#FFC3A0" stroke="#FFC3A0" stroke-width="0"/><rect x="596.2883435509669" y="255" width="17.998912700017293" height="212" fill="#FFC3A0" stroke="#FFC3A0" stroke-width="0"/><rect x="615.8878855110585" y="292.09090909090907" width="17.998912700017293" height="174.90909090909093" fill="#FFC3A0" stroke="#FFC3A0" stroke-width="0"/><rect x="635.4874274711499" y="347.72727272727275" width="17.998912700017293" height="119.27272727272725" fill="#FFC3A0" stroke="#FFC3A0" stroke-width="0"/><rect x="655.0869694312413" y="449.72727272727275" width="17.998912700017293" height="17.272727272727252" fill="#FFC3A0" stroke="#FFC3A0" stroke-width="0"/></g><g class="bar-plot-3"><rect x="86.70025258858999" y="227.18181818181816" width="17.998912700017293" height="239.81818181818184" fill="#DCDDE1" stroke="#DCDDE1" stroke-width="0"/><rect x="106.29979454868142" y="440.4545454545455" width="17.998912700017293" height="26.545454545454504" fill="#DCDDE1" stroke="#DCDDE1" stroke-width="0"/><rect x="125.89933650877285" y="449.72727272727275" width="17.998912700017293" height="17.272727272727252" fill="#DCDDE1" stroke="#DCDDE1" stroke-width="0"/><rect x="145.49887846886426" y="190.09090909090912" width="17.998912700017293" height="276.9090909090909" fill="#DCDDE1" stroke="#DCDDE1" stroke-width="0"/><rect x="165.0984204289557" y="245.72727272727275" width="17.998912700017293" height="221.27272727272725" fill="#DCDDE1" stroke="#DCDDE1" stroke-width="0"/><rect x="184.69796238904712" y="134.45454545454547" width="17.998912700017293" height="332.5454545454545" fill="#DCDDE1" stroke="#DCDDE1" stroke-width="0"/><rect x="204.29750434913853" y="217.90909090909088" width="17.998912700017293" height="249.09090909090912" fill="#DCDDE1" stroke="#DCDDE1" stroke-width="0"/><rect x="223.89704630922998" y="264.27272727272725" width="17.998912700017293" height="202.72727272727275" fill="#DCDDE1" stroke="#DCDDE1" stroke-width="0"/><rect x="243.4965882693214" y="449.72727272727275" width="17.998912700017293" height="17.272727272727252" fill="#DCDDE1" stroke="#DCDDE1" stroke-width="0"/><rect x="263.09613022941284" y="449.72727272727275" width="17.998912700017293" height="17.272727272727252" fill="#DCDDE1" stroke="#DCDDE1" stroke-width="0"/><rect x="282.69567218950425" y="375.5454545454545" width="17.998912700017293" height="91.4545454545455" fill="#DCDDE1" stroke="#DCDDE1" stroke-width="0"/><rect x="302.29521414959567" y="273.5454545454545" width="17.998912700017293" height="193.4545454545455" fill="#DCDDE1" stroke="#DCDDE1" stroke-width="0"/><rect x="321.8947561096871" y="338.4545454545455" width="17.998912700017293" height="128.5454545454545" fill="#DCDDE1" stroke="#DCDDE1" stroke-width="0"/><rect x="341.4942980697785" y="162.27272727272725" width="17.998912700017293" height="304.72727272727275" fill="#DCDDE1" stroke="#DCDDE1" stroke-width="0"/><rect x="361.09384002986997" y="78.81818181818184" width="17.998912700017293" height="388.18181818181813" fill="#DCDDE1" stroke="#DCDDE1" stroke-width="0"/><rect x="380.6933819899614" y="459" width="17.998912700017293" height="8" fill="#DCDDE1" stroke="#DCDDE1" stroke-width="0"/><rect x="400.2929239500528" y="431.18181818181824" width="17.998912700017293" height="35.818181818181756" fill="#DCDDE1" stroke="#DCDDE1" stroke-width="0"/><rect x="419.8924659101442" y="236.45454545454547" width="17.998912700017293" height="230.54545454545453" fill="#DCDDE1" stroke="#DCDDE1" stroke-width="0"/><rect x="439.4920078702356" y="199.36363636363637" width="17.998912700017293" height="267.6363636363636" fill="#DCDDE1" stroke="#DCDDE1" stroke-width="0"/><rect x="459.0915498303271" y="134.45454545454547" width="17.998912700017293" height="332.5454545454545" fill="#DCDDE1" stroke="#DCDDE1" stroke-width="0"/><rect x="478.6910917904185" y="69.54545454545453" width="17.998912700017293" height="397.4545454545455" fill="#DCDDE1" stroke="#DCDDE1" stroke-width="0"/><rect x="498.2906337505099" y="421.9090909090909" width="17.998912700017293" height="45.09090909090912" fill="#DCDDE1" stroke="#DCDDE1" stroke-width="0"/><rect x="517.8901757106013" y="375.5454545454545" width="17.998912700017293" height="91.4545454545455" fill="#DCDDE1" stroke="#DCDDE1" stroke-width="0"/><rect x="537.4897176706927" y="440.4545454545455" width="17.998912700017293" height="26.545454545454504" fill="#DCDDE1" stroke="#DCDDE1" stroke-width="0"/><rect x="557.0892596307841" y="421.9090909090909" width="17.998912700017293" height="45.09090909090912" fill="#DCDDE1" stroke="#DCDDE1" stroke-width="0"/><rect x="576.6888015908756" y="162.27272727272725" width="17.998912700017293" height="304.72727272727275" fill="#DCDDE1" stroke="#DCDDE1" stroke-width="0"/><rect x="596.2883435509669" y="255" width="17.998912700017293" height="212" fill="#DCDDE1" stroke="#DCDDE1" stroke-width="0"/><rect x="615.8878855110585" y="292.09090909090907" width="17.998912700017293" height="174.90909090909093" fill="#DCDDE1" stroke="#DCDDE1" stroke-width="0"/><rect x="635.4874274711499" y="338.4545454545455" width="17.998912700017293" height="128.5454545454545" fill="#DCDDE1" stroke="#DCDDE1" stroke-width="0"/><rect x="655.0869694312413" y="449.72727272727275" width="17.998912700017293" height="17.272727272727252" fill="#DCDDE1" stroke="#DCDDE1" stroke-width="0"/></g><g class="bar-plot-4"><rect x="86.70025258858999" y="217.90909090909088" width="17.998912700017293" height="249.09090909090912" fill="#B8E994" stroke="#B8E994" stroke-width="0"/><rect x="106.29979454868142" y="440.4545454545455" width="17.998912700017293" height="26.545454545454504" fill="#B8E994" stroke="#B8E994" stroke-width="0"/><rect x="125.89933650877285" y="449.72727272727275" width="17.998912700017293" height="17.272727272727252" fill="#B8E994" stroke="#B8E994" stroke-width="0"/><rect x="145.49887846886426" y="190.09090909090912" width="17.998912700017293" height="276.9090909090909" fill="#B8E994" stroke="#B8E994" stroke-width="0"/><rect x="165.0984204289557" y="245.72727272727275" width="17.998912700017293" height="221.27272727272725" fill="#B8E994" stroke="#B8E994" stroke-width="0"/><rect x="184.69796238904712" y="134.45454545454547" width="17.998912700017293" height="332.5454545454545" fill="#B8E994" stroke="#B8E994" stroke-width="0"/><rect x="204.29750434913853" y="217.90909090909088" width="17.998912700017293" height="249.09090909090912" fill="#B8E994" stroke="#B8E994" stroke-width="0"/><rect x="223.89704630922998" y="264.27272727272725" width="17.998912700017293" height="202.72727272727275" fill="#B8E994" stroke="#B8E994" stroke-width="0"/><rect x="243.4965882693214" y="449.72727272727275" width="17.998912700017293" height="17.272727272727252" fill="#B8E994" stroke="#B8E994" stroke-width="0"/><rect x="263.09613022941284" y="449.72727272727275" width="17.998912700017293" height="17.272727272727252" fill="#B8E994" stroke="#B8E994" stroke-width="0"/><rect x="282.69567218950425" y="366.27272727272725" width="17.998912700017293" height="100.72727272727275" fill="#B8E994" stroke="#B8E994" stroke-width="0"/><rect x="302.29521414959567" y="273.5454545454545" width="17.998912700017293" height="193.4545454545455" fill="#B8E994" stroke="#B8E994" stroke-width="0"/><rect x="321.8947561096871" y="338.4545454545455" width="17.998912700017293" height="128.5454545454545" fill="#B8E994" stroke="#B8E994" stroke-width="0"/><rect x="341.4942980697785" y="162.27272727272725" width="17.998912700017293" height="304.72727272727275" fill="#B8E994" stroke="#B8E994" stroke-width="0"/><rect x="361.09384002986997" y="78.81818181818184" width="17.998912700017293" height="388.18181818181813" fill="#B8E994" stroke="#B8E994" stroke-width="0"/><rect x="380.6933819899614" y="459" width="17.998912700017293" height="8" fill="#B8E994" stroke="#B8E994" stroke-width="0"/><rect x="400.2929239500528" y="431.18181818181824" width="17.998912700017293" height="35.818181818181756" fill="#B8E994" stroke="#B8E994" stroke-width="0"/><rect x="419.8924659101442" y="236.45454545454547" width="17.998912700017293" height="230.54545454545453" fill="#B8E994" stroke="#B8E994" stroke-width="0"/><rect x="439.4920078702356" y="190.09090909090912" width="17.998912700017293" height="276.9090909090909" fill="#B8E994" stroke="#B8E994" stroke-width="0"/><rect x="459.0915498303271" y="134.45454545454547" width="17.998912700017293" height="332.5454545454545" fill="#B8E994" stroke="#B8E994" stroke-width="0"/><rect x="478.6910917904185" y="60.272727272727266" width="17.998912700017293" height="406.72727272727275" fill="#B8E994" stroke="#B8E994" stroke-width="0"/><rect x="498.2906337505099" y="421.9090909090909" width="17.998912700017293" height="45.09090909090912" fill="#B8E994" stroke="#B8E994" stroke-width="0"/><rect x="517.8901757106013" y="375.5454545454545" width="17.998912700017293" height="91.4545454545455" fill="#B8E994" stroke="#B8E994" stroke-width="0"/><rect x="537.4897176706927" y="440.4545454545455" width="17.998912700017293" height="26.545454545454504" fill="#B8E994" stroke="#B8E994" stroke-width="0"/><rect x="557.0892596307841" y="421.9090909090909" width="17.998912700017293" height="45.09090909090912" fill="#B8E994" stroke="#B8E994" stroke-width="0"/><rect x="576.6888015908756" y="162.27272727272725" width="17.998912700017293" height="304.72727272727275" fill="#B8E994" stroke="#B8E994" stroke-width="0"/><rect x="596.2883435509669" y="255" width="17.998912700017293" height="212" fill="#B8E994" stroke="#B8E994" stroke-width="0"/><rect x="615.8878855110585" y="292.09090909090907" width="17.998912700017293" height="174.90909090909093" fill="#B8E994" stroke="#B8E994" stroke-width="0"/><rect x="635.4874274711499" y="338.4545454545455" width="17.998912700017293" height="128.5454545454545" fill="#B8E994" stroke="#B8E994" stroke-width="0"/><rect x="655.0869694312413" y="449.72727272727275" width="17.998912700017293" height="17.272727272727252" fill="#B8E994" stroke="#B8E994" stroke-width="0"/></g><g class="bar-plot-5"><rect x="86.70025258858999" y="180.81818181818184" width="17.998912700017293" height="286.18181818181813" fill="#D1A36F" stroke="#D1A36F" stroke-width="0"/><rect x="106.29979454868142" y="421.9090909090909" width="17.998912700017293" height="45.09090909090912" fill="#D1A36F" stroke="#D1A36F" stroke-width="0"/><rect x="125.89933650877285" y="431.18181818181824" width="17.998912700017293" height="35.818181818181756" fill="#D1A36F" stroke="#D1A36F" stroke-width="0"/><rect x="145.49887846886426" y="180.81818181818184" width="17.998912700017293" height="286.18181818181813" fill="#D1A36F" stroke="#D1A36F" stroke-width="0"/><rect x="165.0984204289557" y="236.45454545454547" width="17.998912700017293" height="230.54545454545453" fill="#D1A36F" stroke="#D1A36F" stroke-width="0"/><rect x="184.69796238904712" y="134.45454545454547" width="17.998912700017293" height="332.5454545454545" fill="#D1A36F" stroke="#D1A36F" stroke-width="0"/><rect x="204.29750434913853" y="199.36363636363637" width="17.998912700017293" height="267.6363636363636" fill="#D1A36F" stroke="#D1A36F" stroke-width="0"/><rect x="223.89704630922998" y="236.45454545454547" width="17.998912700017293" height="230.54545454545453" fill="#D1A36F" stroke="#D1A36F" stroke-width="0"/><rect x="243.4965882693214" y="431.18181818181824" width="17.998912700017293" height="35.818181818181756" fill="#D1A36F" stroke="#D1A36F" stroke-width="0"/><rect x="263.09613022941284" y="431.18181818181824" width="17.998912700017293" height="35.818181818181756" fill="#D1A36F" stroke="#D1A36F" stroke-width="0"/><rect x="282.69567218950425" y="329.18181818181824" width="17.998912700017293" height="137.81818181818176" fill="#D1A36F" stroke="#D1A36F" stroke-width="0"/><rect x="302.29521414959567" y="245.72727272727275" width="17.998912700017293" height="221.27272727272725" fill="#D1A36F" stroke="#D1A36F" stroke-width="0"/><rect x="321.8947561096871" y="329.18181818181824" width="17.998912700017293" height="137.81818181818176" fill="#D1A36F" stroke="#D1A36F" stroke-width="0"/><rect x="341.4942980697785" y="153" width="17.998912700017293" height="314" fill="#D1A36F" stroke="#D1A36F" stroke-width="0"/><rect x="361.09384002986997" y="51" width="17.998912700017293" height="416" fill="#D1A36F" stroke="#D1A36F" stroke-width="0"/><rect x="380.6933819899614" y="459" width="17.998912700017293" height="8" fill="#D1A36F" stroke="#D1A36F" stroke-width="0"/><rect x="400.2929239500528" y="431.18181818181824" width="17.998912700017293" height="35.818181818181756" fill="#D1A36F" stroke="#D1A36F" stroke-width="0"/><rect x="419.8924659101442" y="199.36363636363637" width="17.998912700017293" height="267.6363636363636" fill="#D1A36F" stroke="#D1A36F" stroke-width="0"/><rect x="439.4920078702356" y="171.54545454545453" width="17.998912700017293" height="295.4545454545455" fill="#D1A36F" stroke="#D1A36F" stroke-width="0"/><rect x="459.0915498303271" y="88.0909090909091" width="17.998912700017293" height="378.9090909090909" fill="#D1A36F" stroke="#D1A36F" stroke-width="0"/><rect x="478.6910917904185" y="51" width="17.998912700017293" height="416" fill="#D1A36F" stroke="#D1A36F" stroke-width="0"/><rect x="498.2906337505099" y="421.9090909090909" width="17.998912700017293" height="45.09090909090912" fill="#D1A36F" stroke="#D1A36F" stroke-width="0"/><rect x="517.8901757106013" y="375.5454545454545" width="17.998912700017293" height="91.4545454545455" fill="#D1A36F" stroke="#D1A36F" stroke-width="0"/><rect x="537.4897176706927" y="431.18181818181824" width="17.998912700017293" height="35.818181818181756" fill="#D1A36F" stroke="#D1A36F" stroke-width="0"/><rect x="557.0892596307841" y="421.9090909090909" width="17.998912700017293" height="45.09090909090912" fill="#D1A36F" stroke="#D1A36F" stroke-width="0"/><rect x="576.6888015908756" y="134.45454545454547" width="17.998912700017293" height="332.5454545454545" fill="#D1A36F" stroke="#D1A36F" stroke-width="0"/><rect x="596.2883435509669" y="255" width="17.998912700017293" height="212" fill="#D1A36F" stroke="#D1A36F" stroke-width="0"/><rect x="615.8878855110585" y="282.81818181818176" width="17.998912700017293" height="184.18181818181824" fill="#D1A36F" stroke="#D1A36F" stroke-width="0"/><rect x="635.4874274711499" y="329.18181818181824" width="17.998912700017293" height="137.81818181818176" fill="#D1A36F" stroke="#D1A36F" stroke-width="0"/><rect x="655.0869694312413" y="440.4545454545455" width="17.998912700017293" height="26.545454545454504" fill="#D1A36F" stroke="#D1A36F" stroke-width="0"/></g></g><g class="bottom-axis"><g class="axis-line"><path d="M 59.78613471984863,468 L 700,468" fill="none" stroke="#131300" stroke-width="2"/></g><g class="label"><text x="0" y="0" fill="#131300" font-size="14" dominant-baseline="text-before-edge" text-anchor="middle" transform="translate(95.69970893859863, 479) rotate(0)">2026-03-13</text><text x="0" y="0" fill="#131300" font-size="14" dominant-baseline="text-before-edge" text-anchor="middle" transform="translate(115.29925089869006, 479) rotate(0)">2026-03-14</text><text x="0" y="0" fill="#131300" font-size="14" dominant-baseline="text-before-edge" text-anchor="middle" transform="translate(134.8987928587815, 479) rotate(0)">2026-03-15</text><text x="0" y="0" fill="#131300" font-size="14" dominant-baseline="text-before-edge" text-anchor="middle" transform="translate(154.4983348188729, 479) rotate(0)">2026-03-16</text><text x="0" y="0" fill="#131300" font-size="14" dominant-baseline="text-before-edge" text-anchor="middle" transform="translate(174.09787677896435, 479) rotate(0)">2026-03-17</text><text x="0" y="0" fill="#131300" font-size="14" dominant-baseline="text-before-edge" text-anchor="middle" transform="translate(193.69741873905576, 479) rotate(0)">2026-03-18</text><text x="0" y="0" fill="#131300" font-size="14" dominant-baseline="text-before-edge" text-anchor="middle" transform="translate(213.29696069914718, 479) rotate(0)">2026-03-19</text><text x="0" y="0" fill="#131300" font-size="14" dominant-baseline="text-before-edge" text-anchor="middle" transform="translate(232.89650265923862, 479) rotate(0)">2026-03-20</text><text x="0" y="0" fill="#131300" font-size="14" dominant-baseline="text-before-edge" text-anchor="middle" transform="translate(252.49604461933004, 479) rotate(0)">2026-03-21</text><text x="0" y="0" fill="#131300" font-size="14" dominant-baseline="text-before-edge" text-anchor="middle" transform="translate(272.0955865794215, 479) rotate(0)">2026-03-22</text><text x="0" y="0" fill="#131300" font-size="14" dominant-baseline="text-before-edge" text-anchor="middle" transform="translate(291.6951285395129, 479) rotate(0)">2026-03-23</text><text x="0" y="0" fill="#131300" font-size="14" dominant-baseline="text-before-edge" text-anchor="middle" transform="translate(311.2946704996043, 479) rotate(0)">2026-03-24</text><text x="0" y="0" fill="#131300" font-size="14" dominant-baseline="text-before-edge" text-anchor="middle" transform="translate(330.8942124596957, 479) rotate(0)">2026-03-25</text><text x="0" y="0" fill="#131300" font-size="14" dominant-baseline="text-before-edge" text-anchor="middle" transform="translate(350.49375441978714, 479) rotate(0)">2026-03-26</text><text x="0" y="0" fill="#131300" font-size="14" dominant-baseline="text-before-edge" text-anchor="middle" transform="translate(370.0932963798786, 479) rotate(0)">2026-03-27</text><text x="0" y="0" fill="#131300" font-size="14" dominant-baseline="text-before-edge" text-anchor="middle" transform="translate(389.69283833997, 479) rotate(0)">2026-03-28</text><text x="0" y="0" fill="#131300" font-size="14" dominant-baseline="text-before-edge" text-anchor="middle" transform="translate(409.29238030006144, 479) rotate(0)">2026-03-29</text><text x="0" y="0" fill="#131300" font-size="14" dominant-baseline="text-before-edge" text-anchor="middle" transform="translate(428.89192226015285, 479) rotate(0)">2026-03-30</text><text x="0" y="0" fill="#131300" font-size="14" dominant-baseline="text-before-edge" text-anchor="middle" transform="translate(448.49146422024427, 479) rotate(0)">2026-03-31</text><text x="0" y="0" fill="#131300" font-size="14" dominant-baseline="text-before-edge" text-anchor="middle" transform="translate(468.09100618033574, 479) rotate(0)">2026-04-01</text><text x="0" y="0" fill="#131300" font-size="14" dominant-baseline="text-before-edge" text-anchor="middle" transform="translate(487.69054814042715, 479) rotate(0)">2026-04-02</text><text x="0" y="0" fill="#131300" font-size="14" dominant-baseline="text-before-edge" text-anchor="middle" transform="translate(507.29009010051857, 479) rotate(0)">2026-04-03</text><text x="0" y="0" fill="#131300" font-size="14" dominant-baseline="text-before-edge" text-anchor="middle" transform="translate(526.88963206061, 479) rotate(0)">2026-04-04</text><text x="0" y="0" fill="#131300" font-size="14" dominant-baseline="text-before-edge" text-anchor="middle" transform="translate(546.4891740207014, 479) rotate(0)">2026-04-05</text><text x="0" y="0" fill="#131300" font-size="14" dominant-baseline="text-before-edge" text-anchor="middle" transform="translate(566.0887159807928, 479) rotate(0)">2026-04-06</text><text x="0" y="0" fill="#131300" font-size="14" dominant-baseline="text-before-edge" text-anchor="middle" transform="translate(585.6882579408843, 479) rotate(0)">2026-04-07</text><text x="0" y="0" fill="#131300" font-size="14" dominant-baseline="text-before-edge" text-anchor="middle" transform="translate(605.2877999009756, 479) rotate(0)">2026-04-08</text><text x="0" y="0" fill="#131300" font-size="14" dominant-baseline="text-before-edge" text-anchor="middle" transform="translate(624.8873418610672, 479) rotate(0)">2026-04-09</text><text x="0" y="0" fill="#131300" font-size="14" dominant-baseline="text-before-edge" text-anchor="middle" transform="translate(644.4868838211586, 479) rotate(0)">2026-04-10</text><text x="0" y="0" fill="#131300" font-size="14" dominant-baseline="text-before-edge" text-anchor="middle" transform="translate(664.08642578125, 479) rotate(0)">2026-04-11</text></g><g class="ticks"><path d="M 95.69970893859863,469 L 95.69970893859863,474" fill="none" stroke="#131300" stroke-width="2"/><path d="M 115.29925089869006,469 L 115.29925089869006,474" fill="none" stroke="#131300" stroke-width="2"/><path d="M 134.8987928587815,469 L 134.8987928587815,474" fill="none" stroke="#131300" stroke-width="2"/><path d="M 154.4983348188729,469 L 154.4983348188729,474" fill="none" stroke="#131300" stroke-width="2"/><path d="M 174.09787677896435,469 L 174.09787677896435,474" fill="none" stroke="#131300" stroke-width="2"/><path d="M 193.69741873905576,469 L 193.69741873905576,474" fill="none" stroke="#131300" stroke-width="2"/><path d="M 213.29696069914718,469 L 213.29696069914718,474" fill="none" stroke="#131300" stroke-width="2"/><path d="M 232.89650265923862,469 L 232.89650265923862,474" fill="none" stroke="#131300" stroke-width="2"/><path d="M 252.49604461933004,469 L 252.49604461933004,474" fill="none" stroke="#131300" stroke-width="2"/><path d="M 272.0955865794215,469 L 272.0955865794215,474" fill="none" stroke="#131300" stroke-width="2"/><path d="M 291.6951285395129,469 L 291.6951285395129,474" fill="none" stroke="#131300" stroke-width="2"/><path d="M 311.2946704996043,469 L 311.2946704996043,474" fill="none" stroke="#131300" stroke-width="2"/><path d="M 330.8942124596957,469 L 330.8942124596957,474" fill="none" stroke="#131300" stroke-width="2"/><path d="M 350.49375441978714,469 L 350.49375441978714,474" fill="none" stroke="#131300" stroke-width="2"/><path d="M 370.0932963798786,469 L 370.0932963798786,474" fill="none" stroke="#131300" stroke-width="2"/><path d="M 389.69283833997,469 L 389.69283833997,474" fill="none" stroke="#131300" stroke-width="2"/><path d="M 409.29238030006144,469 L 409.29238030006144,474" fill="none" stroke="#131300" stroke-width="2"/><path d="M 428.89192226015285,469 L 428.89192226015285,474" fill="none" stroke="#131300" stroke-width="2"/><path d="M 448.49146422024427,469 L 448.49146422024427,474" fill="none" stroke="#131300" stroke-width="2"/><path d="M 468.09100618033574,469 L 468.09100618033574,474" fill="none" stroke="#131300" stroke-width="2"/><path d="M 487.69054814042715,469 L 487.69054814042715,474" fill="none" stroke="#131300" stroke-width="2"/><path d="M 507.29009010051857,469 L 507.29009010051857,474" fill="none" stroke="#131300" stroke-width="2"/><path d="M 526.88963206061,469 L 526.88963206061,474" fill="none" stroke="#131300" stroke-width="2"/><path d="M 546.4891740207014,469 L 546.4891740207014,474" fill="none" stroke="#131300" stroke-width="2"/><path d="M 566.0887159807928,469 L 566.0887159807928,474" fill="none" stroke="#131300" stroke-width="2"/><path d="M 585.6882579408843,469 L 585.6882579408843,474" fill="none" stroke="#131300" stroke-width="2"/><path d="M 605.2877999009756,469 L 605.2877999009756,474" fill="none" stroke="#131300" stroke-width="2"/><path d="M 624.8873418610672,469 L 624.8873418610672,474" fill="none" stroke="#131300" stroke-width="2"/><path d="M 644.4868838211586,469 L 644.4868838211586,474" fill="none" stroke="#131300" stroke-width="2"/><path d="M 664.08642578125,469 L 664.08642578125,474" fill="none" stroke="#131300" stroke-width="2"/></g></g><g class="left-axis"><g class="axisl-line"><path d="M 58.78613471984863,43 L 58.78613471984863,467" fill="none" stroke="#131300" stroke-width="2"/></g><g class="label"><text x="0" y="0" fill="#131300" font-size="14" dominant-baseline="middle" text-anchor="end" transform="translate(47.78613471984863, 88.0909090909091) rotate(0)">40</text><text x="0" y="0" fill="#131300" font-size="14" dominant-baseline="middle" text-anchor="end" transform="translate(47.78613471984863, 134.45454545454547) rotate(0)">35</text><text x="0" y="0" fill="#131300" font-size="14" dominant-baseline="middle" text-anchor="end" transform="translate(47.78613471984863, 180.81818181818184) rotate(0)">30</text><text x="0" y="0" fill="#131300" font-size="14" dominant-baseline="middle" text-anchor="end" transform="translate(47.78613471984863, 227.18181818181816) rotate(0)">25</text><text x="0" y="0" fill="#131300" font-size="14" dominant-baseline="middle" text-anchor="end" transform="translate(47.78613471984863, 273.5454545454545) rotate(0)">20</text><text x="0" y="0" fill="#131300" font-size="14" dominant-baseline="middle" text-anchor="end" transform="translate(47.78613471984863, 319.90909090909093) rotate(0)">15</text><text x="0" y="0" fill="#131300" font-size="14" dominant-baseline="middle" text-anchor="end" transform="translate(47.78613471984863, 366.27272727272725) rotate(0)">10</text><text x="0" y="0" fill="#131300" font-size="14" dominant-baseline="middle" text-anchor="end" transform="translate(47.78613471984863, 412.6363636363636) rotate(0)">5</text><text x="0" y="0" fill="#131300" font-size="14" dominant-baseline="middle" text-anchor="end" transform="translate(47.78613471984863, 459) rotate(0)">0</text></g><g class="ticks"><path d="M 57.78613471984863,88.0909090909091 L 52.78613471984863,88.0909090909091" fill="none" stroke="#131300" stroke-width="2"/><path d="M 57.78613471984863,134.45454545454547 L 52.78613471984863,134.45454545454547" fill="none" stroke="#131300" stroke-width="2"/><path d="M 57.78613471984863,180.81818181818184 L 52.78613471984863,180.81818181818184" fill="none" stroke="#131300" stroke-width="2"/><path d="M 57.78613471984863,227.18181818181816 L 52.78613471984863,227.18181818181816" fill="none" stroke="#131300" stroke-width="2"/><path d="M 57.78613471984863,273.5454545454545 L 52.78613471984863,273.5454545454545" fill="none" stroke="#131300" stroke-width="2"/><path d="M 57.78613471984863,319.90909090909093 L 52.78613471984863,319.90909090909093" fill="none" stroke="#131300" stroke-width="2"/><path d="M 57.78613471984863,366.27272727272725 L 52.78613471984863,366.27272727272725" fill="none" stroke="#131300" stroke-width="2"/><path d="M 57.78613471984863,412.6363636363636 L 52.78613471984863,412.6363636363636" fill="none" stroke="#131300" stroke-width="2"/><path d="M 57.78613471984863,459 L 52.78613471984863,459" fill="none" stroke="#131300" stroke-width="2"/></g><g class="title"><text x="0" y="0" fill="#131300" font-size="16" dominant-baseline="text-before-edge" text-anchor="middle" transform="translate(5, 255) rotate(270)">Count</text></g></g></g><g class="mermaid-tmp-group"/></svg>