<svg id="my-svg" width="100%" xmlns="http://www.w3.org/2000/svg" xmlns:xlink="http://www.w3.org/1999/xlink" style="max-width: 700px; background-color: white;" viewBox="0 0 700 500" role="graphics-document document" aria-roledescription="xychart"><style>#my-svg{font-family:"trebuchet ms",verdana,arial,sans-serif;font-size:16px;fill:#333;}@keyframes edge-animation-frame{from{stroke-dashoffset:0;}}@keyframes dash{to{stroke-dashoffset:0;}}#my-svg .edge-animation-slow{stroke-dasharray:9,5!important;stroke-dashoffset:900;animation:dash 50s linear infinite;stroke-linecap:round;}#my-svg .edge-animation-fast{stroke-dasharray:9,5!important;stroke-dashoffset:900;animation:dash 20s linear infinite;stroke-linecap:round;}#my-svg .error-icon{fill:#552222;}#my-svg .error-text{fill:#552222;stroke:#552222;}#my-svg .edge-thickness-normal{stroke-width:1px;}#my-svg .edge-thickness-thick{stroke-width:3.5px;}#my-svg .edge-pattern-solid{stroke-dasharray:0;}#my-svg .edge-thickness-invisible{stroke-width:0;fill:none;}#my-svg .edge-pattern-dashed{stroke-dasharray:3;}#my-svg .edge-pattern-dotted{stroke-dasharray:2;}#my-svg .marker{fill:#333333;stroke:#333333;}#my-svg .marker.cross{stroke:#333333;}#my-svg svg{font-family:"trebuchet ms",verdana,arial,sans-serif;font-size:16px;}#my-svg p{margin:0;}#my-svg :root{--mermaid-font-family:"trebuchet ms",verdana,arial,sans-serif;}</style><g/><g class="main"><rect width="700" height="500" class="background" fill="white"/><g class="chart-title"><text x="0" y="0" fill="#131300" font-size="20" dominant-baseline="middle" text-anchor="middle" transform="translate(350, 21.5) rotate(0)">GC News — TYPE_EN per day (last 30 days)</text></g><g class="plot"><g class="bar-plot-0"><rect x="86.70025258858999" y="439.57142857142856" width="17.998912700017293" height="27.428571428571445" fill="#ECECFF" stroke="#ECECFF" stroke-width="0"/><rect x="106.29979454868142" y="459" width="17.998912700017293" height="8" fill="#ECECFF" stroke="#ECECFF" stroke-width="0"/><rect x="125.89933650877285" y="429.8571428571429" width="17.998912700017293" height="37.14285714285711" fill="#ECECFF" stroke="#ECECFF" stroke-width="0"/><rect x="145.49887846886426" y="420.1428571428571" width="17.998912700017293" height="46.85714285714289" fill="#ECECFF" stroke="#ECECFF" stroke-width="0"/><rect x="165.0984204289557" y="459" width="17.998912700017293" height="8" fill="#ECECFF" stroke="#ECECFF" stroke-width="0"/><rect x="184.69796238904712" y="449.2857142857143" width="17.998912700017293" height="17.714285714285722" fill="#ECECFF" stroke="#ECECFF" stroke-width="0"/><rect x="204.29750434913853" y="420.1428571428571" width="17.998912700017293" height="46.85714285714289" fill="#ECECFF" stroke="#ECECFF" stroke-width="0"/><rect x="223.89704630922998" y="459" width="17.998912700017293" height="8" fill="#ECECFF" stroke="#ECECFF" stroke-width="0"/><rect x="243.4965882693214" y="459" width="17.998912700017293" height="8" fill="#ECECFF" stroke="#ECECFF" stroke-width="0"/><rect x="263.09613022941284" y="429.8571428571429" width="17.998912700017293" height="37.14285714285711" fill="#ECECFF" stroke="#ECECFF" stroke-width="0"/><rect x="282.69567218950425" y="459" width="17.998912700017293" height="8" fill="#ECECFF" stroke="#ECECFF" stroke-width="0"/><rect x="302.29521414959567" y="449.2857142857143" width="17.998912700017293" height="17.714285714285722" fill="#ECECFF" stroke="#ECECFF" stroke-width="0"/><rect x="321.8947561096871" y="439.57142857142856" width="17.998912700017293" height="27.428571428571445" fill="#ECECFF" stroke="#ECECFF" stroke-width="0"/><rect x="341.4942980697785" y="429.8571428571429" width="17.998912700017293" height="37.14285714285711" fill="#ECECFF" stroke="#ECECFF" stroke-width="0"/><rect x="361.09384002986997" y="459" width="17.998912700017293" height="8" fill="#ECECFF" stroke="#ECECFF" stroke-width="0"/><rect x="380.6933819899614" y="459" width="17.998912700017293" height="8" fill="#ECECFF" stroke="#ECECFF" stroke-width="0"/><rect x="400.2929239500528" y="429.8571428571429" width="17.998912700017293" height="37.14285714285711" fill="#ECECFF" stroke="#ECECFF" stroke-width="0"/><rect x="419.8924659101442" y="459" width="17.998912700017293" height="8" fill="#ECECFF" stroke="#ECECFF" stroke-width="0"/><rect x="439.4920078702356" y="429.8571428571429" width="17.998912700017293" height="37.14285714285711" fill="#ECECFF" stroke="#ECECFF" stroke-width="0"/><rect x="459.0915498303271" y="420.1428571428571" width="17.998912700017293" height="46.85714285714289" fill="#ECECFF" stroke="#ECECFF" stroke-width="0"/><rect x="478.6910917904185" y="449.2857142857143" width="17.998912700017293" height="17.714285714285722" fill="#ECECFF" stroke="#ECECFF" stroke-width="0"/><rect x="498.2906337505099" y="459" width="17.998912700017293" height="8" fill="#ECECFF" stroke="#ECECFF" stroke-width="0"/><rect x="517.8901757106013" y="459" width="17.998912700017293" height="8" fill="#ECECFF" stroke="#ECECFF" stroke-width="0"/><rect x="537.4897176706927" y="449.2857142857143" width="17.998912700017293" height="17.714285714285722" fill="#ECECFF" stroke="#ECECFF" stroke-width="0"/><rect x="557.0892596307841" y="449.2857142857143" width="17.998912700017293" height="17.714285714285722" fill="#ECECFF" stroke="#ECECFF" stroke-width="0"/><rect x="576.6888015908756" y="449.2857142857143" width="17.998912700017293" height="17.714285714285722" fill="#ECECFF" stroke="#ECECFF" stroke-width="0"/><rect x="596.2883435509669" y="400.7142857142857" width="17.998912700017293" height="66.28571428571428" fill="#ECECFF" stroke="#ECECFF" stroke-width="0"/><rect x="615.8878855110585" y="420.1428571428571" width="17.998912700017293" height="46.85714285714289" fill="#ECECFF" stroke="#ECECFF" stroke-width="0"/><rect x="635.4874274711499" y="459" width="17.998912700017293" height="8" fill="#ECECFF" stroke="#ECECFF" stroke-width="0"/><rect x="655.0869694312413" y="459" width="17.998912700017293" height="8" fill="#ECECFF" stroke="#ECECFF" stroke-width="0"/></g><g class="bar-plot-1"><rect x="86.70025258858999" y="429.8571428571429" width="17.998912700017293" height="37.14285714285711" fill="#8493A6" stroke="#8493A6" stroke-width="0"/><rect x="106.29979454868142" y="459" width="17.998912700017293" height="8" fill="#8493A6" stroke="#8493A6" stroke-width="0"/><rect x="125.89933650877285" y="361.8571428571429" width="17.998912700017293" height="105.14285714285711" fill="#8493A6" stroke="#8493A6" stroke-width="0"/><rect x="145.49887846886426" y="352.1428571428571" width="17.998912700017293" height="114.85714285714289" fill="#8493A6" stroke="#8493A6" stroke-width="0"/><rect x="165.0984204289557" y="361.8571428571429" width="17.998912700017293" height="105.14285714285711" fill="#8493A6" stroke="#8493A6" stroke-width="0"/><rect x="184.69796238904712" y="391" width="17.998912700017293" height="76" fill="#8493A6" stroke="#8493A6" stroke-width="0"/><rect x="204.29750434913853" y="361.8571428571429" width="17.998912700017293" height="105.14285714285711" fill="#8493A6" stroke="#8493A6" stroke-width="0"/><rect x="223.89704630922998" y="459" width="17.998912700017293" height="8" fill="#8493A6" stroke="#8493A6" stroke-width="0"/><rect x="243.4965882693214" y="459" width="17.998912700017293" height="8" fill="#8493A6" stroke="#8493A6" stroke-width="0"/><rect x="263.09613022941284" y="420.1428571428571" width="17.998912700017293" height="46.85714285714289" fill="#8493A6" stroke="#8493A6" stroke-width="0"/><rect x="282.69567218950425" y="439.57142857142856" width="17.998912700017293" height="27.428571428571445" fill="#8493A6" stroke="#8493A6" stroke-width="0"/><rect x="302.29521414959567" y="410.4285714285714" width="17.998912700017293" height="56.57142857142861" fill="#8493A6" stroke="#8493A6" stroke-width="0"/><rect x="321.8947561096871" y="352.1428571428571" width="17.998912700017293" height="114.85714285714289" fill="#8493A6" stroke="#8493A6" stroke-width="0"/><rect x="341.4942980697785" y="391" width="17.998912700017293" height="76" fill="#8493A6" stroke="#8493A6" stroke-width="0"/><rect x="361.09384002986997" y="459" width="17.998912700017293" height="8" fill="#8493A6" stroke="#8493A6" stroke-width="0"/><rect x="380.6933819899614" y="449.2857142857143" width="17.998912700017293" height="17.714285714285722" fill="#8493A6" stroke="#8493A6" stroke-width="0"/><rect x="400.2929239500528" y="361.8571428571429" width="17.998912700017293" height="105.14285714285711" fill="#8493A6" stroke="#8493A6" stroke-width="0"/><rect x="419.8924659101442" y="323.00000000000006" width="17.998912700017293" height="143.99999999999994" fill="#8493A6" stroke="#8493A6" stroke-width="0"/><rect x="439.4920078702356" y="323.00000000000006" width="17.998912700017293" height="143.99999999999994" fill="#8493A6" stroke="#8493A6" stroke-width="0"/><rect x="459.0915498303271" y="371.57142857142856" width="17.998912700017293" height="95.42857142857144" fill="#8493A6" stroke="#8493A6" stroke-width="0"/><rect x="478.6910917904185" y="391" width="17.998912700017293" height="76" fill="#8493A6" stroke="#8493A6" stroke-width="0"/><rect x="498.2906337505099" y="459" width="17.998912700017293" height="8" fill="#8493A6" stroke="#8493A6" stroke-width="0"/><rect x="517.8901757106013" y="459" width="17.998912700017293" height="8" fill="#8493A6" stroke="#8493A6" stroke-width="0"/><rect x="537.4897176706927" y="439.57142857142856" width="17.998912700017293" height="27.428571428571445" fill="#8493A6" stroke="#8493A6" stroke-width="0"/><rect x="557.0892596307841" y="420.1428571428571" width="17.998912700017293" height="46.85714285714289" fill="#8493A6" stroke="#8493A6" stroke-width="0"/><rect x="576.6888015908756" y="410.4285714285714" width="17.998912700017293" height="56.57142857142861" fill="#8493A6" stroke="#8493A6" stroke-width="0"/><rect x="596.2883435509669" y="332.7142857142857" width="17.998912700017293" height="134.28571428571428" fill="#8493A6" stroke="#8493A6" stroke-width="0"/><rect x="615.8878855110585" y="371.57142857142856" width="17.998912700017293" height="95.42857142857144" fill="#8493A6" stroke="#8493A6" stroke-width="0"/><rect x="635.4874274711499" y="459" width="17.998912700017293" height="8" fill="#8493A6" stroke="#8493A6" stroke-width="0"/><rect x="655.0869694312413" y="439.57142857142856" width="17.998912700017293" height="27.428571428571445" fill="#8493A6" stroke="#8493A6" stroke-width="0"/></g><g class="bar-plot-2"><rect x="86.70025258858999" y="400.7142857142857" width="17.998912700017293" height="66.28571428571428" fill="#FFC3A0" stroke="#FFC3A0" stroke-width="0"/><rect x="106.29979454868142" y="449.2857142857143" width="17.998912700017293" height="17.714285714285722" fill="#FFC3A0" stroke="#FFC3A0" stroke-width="0"/><rect x="125.89933650877285" y="225.85714285714286" width="17.998912700017293" height="241.14285714285714" fill="#FFC3A0" stroke="#FFC3A0" stroke-width="0"/><rect x="145.49887846886426" y="225.85714285714286" width="17.998912700017293" height="241.14285714285714" fill="#FFC3A0" stroke="#FFC3A0" stroke-width="0"/><rect x="165.0984204289557" y="255" width="17.998912700017293" height="212" fill="#FFC3A0" stroke="#FFC3A0" stroke-width="0"/><rect x="184.69796238904712" y="264.7142857142857" width="17.998912700017293" height="202.28571428571428" fill="#FFC3A0" stroke="#FFC3A0" stroke-width="0"/><rect x="204.29750434913853" y="177.2857142857143" width="17.998912700017293" height="289.71428571428567" fill="#FFC3A0" stroke="#FFC3A0" stroke-width="0"/><rect x="223.89704630922998" y="439.57142857142856" width="17.998912700017293" height="27.428571428571445" fill="#FFC3A0" stroke="#FFC3A0" stroke-width="0"/><rect x="243.4965882693214" y="459" width="17.998912700017293" height="8" fill="#FFC3A0" stroke="#FFC3A0" stroke-width="0"/><rect x="263.09613022941284" y="303.5714285714286" width="17.998912700017293" height="163.4285714285714" fill="#FFC3A0" stroke="#FFC3A0" stroke-width="0"/><rect x="282.69567218950425" y="371.57142857142856" width="17.998912700017293" height="95.42857142857144" fill="#FFC3A0" stroke="#FFC3A0" stroke-width="0"/><rect x="302.29521414959567" y="332.7142857142857" width="17.998912700017293" height="134.28571428571428" fill="#FFC3A0" stroke="#FFC3A0" stroke-width="0"/><rect x="321.8947561096871" y="196.7142857142857" width="17.998912700017293" height="270.28571428571433" fill="#FFC3A0" stroke="#FFC3A0" stroke-width="0"/><rect x="341.4942980697785" y="225.85714285714286" width="17.998912700017293" height="241.14285714285714" fill="#FFC3A0" stroke="#FFC3A0" stroke-width="0"/><rect x="361.09384002986997" y="439.57142857142856" width="17.998912700017293" height="27.428571428571445" fill="#FFC3A0" stroke="#FFC3A0" stroke-width="0"/><rect x="380.6933819899614" y="449.2857142857143" width="17.998912700017293" height="17.714285714285722" fill="#FFC3A0" stroke="#FFC3A0" stroke-width="0"/><rect x="400.2929239500528" y="177.2857142857143" width="17.998912700017293" height="289.71428571428567" fill="#FFC3A0" stroke="#FFC3A0" stroke-width="0"/><rect x="419.8924659101442" y="235.57142857142856" width="17.998912700017293" height="231.42857142857144" fill="#FFC3A0" stroke="#FFC3A0" stroke-width="0"/><rect x="439.4920078702356" y="118.99999999999999" width="17.998912700017293" height="348" fill="#FFC3A0" stroke="#FFC3A0" stroke-width="0"/><rect x="459.0915498303271" y="216.14285714285714" width="17.998912700017293" height="250.85714285714286" fill="#FFC3A0" stroke="#FFC3A0" stroke-width="0"/><rect x="478.6910917904185" y="255" width="17.998912700017293" height="212" fill="#FFC3A0" stroke="#FFC3A0" stroke-width="0"/><rect x="498.2906337505099" y="449.2857142857143" width="17.998912700017293" height="17.714285714285722" fill="#FFC3A0" stroke="#FFC3A0" stroke-width="0"/><rect x="517.8901757106013" y="449.2857142857143" width="17.998912700017293" height="17.714285714285722" fill="#FFC3A0" stroke="#FFC3A0" stroke-width="0"/><rect x="537.4897176706927" y="371.57142857142856" width="17.998912700017293" height="95.42857142857144" fill="#FFC3A0" stroke="#FFC3A0" stroke-width="0"/><rect x="557.0892596307841" y="264.7142857142857" width="17.998912700017293" height="202.28571428571428" fill="#FFC3A0" stroke="#FFC3A0" stroke-width="0"/><rect x="576.6888015908756" y="332.7142857142857" width="17.998912700017293" height="134.28571428571428" fill="#FFC3A0" stroke="#FFC3A0" stroke-width="0"/><rect x="596.2883435509669" y="167.57142857142856" width="17.998912700017293" height="299.42857142857144" fill="#FFC3A0" stroke="#FFC3A0" stroke-width="0"/><rect x="615.8878855110585" y="118.99999999999999" width="17.998912700017293" height="348" fill="#FFC3A0" stroke="#FFC3A0" stroke-width="0"/><rect x="635.4874274711499" y="459" width="17.998912700017293" height="8" fill="#FFC3A0" stroke="#FFC3A0" stroke-width="0"/><rect x="655.0869694312413" y="439.57142857142856" width="17.998912700017293" height="27.428571428571445" fill="#FFC3A0" stroke="#FFC3A0" stroke-width="0"/></g><g class="bar-plot-3"><rect x="86.70025258858999" y="400.7142857142857" width="17.998912700017293" height="66.28571428571428" fill="#DCDDE1" stroke="#DCDDE1" stroke-width="0"/><rect x="106.29979454868142" y="449.2857142857143" width="17.998912700017293" height="17.714285714285722" fill="#DCDDE1" stroke="#DCDDE1" stroke-width="0"/><rect x="125.89933650877285" y="206.42857142857144" width="17.998912700017293" height="260.57142857142856" fill="#DCDDE1" stroke="#DCDDE1" stroke-width="0"/><rect x="145.49887846886426" y="225.85714285714286" width="17.998912700017293" height="241.14285714285714" fill="#DCDDE1" stroke="#DCDDE1" stroke-width="0"/><rect x="165.0984204289557" y="255" width="17.998912700017293" height="212" fill="#DCDDE1" stroke="#DCDDE1" stroke-width="0"/><rect x="184.69796238904712" y="255" width="17.998912700017293" height="212" fill="#DCDDE1" stroke="#DCDDE1" stroke-width="0"/><rect x="204.29750434913853" y="177.2857142857143" width="17.998912700017293" height="289.71428571428567" fill="#DCDDE1" stroke="#DCDDE1" stroke-width="0"/><rect x="223.89704630922998" y="439.57142857142856" width="17.998912700017293" height="27.428571428571445" fill="#DCDDE1" stroke="#DCDDE1" stroke-width="0"/><rect x="243.4965882693214" y="459" width="17.998912700017293" height="8" fill="#DCDDE1" stroke="#DCDDE1" stroke-width="0"/><rect x="263.09613022941284" y="303.5714285714286" width="17.998912700017293" height="163.4285714285714" fill="#DCDDE1" stroke="#DCDDE1" stroke-width="0"/><rect x="282.69567218950425" y="371.57142857142856" width="17.998912700017293" height="95.42857142857144" fill="#DCDDE1" stroke="#DCDDE1" stroke-width="0"/><rect x="302.29521414959567" y="313.2857142857143" width="17.998912700017293" height="153.71428571428572" fill="#DCDDE1" stroke="#DCDDE1" stroke-width="0"/><rect x="321.8947561096871" y="187.00000000000003" width="17.998912700017293" height="280" fill="#DCDDE1" stroke="#DCDDE1" stroke-width="0"/><rect x="341.4942980697785" y="216.14285714285714" width="17.998912700017293" height="250.85714285714286" fill="#DCDDE1" stroke="#DCDDE1" stroke-width="0"/><rect x="361.09384002986997" y="439.57142857142856" width="17.998912700017293" height="27.428571428571445" fill="#DCDDE1" stroke="#DCDDE1" stroke-width="0"/><rect x="380.6933819899614" y="449.2857142857143" width="17.998912700017293" height="17.714285714285722" fill="#DCDDE1" stroke="#DCDDE1" stroke-width="0"/><rect x="400.2929239500528" y="177.2857142857143" width="17.998912700017293" height="289.71428571428567" fill="#DCDDE1" stroke="#DCDDE1" stroke-width="0"/><rect x="419.8924659101442" y="235.57142857142856" width="17.998912700017293" height="231.42857142857144" fill="#DCDDE1" stroke="#DCDDE1" stroke-width="0"/><rect x="439.4920078702356" y="118.99999999999999" width="17.998912700017293" height="348" fill="#DCDDE1" stroke="#DCDDE1" stroke-width="0"/><rect x="459.0915498303271" y="206.42857142857144" width="17.998912700017293" height="260.57142857142856" fill="#DCDDE1" stroke="#DCDDE1" stroke-width="0"/><rect x="478.6910917904185" y="255" width="17.998912700017293" height="212" fill="#DCDDE1" stroke="#DCDDE1" stroke-width="0"/><rect x="498.2906337505099" y="449.2857142857143" width="17.998912700017293" height="17.714285714285722" fill="#DCDDE1" stroke="#DCDDE1" stroke-width="0"/><rect x="517.8901757106013" y="449.2857142857143" width="17.998912700017293" height="17.714285714285722" fill="#DCDDE1" stroke="#DCDDE1" stroke-width="0"/><rect x="537.4897176706927" y="371.57142857142856" width="17.998912700017293" height="95.42857142857144" fill="#DCDDE1" stroke="#DCDDE1" stroke-width="0"/><rect x="557.0892596307841" y="264.7142857142857" width="17.998912700017293" height="202.28571428571428" fill="#DCDDE1" stroke="#DCDDE1" stroke-width="0"/><rect x="576.6888015908756" y="332.7142857142857" width="17.998912700017293" height="134.28571428571428" fill="#DCDDE1" stroke="#DCDDE1" stroke-width="0"/><rect x="596.2883435509669" y="148.14285714285717" width="17.998912700017293" height="318.85714285714283" fill="#DCDDE1" stroke="#DCDDE1" stroke-width="0"/><rect x="615.8878855110585" y="80.14285714285714" width="17.998912700017293" height="386.8571428571429" fill="#DCDDE1" stroke="#DCDDE1" stroke-width="0"/><rect x="635.4874274711499" y="459" width="17.998912700017293" height="8" fill="#DCDDE1" stroke="#DCDDE1" stroke-width="0"/><rect x="655.0869694312413" y="429.8571428571429" width="17.998912700017293" height="37.14285714285711" fill="#DCDDE1" stroke="#DCDDE1" stroke-width="0"/></g><g class="bar-plot-4"><rect x="86.70025258858999" y="400.7142857142857" width="17.998912700017293" height="66.28571428571428" fill="#B8E994" stroke="#B8E994" stroke-width="0"/><rect x="106.29979454868142" y="449.2857142857143" width="17.998912700017293" height="17.714285714285722" fill="#B8E994" stroke="#B8E994" stroke-width="0"/><rect x="125.89933650877285" y="196.7142857142857" width="17.998912700017293" height="270.28571428571433" fill="#B8E994" stroke="#B8E994" stroke-width="0"/><rect x="145.49887846886426" y="206.42857142857144" width="17.998912700017293" height="260.57142857142856" fill="#B8E994" stroke="#B8E994" stroke-width="0"/><rect x="165.0984204289557" y="255" width="17.998912700017293" height="212" fill="#B8E994" stroke="#B8E994" stroke-width="0"/><rect x="184.69796238904712" y="245.28571428571428" width="17.998912700017293" height="221.71428571428572" fill="#B8E994" stroke="#B8E994" stroke-width="0"/><rect x="204.29750434913853" y="177.2857142857143" width="17.998912700017293" height="289.71428571428567" fill="#B8E994" stroke="#B8E994" stroke-width="0"/><rect x="223.89704630922998" y="439.57142857142856" width="17.998912700017293" height="27.428571428571445" fill="#B8E994" stroke="#B8E994" stroke-width="0"/><rect x="243.4965882693214" y="459" width="17.998912700017293" height="8" fill="#B8E994" stroke="#B8E994" stroke-width="0"/><rect x="263.09613022941284" y="293.8571428571429" width="17.998912700017293" height="173.1428571428571" fill="#B8E994" stroke="#B8E994" stroke-width="0"/><rect x="282.69567218950425" y="371.57142857142856" width="17.998912700017293" height="95.42857142857144" fill="#B8E994" stroke="#B8E994" stroke-width="0"/><rect x="302.29521414959567" y="313.2857142857143" width="17.998912700017293" height="153.71428571428572" fill="#B8E994" stroke="#B8E994" stroke-width="0"/><rect x="321.8947561096871" y="177.2857142857143" width="17.998912700017293" height="289.71428571428567" fill="#B8E994" stroke="#B8E994" stroke-width="0"/><rect x="341.4942980697785" y="206.42857142857144" width="17.998912700017293" height="260.57142857142856" fill="#B8E994" stroke="#B8E994" stroke-width="0"/><rect x="361.09384002986997" y="439.57142857142856" width="17.998912700017293" height="27.428571428571445" fill="#B8E994" stroke="#B8E994" stroke-width="0"/><rect x="380.6933819899614" y="449.2857142857143" width="17.998912700017293" height="17.714285714285722" fill="#B8E994" stroke="#B8E994" stroke-width="0"/><rect x="400.2929239500528" y="177.2857142857143" width="17.998912700017293" height="289.71428571428567" fill="#B8E994" stroke="#B8E994" stroke-width="0"/><rect x="419.8924659101442" y="235.57142857142856" width="17.998912700017293" height="231.42857142857144" fill="#B8E994" stroke="#B8E994" stroke-width="0"/><rect x="439.4920078702356" y="118.99999999999999" width="17.998912700017293" height="348" fill="#B8E994" stroke="#B8E994" stroke-width="0"/><rect x="459.0915498303271" y="206.42857142857144" width="17.998912700017293" height="260.57142857142856" fill="#B8E994" stroke="#B8E994" stroke-width="0"/><rect x="478.6910917904185" y="255" width="17.998912700017293" height="212" fill="#B8E994" stroke="#B8E994" stroke-width="0"/><rect x="498.2906337505099" y="449.2857142857143" width="17.998912700017293" height="17.714285714285722" fill="#B8E994" stroke="#B8E994" stroke-width="0"/><rect x="517.8901757106013" y="449.2857142857143" width="17.998912700017293" height="17.714285714285722" fill="#B8E994" stroke="#B8E994" stroke-width="0"/><rect x="537.4897176706927" y="361.8571428571429" width="17.998912700017293" height="105.14285714285711" fill="#B8E994" stroke="#B8E994" stroke-width="0"/><rect x="557.0892596307841" y="264.7142857142857" width="17.998912700017293" height="202.28571428571428" fill="#B8E994" stroke="#B8E994" stroke-width="0"/><rect x="576.6888015908756" y="332.7142857142857" width="17.998912700017293" height="134.28571428571428" fill="#B8E994" stroke="#B8E994" stroke-width="0"/><rect x="596.2883435509669" y="148.14285714285717" width="17.998912700017293" height="318.85714285714283" fill="#B8E994" stroke="#B8E994" stroke-width="0"/><rect x="615.8878855110585" y="80.14285714285714" width="17.998912700017293" height="386.8571428571429" fill="#B8E994" stroke="#B8E994" stroke-width="0"/><rect x="635.4874274711499" y="459" width="17.998912700017293" height="8" fill="#B8E994" stroke="#B8E994" stroke-width="0"/><rect x="655.0869694312413" y="429.8571428571429" width="17.998912700017293" height="37.14285714285711" fill="#B8E994" stroke="#B8E994" stroke-width="0"/></g><g class="bar-plot-5"><rect x="86.70025258858999" y="391" width="17.998912700017293" height="76" fill="#D1A36F" stroke="#D1A36F" stroke-width="0"/><rect x="106.29979454868142" y="439.57142857142856" width="17.998912700017293" height="27.428571428571445" fill="#D1A36F" stroke="#D1A36F" stroke-width="0"/><rect x="125.89933650877285" y="128.71428571428572" width="17.998912700017293" height="338.2857142857143" fill="#D1A36F" stroke="#D1A36F" stroke-width="0"/><rect x="145.49887846886426" y="206.42857142857144" width="17.998912700017293" height="260.57142857142856" fill="#D1A36F" stroke="#D1A36F" stroke-width="0"/><rect x="165.0984204289557" y="245.28571428571428" width="17.998912700017293" height="221.71428571428572" fill="#D1A36F" stroke="#D1A36F" stroke-width="0"/><rect x="184.69796238904712" y="235.57142857142856" width="17.998912700017293" height="231.42857142857144" fill="#D1A36F" stroke="#D1A36F" stroke-width="0"/><rect x="204.29750434913853" y="167.57142857142856" width="17.998912700017293" height="299.42857142857144" fill="#D1A36F" stroke="#D1A36F" stroke-width="0"/><rect x="223.89704630922998" y="429.8571428571429" width="17.998912700017293" height="37.14285714285711" fill="#D1A36F" stroke="#D1A36F" stroke-width="0"/><rect x="243.4965882693214" y="410.4285714285714" width="17.998912700017293" height="56.57142857142861" fill="#D1A36F" stroke="#D1A36F" stroke-width="0"/><rect x="263.09613022941284" y="264.7142857142857" width="17.998912700017293" height="202.28571428571428" fill="#D1A36F" stroke="#D1A36F" stroke-width="0"/><rect x="282.69567218950425" y="371.57142857142856" width="17.998912700017293" height="95.42857142857144" fill="#D1A36F" stroke="#D1A36F" stroke-width="0"/><rect x="302.29521414959567" y="303.5714285714286" width="17.998912700017293" height="163.4285714285714" fill="#D1A36F" stroke="#D1A36F" stroke-width="0"/><rect x="321.8947561096871" y="167.57142857142856" width="17.998912700017293" height="299.42857142857144" fill="#D1A36F" stroke="#D1A36F" stroke-width="0"/><rect x="341.4942980697785" y="167.57142857142856" width="17.998912700017293" height="299.42857142857144" fill="#D1A36F" stroke="#D1A36F" stroke-width="0"/><rect x="361.09384002986997" y="420.1428571428571" width="17.998912700017293" height="46.85714285714289" fill="#D1A36F" stroke="#D1A36F" stroke-width="0"/><rect x="380.6933819899614" y="429.8571428571429" width="17.998912700017293" height="37.14285714285711" fill="#D1A36F" stroke="#D1A36F" stroke-width="0"/><rect x="400.2929239500528" y="167.57142857142856" width="17.998912700017293" height="299.42857142857144" fill="#D1A36F" stroke="#D1A36F" stroke-width="0"/><rect x="419.8924659101442" y="225.85714285714286" width="17.998912700017293" height="241.14285714285714" fill="#D1A36F" stroke="#D1A36F" stroke-width="0"/><rect x="439.4920078702356" y="118.99999999999999" width="17.998912700017293" height="348" fill="#D1A36F" stroke="#D1A36F" stroke-width="0"/><rect x="459.0915498303271" y="187.00000000000003" width="17.998912700017293" height="280" fill="#D1A36F" stroke="#D1A36F" stroke-width="0"/><rect x="478.6910917904185" y="225.85714285714286" width="17.998912700017293" height="241.14285714285714" fill="#D1A36F" stroke="#D1A36F" stroke-width="0"/><rect x="498.2906337505099" y="429.8571428571429" width="17.998912700017293" height="37.14285714285711" fill="#D1A36F" stroke="#D1A36F" stroke-width="0"/><rect x="517.8901757106013" y="429.8571428571429" width="17.998912700017293" height="37.14285714285711" fill="#D1A36F" stroke="#D1A36F" stroke-width="0"/><rect x="537.4897176706927" y="323.00000000000006" width="17.998912700017293" height="143.99999999999994" fill="#D1A36F" stroke="#D1A36F" stroke-width="0"/><rect x="557.0892596307841" y="235.57142857142856" width="17.998912700017293" height="231.42857142857144" fill="#D1A36F" stroke="#D1A36F" stroke-width="0"/><rect x="576.6888015908756" y="323.00000000000006" width="17.998912700017293" height="143.99999999999994" fill="#D1A36F" stroke="#D1A36F" stroke-width="0"/><rect x="596.2883435509669" y="138.42857142857144" width="17.998912700017293" height="328.57142857142856" fill="#D1A36F" stroke="#D1A36F" stroke-width="0"/><rect x="615.8878855110585" y="51" width="17.998912700017293" height="416" fill="#D1A36F" stroke="#D1A36F" stroke-width="0"/><rect x="635.4874274711499" y="459" width="17.998912700017293" height="8" fill="#D1A36F" stroke="#D1A36F" stroke-width="0"/><rect x="655.0869694312413" y="429.8571428571429" width="17.998912700017293" height="37.14285714285711" fill="#D1A36F" stroke="#D1A36F" stroke-width="0"/></g></g><g class="bottom-axis"><g class="axis-line"><path d="M 59.78613471984863,468 L 700,468" fill="none" stroke="#131300" stroke-width="2"/></g><g class="label"><text x="0" y="0" fill="#131300" font-size="14" dominant-baseline="text-before-edge" text-anchor="middle" transform="translate(95.69970893859863, 479) rotate(0)">2026-02-28</text><text x="0" y="0" fill="#131300" font-size="14" dominant-baseline="text-before-edge" text-anchor="middle" transform="translate(115.29925089869006, 479) rotate(0)">2026-03-01</text><text x="0" y="0" fill="#131300" font-size="14" dominant-baseline="text-before-edge" text-anchor="middle" transform="translate(134.8987928587815, 479) rotate(0)">2026-03-02</text><text x="0" y="0" fill="#131300" font-size="14" dominant-baseline="text-before-edge" text-anchor="middle" transform="translate(154.4983348188729, 479) rotate(0)">2026-03-03</text><text x="0" y="0" fill="#131300" font-size="14" dominant-baseline="text-before-edge" text-anchor="middle" transform="translate(174.09787677896435, 479) rotate(0)">2026-03-04</text><text x="0" y="0" fill="#131300" font-size="14" dominant-baseline="text-before-edge" text-anchor="middle" transform="translate(193.69741873905576, 479) rotate(0)">2026-03-05</text><text x="0" y="0" fill="#131300" font-size="14" dominant-baseline="text-before-edge" text-anchor="middle" transform="translate(213.29696069914718, 479) rotate(0)">2026-03-06</text><text x="0" y="0" fill="#131300" font-size="14" dominant-baseline="text-before-edge" text-anchor="middle" transform="translate(232.89650265923862, 479) rotate(0)">2026-03-07</text><text x="0" y="0" fill="#131300" font-size="14" dominant-baseline="text-before-edge" text-anchor="middle" transform="translate(252.49604461933004, 479) rotate(0)">2026-03-08</text><text x="0" y="0" fill="#131300" font-size="14" dominant-baseline="text-before-edge" text-anchor="middle" transform="translate(272.0955865794215, 479) rotate(0)">2026-03-09</text><text x="0" y="0" fill="#131300" font-size="14" dominant-baseline="text-before-edge" text-anchor="middle" transform="translate(291.6951285395129, 479) rotate(0)">2026-03-10</text><text x="0" y="0" fill="#131300" font-size="14" dominant-baseline="text-before-edge" text-anchor="middle" transform="translate(311.2946704996043, 479) rotate(0)">2026-03-11</text><text x="0" y="0" fill="#131300" font-size="14" dominant-baseline="text-before-edge" text-anchor="middle" transform="translate(330.8942124596957, 479) rotate(0)">2026-03-12</text><text x="0" y="0" fill="#131300" font-size="14" dominant-baseline="text-before-edge" text-anchor="middle" transform="translate(350.49375441978714, 479) rotate(0)">2026-03-13</text><text x="0" y="0" fill="#131300" font-size="14" dominant-baseline="text-before-edge" text-anchor="middle" transform="translate(370.0932963798786, 479) rotate(0)">2026-03-14</text><text x="0" y="0" fill="#131300" font-size="14" dominant-baseline="text-before-edge" text-anchor="middle" transform="translate(389.69283833997, 479) rotate(0)">2026-03-15</text><text x="0" y="0" fill="#131300" font-size="14" dominant-baseline="text-before-edge" text-anchor="middle" transform="translate(409.29238030006144, 479) rotate(0)">2026-03-16</text><text x="0" y="0" fill="#131300" font-size="14" dominant-baseline="text-before-edge" text-anchor="middle" transform="translate(428.89192226015285, 479) rotate(0)">2026-03-17</text><text x="0" y="0" fill="#131300" font-size="14" dominant-baseline="text-before-edge" text-anchor="middle" transform="translate(448.49146422024427, 479) rotate(0)">2026-03-18</text><text x="0" y="0" fill="#131300" font-size="14" dominant-baseline="text-before-edge" text-anchor="middle" transform="translate(468.09100618033574, 479) rotate(0)">2026-03-19</text><text x="0" y="0" fill="#131300" font-size="14" dominant-baseline="text-before-edge" text-anchor="middle" transform="translate(487.69054814042715, 479) rotate(0)">2026-03-20</text><text x="0" y="0" fill="#131300" font-size="14" dominant-baseline="text-before-edge" text-anchor="middle" transform="translate(507.29009010051857, 479) rotate(0)">2026-03-21</text><text x="0" y="0" fill="#131300" font-size="14" dominant-baseline="text-before-edge" text-anchor="middle" transform="translate(526.88963206061, 479) rotate(0)">2026-03-22</text><text x="0" y="0" fill="#131300" font-size="14" dominant-baseline="text-before-edge" text-anchor="middle" transform="translate(546.4891740207014, 479) rotate(0)">2026-03-23</text><text x="0" y="0" fill="#131300" font-size="14" dominant-baseline="text-before-edge" text-anchor="middle" transform="translate(566.0887159807928, 479) rotate(0)">2026-03-24</text><text x="0" y="0" fill="#131300" font-size="14" dominant-baseline="text-before-edge" text-anchor="middle" transform="translate(585.6882579408843, 479) rotate(0)">2026-03-25</text><text x="0" y="0" fill="#131300" font-size="14" dominant-baseline="text-before-edge" text-anchor="middle" transform="translate(605.2877999009756, 479) rotate(0)">2026-03-26</text><text x="0" y="0" fill="#131300" font-size="14" dominant-baseline="text-before-edge" text-anchor="middle" transform="translate(624.8873418610672, 479) rotate(0)">2026-03-27</text><text x="0" y="0" fill="#131300" font-size="14" dominant-baseline="text-before-edge" text-anchor="middle" transform="translate(644.4868838211586, 479) rotate(0)">2026-03-28</text><text x="0" y="0" fill="#131300" font-size="14" dominant-baseline="text-before-edge" text-anchor="middle" transform="translate(664.08642578125, 479) rotate(0)">2026-03-29</text></g><g class="ticks"><path d="M 95.69970893859863,469 L 95.69970893859863,474" fill="none" stroke="#131300" stroke-width="2"/><path d="M 115.29925089869006,469 L 115.29925089869006,474" fill="none" stroke="#131300" stroke-width="2"/><path d="M 134.8987928587815,469 L 134.8987928587815,474" fill="none" stroke="#131300" stroke-width="2"/><path d="M 154.4983348188729,469 L 154.4983348188729,474" fill="none" stroke="#131300" stroke-width="2"/><path d="M 174.09787677896435,469 L 174.09787677896435,474" fill="none" stroke="#131300" stroke-width="2"/><path d="M 193.69741873905576,469 L 193.69741873905576,474" fill="none" stroke="#131300" stroke-width="2"/><path d="M 213.29696069914718,469 L 213.29696069914718,474" fill="none" stroke="#131300" stroke-width="2"/><path d="M 232.89650265923862,469 L 232.89650265923862,474" fill="none" stroke="#131300" stroke-width="2"/><path d="M 252.49604461933004,469 L 252.49604461933004,474" fill="none" stroke="#131300" stroke-width="2"/><path d="M 272.0955865794215,469 L 272.0955865794215,474" fill="none" stroke="#131300" stroke-width="2"/><path d="M 291.6951285395129,469 L 291.6951285395129,474" fill="none" stroke="#131300" stroke-width="2"/><path d="M 311.2946704996043,469 L 311.2946704996043,474" fill="none" stroke="#131300" stroke-width="2"/><path d="M 330.8942124596957,469 L 330.8942124596957,474" fill="none" stroke="#131300" stroke-width="2"/><path d="M 350.49375441978714,469 L 350.49375441978714,474" fill="none" stroke="#131300" stroke-width="2"/><path d="M 370.0932963798786,469 L 370.0932963798786,474" fill="none" stroke="#131300" stroke-width="2"/><path d="M 389.69283833997,469 L 389.69283833997,474" fill="none" stroke="#131300" stroke-width="2"/><path d="M 409.29238030006144,469 L 409.29238030006144,474" fill="none" stroke="#131300" stroke-width="2"/><path d="M 428.89192226015285,469 L 428.89192226015285,474" fill="none" stroke="#131300" stroke-width="2"/><path d="M 448.49146422024427,469 L 448.49146422024427,474" fill="none" stroke="#131300" stroke-width="2"/><path d="M 468.09100618033574,469 L 468.09100618033574,474" fill="none" stroke="#131300" stroke-width="2"/><path d="M 487.69054814042715,469 L 487.69054814042715,474" fill="none" stroke="#131300" stroke-width="2"/><path d="M 507.29009010051857,469 L 507.29009010051857,474" fill="none" stroke="#131300" stroke-width="2"/><path d="M 526.88963206061,469 L 526.88963206061,474" fill="none" stroke="#131300" stroke-width="2"/><path d="M 546.4891740207014,469 L 546.4891740207014,474" fill="none" stroke="#131300" stroke-width="2"/><path d="M 566.0887159807928,469 L 566.0887159807928,474" fill="none" stroke="#131300" stroke-width="2"/><path d="M 585.6882579408843,469 L 585.6882579408843,474" fill="none" stroke="#131300" stroke-width="2"/><path d="M 605.2877999009756,469 L 605.2877999009756,474" fill="none" stroke="#131300" stroke-width="2"/><path d="M 624.8873418610672,469 L 624.8873418610672,474" fill="none" stroke="#131300" stroke-width="2"/><path d="M 644.4868838211586,469 L 644.4868838211586,474" fill="none" stroke="#131300" stroke-width="2"/><path d="M 664.08642578125,469 L 664.08642578125,474" fill="none" stroke="#131300" stroke-width="2"/></g></g><g class="left-axis"><g class="axisl-line"><path d="M 58.78613471984863,43 L 58.78613471984863,467" fill="none" stroke="#131300" stroke-width="2"/></g><g class="label"><text x="0" y="0" fill="#131300" font-size="14" dominant-baseline="middle" text-anchor="end" transform="translate(47.78613471984863, 70.42857142857144) rotate(0)">40</text><text x="0" y="0" fill="#131300" font-size="14" dominant-baseline="middle" text-anchor="end" transform="translate(47.78613471984863, 118.99999999999999) rotate(0)">35</text><text x="0" y="0" fill="#131300" font-size="14" dominant-baseline="middle" text-anchor="end" transform="translate(47.78613471984863, 167.57142857142856) rotate(0)">30</text><text x="0" y="0" fill="#131300" font-size="14" dominant-baseline="middle" text-anchor="end" transform="translate(47.78613471984863, 216.14285714285714) rotate(0)">25</text><text x="0" y="0" fill="#131300" font-size="14" dominant-baseline="middle" text-anchor="end" transform="translate(47.78613471984863, 264.7142857142857) rotate(0)">20</text><text x="0" y="0" fill="#131300" font-size="14" dominant-baseline="middle" text-anchor="end" transform="translate(47.78613471984863, 313.2857142857143) rotate(0)">15</text><text x="0" y="0" fill="#131300" font-size="14" dominant-baseline="middle" text-anchor="end" transform="translate(47.78613471984863, 361.8571428571429) rotate(0)">10</text><text x="0" y="0" fill="#131300" font-size="14" dominant-baseline="middle" text-anchor="end" transform="translate(47.78613471984863, 410.4285714285714) rotate(0)">5</text><text x="0" y="0" fill="#131300" font-size="14" dominant-baseline="middle" text-anchor="end" transform="translate(47.78613471984863, 459) rotate(0)">0</text></g><g class="ticks"><path d="M 57.78613471984863,70.42857142857144 L 52.78613471984863,70.42857142857144" fill="none" stroke="#131300" stroke-width="2"/><path d="M 57.78613471984863,118.99999999999999 L 52.78613471984863,118.99999999999999" fill="none" stroke="#131300" stroke-width="2"/><path d="M 57.78613471984863,167.57142857142856 L 52.78613471984863,167.57142857142856" fill="none" stroke="#131300" stroke-width="2"/><path d="M 57.78613471984863,216.14285714285714 L 52.78613471984863,216.14285714285714" fill="none" stroke="#131300" stroke-width="2"/><path d="M 57.78613471984863,264.7142857142857 L 52.78613471984863,264.7142857142857" fill="none" stroke="#131300" stroke-width="2"/><path d="M 57.78613471984863,313.2857142857143 L 52.78613471984863,313.2857142857143" fill="none" stroke="#131300" stroke-width="2"/><path d="M 57.78613471984863,361.8571428571429 L 52.78613471984863,361.8571428571429" fill="none" stroke="#131300" stroke-width="2"/><path d="M 57.78613471984863,410.4285714285714 L 52.78613471984863,410.4285714285714" fill="none" stroke="#131300" stroke-width="2"/><path d="M 57.78613471984863,459 L 52.78613471984863,459" fill="none" stroke="#131300" stroke-width="2"/></g><g class="title"><text x="0" y="0" fill="#131300" font-size="16" dominant-baseline="text-before-edge" text-anchor="middle" transform="translate(5, 255) rotate(270)">Count</text></g></g></g><g class="mermaid-tmp-group"/></svg>