<svg id="my-svg" width="100%" xmlns="http://www.w3.org/2000/svg" xmlns:xlink="http://www.w3.org/1999/xlink" style="max-width: 700px; background-color: white;" viewBox="0 0 700 500" role="graphics-document document" aria-roledescription="xychart"><style>#my-svg{font-family:"trebuchet ms",verdana,arial,sans-serif;font-size:16px;fill:#333;}@keyframes edge-animation-frame{from{stroke-dashoffset:0;}}@keyframes dash{to{stroke-dashoffset:0;}}#my-svg .edge-animation-slow{stroke-dasharray:9,5!important;stroke-dashoffset:900;animation:dash 50s linear infinite;stroke-linecap:round;}#my-svg .edge-animation-fast{stroke-dasharray:9,5!important;stroke-dashoffset:900;animation:dash 20s linear infinite;stroke-linecap:round;}#my-svg .error-icon{fill:#552222;}#my-svg .error-text{fill:#552222;stroke:#552222;}#my-svg .edge-thickness-normal{stroke-width:1px;}#my-svg .edge-thickness-thick{stroke-width:3.5px;}#my-svg .edge-pattern-solid{stroke-dasharray:0;}#my-svg .edge-thickness-invisible{stroke-width:0;fill:none;}#my-svg .edge-pattern-dashed{stroke-dasharray:3;}#my-svg .edge-pattern-dotted{stroke-dasharray:2;}#my-svg .marker{fill:#333333;stroke:#333333;}#my-svg .marker.cross{stroke:#333333;}#my-svg svg{font-family:"trebuchet ms",verdana,arial,sans-serif;font-size:16px;}#my-svg p{margin:0;}#my-svg .node .neo-node{stroke:#9370DB;}#my-svg [data-look="neo"].node rect,#my-svg [data-look="neo"].cluster rect,#my-svg [data-look="neo"].node polygon{stroke:#9370DB;filter:drop-shadow(1px 2px 2px rgba(185, 185, 185, 1));}#my-svg [data-look="neo"].swimlane.cluster rect{filter:none;}#my-svg [data-look="neo"].node path{stroke:#9370DB;stroke-width:1px;}#my-svg [data-look="neo"].node .outer-path{filter:drop-shadow(1px 2px 2px rgba(185, 185, 185, 1));}#my-svg [data-look="neo"].node .neo-line path{stroke:#9370DB;filter:none;}#my-svg [data-look="neo"].node circle{stroke:#9370DB;filter:drop-shadow(1px 2px 2px rgba(185, 185, 185, 1));}#my-svg [data-look="neo"].node circle .state-start{fill:#000000;}#my-svg [data-look="neo"].icon-shape .icon{fill:#9370DB;filter:drop-shadow(1px 2px 2px rgba(185, 185, 185, 1));}#my-svg [data-look="neo"].icon-shape .icon-neo path{stroke:#9370DB;filter:drop-shadow(1px 2px 2px rgba(185, 185, 185, 1));}#my-svg :root{--mermaid-font-family:"trebuchet ms",verdana,arial,sans-serif;}</style><g/><g class="main"><rect width="700" height="500" class="background" fill="white"/><g class="chart-title"><text x="0" y="0" fill="#131300" font-size="20" dominant-baseline="middle" text-anchor="middle" transform="translate(350, 21.5) rotate(0)">GC News — TYPE_EN per day (last 30 days)</text></g><g class="plot"><g class="bar-plot-0"><rect x="88.92424217192332" y="459" width="13.550933533350628" height="8" fill="#ECECFF" stroke="#ECECFF" stroke-width="0"/><rect x="103.68024964925613" y="446.25" width="13.550933533350628" height="20.75" fill="#ECECFF" stroke="#ECECFF" stroke-width="0"/><rect x="118.43625712658894" y="408" width="13.550933533350628" height="59" fill="#ECECFF" stroke="#ECECFF" stroke-width="0"/><rect x="133.19226460392173" y="433.5" width="13.550933533350628" height="33.5" fill="#ECECFF" stroke="#ECECFF" stroke-width="0"/><rect x="147.94827208125454" y="459" width="13.550933533350628" height="8" fill="#ECECFF" stroke="#ECECFF" stroke-width="0"/><rect x="162.70427955858736" y="459" width="13.550933533350628" height="8" fill="#ECECFF" stroke="#ECECFF" stroke-width="0"/><rect x="177.46028703592015" y="433.5" width="13.550933533350628" height="33.5" fill="#ECECFF" stroke="#ECECFF" stroke-width="0"/><rect x="192.21629451325296" y="433.5" width="13.550933533350628" height="33.5" fill="#ECECFF" stroke="#ECECFF" stroke-width="0"/><rect x="206.97230199058578" y="446.25" width="13.550933533350628" height="20.75" fill="#ECECFF" stroke="#ECECFF" stroke-width="0"/><rect x="221.72830946791856" y="433.5" width="13.550933533350628" height="33.5" fill="#ECECFF" stroke="#ECECFF" stroke-width="0"/><rect x="236.48431694525138" y="459" width="13.550933533350628" height="8" fill="#ECECFF" stroke="#ECECFF" stroke-width="0"/><rect x="251.2403244225842" y="459" width="13.550933533350628" height="8" fill="#ECECFF" stroke="#ECECFF" stroke-width="0"/><rect x="265.996331899917" y="459" width="13.550933533350628" height="8" fill="#ECECFF" stroke="#ECECFF" stroke-width="0"/><rect x="280.75233937724977" y="459" width="13.550933533350628" height="8" fill="#ECECFF" stroke="#ECECFF" stroke-width="0"/><rect x="295.5083468545826" y="446.25" width="13.550933533350628" height="20.75" fill="#ECECFF" stroke="#ECECFF" stroke-width="0"/><rect x="310.2643543319154" y="446.25" width="13.550933533350628" height="20.75" fill="#ECECFF" stroke="#ECECFF" stroke-width="0"/><rect x="325.02036180924824" y="446.25" width="13.550933533350628" height="20.75" fill="#ECECFF" stroke="#ECECFF" stroke-width="0"/><rect x="339.77636928658103" y="433.5" width="13.550933533350628" height="33.5" fill="#ECECFF" stroke="#ECECFF" stroke-width="0"/><rect x="354.5323767639138" y="459" width="13.550933533350628" height="8" fill="#ECECFF" stroke="#ECECFF" stroke-width="0"/><rect x="369.28838424124666" y="459" width="13.550933533350628" height="8" fill="#ECECFF" stroke="#ECECFF" stroke-width="0"/><rect x="384.04439171857945" y="420.75" width="13.550933533350628" height="46.25" fill="#ECECFF" stroke="#ECECFF" stroke-width="0"/><rect x="398.80039919591223" y="420.75" width="13.550933533350628" height="46.25" fill="#ECECFF" stroke="#ECECFF" stroke-width="0"/><rect x="413.5564066732451" y="420.75" width="13.550933533350628" height="46.25" fill="#ECECFF" stroke="#ECECFF" stroke-width="0"/><rect x="428.31241415057787" y="446.25" width="13.550933533350628" height="20.75" fill="#ECECFF" stroke="#ECECFF" stroke-width="0"/><rect x="443.06842162791065" y="433.5" width="13.550933533350628" height="33.5" fill="#ECECFF" stroke="#ECECFF" stroke-width="0"/><rect x="457.8244291052435" y="459" width="13.550933533350628" height="8" fill="#ECECFF" stroke="#ECECFF" stroke-width="0"/><rect x="472.5804365825763" y="459" width="13.550933533350628" height="8" fill="#ECECFF" stroke="#ECECFF" stroke-width="0"/><rect x="487.33644405990907" y="433.5" width="13.550933533350628" height="33.5" fill="#ECECFF" stroke="#ECECFF" stroke-width="0"/><rect x="502.0924515372419" y="420.75" width="13.550933533350628" height="46.25" fill="#ECECFF" stroke="#ECECFF" stroke-width="0"/><rect x="516.8484590145747" y="446.25" width="13.550933533350628" height="20.75" fill="#ECECFF" stroke="#ECECFF" stroke-width="0"/></g><g class="bar-plot-1"><rect x="88.92424217192332" y="395.25" width="13.550933533350628" height="71.75" fill="#8493A6" stroke="#8493A6" stroke-width="0"/><rect x="103.68024964925613" y="382.5" width="13.550933533350628" height="84.5" fill="#8493A6" stroke="#8493A6" stroke-width="0"/><rect x="118.43625712658894" y="369.75" width="13.550933533350628" height="97.25" fill="#8493A6" stroke="#8493A6" stroke-width="0"/><rect x="133.19226460392173" y="357" width="13.550933533350628" height="110" fill="#8493A6" stroke="#8493A6" stroke-width="0"/><rect x="147.94827208125454" y="459" width="13.550933533350628" height="8" fill="#8493A6" stroke="#8493A6" stroke-width="0"/><rect x="162.70427955858736" y="459" width="13.550933533350628" height="8" fill="#8493A6" stroke="#8493A6" stroke-width="0"/><rect x="177.46028703592015" y="318.75" width="13.550933533350628" height="148.25" fill="#8493A6" stroke="#8493A6" stroke-width="0"/><rect x="192.21629451325296" y="331.5" width="13.550933533350628" height="135.5" fill="#8493A6" stroke="#8493A6" stroke-width="0"/><rect x="206.97230199058578" y="395.25" width="13.550933533350628" height="71.75" fill="#8493A6" stroke="#8493A6" stroke-width="0"/><rect x="221.72830946791856" y="357" width="13.550933533350628" height="110" fill="#8493A6" stroke="#8493A6" stroke-width="0"/><rect x="236.48431694525138" y="446.25" width="13.550933533350628" height="20.75" fill="#8493A6" stroke="#8493A6" stroke-width="0"/><rect x="251.2403244225842" y="459" width="13.550933533350628" height="8" fill="#8493A6" stroke="#8493A6" stroke-width="0"/><rect x="265.996331899917" y="459" width="13.550933533350628" height="8" fill="#8493A6" stroke="#8493A6" stroke-width="0"/><rect x="280.75233937724977" y="459" width="13.550933533350628" height="8" fill="#8493A6" stroke="#8493A6" stroke-width="0"/><rect x="295.5083468545826" y="420.75" width="13.550933533350628" height="46.25" fill="#8493A6" stroke="#8493A6" stroke-width="0"/><rect x="310.2643543319154" y="395.25" width="13.550933533350628" height="71.75" fill="#8493A6" stroke="#8493A6" stroke-width="0"/><rect x="325.02036180924824" y="408" width="13.550933533350628" height="59" fill="#8493A6" stroke="#8493A6" stroke-width="0"/><rect x="339.77636928658103" y="318.75" width="13.550933533350628" height="148.25" fill="#8493A6" stroke="#8493A6" stroke-width="0"/><rect x="354.5323767639138" y="459" width="13.550933533350628" height="8" fill="#8493A6" stroke="#8493A6" stroke-width="0"/><rect x="369.28838424124666" y="459" width="13.550933533350628" height="8" fill="#8493A6" stroke="#8493A6" stroke-width="0"/><rect x="384.04439171857945" y="331.5" width="13.550933533350628" height="135.5" fill="#8493A6" stroke="#8493A6" stroke-width="0"/><rect x="398.80039919591223" y="331.5" width="13.550933533350628" height="135.5" fill="#8493A6" stroke="#8493A6" stroke-width="0"/><rect x="413.5564066732451" y="357" width="13.550933533350628" height="110" fill="#8493A6" stroke="#8493A6" stroke-width="0"/><rect x="428.31241415057787" y="420.75" width="13.550933533350628" height="46.25" fill="#8493A6" stroke="#8493A6" stroke-width="0"/><rect x="443.06842162791065" y="357" width="13.550933533350628" height="110" fill="#8493A6" stroke="#8493A6" stroke-width="0"/><rect x="457.8244291052435" y="433.5" width="13.550933533350628" height="33.5" fill="#8493A6" stroke="#8493A6" stroke-width="0"/><rect x="472.5804365825763" y="446.25" width="13.550933533350628" height="20.75" fill="#8493A6" stroke="#8493A6" stroke-width="0"/><rect x="487.33644405990907" y="395.25" width="13.550933533350628" height="71.75" fill="#8493A6" stroke="#8493A6" stroke-width="0"/><rect x="502.0924515372419" y="357" width="13.550933533350628" height="110" fill="#8493A6" stroke="#8493A6" stroke-width="0"/><rect x="516.8484590145747" y="357" width="13.550933533350628" height="110" fill="#8493A6" stroke="#8493A6" stroke-width="0"/></g><g class="bar-plot-2"><rect x="88.92424217192332" y="280.5" width="13.550933533350628" height="186.5" fill="#FFC3A0" stroke="#FFC3A0" stroke-width="0"/><rect x="103.68024964925613" y="306" width="13.550933533350628" height="161" fill="#FFC3A0" stroke="#FFC3A0" stroke-width="0"/><rect x="118.43625712658894" y="89.25" width="13.550933533350628" height="377.75" fill="#FFC3A0" stroke="#FFC3A0" stroke-width="0"/><rect x="133.19226460392173" y="280.5" width="13.550933533350628" height="186.5" fill="#FFC3A0" stroke="#FFC3A0" stroke-width="0"/><rect x="147.94827208125454" y="459" width="13.550933533350628" height="8" fill="#FFC3A0" stroke="#FFC3A0" stroke-width="0"/><rect x="162.70427955858736" y="446.25" width="13.550933533350628" height="20.75" fill="#FFC3A0" stroke="#FFC3A0" stroke-width="0"/><rect x="177.46028703592015" y="140.25" width="13.550933533350628" height="326.75" fill="#FFC3A0" stroke="#FFC3A0" stroke-width="0"/><rect x="192.21629451325296" y="165.75" width="13.550933533350628" height="301.25" fill="#FFC3A0" stroke="#FFC3A0" stroke-width="0"/><rect x="206.97230199058578" y="229.5" width="13.550933533350628" height="237.5" fill="#FFC3A0" stroke="#FFC3A0" stroke-width="0"/><rect x="221.72830946791856" y="191.25" width="13.550933533350628" height="275.75" fill="#FFC3A0" stroke="#FFC3A0" stroke-width="0"/><rect x="236.48431694525138" y="318.75" width="13.550933533350628" height="148.25" fill="#FFC3A0" stroke="#FFC3A0" stroke-width="0"/><rect x="251.2403244225842" y="446.25" width="13.550933533350628" height="20.75" fill="#FFC3A0" stroke="#FFC3A0" stroke-width="0"/><rect x="265.996331899917" y="459" width="13.550933533350628" height="8" fill="#FFC3A0" stroke="#FFC3A0" stroke-width="0"/><rect x="280.75233937724977" y="459" width="13.550933533350628" height="8" fill="#FFC3A0" stroke="#FFC3A0" stroke-width="0"/><rect x="295.5083468545826" y="280.5" width="13.550933533350628" height="186.5" fill="#FFC3A0" stroke="#FFC3A0" stroke-width="0"/><rect x="310.2643543319154" y="318.75" width="13.550933533350628" height="148.25" fill="#FFC3A0" stroke="#FFC3A0" stroke-width="0"/><rect x="325.02036180924824" y="255" width="13.550933533350628" height="212" fill="#FFC3A0" stroke="#FFC3A0" stroke-width="0"/><rect x="339.77636928658103" y="204" width="13.550933533350628" height="263" fill="#FFC3A0" stroke="#FFC3A0" stroke-width="0"/><rect x="354.5323767639138" y="446.25" width="13.550933533350628" height="20.75" fill="#FFC3A0" stroke="#FFC3A0" stroke-width="0"/><rect x="369.28838424124666" y="446.25" width="13.550933533350628" height="20.75" fill="#FFC3A0" stroke="#FFC3A0" stroke-width="0"/><rect x="384.04439171857945" y="153" width="13.550933533350628" height="314" fill="#FFC3A0" stroke="#FFC3A0" stroke-width="0"/><rect x="398.80039919591223" y="165.75" width="13.550933533350628" height="301.25" fill="#FFC3A0" stroke="#FFC3A0" stroke-width="0"/><rect x="413.5564066732451" y="204" width="13.550933533350628" height="263" fill="#FFC3A0" stroke="#FFC3A0" stroke-width="0"/><rect x="428.31241415057787" y="318.75" width="13.550933533350628" height="148.25" fill="#FFC3A0" stroke="#FFC3A0" stroke-width="0"/><rect x="443.06842162791065" y="216.75" width="13.550933533350628" height="250.25" fill="#FFC3A0" stroke="#FFC3A0" stroke-width="0"/><rect x="457.8244291052435" y="420.75" width="13.550933533350628" height="46.25" fill="#FFC3A0" stroke="#FFC3A0" stroke-width="0"/><rect x="472.5804365825763" y="420.75" width="13.550933533350628" height="46.25" fill="#FFC3A0" stroke="#FFC3A0" stroke-width="0"/><rect x="487.33644405990907" y="229.5" width="13.550933533350628" height="237.5" fill="#FFC3A0" stroke="#FFC3A0" stroke-width="0"/><rect x="502.0924515372419" y="255" width="13.550933533350628" height="212" fill="#FFC3A0" stroke="#FFC3A0" stroke-width="0"/><rect x="516.8484590145747" y="242.25" width="13.550933533350628" height="224.75" fill="#FFC3A0" stroke="#FFC3A0" stroke-width="0"/></g><g class="bar-plot-3"><rect x="88.92424217192332" y="267.75" width="13.550933533350628" height="199.25" fill="#DCDDE1" stroke="#DCDDE1" stroke-width="0"/><rect x="103.68024964925613" y="306" width="13.550933533350628" height="161" fill="#DCDDE1" stroke="#DCDDE1" stroke-width="0"/><rect x="118.43625712658894" y="76.5" width="13.550933533350628" height="390.5" fill="#DCDDE1" stroke="#DCDDE1" stroke-width="0"/><rect x="133.19226460392173" y="280.5" width="13.550933533350628" height="186.5" fill="#DCDDE1" stroke="#DCDDE1" stroke-width="0"/><rect x="147.94827208125454" y="446.25" width="13.550933533350628" height="20.75" fill="#DCDDE1" stroke="#DCDDE1" stroke-width="0"/><rect x="162.70427955858736" y="446.25" width="13.550933533350628" height="20.75" fill="#DCDDE1" stroke="#DCDDE1" stroke-width="0"/><rect x="177.46028703592015" y="140.25" width="13.550933533350628" height="326.75" fill="#DCDDE1" stroke="#DCDDE1" stroke-width="0"/><rect x="192.21629451325296" y="165.75" width="13.550933533350628" height="301.25" fill="#DCDDE1" stroke="#DCDDE1" stroke-width="0"/><rect x="206.97230199058578" y="229.5" width="13.550933533350628" height="237.5" fill="#DCDDE1" stroke="#DCDDE1" stroke-width="0"/><rect x="221.72830946791856" y="191.25" width="13.550933533350628" height="275.75" fill="#DCDDE1" stroke="#DCDDE1" stroke-width="0"/><rect x="236.48431694525138" y="318.75" width="13.550933533350628" height="148.25" fill="#DCDDE1" stroke="#DCDDE1" stroke-width="0"/><rect x="251.2403244225842" y="446.25" width="13.550933533350628" height="20.75" fill="#DCDDE1" stroke="#DCDDE1" stroke-width="0"/><rect x="265.996331899917" y="459" width="13.550933533350628" height="8" fill="#DCDDE1" stroke="#DCDDE1" stroke-width="0"/><rect x="280.75233937724977" y="459" width="13.550933533350628" height="8" fill="#DCDDE1" stroke="#DCDDE1" stroke-width="0"/><rect x="295.5083468545826" y="280.5" width="13.550933533350628" height="186.5" fill="#DCDDE1" stroke="#DCDDE1" stroke-width="0"/><rect x="310.2643543319154" y="306" width="13.550933533350628" height="161" fill="#DCDDE1" stroke="#DCDDE1" stroke-width="0"/><rect x="325.02036180924824" y="229.5" width="13.550933533350628" height="237.5" fill="#DCDDE1" stroke="#DCDDE1" stroke-width="0"/><rect x="339.77636928658103" y="178.5" width="13.550933533350628" height="288.5" fill="#DCDDE1" stroke="#DCDDE1" stroke-width="0"/><rect x="354.5323767639138" y="446.25" width="13.550933533350628" height="20.75" fill="#DCDDE1" stroke="#DCDDE1" stroke-width="0"/><rect x="369.28838424124666" y="446.25" width="13.550933533350628" height="20.75" fill="#DCDDE1" stroke="#DCDDE1" stroke-width="0"/><rect x="384.04439171857945" y="153" width="13.550933533350628" height="314" fill="#DCDDE1" stroke="#DCDDE1" stroke-width="0"/><rect x="398.80039919591223" y="165.75" width="13.550933533350628" height="301.25" fill="#DCDDE1" stroke="#DCDDE1" stroke-width="0"/><rect x="413.5564066732451" y="204" width="13.550933533350628" height="263" fill="#DCDDE1" stroke="#DCDDE1" stroke-width="0"/><rect x="428.31241415057787" y="318.75" width="13.550933533350628" height="148.25" fill="#DCDDE1" stroke="#DCDDE1" stroke-width="0"/><rect x="443.06842162791065" y="204" width="13.550933533350628" height="263" fill="#DCDDE1" stroke="#DCDDE1" stroke-width="0"/><rect x="457.8244291052435" y="420.75" width="13.550933533350628" height="46.25" fill="#DCDDE1" stroke="#DCDDE1" stroke-width="0"/><rect x="472.5804365825763" y="420.75" width="13.550933533350628" height="46.25" fill="#DCDDE1" stroke="#DCDDE1" stroke-width="0"/><rect x="487.33644405990907" y="216.75" width="13.550933533350628" height="250.25" fill="#DCDDE1" stroke="#DCDDE1" stroke-width="0"/><rect x="502.0924515372419" y="255" width="13.550933533350628" height="212" fill="#DCDDE1" stroke="#DCDDE1" stroke-width="0"/><rect x="516.8484590145747" y="242.25" width="13.550933533350628" height="224.75" fill="#DCDDE1" stroke="#DCDDE1" stroke-width="0"/></g><g class="bar-plot-4"><rect x="88.92424217192332" y="267.75" width="13.550933533350628" height="199.25" fill="#B8E994" stroke="#B8E994" stroke-width="0"/><rect x="103.68024964925613" y="306" width="13.550933533350628" height="161" fill="#B8E994" stroke="#B8E994" stroke-width="0"/><rect x="118.43625712658894" y="76.5" width="13.550933533350628" height="390.5" fill="#B8E994" stroke="#B8E994" stroke-width="0"/><rect x="133.19226460392173" y="280.5" width="13.550933533350628" height="186.5" fill="#B8E994" stroke="#B8E994" stroke-width="0"/><rect x="147.94827208125454" y="446.25" width="13.550933533350628" height="20.75" fill="#B8E994" stroke="#B8E994" stroke-width="0"/><rect x="162.70427955858736" y="446.25" width="13.550933533350628" height="20.75" fill="#B8E994" stroke="#B8E994" stroke-width="0"/><rect x="177.46028703592015" y="140.25" width="13.550933533350628" height="326.75" fill="#B8E994" stroke="#B8E994" stroke-width="0"/><rect x="192.21629451325296" y="165.75" width="13.550933533350628" height="301.25" fill="#B8E994" stroke="#B8E994" stroke-width="0"/><rect x="206.97230199058578" y="229.5" width="13.550933533350628" height="237.5" fill="#B8E994" stroke="#B8E994" stroke-width="0"/><rect x="221.72830946791856" y="191.25" width="13.550933533350628" height="275.75" fill="#B8E994" stroke="#B8E994" stroke-width="0"/><rect x="236.48431694525138" y="318.75" width="13.550933533350628" height="148.25" fill="#B8E994" stroke="#B8E994" stroke-width="0"/><rect x="251.2403244225842" y="446.25" width="13.550933533350628" height="20.75" fill="#B8E994" stroke="#B8E994" stroke-width="0"/><rect x="265.996331899917" y="459" width="13.550933533350628" height="8" fill="#B8E994" stroke="#B8E994" stroke-width="0"/><rect x="280.75233937724977" y="459" width="13.550933533350628" height="8" fill="#B8E994" stroke="#B8E994" stroke-width="0"/><rect x="295.5083468545826" y="280.5" width="13.550933533350628" height="186.5" fill="#B8E994" stroke="#B8E994" stroke-width="0"/><rect x="310.2643543319154" y="306" width="13.550933533350628" height="161" fill="#B8E994" stroke="#B8E994" stroke-width="0"/><rect x="325.02036180924824" y="229.5" width="13.550933533350628" height="237.5" fill="#B8E994" stroke="#B8E994" stroke-width="0"/><rect x="339.77636928658103" y="178.5" width="13.550933533350628" height="288.5" fill="#B8E994" stroke="#B8E994" stroke-width="0"/><rect x="354.5323767639138" y="446.25" width="13.550933533350628" height="20.75" fill="#B8E994" stroke="#B8E994" stroke-width="0"/><rect x="369.28838424124666" y="446.25" width="13.550933533350628" height="20.75" fill="#B8E994" stroke="#B8E994" stroke-width="0"/><rect x="384.04439171857945" y="153" width="13.550933533350628" height="314" fill="#B8E994" stroke="#B8E994" stroke-width="0"/><rect x="398.80039919591223" y="153" width="13.550933533350628" height="314" fill="#B8E994" stroke="#B8E994" stroke-width="0"/><rect x="413.5564066732451" y="204" width="13.550933533350628" height="263" fill="#B8E994" stroke="#B8E994" stroke-width="0"/><rect x="428.31241415057787" y="318.75" width="13.550933533350628" height="148.25" fill="#B8E994" stroke="#B8E994" stroke-width="0"/><rect x="443.06842162791065" y="204" width="13.550933533350628" height="263" fill="#B8E994" stroke="#B8E994" stroke-width="0"/><rect x="457.8244291052435" y="420.75" width="13.550933533350628" height="46.25" fill="#B8E994" stroke="#B8E994" stroke-width="0"/><rect x="472.5804365825763" y="420.75" width="13.550933533350628" height="46.25" fill="#B8E994" stroke="#B8E994" stroke-width="0"/><rect x="487.33644405990907" y="216.75" width="13.550933533350628" height="250.25" fill="#B8E994" stroke="#B8E994" stroke-width="0"/><rect x="502.0924515372419" y="255" width="13.550933533350628" height="212" fill="#B8E994" stroke="#B8E994" stroke-width="0"/><rect x="516.8484590145747" y="242.25" width="13.550933533350628" height="224.75" fill="#B8E994" stroke="#B8E994" stroke-width="0"/></g><g class="bar-plot-5"><rect x="88.92424217192332" y="255" width="13.550933533350628" height="212" fill="#D1A36F" stroke="#D1A36F" stroke-width="0"/><rect x="103.68024964925613" y="293.25" width="13.550933533350628" height="173.75" fill="#D1A36F" stroke="#D1A36F" stroke-width="0"/><rect x="118.43625712658894" y="51" width="13.550933533350628" height="416" fill="#D1A36F" stroke="#D1A36F" stroke-width="0"/><rect x="133.19226460392173" y="267.75" width="13.550933533350628" height="199.25" fill="#D1A36F" stroke="#D1A36F" stroke-width="0"/><rect x="147.94827208125454" y="446.25" width="13.550933533350628" height="20.75" fill="#D1A36F" stroke="#D1A36F" stroke-width="0"/><rect x="162.70427955858736" y="446.25" width="13.550933533350628" height="20.75" fill="#D1A36F" stroke="#D1A36F" stroke-width="0"/><rect x="177.46028703592015" y="127.5" width="13.550933533350628" height="339.5" fill="#D1A36F" stroke="#D1A36F" stroke-width="0"/><rect x="192.21629451325296" y="165.75" width="13.550933533350628" height="301.25" fill="#D1A36F" stroke="#D1A36F" stroke-width="0"/><rect x="206.97230199058578" y="216.75" width="13.550933533350628" height="250.25" fill="#D1A36F" stroke="#D1A36F" stroke-width="0"/><rect x="221.72830946791856" y="178.5" width="13.550933533350628" height="288.5" fill="#D1A36F" stroke="#D1A36F" stroke-width="0"/><rect x="236.48431694525138" y="306" width="13.550933533350628" height="161" fill="#D1A36F" stroke="#D1A36F" stroke-width="0"/><rect x="251.2403244225842" y="420.75" width="13.550933533350628" height="46.25" fill="#D1A36F" stroke="#D1A36F" stroke-width="0"/><rect x="265.996331899917" y="446.25" width="13.550933533350628" height="20.75" fill="#D1A36F" stroke="#D1A36F" stroke-width="0"/><rect x="280.75233937724977" y="459" width="13.550933533350628" height="8" fill="#D1A36F" stroke="#D1A36F" stroke-width="0"/><rect x="295.5083468545826" y="267.75" width="13.550933533350628" height="199.25" fill="#D1A36F" stroke="#D1A36F" stroke-width="0"/><rect x="310.2643543319154" y="280.5" width="13.550933533350628" height="186.5" fill="#D1A36F" stroke="#D1A36F" stroke-width="0"/><rect x="325.02036180924824" y="216.75" width="13.550933533350628" height="250.25" fill="#D1A36F" stroke="#D1A36F" stroke-width="0"/><rect x="339.77636928658103" y="165.75" width="13.550933533350628" height="301.25" fill="#D1A36F" stroke="#D1A36F" stroke-width="0"/><rect x="354.5323767639138" y="446.25" width="13.550933533350628" height="20.75" fill="#D1A36F" stroke="#D1A36F" stroke-width="0"/><rect x="369.28838424124666" y="433.5" width="13.550933533350628" height="33.5" fill="#D1A36F" stroke="#D1A36F" stroke-width="0"/><rect x="384.04439171857945" y="140.25" width="13.550933533350628" height="326.75" fill="#D1A36F" stroke="#D1A36F" stroke-width="0"/><rect x="398.80039919591223" y="140.25" width="13.550933533350628" height="326.75" fill="#D1A36F" stroke="#D1A36F" stroke-width="0"/><rect x="413.5564066732451" y="178.5" width="13.550933533350628" height="288.5" fill="#D1A36F" stroke="#D1A36F" stroke-width="0"/><rect x="428.31241415057787" y="293.25" width="13.550933533350628" height="173.75" fill="#D1A36F" stroke="#D1A36F" stroke-width="0"/><rect x="443.06842162791065" y="204" width="13.550933533350628" height="263" fill="#D1A36F" stroke="#D1A36F" stroke-width="0"/><rect x="457.8244291052435" y="395.25" width="13.550933533350628" height="71.75" fill="#D1A36F" stroke="#D1A36F" stroke-width="0"/><rect x="472.5804365825763" y="420.75" width="13.550933533350628" height="46.25" fill="#D1A36F" stroke="#D1A36F" stroke-width="0"/><rect x="487.33644405990907" y="216.75" width="13.550933533350628" height="250.25" fill="#D1A36F" stroke="#D1A36F" stroke-width="0"/><rect x="502.0924515372419" y="255" width="13.550933533350628" height="212" fill="#D1A36F" stroke="#D1A36F" stroke-width="0"/><rect x="516.8484590145747" y="229.5" width="13.550933533350628" height="237.5" fill="#D1A36F" stroke="#D1A36F" stroke-width="0"/></g></g><g class="legend"><g class="markers"><rect x="569.5375" y="195.5" width="10.5" height="10.5" fill="#ECECFF" stroke="#ECECFF" stroke-width="0"/><rect x="569.5375" y="216.5" width="10.5" height="10.5" fill="#8493A6" stroke="#8493A6" stroke-width="0"/><rect x="569.5375" y="237.5" width="10.5" height="10.5" fill="#FFC3A0" stroke="#FFC3A0" stroke-width="0"/><rect x="569.5375" y="258.5" width="10.5" height="10.5" fill="#DCDDE1" stroke="#DCDDE1" stroke-width="0"/><rect x="569.5375" y="279.5" width="10.5" height="10.5" fill="#B8E994" stroke="#B8E994" stroke-width="0"/><rect x="569.5375" y="300.5" width="10.5" height="10.5" fill="#D1A36F" stroke="#D1A36F" stroke-width="0"/></g><g class="label"><text x="0" y="0" fill="#131300" font-size="14" dominant-baseline="middle" text-anchor="start" transform="translate(584.9375, 200.75) rotate(0)">backgrounders</text><text x="0" y="0" fill="#131300" font-size="14" dominant-baseline="middle" text-anchor="start" transform="translate(584.9375, 221.75) rotate(0)">media advisories</text><text x="0" y="0" fill="#131300" font-size="14" dominant-baseline="middle" text-anchor="start" transform="translate(584.9375, 242.75) rotate(0)">news releases</text><text x="0" y="0" fill="#131300" font-size="14" dominant-baseline="middle" text-anchor="start" transform="translate(584.9375, 263.75) rotate(0)">readouts</text><text x="0" y="0" fill="#131300" font-size="14" dominant-baseline="middle" text-anchor="start" transform="translate(584.9375, 284.75) rotate(0)">speeches</text><text x="0" y="0" fill="#131300" font-size="14" dominant-baseline="middle" text-anchor="start" transform="translate(584.9375, 305.75) rotate(0)">statements</text></g></g><g class="bottom-axis"><g class="axis-line"><path d="M 59.78613471984863,468 L 559.5375,468" fill="none" stroke="#131300" stroke-width="2"/></g><g class="label"><text x="0" y="0" fill="#131300" font-size="14" dominant-baseline="text-before-edge" text-anchor="middle" transform="translate(95.69970893859863, 479) rotate(0)">2026-07-21</text><text x="0" y="0" fill="#131300" font-size="14" dominant-baseline="text-before-edge" text-anchor="middle" transform="translate(110.45571641593143, 479) rotate(0)">2026-07-22</text><text x="0" y="0" fill="#131300" font-size="14" dominant-baseline="text-before-edge" text-anchor="middle" transform="translate(125.21172389326425, 479) rotate(0)">2026-07-23</text><text x="0" y="0" fill="#131300" font-size="14" dominant-baseline="text-before-edge" text-anchor="middle" transform="translate(139.96773137059705, 479) rotate(0)">2026-07-24</text><text x="0" y="0" fill="#131300" font-size="14" dominant-baseline="text-before-edge" text-anchor="middle" transform="translate(154.72373884792987, 479) rotate(0)">2026-07-25</text><text x="0" y="0" fill="#131300" font-size="14" dominant-baseline="text-before-edge" text-anchor="middle" transform="translate(169.47974632526268, 479) rotate(0)">2026-07-26</text><text x="0" y="0" fill="#131300" font-size="14" dominant-baseline="text-before-edge" text-anchor="middle" transform="translate(184.23575380259547, 479) rotate(0)">2026-07-27</text><text x="0" y="0" fill="#131300" font-size="14" dominant-baseline="text-before-edge" text-anchor="middle" transform="translate(198.99176127992828, 479) rotate(0)">2026-07-28</text><text x="0" y="0" fill="#131300" font-size="14" dominant-baseline="text-before-edge" text-anchor="middle" transform="translate(213.7477687572611, 479) rotate(0)">2026-07-29</text><text x="0" y="0" fill="#131300" font-size="14" dominant-baseline="text-before-edge" text-anchor="middle" transform="translate(228.5037762345939, 479) rotate(0)">2026-07-30</text><text x="0" y="0" fill="#131300" font-size="14" dominant-baseline="text-before-edge" text-anchor="middle" transform="translate(243.2597837119267, 479) rotate(0)">2026-07-31</text><text x="0" y="0" fill="#131300" font-size="14" dominant-baseline="text-before-edge" text-anchor="middle" transform="translate(258.0157911892595, 479) rotate(0)">2026-08-01</text><text x="0" y="0" fill="#131300" font-size="14" dominant-baseline="text-before-edge" text-anchor="middle" transform="translate(272.7717986665923, 479) rotate(0)">2026-08-02</text><text x="0" y="0" fill="#131300" font-size="14" dominant-baseline="text-before-edge" text-anchor="middle" transform="translate(287.5278061439251, 479) rotate(0)">2026-08-03</text><text x="0" y="0" fill="#131300" font-size="14" dominant-baseline="text-before-edge" text-anchor="middle" transform="translate(302.28381362125793, 479) rotate(0)">2026-08-04</text><text x="0" y="0" fill="#131300" font-size="14" dominant-baseline="text-before-edge" text-anchor="middle" transform="translate(317.0398210985907, 479) rotate(0)">2026-08-05</text><text x="0" y="0" fill="#131300" font-size="14" dominant-baseline="text-before-edge" text-anchor="middle" transform="translate(331.79582857592357, 479) rotate(0)">2026-08-06</text><text x="0" y="0" fill="#131300" font-size="14" dominant-baseline="text-before-edge" text-anchor="middle" transform="translate(346.55183605325635, 479) rotate(0)">2026-08-07</text><text x="0" y="0" fill="#131300" font-size="14" dominant-baseline="text-before-edge" text-anchor="middle" transform="translate(361.30784353058914, 479) rotate(0)">2026-08-08</text><text x="0" y="0" fill="#131300" font-size="14" dominant-baseline="text-before-edge" text-anchor="middle" transform="translate(376.063851007922, 479) rotate(0)">2026-08-09</text><text x="0" y="0" fill="#131300" font-size="14" dominant-baseline="text-before-edge" text-anchor="middle" transform="translate(390.81985848525477, 479) rotate(0)">2026-08-10</text><text x="0" y="0" fill="#131300" font-size="14" dominant-baseline="text-before-edge" text-anchor="middle" transform="translate(405.57586596258756, 479) rotate(0)">2026-08-11</text><text x="0" y="0" fill="#131300" font-size="14" dominant-baseline="text-before-edge" text-anchor="middle" transform="translate(420.3318734399204, 479) rotate(0)">2026-08-12</text><text x="0" y="0" fill="#131300" font-size="14" dominant-baseline="text-before-edge" text-anchor="middle" transform="translate(435.0878809172532, 479) rotate(0)">2026-08-13</text><text x="0" y="0" fill="#131300" font-size="14" dominant-baseline="text-before-edge" text-anchor="middle" transform="translate(449.843888394586, 479) rotate(0)">2026-08-14</text><text x="0" y="0" fill="#131300" font-size="14" dominant-baseline="text-before-edge" text-anchor="middle" transform="translate(464.5998958719188, 479) rotate(0)">2026-08-15</text><text x="0" y="0" fill="#131300" font-size="14" dominant-baseline="text-before-edge" text-anchor="middle" transform="translate(479.3559033492516, 479) rotate(0)">2026-08-16</text><text x="0" y="0" fill="#131300" font-size="14" dominant-baseline="text-before-edge" text-anchor="middle" transform="translate(494.1119108265844, 479) rotate(0)">2026-08-17</text><text x="0" y="0" fill="#131300" font-size="14" dominant-baseline="text-before-edge" text-anchor="middle" transform="translate(508.86791830391724, 479) rotate(0)">2026-08-18</text><text x="0" y="0" fill="#131300" font-size="14" dominant-baseline="text-before-edge" text-anchor="middle" transform="translate(523.62392578125, 479) rotate(0)">2026-08-19</text></g><g class="ticks"><path d="M 95.69970893859863,469 L 95.69970893859863,474" fill="none" stroke="#131300" stroke-width="2"/><path d="M 110.45571641593143,469 L 110.45571641593143,474" fill="none" stroke="#131300" stroke-width="2"/><path d="M 125.21172389326425,469 L 125.21172389326425,474" fill="none" stroke="#131300" stroke-width="2"/><path d="M 139.96773137059705,469 L 139.96773137059705,474" fill="none" stroke="#131300" stroke-width="2"/><path d="M 154.72373884792987,469 L 154.72373884792987,474" fill="none" stroke="#131300" stroke-width="2"/><path d="M 169.47974632526268,469 L 169.47974632526268,474" fill="none" stroke="#131300" stroke-width="2"/><path d="M 184.23575380259547,469 L 184.23575380259547,474" fill="none" stroke="#131300" stroke-width="2"/><path d="M 198.99176127992828,469 L 198.99176127992828,474" fill="none" stroke="#131300" stroke-width="2"/><path d="M 213.7477687572611,469 L 213.7477687572611,474" fill="none" stroke="#131300" stroke-width="2"/><path d="M 228.5037762345939,469 L 228.5037762345939,474" fill="none" stroke="#131300" stroke-width="2"/><path d="M 243.2597837119267,469 L 243.2597837119267,474" fill="none" stroke="#131300" stroke-width="2"/><path d="M 258.0157911892595,469 L 258.0157911892595,474" fill="none" stroke="#131300" stroke-width="2"/><path d="M 272.7717986665923,469 L 272.7717986665923,474" fill="none" stroke="#131300" stroke-width="2"/><path d="M 287.5278061439251,469 L 287.5278061439251,474" fill="none" stroke="#131300" stroke-width="2"/><path d="M 302.28381362125793,469 L 302.28381362125793,474" fill="none" stroke="#131300" stroke-width="2"/><path d="M 317.0398210985907,469 L 317.0398210985907,474" fill="none" stroke="#131300" stroke-width="2"/><path d="M 331.79582857592357,469 L 331.79582857592357,474" fill="none" stroke="#131300" stroke-width="2"/><path d="M 346.55183605325635,469 L 346.55183605325635,474" fill="none" stroke="#131300" stroke-width="2"/><path d="M 361.30784353058914,469 L 361.30784353058914,474" fill="none" stroke="#131300" stroke-width="2"/><path d="M 376.063851007922,469 L 376.063851007922,474" fill="none" stroke="#131300" stroke-width="2"/><path d="M 390.81985848525477,469 L 390.81985848525477,474" fill="none" stroke="#131300" stroke-width="2"/><path d="M 405.57586596258756,469 L 405.57586596258756,474" fill="none" stroke="#131300" stroke-width="2"/><path d="M 420.3318734399204,469 L 420.3318734399204,474" fill="none" stroke="#131300" stroke-width="2"/><path d="M 435.0878809172532,469 L 435.0878809172532,474" fill="none" stroke="#131300" stroke-width="2"/><path d="M 449.843888394586,469 L 449.843888394586,474" fill="none" stroke="#131300" stroke-width="2"/><path d="M 464.5998958719188,469 L 464.5998958719188,474" fill="none" stroke="#131300" stroke-width="2"/><path d="M 479.3559033492516,469 L 479.3559033492516,474" fill="none" stroke="#131300" stroke-width="2"/><path d="M 494.1119108265844,469 L 494.1119108265844,474" fill="none" stroke="#131300" stroke-width="2"/><path d="M 508.86791830391724,469 L 508.86791830391724,474" fill="none" stroke="#131300" stroke-width="2"/><path d="M 523.62392578125,469 L 523.62392578125,474" fill="none" stroke="#131300" stroke-width="2"/></g></g><g class="left-axis"><g class="axisl-line"><path d="M 58.78613471984863,43 L 58.78613471984863,467" fill="none" stroke="#131300" stroke-width="2"/></g><g class="label"><text x="0" y="0" fill="#131300" font-size="14" dominant-baseline="middle" text-anchor="end" transform="translate(47.78613471984863, 76.5) rotate(0)">30</text><text x="0" y="0" fill="#131300" font-size="14" dominant-baseline="middle" text-anchor="end" transform="translate(47.78613471984863, 140.25) rotate(0)">25</text><text x="0" y="0" fill="#131300" font-size="14" dominant-baseline="middle" text-anchor="end" transform="translate(47.78613471984863, 204) rotate(0)">20</text><text x="0" y="0" fill="#131300" font-size="14" dominant-baseline="middle" text-anchor="end" transform="translate(47.78613471984863, 267.75) rotate(0)">15</text><text x="0" y="0" fill="#131300" font-size="14" dominant-baseline="middle" text-anchor="end" transform="translate(47.78613471984863, 331.5) rotate(0)">10</text><text x="0" y="0" fill="#131300" font-size="14" dominant-baseline="middle" text-anchor="end" transform="translate(47.78613471984863, 395.25) rotate(0)">5</text><text x="0" y="0" fill="#131300" font-size="14" dominant-baseline="middle" text-anchor="end" transform="translate(47.78613471984863, 459) rotate(0)">0</text></g><g class="ticks"><path d="M 57.78613471984863,76.5 L 52.78613471984863,76.5" fill="none" stroke="#131300" stroke-width="2"/><path d="M 57.78613471984863,140.25 L 52.78613471984863,140.25" fill="none" stroke="#131300" stroke-width="2"/><path d="M 57.78613471984863,204 L 52.78613471984863,204" fill="none" stroke="#131300" stroke-width="2"/><path d="M 57.78613471984863,267.75 L 52.78613471984863,267.75" fill="none" stroke="#131300" stroke-width="2"/><path d="M 57.78613471984863,331.5 L 52.78613471984863,331.5" fill="none" stroke="#131300" stroke-width="2"/><path d="M 57.78613471984863,395.25 L 52.78613471984863,395.25" fill="none" stroke="#131300" stroke-width="2"/><path d="M 57.78613471984863,459 L 52.78613471984863,459" fill="none" stroke="#131300" stroke-width="2"/></g><g class="title"><text x="0" y="0" fill="#131300" font-size="16" dominant-baseline="text-before-edge" text-anchor="middle" transform="translate(5, 255) rotate(270)">Count</text></g></g></g><g class="mermaid-tmp-group"/></svg>