<svg id="my-svg" width="100%" xmlns="http://www.w3.org/2000/svg" xmlns:xlink="http://www.w3.org/1999/xlink" style="max-width: 700px; background-color: white;" viewBox="0 0 700 500" role="graphics-document document" aria-roledescription="xychart"><style>#my-svg{font-family:"trebuchet ms",verdana,arial,sans-serif;font-size:16px;fill:#333;}@keyframes edge-animation-frame{from{stroke-dashoffset:0;}}@keyframes dash{to{stroke-dashoffset:0;}}#my-svg .edge-animation-slow{stroke-dasharray:9,5!important;stroke-dashoffset:900;animation:dash 50s linear infinite;stroke-linecap:round;}#my-svg .edge-animation-fast{stroke-dasharray:9,5!important;stroke-dashoffset:900;animation:dash 20s linear infinite;stroke-linecap:round;}#my-svg .error-icon{fill:#552222;}#my-svg .error-text{fill:#552222;stroke:#552222;}#my-svg .edge-thickness-normal{stroke-width:1px;}#my-svg .edge-thickness-thick{stroke-width:3.5px;}#my-svg .edge-pattern-solid{stroke-dasharray:0;}#my-svg .edge-thickness-invisible{stroke-width:0;fill:none;}#my-svg .edge-pattern-dashed{stroke-dasharray:3;}#my-svg .edge-pattern-dotted{stroke-dasharray:2;}#my-svg .marker{fill:#333333;stroke:#333333;}#my-svg .marker.cross{stroke:#333333;}#my-svg svg{font-family:"trebuchet ms",verdana,arial,sans-serif;font-size:16px;}#my-svg p{margin:0;}#my-svg :root{--mermaid-font-family:"trebuchet ms",verdana,arial,sans-serif;}</style><g/><g class="main"><rect width="700" height="500" class="background" fill="white"/><g class="chart-title"><text x="0" y="0" fill="#131300" font-size="20" dominant-baseline="middle" text-anchor="middle" transform="translate(350, 21.5) rotate(0)">GC News — TYPE_EN per day (last 30 days)</text></g><g class="plot"><g class="bar-plot-0"><rect x="86.70025258858999" y="459" width="17.998912700017293" height="8" fill="#ECECFF" stroke="#ECECFF" stroke-width="0"/><rect x="106.29979454868142" y="445.6229508196721" width="17.998912700017293" height="21.3770491803279" fill="#ECECFF" stroke="#ECECFF" stroke-width="0"/><rect x="125.89933650877285" y="459" width="17.998912700017293" height="8" fill="#ECECFF" stroke="#ECECFF" stroke-width="0"/><rect x="145.49887846886426" y="452.3114754098361" width="17.998912700017293" height="14.688524590163922" fill="#ECECFF" stroke="#ECECFF" stroke-width="0"/><rect x="165.0984204289557" y="459" width="17.998912700017293" height="8" fill="#ECECFF" stroke="#ECECFF" stroke-width="0"/><rect x="184.69796238904712" y="452.3114754098361" width="17.998912700017293" height="14.688524590163922" fill="#ECECFF" stroke="#ECECFF" stroke-width="0"/><rect x="204.29750434913853" y="459" width="17.998912700017293" height="8" fill="#ECECFF" stroke="#ECECFF" stroke-width="0"/><rect x="223.89704630922998" y="459" width="17.998912700017293" height="8" fill="#ECECFF" stroke="#ECECFF" stroke-width="0"/><rect x="243.4965882693214" y="452.3114754098361" width="17.998912700017293" height="14.688524590163922" fill="#ECECFF" stroke="#ECECFF" stroke-width="0"/><rect x="263.09613022941284" y="459" width="17.998912700017293" height="8" fill="#ECECFF" stroke="#ECECFF" stroke-width="0"/><rect x="282.69567218950425" y="452.3114754098361" width="17.998912700017293" height="14.688524590163922" fill="#ECECFF" stroke="#ECECFF" stroke-width="0"/><rect x="302.29521414959567" y="438.9344262295082" width="17.998912700017293" height="28.065573770491824" fill="#ECECFF" stroke="#ECECFF" stroke-width="0"/><rect x="321.8947561096871" y="452.3114754098361" width="17.998912700017293" height="14.688524590163922" fill="#ECECFF" stroke="#ECECFF" stroke-width="0"/><rect x="341.4942980697785" y="459" width="17.998912700017293" height="8" fill="#ECECFF" stroke="#ECECFF" stroke-width="0"/><rect x="361.09384002986997" y="459" width="17.998912700017293" height="8" fill="#ECECFF" stroke="#ECECFF" stroke-width="0"/><rect x="380.6933819899614" y="459" width="17.998912700017293" height="8" fill="#ECECFF" stroke="#ECECFF" stroke-width="0"/><rect x="400.2929239500528" y="452.3114754098361" width="17.998912700017293" height="14.688524590163922" fill="#ECECFF" stroke="#ECECFF" stroke-width="0"/><rect x="419.8924659101442" y="452.3114754098361" width="17.998912700017293" height="14.688524590163922" fill="#ECECFF" stroke="#ECECFF" stroke-width="0"/><rect x="439.4920078702356" y="445.6229508196721" width="17.998912700017293" height="21.3770491803279" fill="#ECECFF" stroke="#ECECFF" stroke-width="0"/><rect x="459.0915498303271" y="459" width="17.998912700017293" height="8" fill="#ECECFF" stroke="#ECECFF" stroke-width="0"/><rect x="478.6910917904185" y="452.3114754098361" width="17.998912700017293" height="14.688524590163922" fill="#ECECFF" stroke="#ECECFF" stroke-width="0"/><rect x="498.2906337505099" y="459" width="17.998912700017293" height="8" fill="#ECECFF" stroke="#ECECFF" stroke-width="0"/><rect x="517.8901757106013" y="459" width="17.998912700017293" height="8" fill="#ECECFF" stroke="#ECECFF" stroke-width="0"/><rect x="537.4897176706927" y="432.2459016393443" width="17.998912700017293" height="34.75409836065569" fill="#ECECFF" stroke="#ECECFF" stroke-width="0"/><rect x="557.0892596307841" y="412.18032786885243" width="17.998912700017293" height="54.81967213114757" fill="#ECECFF" stroke="#ECECFF" stroke-width="0"/><rect x="576.6888015908756" y="432.2459016393443" width="17.998912700017293" height="34.75409836065569" fill="#ECECFF" stroke="#ECECFF" stroke-width="0"/><rect x="596.2883435509669" y="452.3114754098361" width="17.998912700017293" height="14.688524590163922" fill="#ECECFF" stroke="#ECECFF" stroke-width="0"/><rect x="615.8878855110585" y="459" width="17.998912700017293" height="8" fill="#ECECFF" stroke="#ECECFF" stroke-width="0"/><rect x="635.4874274711499" y="459" width="17.998912700017293" height="8" fill="#ECECFF" stroke="#ECECFF" stroke-width="0"/><rect x="655.0869694312413" y="459" width="17.998912700017293" height="8" fill="#ECECFF" stroke="#ECECFF" stroke-width="0"/></g><g class="bar-plot-1"><rect x="86.70025258858999" y="452.3114754098361" width="17.998912700017293" height="14.688524590163922" fill="#8493A6" stroke="#8493A6" stroke-width="0"/><rect x="106.29979454868142" y="438.9344262295082" width="17.998912700017293" height="28.065573770491824" fill="#8493A6" stroke="#8493A6" stroke-width="0"/><rect x="125.89933650877285" y="452.3114754098361" width="17.998912700017293" height="14.688524590163922" fill="#8493A6" stroke="#8493A6" stroke-width="0"/><rect x="145.49887846886426" y="425.55737704918033" width="17.998912700017293" height="41.44262295081967" fill="#8493A6" stroke="#8493A6" stroke-width="0"/><rect x="165.0984204289557" y="338.60655737704917" width="17.998912700017293" height="128.39344262295083" fill="#8493A6" stroke="#8493A6" stroke-width="0"/><rect x="184.69796238904712" y="452.3114754098361" width="17.998912700017293" height="14.688524590163922" fill="#8493A6" stroke="#8493A6" stroke-width="0"/><rect x="204.29750434913853" y="459" width="17.998912700017293" height="8" fill="#8493A6" stroke="#8493A6" stroke-width="0"/><rect x="223.89704630922998" y="459" width="17.998912700017293" height="8" fill="#8493A6" stroke="#8493A6" stroke-width="0"/><rect x="243.4965882693214" y="418.86885245901635" width="17.998912700017293" height="48.13114754098365" fill="#8493A6" stroke="#8493A6" stroke-width="0"/><rect x="263.09613022941284" y="438.9344262295082" width="17.998912700017293" height="28.065573770491824" fill="#8493A6" stroke="#8493A6" stroke-width="0"/><rect x="282.69567218950425" y="418.86885245901635" width="17.998912700017293" height="48.13114754098365" fill="#8493A6" stroke="#8493A6" stroke-width="0"/><rect x="302.29521414959567" y="392.11475409836066" width="17.998912700017293" height="74.88524590163934" fill="#8493A6" stroke="#8493A6" stroke-width="0"/><rect x="321.8947561096871" y="438.9344262295082" width="17.998912700017293" height="28.065573770491824" fill="#8493A6" stroke="#8493A6" stroke-width="0"/><rect x="341.4942980697785" y="459" width="17.998912700017293" height="8" fill="#8493A6" stroke="#8493A6" stroke-width="0"/><rect x="361.09384002986997" y="459" width="17.998912700017293" height="8" fill="#8493A6" stroke="#8493A6" stroke-width="0"/><rect x="380.6933819899614" y="445.6229508196721" width="17.998912700017293" height="21.3770491803279" fill="#8493A6" stroke="#8493A6" stroke-width="0"/><rect x="400.2929239500528" y="445.6229508196721" width="17.998912700017293" height="21.3770491803279" fill="#8493A6" stroke="#8493A6" stroke-width="0"/><rect x="419.8924659101442" y="438.9344262295082" width="17.998912700017293" height="28.065573770491824" fill="#8493A6" stroke="#8493A6" stroke-width="0"/><rect x="439.4920078702356" y="438.9344262295082" width="17.998912700017293" height="28.065573770491824" fill="#8493A6" stroke="#8493A6" stroke-width="0"/><rect x="459.0915498303271" y="438.9344262295082" width="17.998912700017293" height="28.065573770491824" fill="#8493A6" stroke="#8493A6" stroke-width="0"/><rect x="478.6910917904185" y="452.3114754098361" width="17.998912700017293" height="14.688524590163922" fill="#8493A6" stroke="#8493A6" stroke-width="0"/><rect x="498.2906337505099" y="452.3114754098361" width="17.998912700017293" height="14.688524590163922" fill="#8493A6" stroke="#8493A6" stroke-width="0"/><rect x="517.8901757106013" y="432.2459016393443" width="17.998912700017293" height="34.75409836065569" fill="#8493A6" stroke="#8493A6" stroke-width="0"/><rect x="537.4897176706927" y="338.60655737704917" width="17.998912700017293" height="128.39344262295083" fill="#8493A6" stroke="#8493A6" stroke-width="0"/><rect x="557.0892596307841" y="291.78688524590166" width="17.998912700017293" height="175.21311475409834" fill="#8493A6" stroke="#8493A6" stroke-width="0"/><rect x="576.6888015908756" y="345.2950819672131" width="17.998912700017293" height="121.7049180327869" fill="#8493A6" stroke="#8493A6" stroke-width="0"/><rect x="596.2883435509669" y="418.86885245901635" width="17.998912700017293" height="48.13114754098365" fill="#8493A6" stroke="#8493A6" stroke-width="0"/><rect x="615.8878855110585" y="459" width="17.998912700017293" height="8" fill="#8493A6" stroke="#8493A6" stroke-width="0"/><rect x="635.4874274711499" y="459" width="17.998912700017293" height="8" fill="#8493A6" stroke="#8493A6" stroke-width="0"/><rect x="655.0869694312413" y="432.2459016393443" width="17.998912700017293" height="34.75409836065569" fill="#8493A6" stroke="#8493A6" stroke-width="0"/></g><g class="bar-plot-2"><rect x="86.70025258858999" y="452.3114754098361" width="17.998912700017293" height="14.688524590163922" fill="#FFC3A0" stroke="#FFC3A0" stroke-width="0"/><rect x="106.29979454868142" y="405.4918032786885" width="17.998912700017293" height="61.50819672131149" fill="#FFC3A0" stroke="#FFC3A0" stroke-width="0"/><rect x="125.89933650877285" y="425.55737704918033" width="17.998912700017293" height="41.44262295081967" fill="#FFC3A0" stroke="#FFC3A0" stroke-width="0"/><rect x="145.49887846886426" y="392.11475409836066" width="17.998912700017293" height="74.88524590163934" fill="#FFC3A0" stroke="#FFC3A0" stroke-width="0"/><rect x="165.0984204289557" y="278.40983606557376" width="17.998912700017293" height="188.59016393442624" fill="#FFC3A0" stroke="#FFC3A0" stroke-width="0"/><rect x="184.69796238904712" y="311.8524590163935" width="17.998912700017293" height="155.14754098360652" fill="#FFC3A0" stroke="#FFC3A0" stroke-width="0"/><rect x="204.29750434913853" y="452.3114754098361" width="17.998912700017293" height="14.688524590163922" fill="#FFC3A0" stroke="#FFC3A0" stroke-width="0"/><rect x="223.89704630922998" y="452.3114754098361" width="17.998912700017293" height="14.688524590163922" fill="#FFC3A0" stroke="#FFC3A0" stroke-width="0"/><rect x="243.4965882693214" y="351.983606557377" width="17.998912700017293" height="115.01639344262298" fill="#FFC3A0" stroke="#FFC3A0" stroke-width="0"/><rect x="263.09613022941284" y="412.18032786885243" width="17.998912700017293" height="54.81967213114757" fill="#FFC3A0" stroke="#FFC3A0" stroke-width="0"/><rect x="282.69567218950425" y="311.8524590163935" width="17.998912700017293" height="155.14754098360652" fill="#FFC3A0" stroke="#FFC3A0" stroke-width="0"/><rect x="302.29521414959567" y="378.7377049180328" width="17.998912700017293" height="88.26229508196718" fill="#FFC3A0" stroke="#FFC3A0" stroke-width="0"/><rect x="321.8947561096871" y="331.91803278688525" width="17.998912700017293" height="135.08196721311475" fill="#FFC3A0" stroke="#FFC3A0" stroke-width="0"/><rect x="341.4942980697785" y="459" width="17.998912700017293" height="8" fill="#FFC3A0" stroke="#FFC3A0" stroke-width="0"/><rect x="361.09384002986997" y="459" width="17.998912700017293" height="8" fill="#FFC3A0" stroke="#FFC3A0" stroke-width="0"/><rect x="380.6933819899614" y="385.42622950819674" width="17.998912700017293" height="81.57377049180326" fill="#FFC3A0" stroke="#FFC3A0" stroke-width="0"/><rect x="400.2929239500528" y="398.8032786885246" width="17.998912700017293" height="68.19672131147541" fill="#FFC3A0" stroke="#FFC3A0" stroke-width="0"/><rect x="419.8924659101442" y="418.86885245901635" width="17.998912700017293" height="48.13114754098365" fill="#FFC3A0" stroke="#FFC3A0" stroke-width="0"/><rect x="439.4920078702356" y="405.4918032786885" width="17.998912700017293" height="61.50819672131149" fill="#FFC3A0" stroke="#FFC3A0" stroke-width="0"/><rect x="459.0915498303271" y="365.3606557377049" width="17.998912700017293" height="101.63934426229508" fill="#FFC3A0" stroke="#FFC3A0" stroke-width="0"/><rect x="478.6910917904185" y="432.2459016393443" width="17.998912700017293" height="34.75409836065569" fill="#FFC3A0" stroke="#FFC3A0" stroke-width="0"/><rect x="498.2906337505099" y="438.9344262295082" width="17.998912700017293" height="28.065573770491824" fill="#FFC3A0" stroke="#FFC3A0" stroke-width="0"/><rect x="517.8901757106013" y="398.8032786885246" width="17.998912700017293" height="68.19672131147541" fill="#FFC3A0" stroke="#FFC3A0" stroke-width="0"/><rect x="537.4897176706927" y="258.344262295082" width="17.998912700017293" height="208.655737704918" fill="#FFC3A0" stroke="#FFC3A0" stroke-width="0"/><rect x="557.0892596307841" y="104.50819672131149" width="17.998912700017293" height="362.4918032786885" fill="#FFC3A0" stroke="#FFC3A0" stroke-width="0"/><rect x="576.6888015908756" y="231.59016393442624" width="17.998912700017293" height="235.40983606557376" fill="#FFC3A0" stroke="#FFC3A0" stroke-width="0"/><rect x="596.2883435509669" y="285.0983606557377" width="17.998912700017293" height="181.90163934426232" fill="#FFC3A0" stroke="#FFC3A0" stroke-width="0"/><rect x="615.8878855110585" y="459" width="17.998912700017293" height="8" fill="#FFC3A0" stroke="#FFC3A0" stroke-width="0"/><rect x="635.4874274711499" y="452.3114754098361" width="17.998912700017293" height="14.688524590163922" fill="#FFC3A0" stroke="#FFC3A0" stroke-width="0"/><rect x="655.0869694312413" y="385.42622950819674" width="17.998912700017293" height="81.57377049180326" fill="#FFC3A0" stroke="#FFC3A0" stroke-width="0"/></g><g class="bar-plot-3"><rect x="86.70025258858999" y="452.3114754098361" width="17.998912700017293" height="14.688524590163922" fill="#DCDDE1" stroke="#DCDDE1" stroke-width="0"/><rect x="106.29979454868142" y="405.4918032786885" width="17.998912700017293" height="61.50819672131149" fill="#DCDDE1" stroke="#DCDDE1" stroke-width="0"/><rect x="125.89933650877285" y="418.86885245901635" width="17.998912700017293" height="48.13114754098365" fill="#DCDDE1" stroke="#DCDDE1" stroke-width="0"/><rect x="145.49887846886426" y="392.11475409836066" width="17.998912700017293" height="74.88524590163934" fill="#DCDDE1" stroke="#DCDDE1" stroke-width="0"/><rect x="165.0984204289557" y="251.65573770491804" width="17.998912700017293" height="215.34426229508196" fill="#DCDDE1" stroke="#DCDDE1" stroke-width="0"/><rect x="184.69796238904712" y="305.16393442622956" width="17.998912700017293" height="161.83606557377044" fill="#DCDDE1" stroke="#DCDDE1" stroke-width="0"/><rect x="204.29750434913853" y="452.3114754098361" width="17.998912700017293" height="14.688524590163922" fill="#DCDDE1" stroke="#DCDDE1" stroke-width="0"/><rect x="223.89704630922998" y="452.3114754098361" width="17.998912700017293" height="14.688524590163922" fill="#DCDDE1" stroke="#DCDDE1" stroke-width="0"/><rect x="243.4965882693214" y="351.983606557377" width="17.998912700017293" height="115.01639344262298" fill="#DCDDE1" stroke="#DCDDE1" stroke-width="0"/><rect x="263.09613022941284" y="412.18032786885243" width="17.998912700017293" height="54.81967213114757" fill="#DCDDE1" stroke="#DCDDE1" stroke-width="0"/><rect x="282.69567218950425" y="311.8524590163935" width="17.998912700017293" height="155.14754098360652" fill="#DCDDE1" stroke="#DCDDE1" stroke-width="0"/><rect x="302.29521414959567" y="378.7377049180328" width="17.998912700017293" height="88.26229508196718" fill="#DCDDE1" stroke="#DCDDE1" stroke-width="0"/><rect x="321.8947561096871" y="318.5409836065574" width="17.998912700017293" height="148.4590163934426" fill="#DCDDE1" stroke="#DCDDE1" stroke-width="0"/><rect x="341.4942980697785" y="459" width="17.998912700017293" height="8" fill="#DCDDE1" stroke="#DCDDE1" stroke-width="0"/><rect x="361.09384002986997" y="445.6229508196721" width="17.998912700017293" height="21.3770491803279" fill="#DCDDE1" stroke="#DCDDE1" stroke-width="0"/><rect x="380.6933819899614" y="378.7377049180328" width="17.998912700017293" height="88.26229508196718" fill="#DCDDE1" stroke="#DCDDE1" stroke-width="0"/><rect x="400.2929239500528" y="398.8032786885246" width="17.998912700017293" height="68.19672131147541" fill="#DCDDE1" stroke="#DCDDE1" stroke-width="0"/><rect x="419.8924659101442" y="418.86885245901635" width="17.998912700017293" height="48.13114754098365" fill="#DCDDE1" stroke="#DCDDE1" stroke-width="0"/><rect x="439.4920078702356" y="405.4918032786885" width="17.998912700017293" height="61.50819672131149" fill="#DCDDE1" stroke="#DCDDE1" stroke-width="0"/><rect x="459.0915498303271" y="358.672131147541" width="17.998912700017293" height="108.327868852459" fill="#DCDDE1" stroke="#DCDDE1" stroke-width="0"/><rect x="478.6910917904185" y="412.18032786885243" width="17.998912700017293" height="54.81967213114757" fill="#DCDDE1" stroke="#DCDDE1" stroke-width="0"/><rect x="498.2906337505099" y="432.2459016393443" width="17.998912700017293" height="34.75409836065569" fill="#DCDDE1" stroke="#DCDDE1" stroke-width="0"/><rect x="517.8901757106013" y="385.42622950819674" width="17.998912700017293" height="81.57377049180326" fill="#DCDDE1" stroke="#DCDDE1" stroke-width="0"/><rect x="537.4897176706927" y="251.65573770491804" width="17.998912700017293" height="215.34426229508196" fill="#DCDDE1" stroke="#DCDDE1" stroke-width="0"/><rect x="557.0892596307841" y="64.37704918032789" width="17.998912700017293" height="402.6229508196721" fill="#DCDDE1" stroke="#DCDDE1" stroke-width="0"/><rect x="576.6888015908756" y="218.21311475409837" width="17.998912700017293" height="248.78688524590163" fill="#DCDDE1" stroke="#DCDDE1" stroke-width="0"/><rect x="596.2883435509669" y="285.0983606557377" width="17.998912700017293" height="181.90163934426232" fill="#DCDDE1" stroke="#DCDDE1" stroke-width="0"/><rect x="615.8878855110585" y="459" width="17.998912700017293" height="8" fill="#DCDDE1" stroke="#DCDDE1" stroke-width="0"/><rect x="635.4874274711499" y="452.3114754098361" width="17.998912700017293" height="14.688524590163922" fill="#DCDDE1" stroke="#DCDDE1" stroke-width="0"/><rect x="655.0869694312413" y="385.42622950819674" width="17.998912700017293" height="81.57377049180326" fill="#DCDDE1" stroke="#DCDDE1" stroke-width="0"/></g><g class="bar-plot-4"><rect x="86.70025258858999" y="452.3114754098361" width="17.998912700017293" height="14.688524590163922" fill="#B8E994" stroke="#B8E994" stroke-width="0"/><rect x="106.29979454868142" y="405.4918032786885" width="17.998912700017293" height="61.50819672131149" fill="#B8E994" stroke="#B8E994" stroke-width="0"/><rect x="125.89933650877285" y="418.86885245901635" width="17.998912700017293" height="48.13114754098365" fill="#B8E994" stroke="#B8E994" stroke-width="0"/><rect x="145.49887846886426" y="392.11475409836066" width="17.998912700017293" height="74.88524590163934" fill="#B8E994" stroke="#B8E994" stroke-width="0"/><rect x="165.0984204289557" y="244.9672131147541" width="17.998912700017293" height="222.0327868852459" fill="#B8E994" stroke="#B8E994" stroke-width="0"/><rect x="184.69796238904712" y="305.16393442622956" width="17.998912700017293" height="161.83606557377044" fill="#B8E994" stroke="#B8E994" stroke-width="0"/><rect x="204.29750434913853" y="452.3114754098361" width="17.998912700017293" height="14.688524590163922" fill="#B8E994" stroke="#B8E994" stroke-width="0"/><rect x="223.89704630922998" y="452.3114754098361" width="17.998912700017293" height="14.688524590163922" fill="#B8E994" stroke="#B8E994" stroke-width="0"/><rect x="243.4965882693214" y="351.983606557377" width="17.998912700017293" height="115.01639344262298" fill="#B8E994" stroke="#B8E994" stroke-width="0"/><rect x="263.09613022941284" y="412.18032786885243" width="17.998912700017293" height="54.81967213114757" fill="#B8E994" stroke="#B8E994" stroke-width="0"/><rect x="282.69567218950425" y="311.8524590163935" width="17.998912700017293" height="155.14754098360652" fill="#B8E994" stroke="#B8E994" stroke-width="0"/><rect x="302.29521414959567" y="378.7377049180328" width="17.998912700017293" height="88.26229508196718" fill="#B8E994" stroke="#B8E994" stroke-width="0"/><rect x="321.8947561096871" y="318.5409836065574" width="17.998912700017293" height="148.4590163934426" fill="#B8E994" stroke="#B8E994" stroke-width="0"/><rect x="341.4942980697785" y="459" width="17.998912700017293" height="8" fill="#B8E994" stroke="#B8E994" stroke-width="0"/><rect x="361.09384002986997" y="445.6229508196721" width="17.998912700017293" height="21.3770491803279" fill="#B8E994" stroke="#B8E994" stroke-width="0"/><rect x="380.6933819899614" y="372.04918032786884" width="17.998912700017293" height="94.95081967213116" fill="#B8E994" stroke="#B8E994" stroke-width="0"/><rect x="400.2929239500528" y="398.8032786885246" width="17.998912700017293" height="68.19672131147541" fill="#B8E994" stroke="#B8E994" stroke-width="0"/><rect x="419.8924659101442" y="418.86885245901635" width="17.998912700017293" height="48.13114754098365" fill="#B8E994" stroke="#B8E994" stroke-width="0"/><rect x="439.4920078702356" y="405.4918032786885" width="17.998912700017293" height="61.50819672131149" fill="#B8E994" stroke="#B8E994" stroke-width="0"/><rect x="459.0915498303271" y="351.983606557377" width="17.998912700017293" height="115.01639344262298" fill="#B8E994" stroke="#B8E994" stroke-width="0"/><rect x="478.6910917904185" y="412.18032786885243" width="17.998912700017293" height="54.81967213114757" fill="#B8E994" stroke="#B8E994" stroke-width="0"/><rect x="498.2906337505099" y="432.2459016393443" width="17.998912700017293" height="34.75409836065569" fill="#B8E994" stroke="#B8E994" stroke-width="0"/><rect x="517.8901757106013" y="385.42622950819674" width="17.998912700017293" height="81.57377049180326" fill="#B8E994" stroke="#B8E994" stroke-width="0"/><rect x="537.4897176706927" y="251.65573770491804" width="17.998912700017293" height="215.34426229508196" fill="#B8E994" stroke="#B8E994" stroke-width="0"/><rect x="557.0892596307841" y="57.688524590163944" width="17.998912700017293" height="409.3114754098361" fill="#B8E994" stroke="#B8E994" stroke-width="0"/><rect x="576.6888015908756" y="218.21311475409837" width="17.998912700017293" height="248.78688524590163" fill="#B8E994" stroke="#B8E994" stroke-width="0"/><rect x="596.2883435509669" y="285.0983606557377" width="17.998912700017293" height="181.90163934426232" fill="#B8E994" stroke="#B8E994" stroke-width="0"/><rect x="615.8878855110585" y="459" width="17.998912700017293" height="8" fill="#B8E994" stroke="#B8E994" stroke-width="0"/><rect x="635.4874274711499" y="452.3114754098361" width="17.998912700017293" height="14.688524590163922" fill="#B8E994" stroke="#B8E994" stroke-width="0"/><rect x="655.0869694312413" y="385.42622950819674" width="17.998912700017293" height="81.57377049180326" fill="#B8E994" stroke="#B8E994" stroke-width="0"/></g><g class="bar-plot-5"><rect x="86.70025258858999" y="452.3114754098361" width="17.998912700017293" height="14.688524590163922" fill="#D1A36F" stroke="#D1A36F" stroke-width="0"/><rect x="106.29979454868142" y="398.8032786885246" width="17.998912700017293" height="68.19672131147541" fill="#D1A36F" stroke="#D1A36F" stroke-width="0"/><rect x="125.89933650877285" y="405.4918032786885" width="17.998912700017293" height="61.50819672131149" fill="#D1A36F" stroke="#D1A36F" stroke-width="0"/><rect x="145.49887846886426" y="385.42622950819674" width="17.998912700017293" height="81.57377049180326" fill="#D1A36F" stroke="#D1A36F" stroke-width="0"/><rect x="165.0984204289557" y="238.27868852459017" width="17.998912700017293" height="228.72131147540983" fill="#D1A36F" stroke="#D1A36F" stroke-width="0"/><rect x="184.69796238904712" y="291.78688524590166" width="17.998912700017293" height="175.21311475409834" fill="#D1A36F" stroke="#D1A36F" stroke-width="0"/><rect x="204.29750434913853" y="438.9344262295082" width="17.998912700017293" height="28.065573770491824" fill="#D1A36F" stroke="#D1A36F" stroke-width="0"/><rect x="223.89704630922998" y="445.6229508196721" width="17.998912700017293" height="21.3770491803279" fill="#D1A36F" stroke="#D1A36F" stroke-width="0"/><rect x="243.4965882693214" y="351.983606557377" width="17.998912700017293" height="115.01639344262298" fill="#D1A36F" stroke="#D1A36F" stroke-width="0"/><rect x="263.09613022941284" y="405.4918032786885" width="17.998912700017293" height="61.50819672131149" fill="#D1A36F" stroke="#D1A36F" stroke-width="0"/><rect x="282.69567218950425" y="305.16393442622956" width="17.998912700017293" height="161.83606557377044" fill="#D1A36F" stroke="#D1A36F" stroke-width="0"/><rect x="302.29521414959567" y="358.672131147541" width="17.998912700017293" height="108.327868852459" fill="#D1A36F" stroke="#D1A36F" stroke-width="0"/><rect x="321.8947561096871" y="311.8524590163935" width="17.998912700017293" height="155.14754098360652" fill="#D1A36F" stroke="#D1A36F" stroke-width="0"/><rect x="341.4942980697785" y="459" width="17.998912700017293" height="8" fill="#D1A36F" stroke="#D1A36F" stroke-width="0"/><rect x="361.09384002986997" y="445.6229508196721" width="17.998912700017293" height="21.3770491803279" fill="#D1A36F" stroke="#D1A36F" stroke-width="0"/><rect x="380.6933819899614" y="365.3606557377049" width="17.998912700017293" height="101.63934426229508" fill="#D1A36F" stroke="#D1A36F" stroke-width="0"/><rect x="400.2929239500528" y="385.42622950819674" width="17.998912700017293" height="81.57377049180326" fill="#D1A36F" stroke="#D1A36F" stroke-width="0"/><rect x="419.8924659101442" y="418.86885245901635" width="17.998912700017293" height="48.13114754098365" fill="#D1A36F" stroke="#D1A36F" stroke-width="0"/><rect x="439.4920078702356" y="398.8032786885246" width="17.998912700017293" height="68.19672131147541" fill="#D1A36F" stroke="#D1A36F" stroke-width="0"/><rect x="459.0915498303271" y="345.2950819672131" width="17.998912700017293" height="121.7049180327869" fill="#D1A36F" stroke="#D1A36F" stroke-width="0"/><rect x="478.6910917904185" y="405.4918032786885" width="17.998912700017293" height="61.50819672131149" fill="#D1A36F" stroke="#D1A36F" stroke-width="0"/><rect x="498.2906337505099" y="418.86885245901635" width="17.998912700017293" height="48.13114754098365" fill="#D1A36F" stroke="#D1A36F" stroke-width="0"/><rect x="517.8901757106013" y="378.7377049180328" width="17.998912700017293" height="88.26229508196718" fill="#D1A36F" stroke="#D1A36F" stroke-width="0"/><rect x="537.4897176706927" y="238.27868852459017" width="17.998912700017293" height="228.72131147540983" fill="#D1A36F" stroke="#D1A36F" stroke-width="0"/><rect x="557.0892596307841" y="51" width="17.998912700017293" height="416" fill="#D1A36F" stroke="#D1A36F" stroke-width="0"/><rect x="576.6888015908756" y="204.8360655737705" width="17.998912700017293" height="262.1639344262295" fill="#D1A36F" stroke="#D1A36F" stroke-width="0"/><rect x="596.2883435509669" y="278.40983606557376" width="17.998912700017293" height="188.59016393442624" fill="#D1A36F" stroke="#D1A36F" stroke-width="0"/><rect x="615.8878855110585" y="459" width="17.998912700017293" height="8" fill="#D1A36F" stroke="#D1A36F" stroke-width="0"/><rect x="635.4874274711499" y="445.6229508196721" width="17.998912700017293" height="21.3770491803279" fill="#D1A36F" stroke="#D1A36F" stroke-width="0"/><rect x="655.0869694312413" y="372.04918032786884" width="17.998912700017293" height="94.95081967213116" fill="#D1A36F" stroke="#D1A36F" stroke-width="0"/></g></g><g class="bottom-axis"><g class="axis-line"><path d="M 59.78613471984863,468 L 700,468" fill="none" stroke="#131300" stroke-width="2"/></g><g class="label"><text x="0" y="0" fill="#131300" font-size="14" dominant-baseline="text-before-edge" text-anchor="middle" transform="translate(95.69970893859863, 479) rotate(0)">2026-01-25</text><text x="0" y="0" fill="#131300" font-size="14" dominant-baseline="text-before-edge" text-anchor="middle" transform="translate(115.29925089869006, 479) rotate(0)">2026-01-26</text><text x="0" y="0" fill="#131300" font-size="14" dominant-baseline="text-before-edge" text-anchor="middle" transform="translate(134.8987928587815, 479) rotate(0)">2026-01-27</text><text x="0" y="0" fill="#131300" font-size="14" dominant-baseline="text-before-edge" text-anchor="middle" transform="translate(154.4983348188729, 479) rotate(0)">2026-01-28</text><text x="0" y="0" fill="#131300" font-size="14" dominant-baseline="text-before-edge" text-anchor="middle" transform="translate(174.09787677896435, 479) rotate(0)">2026-01-29</text><text x="0" y="0" fill="#131300" font-size="14" dominant-baseline="text-before-edge" text-anchor="middle" transform="translate(193.69741873905576, 479) rotate(0)">2026-01-30</text><text x="0" y="0" fill="#131300" font-size="14" dominant-baseline="text-before-edge" text-anchor="middle" transform="translate(213.29696069914718, 479) rotate(0)">2026-01-31</text><text x="0" y="0" fill="#131300" font-size="14" dominant-baseline="text-before-edge" text-anchor="middle" transform="translate(232.89650265923862, 479) rotate(0)">2026-02-01</text><text x="0" y="0" fill="#131300" font-size="14" dominant-baseline="text-before-edge" text-anchor="middle" transform="translate(252.49604461933004, 479) rotate(0)">2026-02-02</text><text x="0" y="0" fill="#131300" font-size="14" dominant-baseline="text-before-edge" text-anchor="middle" transform="translate(272.0955865794215, 479) rotate(0)">2026-02-03</text><text x="0" y="0" fill="#131300" font-size="14" dominant-baseline="text-before-edge" text-anchor="middle" transform="translate(291.6951285395129, 479) rotate(0)">2026-02-04</text><text x="0" y="0" fill="#131300" font-size="14" dominant-baseline="text-before-edge" text-anchor="middle" transform="translate(311.2946704996043, 479) rotate(0)">2026-02-05</text><text x="0" y="0" fill="#131300" font-size="14" dominant-baseline="text-before-edge" text-anchor="middle" transform="translate(330.8942124596957, 479) rotate(0)">2026-02-06</text><text x="0" y="0" fill="#131300" font-size="14" dominant-baseline="text-before-edge" text-anchor="middle" transform="translate(350.49375441978714, 479) rotate(0)">2026-02-07</text><text x="0" y="0" fill="#131300" font-size="14" dominant-baseline="text-before-edge" text-anchor="middle" transform="translate(370.0932963798786, 479) rotate(0)">2026-02-08</text><text x="0" y="0" fill="#131300" font-size="14" dominant-baseline="text-before-edge" text-anchor="middle" transform="translate(389.69283833997, 479) rotate(0)">2026-02-09</text><text x="0" y="0" fill="#131300" font-size="14" dominant-baseline="text-before-edge" text-anchor="middle" transform="translate(409.29238030006144, 479) rotate(0)">2026-02-10</text><text x="0" y="0" fill="#131300" font-size="14" dominant-baseline="text-before-edge" text-anchor="middle" transform="translate(428.89192226015285, 479) rotate(0)">2026-02-11</text><text x="0" y="0" fill="#131300" font-size="14" dominant-baseline="text-before-edge" text-anchor="middle" transform="translate(448.49146422024427, 479) rotate(0)">2026-02-12</text><text x="0" y="0" fill="#131300" font-size="14" dominant-baseline="text-before-edge" text-anchor="middle" transform="translate(468.09100618033574, 479) rotate(0)">2026-02-13</text><text x="0" y="0" fill="#131300" font-size="14" dominant-baseline="text-before-edge" text-anchor="middle" transform="translate(487.69054814042715, 479) rotate(0)">2026-02-14</text><text x="0" y="0" fill="#131300" font-size="14" dominant-baseline="text-before-edge" text-anchor="middle" transform="translate(507.29009010051857, 479) rotate(0)">2026-02-15</text><text x="0" y="0" fill="#131300" font-size="14" dominant-baseline="text-before-edge" text-anchor="middle" transform="translate(526.88963206061, 479) rotate(0)">2026-02-16</text><text x="0" y="0" fill="#131300" font-size="14" dominant-baseline="text-before-edge" text-anchor="middle" transform="translate(546.4891740207014, 479) rotate(0)">2026-02-17</text><text x="0" y="0" fill="#131300" font-size="14" dominant-baseline="text-before-edge" text-anchor="middle" transform="translate(566.0887159807928, 479) rotate(0)">2026-02-18</text><text x="0" y="0" fill="#131300" font-size="14" dominant-baseline="text-before-edge" text-anchor="middle" transform="translate(585.6882579408843, 479) rotate(0)">2026-02-19</text><text x="0" y="0" fill="#131300" font-size="14" dominant-baseline="text-before-edge" text-anchor="middle" transform="translate(605.2877999009756, 479) rotate(0)">2026-02-20</text><text x="0" y="0" fill="#131300" font-size="14" dominant-baseline="text-before-edge" text-anchor="middle" transform="translate(624.8873418610672, 479) rotate(0)">2026-02-21</text><text x="0" y="0" fill="#131300" font-size="14" dominant-baseline="text-before-edge" text-anchor="middle" transform="translate(644.4868838211586, 479) rotate(0)">2026-02-22</text><text x="0" y="0" fill="#131300" font-size="14" dominant-baseline="text-before-edge" text-anchor="middle" transform="translate(664.08642578125, 479) rotate(0)">2026-02-23</text></g><g class="ticks"><path d="M 95.69970893859863,469 L 95.69970893859863,474" fill="none" stroke="#131300" stroke-width="2"/><path d="M 115.29925089869006,469 L 115.29925089869006,474" fill="none" stroke="#131300" stroke-width="2"/><path d="M 134.8987928587815,469 L 134.8987928587815,474" fill="none" stroke="#131300" stroke-width="2"/><path d="M 154.4983348188729,469 L 154.4983348188729,474" fill="none" stroke="#131300" stroke-width="2"/><path d="M 174.09787677896435,469 L 174.09787677896435,474" fill="none" stroke="#131300" stroke-width="2"/><path d="M 193.69741873905576,469 L 193.69741873905576,474" fill="none" stroke="#131300" stroke-width="2"/><path d="M 213.29696069914718,469 L 213.29696069914718,474" fill="none" stroke="#131300" stroke-width="2"/><path d="M 232.89650265923862,469 L 232.89650265923862,474" fill="none" stroke="#131300" stroke-width="2"/><path d="M 252.49604461933004,469 L 252.49604461933004,474" fill="none" stroke="#131300" stroke-width="2"/><path d="M 272.0955865794215,469 L 272.0955865794215,474" fill="none" stroke="#131300" stroke-width="2"/><path d="M 291.6951285395129,469 L 291.6951285395129,474" fill="none" stroke="#131300" stroke-width="2"/><path d="M 311.2946704996043,469 L 311.2946704996043,474" fill="none" stroke="#131300" stroke-width="2"/><path d="M 330.8942124596957,469 L 330.8942124596957,474" fill="none" stroke="#131300" stroke-width="2"/><path d="M 350.49375441978714,469 L 350.49375441978714,474" fill="none" stroke="#131300" stroke-width="2"/><path d="M 370.0932963798786,469 L 370.0932963798786,474" fill="none" stroke="#131300" stroke-width="2"/><path d="M 389.69283833997,469 L 389.69283833997,474" fill="none" stroke="#131300" stroke-width="2"/><path d="M 409.29238030006144,469 L 409.29238030006144,474" fill="none" stroke="#131300" stroke-width="2"/><path d="M 428.89192226015285,469 L 428.89192226015285,474" fill="none" stroke="#131300" stroke-width="2"/><path d="M 448.49146422024427,469 L 448.49146422024427,474" fill="none" stroke="#131300" stroke-width="2"/><path d="M 468.09100618033574,469 L 468.09100618033574,474" fill="none" stroke="#131300" stroke-width="2"/><path d="M 487.69054814042715,469 L 487.69054814042715,474" fill="none" stroke="#131300" stroke-width="2"/><path d="M 507.29009010051857,469 L 507.29009010051857,474" fill="none" stroke="#131300" stroke-width="2"/><path d="M 526.88963206061,469 L 526.88963206061,474" fill="none" stroke="#131300" stroke-width="2"/><path d="M 546.4891740207014,469 L 546.4891740207014,474" fill="none" stroke="#131300" stroke-width="2"/><path d="M 566.0887159807928,469 L 566.0887159807928,474" fill="none" stroke="#131300" stroke-width="2"/><path d="M 585.6882579408843,469 L 585.6882579408843,474" fill="none" stroke="#131300" stroke-width="2"/><path d="M 605.2877999009756,469 L 605.2877999009756,474" fill="none" stroke="#131300" stroke-width="2"/><path d="M 624.8873418610672,469 L 624.8873418610672,474" fill="none" stroke="#131300" stroke-width="2"/><path d="M 644.4868838211586,469 L 644.4868838211586,474" fill="none" stroke="#131300" stroke-width="2"/><path d="M 664.08642578125,469 L 664.08642578125,474" fill="none" stroke="#131300" stroke-width="2"/></g></g><g class="left-axis"><g class="axisl-line"><path d="M 58.78613471984863,43 L 58.78613471984863,467" fill="none" stroke="#131300" stroke-width="2"/></g><g class="label"><text x="0" y="0" fill="#131300" font-size="14" dominant-baseline="middle" text-anchor="end" transform="translate(47.78613471984863, 57.688524590163944) rotate(0)">60</text><text x="0" y="0" fill="#131300" font-size="14" dominant-baseline="middle" text-anchor="end" transform="translate(47.78613471984863, 91.1311475409836) rotate(0)">55</text><text x="0" y="0" fill="#131300" font-size="14" dominant-baseline="middle" text-anchor="end" transform="translate(47.78613471984863, 124.57377049180326) rotate(0)">50</text><text x="0" y="0" fill="#131300" font-size="14" dominant-baseline="middle" text-anchor="end" transform="translate(47.78613471984863, 158.01639344262293) rotate(0)">45</text><text x="0" y="0" fill="#131300" font-size="14" dominant-baseline="middle" text-anchor="end" transform="translate(47.78613471984863, 191.45901639344265) rotate(0)">40</text><text x="0" y="0" fill="#131300" font-size="14" dominant-baseline="middle" text-anchor="end" transform="translate(47.78613471984863, 224.9016393442623) rotate(0)">35</text><text x="0" y="0" fill="#131300" font-size="14" dominant-baseline="middle" text-anchor="end" transform="translate(47.78613471984863, 258.344262295082) rotate(0)">30</text><text x="0" y="0" fill="#131300" font-size="14" dominant-baseline="middle" text-anchor="end" transform="translate(47.78613471984863, 291.78688524590166) rotate(0)">25</text><text x="0" y="0" fill="#131300" font-size="14" dominant-baseline="middle" text-anchor="end" transform="translate(47.78613471984863, 325.2295081967213) rotate(0)">20</text><text x="0" y="0" fill="#131300" font-size="14" dominant-baseline="middle" text-anchor="end" transform="translate(47.78613471984863, 358.672131147541) rotate(0)">15</text><text x="0" y="0" fill="#131300" font-size="14" dominant-baseline="middle" text-anchor="end" transform="translate(47.78613471984863, 392.11475409836066) rotate(0)">10</text><text x="0" y="0" fill="#131300" font-size="14" dominant-baseline="middle" text-anchor="end" transform="translate(47.78613471984863, 425.55737704918033) rotate(0)">5</text><text x="0" y="0" fill="#131300" font-size="14" dominant-baseline="middle" text-anchor="end" transform="translate(47.78613471984863, 459) rotate(0)">0</text></g><g class="ticks"><path d="M 57.78613471984863,57.688524590163944 L 52.78613471984863,57.688524590163944" fill="none" stroke="#131300" stroke-width="2"/><path d="M 57.78613471984863,91.1311475409836 L 52.78613471984863,91.1311475409836" fill="none" stroke="#131300" stroke-width="2"/><path d="M 57.78613471984863,124.57377049180326 L 52.78613471984863,124.57377049180326" fill="none" stroke="#131300" stroke-width="2"/><path d="M 57.78613471984863,158.01639344262293 L 52.78613471984863,158.01639344262293" fill="none" stroke="#131300" stroke-width="2"/><path d="M 57.78613471984863,191.45901639344265 L 52.78613471984863,191.45901639344265" fill="none" stroke="#131300" stroke-width="2"/><path d="M 57.78613471984863,224.9016393442623 L 52.78613471984863,224.9016393442623" fill="none" stroke="#131300" stroke-width="2"/><path d="M 57.78613471984863,258.344262295082 L 52.78613471984863,258.344262295082" fill="none" stroke="#131300" stroke-width="2"/><path d="M 57.78613471984863,291.78688524590166 L 52.78613471984863,291.78688524590166" fill="none" stroke="#131300" stroke-width="2"/><path d="M 57.78613471984863,325.2295081967213 L 52.78613471984863,325.2295081967213" fill="none" stroke="#131300" stroke-width="2"/><path d="M 57.78613471984863,358.672131147541 L 52.78613471984863,358.672131147541" fill="none" stroke="#131300" stroke-width="2"/><path d="M 57.78613471984863,392.11475409836066 L 52.78613471984863,392.11475409836066" fill="none" stroke="#131300" stroke-width="2"/><path d="M 57.78613471984863,425.55737704918033 L 52.78613471984863,425.55737704918033" fill="none" stroke="#131300" stroke-width="2"/><path d="M 57.78613471984863,459 L 52.78613471984863,459" fill="none" stroke="#131300" stroke-width="2"/></g><g class="title"><text x="0" y="0" fill="#131300" font-size="16" dominant-baseline="text-before-edge" text-anchor="middle" transform="translate(5, 255) rotate(270)">Count</text></g></g></g><g class="mermaid-tmp-group"/></svg>