<svg id="my-svg" width="100%" xmlns="http://www.w3.org/2000/svg" xmlns:xlink="http://www.w3.org/1999/xlink" style="max-width: 700px; background-color: white;" viewBox="0 0 700 500" role="graphics-document document" aria-roledescription="xychart"><style>#my-svg{font-family:"trebuchet ms",verdana,arial,sans-serif;font-size:16px;fill:#333;}@keyframes edge-animation-frame{from{stroke-dashoffset:0;}}@keyframes dash{to{stroke-dashoffset:0;}}#my-svg .edge-animation-slow{stroke-dasharray:9,5!important;stroke-dashoffset:900;animation:dash 50s linear infinite;stroke-linecap:round;}#my-svg .edge-animation-fast{stroke-dasharray:9,5!important;stroke-dashoffset:900;animation:dash 20s linear infinite;stroke-linecap:round;}#my-svg .error-icon{fill:#552222;}#my-svg .error-text{fill:#552222;stroke:#552222;}#my-svg .edge-thickness-normal{stroke-width:1px;}#my-svg .edge-thickness-thick{stroke-width:3.5px;}#my-svg .edge-pattern-solid{stroke-dasharray:0;}#my-svg .edge-thickness-invisible{stroke-width:0;fill:none;}#my-svg .edge-pattern-dashed{stroke-dasharray:3;}#my-svg .edge-pattern-dotted{stroke-dasharray:2;}#my-svg .marker{fill:#333333;stroke:#333333;}#my-svg .marker.cross{stroke:#333333;}#my-svg svg{font-family:"trebuchet ms",verdana,arial,sans-serif;font-size:16px;}#my-svg p{margin:0;}#my-svg .node .neo-node{stroke:#9370DB;}#my-svg [data-look="neo"].node rect,#my-svg [data-look="neo"].cluster rect,#my-svg [data-look="neo"].node polygon{stroke:#9370DB;filter:drop-shadow(1px 2px 2px rgba(185, 185, 185, 1));}#my-svg [data-look="neo"].swimlane.cluster rect{filter:none;}#my-svg [data-look="neo"].node path{stroke:#9370DB;stroke-width:1px;}#my-svg [data-look="neo"].node .outer-path{filter:drop-shadow(1px 2px 2px rgba(185, 185, 185, 1));}#my-svg [data-look="neo"].node .neo-line path{stroke:#9370DB;filter:none;}#my-svg [data-look="neo"].node circle{stroke:#9370DB;filter:drop-shadow(1px 2px 2px rgba(185, 185, 185, 1));}#my-svg [data-look="neo"].node circle .state-start{fill:#000000;}#my-svg [data-look="neo"].icon-shape .icon{fill:#9370DB;filter:drop-shadow(1px 2px 2px rgba(185, 185, 185, 1));}#my-svg [data-look="neo"].icon-shape .icon-neo path{stroke:#9370DB;filter:drop-shadow(1px 2px 2px rgba(185, 185, 185, 1));}#my-svg :root{--mermaid-font-family:"trebuchet ms",verdana,arial,sans-serif;}</style><g/><g class="main"><rect width="700" height="500" class="background" fill="white"/><g class="chart-title"><text x="0" y="0" fill="#131300" font-size="20" dominant-baseline="middle" text-anchor="middle" transform="translate(350, 21.5) rotate(0)">GC News — TYPE_EN per day (last 30 days)</text></g><g class="plot"><g class="bar-plot-0"><rect x="88.92424217192332" y="444.93103448275866" width="13.550933533350628" height="22.068965517241338" fill="#ECECFF" stroke="#ECECFF" stroke-width="0"/><rect x="103.68024964925613" y="430.8620689655172" width="13.550933533350628" height="36.13793103448279" fill="#ECECFF" stroke="#ECECFF" stroke-width="0"/><rect x="118.43625712658894" y="459" width="13.550933533350628" height="8" fill="#ECECFF" stroke="#ECECFF" stroke-width="0"/><rect x="133.19226460392173" y="459" width="13.550933533350628" height="8" fill="#ECECFF" stroke="#ECECFF" stroke-width="0"/><rect x="147.94827208125454" y="459" width="13.550933533350628" height="8" fill="#ECECFF" stroke="#ECECFF" stroke-width="0"/><rect x="162.70427955858736" y="459" width="13.550933533350628" height="8" fill="#ECECFF" stroke="#ECECFF" stroke-width="0"/><rect x="177.46028703592015" y="444.93103448275866" width="13.550933533350628" height="22.068965517241338" fill="#ECECFF" stroke="#ECECFF" stroke-width="0"/><rect x="192.21629451325296" y="444.93103448275866" width="13.550933533350628" height="22.068965517241338" fill="#ECECFF" stroke="#ECECFF" stroke-width="0"/><rect x="206.97230199058578" y="444.93103448275866" width="13.550933533350628" height="22.068965517241338" fill="#ECECFF" stroke="#ECECFF" stroke-width="0"/><rect x="221.72830946791856" y="430.8620689655172" width="13.550933533350628" height="36.13793103448279" fill="#ECECFF" stroke="#ECECFF" stroke-width="0"/><rect x="236.48431694525138" y="459" width="13.550933533350628" height="8" fill="#ECECFF" stroke="#ECECFF" stroke-width="0"/><rect x="251.2403244225842" y="459" width="13.550933533350628" height="8" fill="#ECECFF" stroke="#ECECFF" stroke-width="0"/><rect x="265.996331899917" y="416.7931034482759" width="13.550933533350628" height="50.20689655172413" fill="#ECECFF" stroke="#ECECFF" stroke-width="0"/><rect x="280.75233937724977" y="416.7931034482759" width="13.550933533350628" height="50.20689655172413" fill="#ECECFF" stroke="#ECECFF" stroke-width="0"/><rect x="295.5083468545826" y="416.7931034482759" width="13.550933533350628" height="50.20689655172413" fill="#ECECFF" stroke="#ECECFF" stroke-width="0"/><rect x="310.2643543319154" y="444.93103448275866" width="13.550933533350628" height="22.068965517241338" fill="#ECECFF" stroke="#ECECFF" stroke-width="0"/><rect x="325.02036180924824" y="430.8620689655172" width="13.550933533350628" height="36.13793103448279" fill="#ECECFF" stroke="#ECECFF" stroke-width="0"/><rect x="339.77636928658103" y="459" width="13.550933533350628" height="8" fill="#ECECFF" stroke="#ECECFF" stroke-width="0"/><rect x="354.5323767639138" y="459" width="13.550933533350628" height="8" fill="#ECECFF" stroke="#ECECFF" stroke-width="0"/><rect x="369.28838424124666" y="430.8620689655172" width="13.550933533350628" height="36.13793103448279" fill="#ECECFF" stroke="#ECECFF" stroke-width="0"/><rect x="384.04439171857945" y="416.7931034482759" width="13.550933533350628" height="50.20689655172413" fill="#ECECFF" stroke="#ECECFF" stroke-width="0"/><rect x="398.80039919591223" y="444.93103448275866" width="13.550933533350628" height="22.068965517241338" fill="#ECECFF" stroke="#ECECFF" stroke-width="0"/><rect x="413.5564066732451" y="444.93103448275866" width="13.550933533350628" height="22.068965517241338" fill="#ECECFF" stroke="#ECECFF" stroke-width="0"/><rect x="428.31241415057787" y="459" width="13.550933533350628" height="8" fill="#ECECFF" stroke="#ECECFF" stroke-width="0"/><rect x="443.06842162791065" y="459" width="13.550933533350628" height="8" fill="#ECECFF" stroke="#ECECFF" stroke-width="0"/><rect x="457.8244291052435" y="459" width="13.550933533350628" height="8" fill="#ECECFF" stroke="#ECECFF" stroke-width="0"/><rect x="472.5804365825763" y="416.7931034482759" width="13.550933533350628" height="50.20689655172413" fill="#ECECFF" stroke="#ECECFF" stroke-width="0"/><rect x="487.33644405990907" y="430.8620689655172" width="13.550933533350628" height="36.13793103448279" fill="#ECECFF" stroke="#ECECFF" stroke-width="0"/><rect x="502.0924515372419" y="430.8620689655172" width="13.550933533350628" height="36.13793103448279" fill="#ECECFF" stroke="#ECECFF" stroke-width="0"/><rect x="516.8484590145747" y="444.93103448275866" width="13.550933533350628" height="22.068965517241338" fill="#ECECFF" stroke="#ECECFF" stroke-width="0"/></g><g class="bar-plot-1"><rect x="88.92424217192332" y="388.6551724137931" width="13.550933533350628" height="78.34482758620692" fill="#8493A6" stroke="#8493A6" stroke-width="0"/><rect x="103.68024964925613" y="346.448275862069" width="13.550933533350628" height="120.55172413793099" fill="#8493A6" stroke="#8493A6" stroke-width="0"/><rect x="118.43625712658894" y="444.93103448275866" width="13.550933533350628" height="22.068965517241338" fill="#8493A6" stroke="#8493A6" stroke-width="0"/><rect x="133.19226460392173" y="459" width="13.550933533350628" height="8" fill="#8493A6" stroke="#8493A6" stroke-width="0"/><rect x="147.94827208125454" y="459" width="13.550933533350628" height="8" fill="#8493A6" stroke="#8493A6" stroke-width="0"/><rect x="162.70427955858736" y="459" width="13.550933533350628" height="8" fill="#8493A6" stroke="#8493A6" stroke-width="0"/><rect x="177.46028703592015" y="416.7931034482759" width="13.550933533350628" height="50.20689655172413" fill="#8493A6" stroke="#8493A6" stroke-width="0"/><rect x="192.21629451325296" y="388.6551724137931" width="13.550933533350628" height="78.34482758620692" fill="#8493A6" stroke="#8493A6" stroke-width="0"/><rect x="206.97230199058578" y="402.7241379310345" width="13.550933533350628" height="64.27586206896552" fill="#8493A6" stroke="#8493A6" stroke-width="0"/><rect x="221.72830946791856" y="304.2413793103449" width="13.550933533350628" height="162.75862068965512" fill="#8493A6" stroke="#8493A6" stroke-width="0"/><rect x="236.48431694525138" y="459" width="13.550933533350628" height="8" fill="#8493A6" stroke="#8493A6" stroke-width="0"/><rect x="251.2403244225842" y="459" width="13.550933533350628" height="8" fill="#8493A6" stroke="#8493A6" stroke-width="0"/><rect x="265.996331899917" y="318.3103448275862" width="13.550933533350628" height="148.68965517241378" fill="#8493A6" stroke="#8493A6" stroke-width="0"/><rect x="280.75233937724977" y="318.3103448275862" width="13.550933533350628" height="148.68965517241378" fill="#8493A6" stroke="#8493A6" stroke-width="0"/><rect x="295.5083468545826" y="346.448275862069" width="13.550933533350628" height="120.55172413793099" fill="#8493A6" stroke="#8493A6" stroke-width="0"/><rect x="310.2643543319154" y="416.7931034482759" width="13.550933533350628" height="50.20689655172413" fill="#8493A6" stroke="#8493A6" stroke-width="0"/><rect x="325.02036180924824" y="346.448275862069" width="13.550933533350628" height="120.55172413793099" fill="#8493A6" stroke="#8493A6" stroke-width="0"/><rect x="339.77636928658103" y="430.8620689655172" width="13.550933533350628" height="36.13793103448279" fill="#8493A6" stroke="#8493A6" stroke-width="0"/><rect x="354.5323767639138" y="444.93103448275866" width="13.550933533350628" height="22.068965517241338" fill="#8493A6" stroke="#8493A6" stroke-width="0"/><rect x="369.28838424124666" y="388.6551724137931" width="13.550933533350628" height="78.34482758620692" fill="#8493A6" stroke="#8493A6" stroke-width="0"/><rect x="384.04439171857945" y="346.448275862069" width="13.550933533350628" height="120.55172413793099" fill="#8493A6" stroke="#8493A6" stroke-width="0"/><rect x="398.80039919591223" y="346.448275862069" width="13.550933533350628" height="120.55172413793099" fill="#8493A6" stroke="#8493A6" stroke-width="0"/><rect x="413.5564066732451" y="346.448275862069" width="13.550933533350628" height="120.55172413793099" fill="#8493A6" stroke="#8493A6" stroke-width="0"/><rect x="428.31241415057787" y="360.51724137931035" width="13.550933533350628" height="106.48275862068965" fill="#8493A6" stroke="#8493A6" stroke-width="0"/><rect x="443.06842162791065" y="444.93103448275866" width="13.550933533350628" height="22.068965517241338" fill="#8493A6" stroke="#8493A6" stroke-width="0"/><rect x="457.8244291052435" y="430.8620689655172" width="13.550933533350628" height="36.13793103448279" fill="#8493A6" stroke="#8493A6" stroke-width="0"/><rect x="472.5804365825763" y="276.1034482758621" width="13.550933533350628" height="190.8965517241379" fill="#8493A6" stroke="#8493A6" stroke-width="0"/><rect x="487.33644405990907" y="318.3103448275862" width="13.550933533350628" height="148.68965517241378" fill="#8493A6" stroke="#8493A6" stroke-width="0"/><rect x="502.0924515372419" y="332.3793103448276" width="13.550933533350628" height="134.62068965517238" fill="#8493A6" stroke="#8493A6" stroke-width="0"/><rect x="516.8484590145747" y="360.51724137931035" width="13.550933533350628" height="106.48275862068965" fill="#8493A6" stroke="#8493A6" stroke-width="0"/></g><g class="bar-plot-2"><rect x="88.92424217192332" y="205.75862068965517" width="13.550933533350628" height="261.2413793103448" fill="#FFC3A0" stroke="#FFC3A0" stroke-width="0"/><rect x="103.68024964925613" y="163.55172413793105" width="13.550933533350628" height="303.44827586206895" fill="#FFC3A0" stroke="#FFC3A0" stroke-width="0"/><rect x="118.43625712658894" y="304.2413793103449" width="13.550933533350628" height="162.75862068965512" fill="#FFC3A0" stroke="#FFC3A0" stroke-width="0"/><rect x="133.19226460392173" y="444.93103448275866" width="13.550933533350628" height="22.068965517241338" fill="#FFC3A0" stroke="#FFC3A0" stroke-width="0"/><rect x="147.94827208125454" y="459" width="13.550933533350628" height="8" fill="#FFC3A0" stroke="#FFC3A0" stroke-width="0"/><rect x="162.70427955858736" y="459" width="13.550933533350628" height="8" fill="#FFC3A0" stroke="#FFC3A0" stroke-width="0"/><rect x="177.46028703592015" y="262.03448275862064" width="13.550933533350628" height="204.96551724137936" fill="#FFC3A0" stroke="#FFC3A0" stroke-width="0"/><rect x="192.21629451325296" y="304.2413793103449" width="13.550933533350628" height="162.75862068965512" fill="#FFC3A0" stroke="#FFC3A0" stroke-width="0"/><rect x="206.97230199058578" y="233.89655172413794" width="13.550933533350628" height="233.10344827586206" fill="#FFC3A0" stroke="#FFC3A0" stroke-width="0"/><rect x="221.72830946791856" y="177.6206896551724" width="13.550933533350628" height="289.37931034482756" fill="#FFC3A0" stroke="#FFC3A0" stroke-width="0"/><rect x="236.48431694525138" y="444.93103448275866" width="13.550933533350628" height="22.068965517241338" fill="#FFC3A0" stroke="#FFC3A0" stroke-width="0"/><rect x="251.2403244225842" y="444.93103448275866" width="13.550933533350628" height="22.068965517241338" fill="#FFC3A0" stroke="#FFC3A0" stroke-width="0"/><rect x="265.996331899917" y="121.34482758620689" width="13.550933533350628" height="345.65517241379314" fill="#FFC3A0" stroke="#FFC3A0" stroke-width="0"/><rect x="280.75233937724977" y="135.41379310344826" width="13.550933533350628" height="331.58620689655174" fill="#FFC3A0" stroke="#FFC3A0" stroke-width="0"/><rect x="295.5083468545826" y="177.6206896551724" width="13.550933533350628" height="289.37931034482756" fill="#FFC3A0" stroke="#FFC3A0" stroke-width="0"/><rect x="310.2643543319154" y="304.2413793103449" width="13.550933533350628" height="162.75862068965512" fill="#FFC3A0" stroke="#FFC3A0" stroke-width="0"/><rect x="325.02036180924824" y="191.6896551724138" width="13.550933533350628" height="275.31034482758616" fill="#FFC3A0" stroke="#FFC3A0" stroke-width="0"/><rect x="339.77636928658103" y="416.7931034482759" width="13.550933533350628" height="50.20689655172413" fill="#FFC3A0" stroke="#FFC3A0" stroke-width="0"/><rect x="354.5323767639138" y="402.7241379310345" width="13.550933533350628" height="64.27586206896552" fill="#FFC3A0" stroke="#FFC3A0" stroke-width="0"/><rect x="369.28838424124666" y="205.75862068965517" width="13.550933533350628" height="261.2413793103448" fill="#FFC3A0" stroke="#FFC3A0" stroke-width="0"/><rect x="384.04439171857945" y="233.89655172413794" width="13.550933533350628" height="233.10344827586206" fill="#FFC3A0" stroke="#FFC3A0" stroke-width="0"/><rect x="398.80039919591223" y="219.82758620689657" width="13.550933533350628" height="247.17241379310343" fill="#FFC3A0" stroke="#FFC3A0" stroke-width="0"/><rect x="413.5564066732451" y="219.82758620689657" width="13.550933533350628" height="247.17241379310343" fill="#FFC3A0" stroke="#FFC3A0" stroke-width="0"/><rect x="428.31241415057787" y="205.75862068965517" width="13.550933533350628" height="261.2413793103448" fill="#FFC3A0" stroke="#FFC3A0" stroke-width="0"/><rect x="443.06842162791065" y="416.7931034482759" width="13.550933533350628" height="50.20689655172413" fill="#FFC3A0" stroke="#FFC3A0" stroke-width="0"/><rect x="457.8244291052435" y="430.8620689655172" width="13.550933533350628" height="36.13793103448279" fill="#FFC3A0" stroke="#FFC3A0" stroke-width="0"/><rect x="472.5804365825763" y="107.27586206896555" width="13.550933533350628" height="359.7241379310344" fill="#FFC3A0" stroke="#FFC3A0" stroke-width="0"/><rect x="487.33644405990907" y="65.06896551724137" width="13.550933533350628" height="401.9310344827586" fill="#FFC3A0" stroke="#FFC3A0" stroke-width="0"/><rect x="502.0924515372419" y="121.34482758620689" width="13.550933533350628" height="345.65517241379314" fill="#FFC3A0" stroke="#FFC3A0" stroke-width="0"/><rect x="516.8484590145747" y="121.34482758620689" width="13.550933533350628" height="345.65517241379314" fill="#FFC3A0" stroke="#FFC3A0" stroke-width="0"/></g><g class="bar-plot-3"><rect x="88.92424217192332" y="205.75862068965517" width="13.550933533350628" height="261.2413793103448" fill="#DCDDE1" stroke="#DCDDE1" stroke-width="0"/><rect x="103.68024964925613" y="163.55172413793105" width="13.550933533350628" height="303.44827586206895" fill="#DCDDE1" stroke="#DCDDE1" stroke-width="0"/><rect x="118.43625712658894" y="304.2413793103449" width="13.550933533350628" height="162.75862068965512" fill="#DCDDE1" stroke="#DCDDE1" stroke-width="0"/><rect x="133.19226460392173" y="444.93103448275866" width="13.550933533350628" height="22.068965517241338" fill="#DCDDE1" stroke="#DCDDE1" stroke-width="0"/><rect x="147.94827208125454" y="459" width="13.550933533350628" height="8" fill="#DCDDE1" stroke="#DCDDE1" stroke-width="0"/><rect x="162.70427955858736" y="459" width="13.550933533350628" height="8" fill="#DCDDE1" stroke="#DCDDE1" stroke-width="0"/><rect x="177.46028703592015" y="262.03448275862064" width="13.550933533350628" height="204.96551724137936" fill="#DCDDE1" stroke="#DCDDE1" stroke-width="0"/><rect x="192.21629451325296" y="290.1724137931035" width="13.550933533350628" height="176.8275862068965" fill="#DCDDE1" stroke="#DCDDE1" stroke-width="0"/><rect x="206.97230199058578" y="205.75862068965517" width="13.550933533350628" height="261.2413793103448" fill="#DCDDE1" stroke="#DCDDE1" stroke-width="0"/><rect x="221.72830946791856" y="149.48275862068968" width="13.550933533350628" height="317.51724137931035" fill="#DCDDE1" stroke="#DCDDE1" stroke-width="0"/><rect x="236.48431694525138" y="444.93103448275866" width="13.550933533350628" height="22.068965517241338" fill="#DCDDE1" stroke="#DCDDE1" stroke-width="0"/><rect x="251.2403244225842" y="444.93103448275866" width="13.550933533350628" height="22.068965517241338" fill="#DCDDE1" stroke="#DCDDE1" stroke-width="0"/><rect x="265.996331899917" y="121.34482758620689" width="13.550933533350628" height="345.65517241379314" fill="#DCDDE1" stroke="#DCDDE1" stroke-width="0"/><rect x="280.75233937724977" y="135.41379310344826" width="13.550933533350628" height="331.58620689655174" fill="#DCDDE1" stroke="#DCDDE1" stroke-width="0"/><rect x="295.5083468545826" y="177.6206896551724" width="13.550933533350628" height="289.37931034482756" fill="#DCDDE1" stroke="#DCDDE1" stroke-width="0"/><rect x="310.2643543319154" y="304.2413793103449" width="13.550933533350628" height="162.75862068965512" fill="#DCDDE1" stroke="#DCDDE1" stroke-width="0"/><rect x="325.02036180924824" y="177.6206896551724" width="13.550933533350628" height="289.37931034482756" fill="#DCDDE1" stroke="#DCDDE1" stroke-width="0"/><rect x="339.77636928658103" y="416.7931034482759" width="13.550933533350628" height="50.20689655172413" fill="#DCDDE1" stroke="#DCDDE1" stroke-width="0"/><rect x="354.5323767639138" y="402.7241379310345" width="13.550933533350628" height="64.27586206896552" fill="#DCDDE1" stroke="#DCDDE1" stroke-width="0"/><rect x="369.28838424124666" y="191.6896551724138" width="13.550933533350628" height="275.31034482758616" fill="#DCDDE1" stroke="#DCDDE1" stroke-width="0"/><rect x="384.04439171857945" y="233.89655172413794" width="13.550933533350628" height="233.10344827586206" fill="#DCDDE1" stroke="#DCDDE1" stroke-width="0"/><rect x="398.80039919591223" y="219.82758620689657" width="13.550933533350628" height="247.17241379310343" fill="#DCDDE1" stroke="#DCDDE1" stroke-width="0"/><rect x="413.5564066732451" y="219.82758620689657" width="13.550933533350628" height="247.17241379310343" fill="#DCDDE1" stroke="#DCDDE1" stroke-width="0"/><rect x="428.31241415057787" y="191.6896551724138" width="13.550933533350628" height="275.31034482758616" fill="#DCDDE1" stroke="#DCDDE1" stroke-width="0"/><rect x="443.06842162791065" y="416.7931034482759" width="13.550933533350628" height="50.20689655172413" fill="#DCDDE1" stroke="#DCDDE1" stroke-width="0"/><rect x="457.8244291052435" y="430.8620689655172" width="13.550933533350628" height="36.13793103448279" fill="#DCDDE1" stroke="#DCDDE1" stroke-width="0"/><rect x="472.5804365825763" y="93.20689655172413" width="13.550933533350628" height="373.7931034482759" fill="#DCDDE1" stroke="#DCDDE1" stroke-width="0"/><rect x="487.33644405990907" y="65.06896551724137" width="13.550933533350628" height="401.9310344827586" fill="#DCDDE1" stroke="#DCDDE1" stroke-width="0"/><rect x="502.0924515372419" y="93.20689655172413" width="13.550933533350628" height="373.7931034482759" fill="#DCDDE1" stroke="#DCDDE1" stroke-width="0"/><rect x="516.8484590145747" y="121.34482758620689" width="13.550933533350628" height="345.65517241379314" fill="#DCDDE1" stroke="#DCDDE1" stroke-width="0"/></g><g class="bar-plot-4"><rect x="88.92424217192332" y="205.75862068965517" width="13.550933533350628" height="261.2413793103448" fill="#B8E994" stroke="#B8E994" stroke-width="0"/><rect x="103.68024964925613" y="163.55172413793105" width="13.550933533350628" height="303.44827586206895" fill="#B8E994" stroke="#B8E994" stroke-width="0"/><rect x="118.43625712658894" y="304.2413793103449" width="13.550933533350628" height="162.75862068965512" fill="#B8E994" stroke="#B8E994" stroke-width="0"/><rect x="133.19226460392173" y="444.93103448275866" width="13.550933533350628" height="22.068965517241338" fill="#B8E994" stroke="#B8E994" stroke-width="0"/><rect x="147.94827208125454" y="459" width="13.550933533350628" height="8" fill="#B8E994" stroke="#B8E994" stroke-width="0"/><rect x="162.70427955858736" y="459" width="13.550933533350628" height="8" fill="#B8E994" stroke="#B8E994" stroke-width="0"/><rect x="177.46028703592015" y="262.03448275862064" width="13.550933533350628" height="204.96551724137936" fill="#B8E994" stroke="#B8E994" stroke-width="0"/><rect x="192.21629451325296" y="290.1724137931035" width="13.550933533350628" height="176.8275862068965" fill="#B8E994" stroke="#B8E994" stroke-width="0"/><rect x="206.97230199058578" y="205.75862068965517" width="13.550933533350628" height="261.2413793103448" fill="#B8E994" stroke="#B8E994" stroke-width="0"/><rect x="221.72830946791856" y="149.48275862068968" width="13.550933533350628" height="317.51724137931035" fill="#B8E994" stroke="#B8E994" stroke-width="0"/><rect x="236.48431694525138" y="444.93103448275866" width="13.550933533350628" height="22.068965517241338" fill="#B8E994" stroke="#B8E994" stroke-width="0"/><rect x="251.2403244225842" y="444.93103448275866" width="13.550933533350628" height="22.068965517241338" fill="#B8E994" stroke="#B8E994" stroke-width="0"/><rect x="265.996331899917" y="121.34482758620689" width="13.550933533350628" height="345.65517241379314" fill="#B8E994" stroke="#B8E994" stroke-width="0"/><rect x="280.75233937724977" y="121.34482758620689" width="13.550933533350628" height="345.65517241379314" fill="#B8E994" stroke="#B8E994" stroke-width="0"/><rect x="295.5083468545826" y="177.6206896551724" width="13.550933533350628" height="289.37931034482756" fill="#B8E994" stroke="#B8E994" stroke-width="0"/><rect x="310.2643543319154" y="304.2413793103449" width="13.550933533350628" height="162.75862068965512" fill="#B8E994" stroke="#B8E994" stroke-width="0"/><rect x="325.02036180924824" y="177.6206896551724" width="13.550933533350628" height="289.37931034482756" fill="#B8E994" stroke="#B8E994" stroke-width="0"/><rect x="339.77636928658103" y="416.7931034482759" width="13.550933533350628" height="50.20689655172413" fill="#B8E994" stroke="#B8E994" stroke-width="0"/><rect x="354.5323767639138" y="402.7241379310345" width="13.550933533350628" height="64.27586206896552" fill="#B8E994" stroke="#B8E994" stroke-width="0"/><rect x="369.28838424124666" y="191.6896551724138" width="13.550933533350628" height="275.31034482758616" fill="#B8E994" stroke="#B8E994" stroke-width="0"/><rect x="384.04439171857945" y="233.89655172413794" width="13.550933533350628" height="233.10344827586206" fill="#B8E994" stroke="#B8E994" stroke-width="0"/><rect x="398.80039919591223" y="219.82758620689657" width="13.550933533350628" height="247.17241379310343" fill="#B8E994" stroke="#B8E994" stroke-width="0"/><rect x="413.5564066732451" y="219.82758620689657" width="13.550933533350628" height="247.17241379310343" fill="#B8E994" stroke="#B8E994" stroke-width="0"/><rect x="428.31241415057787" y="191.6896551724138" width="13.550933533350628" height="275.31034482758616" fill="#B8E994" stroke="#B8E994" stroke-width="0"/><rect x="443.06842162791065" y="416.7931034482759" width="13.550933533350628" height="50.20689655172413" fill="#B8E994" stroke="#B8E994" stroke-width="0"/><rect x="457.8244291052435" y="430.8620689655172" width="13.550933533350628" height="36.13793103448279" fill="#B8E994" stroke="#B8E994" stroke-width="0"/><rect x="472.5804365825763" y="93.20689655172413" width="13.550933533350628" height="373.7931034482759" fill="#B8E994" stroke="#B8E994" stroke-width="0"/><rect x="487.33644405990907" y="65.06896551724137" width="13.550933533350628" height="401.9310344827586" fill="#B8E994" stroke="#B8E994" stroke-width="0"/><rect x="502.0924515372419" y="93.20689655172413" width="13.550933533350628" height="373.7931034482759" fill="#B8E994" stroke="#B8E994" stroke-width="0"/><rect x="516.8484590145747" y="121.34482758620689" width="13.550933533350628" height="345.65517241379314" fill="#B8E994" stroke="#B8E994" stroke-width="0"/></g><g class="bar-plot-5"><rect x="88.92424217192332" y="191.6896551724138" width="13.550933533350628" height="275.31034482758616" fill="#D1A36F" stroke="#D1A36F" stroke-width="0"/><rect x="103.68024964925613" y="149.48275862068968" width="13.550933533350628" height="317.51724137931035" fill="#D1A36F" stroke="#D1A36F" stroke-width="0"/><rect x="118.43625712658894" y="290.1724137931035" width="13.550933533350628" height="176.8275862068965" fill="#D1A36F" stroke="#D1A36F" stroke-width="0"/><rect x="133.19226460392173" y="416.7931034482759" width="13.550933533350628" height="50.20689655172413" fill="#D1A36F" stroke="#D1A36F" stroke-width="0"/><rect x="147.94827208125454" y="444.93103448275866" width="13.550933533350628" height="22.068965517241338" fill="#D1A36F" stroke="#D1A36F" stroke-width="0"/><rect x="162.70427955858736" y="459" width="13.550933533350628" height="8" fill="#D1A36F" stroke="#D1A36F" stroke-width="0"/><rect x="177.46028703592015" y="247.9655172413793" width="13.550933533350628" height="219.0344827586207" fill="#D1A36F" stroke="#D1A36F" stroke-width="0"/><rect x="192.21629451325296" y="262.03448275862064" width="13.550933533350628" height="204.96551724137936" fill="#D1A36F" stroke="#D1A36F" stroke-width="0"/><rect x="206.97230199058578" y="191.6896551724138" width="13.550933533350628" height="275.31034482758616" fill="#D1A36F" stroke="#D1A36F" stroke-width="0"/><rect x="221.72830946791856" y="135.41379310344826" width="13.550933533350628" height="331.58620689655174" fill="#D1A36F" stroke="#D1A36F" stroke-width="0"/><rect x="236.48431694525138" y="444.93103448275866" width="13.550933533350628" height="22.068965517241338" fill="#D1A36F" stroke="#D1A36F" stroke-width="0"/><rect x="251.2403244225842" y="430.8620689655172" width="13.550933533350628" height="36.13793103448279" fill="#D1A36F" stroke="#D1A36F" stroke-width="0"/><rect x="265.996331899917" y="107.27586206896555" width="13.550933533350628" height="359.7241379310344" fill="#D1A36F" stroke="#D1A36F" stroke-width="0"/><rect x="280.75233937724977" y="107.27586206896555" width="13.550933533350628" height="359.7241379310344" fill="#D1A36F" stroke="#D1A36F" stroke-width="0"/><rect x="295.5083468545826" y="149.48275862068968" width="13.550933533350628" height="317.51724137931035" fill="#D1A36F" stroke="#D1A36F" stroke-width="0"/><rect x="310.2643543319154" y="276.1034482758621" width="13.550933533350628" height="190.8965517241379" fill="#D1A36F" stroke="#D1A36F" stroke-width="0"/><rect x="325.02036180924824" y="177.6206896551724" width="13.550933533350628" height="289.37931034482756" fill="#D1A36F" stroke="#D1A36F" stroke-width="0"/><rect x="339.77636928658103" y="388.6551724137931" width="13.550933533350628" height="78.34482758620692" fill="#D1A36F" stroke="#D1A36F" stroke-width="0"/><rect x="354.5323767639138" y="402.7241379310345" width="13.550933533350628" height="64.27586206896552" fill="#D1A36F" stroke="#D1A36F" stroke-width="0"/><rect x="369.28838424124666" y="191.6896551724138" width="13.550933533350628" height="275.31034482758616" fill="#D1A36F" stroke="#D1A36F" stroke-width="0"/><rect x="384.04439171857945" y="233.89655172413794" width="13.550933533350628" height="233.10344827586206" fill="#D1A36F" stroke="#D1A36F" stroke-width="0"/><rect x="398.80039919591223" y="205.75862068965517" width="13.550933533350628" height="261.2413793103448" fill="#D1A36F" stroke="#D1A36F" stroke-width="0"/><rect x="413.5564066732451" y="219.82758620689657" width="13.550933533350628" height="247.17241379310343" fill="#D1A36F" stroke="#D1A36F" stroke-width="0"/><rect x="428.31241415057787" y="177.6206896551724" width="13.550933533350628" height="289.37931034482756" fill="#D1A36F" stroke="#D1A36F" stroke-width="0"/><rect x="443.06842162791065" y="416.7931034482759" width="13.550933533350628" height="50.20689655172413" fill="#D1A36F" stroke="#D1A36F" stroke-width="0"/><rect x="457.8244291052435" y="430.8620689655172" width="13.550933533350628" height="36.13793103448279" fill="#D1A36F" stroke="#D1A36F" stroke-width="0"/><rect x="472.5804365825763" y="51" width="13.550933533350628" height="416" fill="#D1A36F" stroke="#D1A36F" stroke-width="0"/><rect x="487.33644405990907" y="51" width="13.550933533350628" height="416" fill="#D1A36F" stroke="#D1A36F" stroke-width="0"/><rect x="502.0924515372419" y="51" width="13.550933533350628" height="416" fill="#D1A36F" stroke="#D1A36F" stroke-width="0"/><rect x="516.8484590145747" y="93.20689655172413" width="13.550933533350628" height="373.7931034482759" fill="#D1A36F" stroke="#D1A36F" stroke-width="0"/></g></g><g class="legend"><g class="markers"><rect x="569.5375" y="195.5" width="10.5" height="10.5" fill="#ECECFF" stroke="#ECECFF" stroke-width="0"/><rect x="569.5375" y="216.5" width="10.5" height="10.5" fill="#8493A6" stroke="#8493A6" stroke-width="0"/><rect x="569.5375" y="237.5" width="10.5" height="10.5" fill="#FFC3A0" stroke="#FFC3A0" stroke-width="0"/><rect x="569.5375" y="258.5" width="10.5" height="10.5" fill="#DCDDE1" stroke="#DCDDE1" stroke-width="0"/><rect x="569.5375" y="279.5" width="10.5" height="10.5" fill="#B8E994" stroke="#B8E994" stroke-width="0"/><rect x="569.5375" y="300.5" width="10.5" height="10.5" fill="#D1A36F" stroke="#D1A36F" stroke-width="0"/></g><g class="label"><text x="0" y="0" fill="#131300" font-size="14" dominant-baseline="middle" text-anchor="start" transform="translate(584.9375, 200.75) rotate(0)">backgrounders</text><text x="0" y="0" fill="#131300" font-size="14" dominant-baseline="middle" text-anchor="start" transform="translate(584.9375, 221.75) rotate(0)">media advisories</text><text x="0" y="0" fill="#131300" font-size="14" dominant-baseline="middle" text-anchor="start" transform="translate(584.9375, 242.75) rotate(0)">news releases</text><text x="0" y="0" fill="#131300" font-size="14" dominant-baseline="middle" text-anchor="start" transform="translate(584.9375, 263.75) rotate(0)">readouts</text><text x="0" y="0" fill="#131300" font-size="14" dominant-baseline="middle" text-anchor="start" transform="translate(584.9375, 284.75) rotate(0)">speeches</text><text x="0" y="0" fill="#131300" font-size="14" dominant-baseline="middle" text-anchor="start" transform="translate(584.9375, 305.75) rotate(0)">statements</text></g></g><g class="bottom-axis"><g class="axis-line"><path d="M 59.78613471984863,468 L 559.5375,468" fill="none" stroke="#131300" stroke-width="2"/></g><g class="label"><text x="0" y="0" fill="#131300" font-size="14" dominant-baseline="text-before-edge" text-anchor="middle" transform="translate(95.69970893859863, 479) rotate(0)">2026-07-29</text><text x="0" y="0" fill="#131300" font-size="14" dominant-baseline="text-before-edge" text-anchor="middle" transform="translate(110.45571641593143, 479) rotate(0)">2026-07-30</text><text x="0" y="0" fill="#131300" font-size="14" dominant-baseline="text-before-edge" text-anchor="middle" transform="translate(125.21172389326425, 479) rotate(0)">2026-07-31</text><text x="0" y="0" fill="#131300" font-size="14" dominant-baseline="text-before-edge" text-anchor="middle" transform="translate(139.96773137059705, 479) rotate(0)">2026-08-01</text><text x="0" y="0" fill="#131300" font-size="14" dominant-baseline="text-before-edge" text-anchor="middle" transform="translate(154.72373884792987, 479) rotate(0)">2026-08-02</text><text x="0" y="0" fill="#131300" font-size="14" dominant-baseline="text-before-edge" text-anchor="middle" transform="translate(169.47974632526268, 479) rotate(0)">2026-08-03</text><text x="0" y="0" fill="#131300" font-size="14" dominant-baseline="text-before-edge" text-anchor="middle" transform="translate(184.23575380259547, 479) rotate(0)">2026-08-04</text><text x="0" y="0" fill="#131300" font-size="14" dominant-baseline="text-before-edge" text-anchor="middle" transform="translate(198.99176127992828, 479) rotate(0)">2026-08-05</text><text x="0" y="0" fill="#131300" font-size="14" dominant-baseline="text-before-edge" text-anchor="middle" transform="translate(213.7477687572611, 479) rotate(0)">2026-08-06</text><text x="0" y="0" fill="#131300" font-size="14" dominant-baseline="text-before-edge" text-anchor="middle" transform="translate(228.5037762345939, 479) rotate(0)">2026-08-07</text><text x="0" y="0" fill="#131300" font-size="14" dominant-baseline="text-before-edge" text-anchor="middle" transform="translate(243.2597837119267, 479) rotate(0)">2026-08-08</text><text x="0" y="0" fill="#131300" font-size="14" dominant-baseline="text-before-edge" text-anchor="middle" transform="translate(258.0157911892595, 479) rotate(0)">2026-08-09</text><text x="0" y="0" fill="#131300" font-size="14" dominant-baseline="text-before-edge" text-anchor="middle" transform="translate(272.7717986665923, 479) rotate(0)">2026-08-10</text><text x="0" y="0" fill="#131300" font-size="14" dominant-baseline="text-before-edge" text-anchor="middle" transform="translate(287.5278061439251, 479) rotate(0)">2026-08-11</text><text x="0" y="0" fill="#131300" font-size="14" dominant-baseline="text-before-edge" text-anchor="middle" transform="translate(302.28381362125793, 479) rotate(0)">2026-08-12</text><text x="0" y="0" fill="#131300" font-size="14" dominant-baseline="text-before-edge" text-anchor="middle" transform="translate(317.0398210985907, 479) rotate(0)">2026-08-13</text><text x="0" y="0" fill="#131300" font-size="14" dominant-baseline="text-before-edge" text-anchor="middle" transform="translate(331.79582857592357, 479) rotate(0)">2026-08-14</text><text x="0" y="0" fill="#131300" font-size="14" dominant-baseline="text-before-edge" text-anchor="middle" transform="translate(346.55183605325635, 479) rotate(0)">2026-08-15</text><text x="0" y="0" fill="#131300" font-size="14" dominant-baseline="text-before-edge" text-anchor="middle" transform="translate(361.30784353058914, 479) rotate(0)">2026-08-16</text><text x="0" y="0" fill="#131300" font-size="14" dominant-baseline="text-before-edge" text-anchor="middle" transform="translate(376.063851007922, 479) rotate(0)">2026-08-17</text><text x="0" y="0" fill="#131300" font-size="14" dominant-baseline="text-before-edge" text-anchor="middle" transform="translate(390.81985848525477, 479) rotate(0)">2026-08-18</text><text x="0" y="0" fill="#131300" font-size="14" dominant-baseline="text-before-edge" text-anchor="middle" transform="translate(405.57586596258756, 479) rotate(0)">2026-08-19</text><text x="0" y="0" fill="#131300" font-size="14" dominant-baseline="text-before-edge" text-anchor="middle" transform="translate(420.3318734399204, 479) rotate(0)">2026-08-20</text><text x="0" y="0" fill="#131300" font-size="14" dominant-baseline="text-before-edge" text-anchor="middle" transform="translate(435.0878809172532, 479) rotate(0)">2026-08-21</text><text x="0" y="0" fill="#131300" font-size="14" dominant-baseline="text-before-edge" text-anchor="middle" transform="translate(449.843888394586, 479) rotate(0)">2026-08-22</text><text x="0" y="0" fill="#131300" font-size="14" dominant-baseline="text-before-edge" text-anchor="middle" transform="translate(464.5998958719188, 479) rotate(0)">2026-08-23</text><text x="0" y="0" fill="#131300" font-size="14" dominant-baseline="text-before-edge" text-anchor="middle" transform="translate(479.3559033492516, 479) rotate(0)">2026-08-24</text><text x="0" y="0" fill="#131300" font-size="14" dominant-baseline="text-before-edge" text-anchor="middle" transform="translate(494.1119108265844, 479) rotate(0)">2026-08-25</text><text x="0" y="0" fill="#131300" font-size="14" dominant-baseline="text-before-edge" text-anchor="middle" transform="translate(508.86791830391724, 479) rotate(0)">2026-08-26</text><text x="0" y="0" fill="#131300" font-size="14" dominant-baseline="text-before-edge" text-anchor="middle" transform="translate(523.62392578125, 479) rotate(0)">2026-08-27</text></g><g class="ticks"><path d="M 95.69970893859863,469 L 95.69970893859863,474" fill="none" stroke="#131300" stroke-width="2"/><path d="M 110.45571641593143,469 L 110.45571641593143,474" fill="none" stroke="#131300" stroke-width="2"/><path d="M 125.21172389326425,469 L 125.21172389326425,474" fill="none" stroke="#131300" stroke-width="2"/><path d="M 139.96773137059705,469 L 139.96773137059705,474" fill="none" stroke="#131300" stroke-width="2"/><path d="M 154.72373884792987,469 L 154.72373884792987,474" fill="none" stroke="#131300" stroke-width="2"/><path d="M 169.47974632526268,469 L 169.47974632526268,474" fill="none" stroke="#131300" stroke-width="2"/><path d="M 184.23575380259547,469 L 184.23575380259547,474" fill="none" stroke="#131300" stroke-width="2"/><path d="M 198.99176127992828,469 L 198.99176127992828,474" fill="none" stroke="#131300" stroke-width="2"/><path d="M 213.7477687572611,469 L 213.7477687572611,474" fill="none" stroke="#131300" stroke-width="2"/><path d="M 228.5037762345939,469 L 228.5037762345939,474" fill="none" stroke="#131300" stroke-width="2"/><path d="M 243.2597837119267,469 L 243.2597837119267,474" fill="none" stroke="#131300" stroke-width="2"/><path d="M 258.0157911892595,469 L 258.0157911892595,474" fill="none" stroke="#131300" stroke-width="2"/><path d="M 272.7717986665923,469 L 272.7717986665923,474" fill="none" stroke="#131300" stroke-width="2"/><path d="M 287.5278061439251,469 L 287.5278061439251,474" fill="none" stroke="#131300" stroke-width="2"/><path d="M 302.28381362125793,469 L 302.28381362125793,474" fill="none" stroke="#131300" stroke-width="2"/><path d="M 317.0398210985907,469 L 317.0398210985907,474" fill="none" stroke="#131300" stroke-width="2"/><path d="M 331.79582857592357,469 L 331.79582857592357,474" fill="none" stroke="#131300" stroke-width="2"/><path d="M 346.55183605325635,469 L 346.55183605325635,474" fill="none" stroke="#131300" stroke-width="2"/><path d="M 361.30784353058914,469 L 361.30784353058914,474" fill="none" stroke="#131300" stroke-width="2"/><path d="M 376.063851007922,469 L 376.063851007922,474" fill="none" stroke="#131300" stroke-width="2"/><path d="M 390.81985848525477,469 L 390.81985848525477,474" fill="none" stroke="#131300" stroke-width="2"/><path d="M 405.57586596258756,469 L 405.57586596258756,474" fill="none" stroke="#131300" stroke-width="2"/><path d="M 420.3318734399204,469 L 420.3318734399204,474" fill="none" stroke="#131300" stroke-width="2"/><path d="M 435.0878809172532,469 L 435.0878809172532,474" fill="none" stroke="#131300" stroke-width="2"/><path d="M 449.843888394586,469 L 449.843888394586,474" fill="none" stroke="#131300" stroke-width="2"/><path d="M 464.5998958719188,469 L 464.5998958719188,474" fill="none" stroke="#131300" stroke-width="2"/><path d="M 479.3559033492516,469 L 479.3559033492516,474" fill="none" stroke="#131300" stroke-width="2"/><path d="M 494.1119108265844,469 L 494.1119108265844,474" fill="none" stroke="#131300" stroke-width="2"/><path d="M 508.86791830391724,469 L 508.86791830391724,474" fill="none" stroke="#131300" stroke-width="2"/><path d="M 523.62392578125,469 L 523.62392578125,474" fill="none" stroke="#131300" stroke-width="2"/></g></g><g class="left-axis"><g class="axisl-line"><path d="M 58.78613471984863,43 L 58.78613471984863,467" fill="none" stroke="#131300" stroke-width="2"/></g><g class="label"><text x="0" y="0" fill="#131300" font-size="14" dominant-baseline="middle" text-anchor="end" transform="translate(47.78613471984863, 65.06896551724137) rotate(0)">28</text><text x="0" y="0" fill="#131300" font-size="14" dominant-baseline="middle" text-anchor="end" transform="translate(47.78613471984863, 93.20689655172413) rotate(0)">26</text><text x="0" y="0" fill="#131300" font-size="14" dominant-baseline="middle" text-anchor="end" transform="translate(47.78613471984863, 121.34482758620689) rotate(0)">24</text><text x="0" y="0" fill="#131300" font-size="14" dominant-baseline="middle" text-anchor="end" transform="translate(47.78613471984863, 149.48275862068968) rotate(0)">22</text><text x="0" y="0" fill="#131300" font-size="14" dominant-baseline="middle" text-anchor="end" transform="translate(47.78613471984863, 177.6206896551724) rotate(0)">20</text><text x="0" y="0" fill="#131300" font-size="14" dominant-baseline="middle" text-anchor="end" transform="translate(47.78613471984863, 205.75862068965517) rotate(0)">18</text><text x="0" y="0" fill="#131300" font-size="14" dominant-baseline="middle" text-anchor="end" transform="translate(47.78613471984863, 233.89655172413794) rotate(0)">16</text><text x="0" y="0" fill="#131300" font-size="14" dominant-baseline="middle" text-anchor="end" transform="translate(47.78613471984863, 262.03448275862064) rotate(0)">14</text><text x="0" y="0" fill="#131300" font-size="14" dominant-baseline="middle" text-anchor="end" transform="translate(47.78613471984863, 290.1724137931035) rotate(0)">12</text><text x="0" y="0" fill="#131300" font-size="14" dominant-baseline="middle" text-anchor="end" transform="translate(47.78613471984863, 318.3103448275862) rotate(0)">10</text><text x="0" y="0" fill="#131300" font-size="14" dominant-baseline="middle" text-anchor="end" transform="translate(47.78613471984863, 346.448275862069) rotate(0)">8</text><text x="0" y="0" fill="#131300" font-size="14" dominant-baseline="middle" text-anchor="end" transform="translate(47.78613471984863, 374.58620689655174) rotate(0)">6</text><text x="0" y="0" fill="#131300" font-size="14" dominant-baseline="middle" text-anchor="end" transform="translate(47.78613471984863, 402.7241379310345) rotate(0)">4</text><text x="0" y="0" fill="#131300" font-size="14" dominant-baseline="middle" text-anchor="end" transform="translate(47.78613471984863, 430.8620689655172) rotate(0)">2</text><text x="0" y="0" fill="#131300" font-size="14" dominant-baseline="middle" text-anchor="end" transform="translate(47.78613471984863, 459) rotate(0)">0</text></g><g class="ticks"><path d="M 57.78613471984863,65.06896551724137 L 52.78613471984863,65.06896551724137" fill="none" stroke="#131300" stroke-width="2"/><path d="M 57.78613471984863,93.20689655172413 L 52.78613471984863,93.20689655172413" fill="none" stroke="#131300" stroke-width="2"/><path d="M 57.78613471984863,121.34482758620689 L 52.78613471984863,121.34482758620689" fill="none" stroke="#131300" stroke-width="2"/><path d="M 57.78613471984863,149.48275862068968 L 52.78613471984863,149.48275862068968" fill="none" stroke="#131300" stroke-width="2"/><path d="M 57.78613471984863,177.6206896551724 L 52.78613471984863,177.6206896551724" fill="none" stroke="#131300" stroke-width="2"/><path d="M 57.78613471984863,205.75862068965517 L 52.78613471984863,205.75862068965517" fill="none" stroke="#131300" stroke-width="2"/><path d="M 57.78613471984863,233.89655172413794 L 52.78613471984863,233.89655172413794" fill="none" stroke="#131300" stroke-width="2"/><path d="M 57.78613471984863,262.03448275862064 L 52.78613471984863,262.03448275862064" fill="none" stroke="#131300" stroke-width="2"/><path d="M 57.78613471984863,290.1724137931035 L 52.78613471984863,290.1724137931035" fill="none" stroke="#131300" stroke-width="2"/><path d="M 57.78613471984863,318.3103448275862 L 52.78613471984863,318.3103448275862" fill="none" stroke="#131300" stroke-width="2"/><path d="M 57.78613471984863,346.448275862069 L 52.78613471984863,346.448275862069" fill="none" stroke="#131300" stroke-width="2"/><path d="M 57.78613471984863,374.58620689655174 L 52.78613471984863,374.58620689655174" fill="none" stroke="#131300" stroke-width="2"/><path d="M 57.78613471984863,402.7241379310345 L 52.78613471984863,402.7241379310345" fill="none" stroke="#131300" stroke-width="2"/><path d="M 57.78613471984863,430.8620689655172 L 52.78613471984863,430.8620689655172" fill="none" stroke="#131300" stroke-width="2"/><path d="M 57.78613471984863,459 L 52.78613471984863,459" fill="none" stroke="#131300" stroke-width="2"/></g><g class="title"><text x="0" y="0" fill="#131300" font-size="16" dominant-baseline="text-before-edge" text-anchor="middle" transform="translate(5, 255) rotate(270)">Count</text></g></g></g><g class="mermaid-tmp-group"/></svg>