<svg id="my-svg" width="100%" xmlns="http://www.w3.org/2000/svg" xmlns:xlink="http://www.w3.org/1999/xlink" style="max-width: 700px; background-color: white;" viewBox="0 0 700 500" role="graphics-document document" aria-roledescription="xychart"><style>#my-svg{font-family:"trebuchet ms",verdana,arial,sans-serif;font-size:16px;fill:#333;}@keyframes edge-animation-frame{from{stroke-dashoffset:0;}}@keyframes dash{to{stroke-dashoffset:0;}}#my-svg .edge-animation-slow{stroke-dasharray:9,5!important;stroke-dashoffset:900;animation:dash 50s linear infinite;stroke-linecap:round;}#my-svg .edge-animation-fast{stroke-dasharray:9,5!important;stroke-dashoffset:900;animation:dash 20s linear infinite;stroke-linecap:round;}#my-svg .error-icon{fill:#552222;}#my-svg .error-text{fill:#552222;stroke:#552222;}#my-svg .edge-thickness-normal{stroke-width:1px;}#my-svg .edge-thickness-thick{stroke-width:3.5px;}#my-svg .edge-pattern-solid{stroke-dasharray:0;}#my-svg .edge-thickness-invisible{stroke-width:0;fill:none;}#my-svg .edge-pattern-dashed{stroke-dasharray:3;}#my-svg .edge-pattern-dotted{stroke-dasharray:2;}#my-svg .marker{fill:#333333;stroke:#333333;}#my-svg .marker.cross{stroke:#333333;}#my-svg svg{font-family:"trebuchet ms",verdana,arial,sans-serif;font-size:16px;}#my-svg p{margin:0;}#my-svg .node .neo-node{stroke:#9370DB;}#my-svg [data-look="neo"].node rect,#my-svg [data-look="neo"].cluster rect,#my-svg [data-look="neo"].node polygon{stroke:#9370DB;filter:drop-shadow(1px 2px 2px rgba(185, 185, 185, 1));}#my-svg [data-look="neo"].node path{stroke:#9370DB;stroke-width:1px;}#my-svg [data-look="neo"].node .outer-path{filter:drop-shadow(1px 2px 2px rgba(185, 185, 185, 1));}#my-svg [data-look="neo"].node .neo-line path{stroke:#9370DB;filter:none;}#my-svg [data-look="neo"].node circle{stroke:#9370DB;filter:drop-shadow(1px 2px 2px rgba(185, 185, 185, 1));}#my-svg [data-look="neo"].node circle .state-start{fill:#000000;}#my-svg [data-look="neo"].icon-shape .icon{fill:#9370DB;filter:drop-shadow(1px 2px 2px rgba(185, 185, 185, 1));}#my-svg [data-look="neo"].icon-shape .icon-neo path{stroke:#9370DB;filter:drop-shadow(1px 2px 2px rgba(185, 185, 185, 1));}#my-svg :root{--mermaid-font-family:"trebuchet ms",verdana,arial,sans-serif;}</style><g/><g class="main"><rect width="700" height="500" class="background" fill="white"/><g class="chart-title"><text x="0" y="0" fill="#131300" font-size="20" dominant-baseline="middle" text-anchor="middle" transform="translate(350, 21.5) rotate(0)">GC News — TYPE_EN per day (last 30 days)</text></g><g class="plot"><g class="bar-plot-0"><rect x="86.70025258858999" y="449.93333333333334" width="17.998912700017293" height="17.066666666666663" fill="#ECECFF" stroke="#ECECFF" stroke-width="0"/><rect x="106.29979454868142" y="422.73333333333335" width="17.998912700017293" height="44.26666666666665" fill="#ECECFF" stroke="#ECECFF" stroke-width="0"/><rect x="125.89933650877285" y="449.93333333333334" width="17.998912700017293" height="17.066666666666663" fill="#ECECFF" stroke="#ECECFF" stroke-width="0"/><rect x="145.49887846886426" y="449.93333333333334" width="17.998912700017293" height="17.066666666666663" fill="#ECECFF" stroke="#ECECFF" stroke-width="0"/><rect x="165.0984204289557" y="459" width="17.998912700017293" height="8" fill="#ECECFF" stroke="#ECECFF" stroke-width="0"/><rect x="184.69796238904712" y="459" width="17.998912700017293" height="8" fill="#ECECFF" stroke="#ECECFF" stroke-width="0"/><rect x="204.29750434913853" y="413.6666666666667" width="17.998912700017293" height="53.333333333333314" fill="#ECECFF" stroke="#ECECFF" stroke-width="0"/><rect x="223.89704630922998" y="440.8666666666667" width="17.998912700017293" height="26.133333333333326" fill="#ECECFF" stroke="#ECECFF" stroke-width="0"/><rect x="243.4965882693214" y="440.8666666666667" width="17.998912700017293" height="26.133333333333326" fill="#ECECFF" stroke="#ECECFF" stroke-width="0"/><rect x="263.09613022941284" y="440.8666666666667" width="17.998912700017293" height="26.133333333333326" fill="#ECECFF" stroke="#ECECFF" stroke-width="0"/><rect x="282.69567218950425" y="459" width="17.998912700017293" height="8" fill="#ECECFF" stroke="#ECECFF" stroke-width="0"/><rect x="302.29521414959567" y="459" width="17.998912700017293" height="8" fill="#ECECFF" stroke="#ECECFF" stroke-width="0"/><rect x="321.8947561096871" y="459" width="17.998912700017293" height="8" fill="#ECECFF" stroke="#ECECFF" stroke-width="0"/><rect x="341.4942980697785" y="459" width="17.998912700017293" height="8" fill="#ECECFF" stroke="#ECECFF" stroke-width="0"/><rect x="361.09384002986997" y="431.8" width="17.998912700017293" height="35.19999999999999" fill="#ECECFF" stroke="#ECECFF" stroke-width="0"/><rect x="380.6933819899614" y="440.8666666666667" width="17.998912700017293" height="26.133333333333326" fill="#ECECFF" stroke="#ECECFF" stroke-width="0"/><rect x="400.2929239500528" y="459" width="17.998912700017293" height="8" fill="#ECECFF" stroke="#ECECFF" stroke-width="0"/><rect x="419.8924659101442" y="431.8" width="17.998912700017293" height="35.19999999999999" fill="#ECECFF" stroke="#ECECFF" stroke-width="0"/><rect x="439.4920078702356" y="459" width="17.998912700017293" height="8" fill="#ECECFF" stroke="#ECECFF" stroke-width="0"/><rect x="459.0915498303271" y="459" width="17.998912700017293" height="8" fill="#ECECFF" stroke="#ECECFF" stroke-width="0"/><rect x="478.6910917904185" y="440.8666666666667" width="17.998912700017293" height="26.133333333333326" fill="#ECECFF" stroke="#ECECFF" stroke-width="0"/><rect x="498.2906337505099" y="431.8" width="17.998912700017293" height="35.19999999999999" fill="#ECECFF" stroke="#ECECFF" stroke-width="0"/><rect x="517.8901757106013" y="449.93333333333334" width="17.998912700017293" height="17.066666666666663" fill="#ECECFF" stroke="#ECECFF" stroke-width="0"/><rect x="537.4897176706927" y="440.8666666666667" width="17.998912700017293" height="26.133333333333326" fill="#ECECFF" stroke="#ECECFF" stroke-width="0"/><rect x="557.0892596307841" y="440.8666666666667" width="17.998912700017293" height="26.133333333333326" fill="#ECECFF" stroke="#ECECFF" stroke-width="0"/><rect x="576.6888015908756" y="459" width="17.998912700017293" height="8" fill="#ECECFF" stroke="#ECECFF" stroke-width="0"/><rect x="596.2883435509669" y="459" width="17.998912700017293" height="8" fill="#ECECFF" stroke="#ECECFF" stroke-width="0"/><rect x="615.8878855110585" y="431.8" width="17.998912700017293" height="35.19999999999999" fill="#ECECFF" stroke="#ECECFF" stroke-width="0"/><rect x="635.4874274711499" y="404.6" width="17.998912700017293" height="62.39999999999998" fill="#ECECFF" stroke="#ECECFF" stroke-width="0"/><rect x="655.0869694312413" y="440.8666666666667" width="17.998912700017293" height="26.133333333333326" fill="#ECECFF" stroke="#ECECFF" stroke-width="0"/></g><g class="bar-plot-1"><rect x="86.70025258858999" y="404.6" width="17.998912700017293" height="62.39999999999998" fill="#8493A6" stroke="#8493A6" stroke-width="0"/><rect x="106.29979454868142" y="386.46666666666664" width="17.998912700017293" height="80.53333333333336" fill="#8493A6" stroke="#8493A6" stroke-width="0"/><rect x="125.89933650877285" y="413.6666666666667" width="17.998912700017293" height="53.333333333333314" fill="#8493A6" stroke="#8493A6" stroke-width="0"/><rect x="145.49887846886426" y="413.6666666666667" width="17.998912700017293" height="53.333333333333314" fill="#8493A6" stroke="#8493A6" stroke-width="0"/><rect x="165.0984204289557" y="459" width="17.998912700017293" height="8" fill="#8493A6" stroke="#8493A6" stroke-width="0"/><rect x="184.69796238904712" y="422.73333333333335" width="17.998912700017293" height="44.26666666666665" fill="#8493A6" stroke="#8493A6" stroke-width="0"/><rect x="204.29750434913853" y="386.46666666666664" width="17.998912700017293" height="80.53333333333336" fill="#8493A6" stroke="#8493A6" stroke-width="0"/><rect x="223.89704630922998" y="404.6" width="17.998912700017293" height="62.39999999999998" fill="#8493A6" stroke="#8493A6" stroke-width="0"/><rect x="243.4965882693214" y="413.6666666666667" width="17.998912700017293" height="53.333333333333314" fill="#8493A6" stroke="#8493A6" stroke-width="0"/><rect x="263.09613022941284" y="323.00000000000006" width="17.998912700017293" height="143.99999999999994" fill="#8493A6" stroke="#8493A6" stroke-width="0"/><rect x="282.69567218950425" y="422.73333333333335" width="17.998912700017293" height="44.26666666666665" fill="#8493A6" stroke="#8493A6" stroke-width="0"/><rect x="302.29521414959567" y="459" width="17.998912700017293" height="8" fill="#8493A6" stroke="#8493A6" stroke-width="0"/><rect x="321.8947561096871" y="459" width="17.998912700017293" height="8" fill="#8493A6" stroke="#8493A6" stroke-width="0"/><rect x="341.4942980697785" y="440.8666666666667" width="17.998912700017293" height="26.133333333333326" fill="#8493A6" stroke="#8493A6" stroke-width="0"/><rect x="361.09384002986997" y="404.6" width="17.998912700017293" height="62.39999999999998" fill="#8493A6" stroke="#8493A6" stroke-width="0"/><rect x="380.6933819899614" y="377.40000000000003" width="17.998912700017293" height="89.59999999999997" fill="#8493A6" stroke="#8493A6" stroke-width="0"/><rect x="400.2929239500528" y="395.53333333333336" width="17.998912700017293" height="71.46666666666664" fill="#8493A6" stroke="#8493A6" stroke-width="0"/><rect x="419.8924659101442" y="377.40000000000003" width="17.998912700017293" height="89.59999999999997" fill="#8493A6" stroke="#8493A6" stroke-width="0"/><rect x="439.4920078702356" y="459" width="17.998912700017293" height="8" fill="#8493A6" stroke="#8493A6" stroke-width="0"/><rect x="459.0915498303271" y="459" width="17.998912700017293" height="8" fill="#8493A6" stroke="#8493A6" stroke-width="0"/><rect x="478.6910917904185" y="413.6666666666667" width="17.998912700017293" height="53.333333333333314" fill="#8493A6" stroke="#8493A6" stroke-width="0"/><rect x="498.2906337505099" y="422.73333333333335" width="17.998912700017293" height="44.26666666666665" fill="#8493A6" stroke="#8493A6" stroke-width="0"/><rect x="517.8901757106013" y="449.93333333333334" width="17.998912700017293" height="17.066666666666663" fill="#8493A6" stroke="#8493A6" stroke-width="0"/><rect x="537.4897176706927" y="386.46666666666664" width="17.998912700017293" height="80.53333333333336" fill="#8493A6" stroke="#8493A6" stroke-width="0"/><rect x="557.0892596307841" y="350.20000000000005" width="17.998912700017293" height="116.79999999999995" fill="#8493A6" stroke="#8493A6" stroke-width="0"/><rect x="576.6888015908756" y="459" width="17.998912700017293" height="8" fill="#8493A6" stroke="#8493A6" stroke-width="0"/><rect x="596.2883435509669" y="440.8666666666667" width="17.998912700017293" height="26.133333333333326" fill="#8493A6" stroke="#8493A6" stroke-width="0"/><rect x="615.8878855110585" y="295.79999999999995" width="17.998912700017293" height="171.20000000000005" fill="#8493A6" stroke="#8493A6" stroke-width="0"/><rect x="635.4874274711499" y="304.8666666666667" width="17.998912700017293" height="162.13333333333333" fill="#8493A6" stroke="#8493A6" stroke-width="0"/><rect x="655.0869694312413" y="377.40000000000003" width="17.998912700017293" height="89.59999999999997" fill="#8493A6" stroke="#8493A6" stroke-width="0"/></g><g class="bar-plot-2"><rect x="86.70025258858999" y="341.1333333333334" width="17.998912700017293" height="125.86666666666662" fill="#FFC3A0" stroke="#FFC3A0" stroke-width="0"/><rect x="106.29979454868142" y="286.73333333333335" width="17.998912700017293" height="180.26666666666665" fill="#FFC3A0" stroke="#FFC3A0" stroke-width="0"/><rect x="125.89933650877285" y="286.73333333333335" width="17.998912700017293" height="180.26666666666665" fill="#FFC3A0" stroke="#FFC3A0" stroke-width="0"/><rect x="145.49887846886426" y="241.4" width="17.998912700017293" height="225.6" fill="#FFC3A0" stroke="#FFC3A0" stroke-width="0"/><rect x="165.0984204289557" y="440.8666666666667" width="17.998912700017293" height="26.133333333333326" fill="#FFC3A0" stroke="#FFC3A0" stroke-width="0"/><rect x="184.69796238904712" y="422.73333333333335" width="17.998912700017293" height="44.26666666666665" fill="#FFC3A0" stroke="#FFC3A0" stroke-width="0"/><rect x="204.29750434913853" y="277.6666666666667" width="17.998912700017293" height="189.33333333333331" fill="#FFC3A0" stroke="#FFC3A0" stroke-width="0"/><rect x="223.89704630922998" y="313.9333333333333" width="17.998912700017293" height="153.06666666666672" fill="#FFC3A0" stroke="#FFC3A0" stroke-width="0"/><rect x="243.4965882693214" y="341.1333333333334" width="17.998912700017293" height="125.86666666666662" fill="#FFC3A0" stroke="#FFC3A0" stroke-width="0"/><rect x="263.09613022941284" y="223.26666666666668" width="17.998912700017293" height="243.73333333333332" fill="#FFC3A0" stroke="#FFC3A0" stroke-width="0"/><rect x="282.69567218950425" y="205.13333333333333" width="17.998912700017293" height="261.8666666666667" fill="#FFC3A0" stroke="#FFC3A0" stroke-width="0"/><rect x="302.29521414959567" y="459" width="17.998912700017293" height="8" fill="#FFC3A0" stroke="#FFC3A0" stroke-width="0"/><rect x="321.8947561096871" y="459" width="17.998912700017293" height="8" fill="#FFC3A0" stroke="#FFC3A0" stroke-width="0"/><rect x="341.4942980697785" y="304.8666666666667" width="17.998912700017293" height="162.13333333333333" fill="#FFC3A0" stroke="#FFC3A0" stroke-width="0"/><rect x="361.09384002986997" y="313.9333333333333" width="17.998912700017293" height="153.06666666666672" fill="#FFC3A0" stroke="#FFC3A0" stroke-width="0"/><rect x="380.6933819899614" y="295.79999999999995" width="17.998912700017293" height="171.20000000000005" fill="#FFC3A0" stroke="#FFC3A0" stroke-width="0"/><rect x="400.2929239500528" y="286.73333333333335" width="17.998912700017293" height="180.26666666666665" fill="#FFC3A0" stroke="#FFC3A0" stroke-width="0"/><rect x="419.8924659101442" y="241.4" width="17.998912700017293" height="225.6" fill="#FFC3A0" stroke="#FFC3A0" stroke-width="0"/><rect x="439.4920078702356" y="459" width="17.998912700017293" height="8" fill="#FFC3A0" stroke="#FFC3A0" stroke-width="0"/><rect x="459.0915498303271" y="459" width="17.998912700017293" height="8" fill="#FFC3A0" stroke="#FFC3A0" stroke-width="0"/><rect x="478.6910917904185" y="350.20000000000005" width="17.998912700017293" height="116.79999999999995" fill="#FFC3A0" stroke="#FFC3A0" stroke-width="0"/><rect x="498.2906337505099" y="286.73333333333335" width="17.998912700017293" height="180.26666666666665" fill="#FFC3A0" stroke="#FFC3A0" stroke-width="0"/><rect x="517.8901757106013" y="404.6" width="17.998912700017293" height="62.39999999999998" fill="#FFC3A0" stroke="#FFC3A0" stroke-width="0"/><rect x="537.4897176706927" y="286.73333333333335" width="17.998912700017293" height="180.26666666666665" fill="#FFC3A0" stroke="#FFC3A0" stroke-width="0"/><rect x="557.0892596307841" y="168.86666666666667" width="17.998912700017293" height="298.1333333333333" fill="#FFC3A0" stroke="#FFC3A0" stroke-width="0"/><rect x="576.6888015908756" y="440.8666666666667" width="17.998912700017293" height="26.133333333333326" fill="#FFC3A0" stroke="#FFC3A0" stroke-width="0"/><rect x="596.2883435509669" y="422.73333333333335" width="17.998912700017293" height="44.26666666666665" fill="#FFC3A0" stroke="#FFC3A0" stroke-width="0"/><rect x="615.8878855110585" y="96.33333333333334" width="17.998912700017293" height="370.66666666666663" fill="#FFC3A0" stroke="#FFC3A0" stroke-width="0"/><rect x="635.4874274711499" y="96.33333333333334" width="17.998912700017293" height="370.66666666666663" fill="#FFC3A0" stroke="#FFC3A0" stroke-width="0"/><rect x="655.0869694312413" y="232.33333333333334" width="17.998912700017293" height="234.66666666666666" fill="#FFC3A0" stroke="#FFC3A0" stroke-width="0"/></g><g class="bar-plot-3"><rect x="86.70025258858999" y="313.9333333333333" width="17.998912700017293" height="153.06666666666672" fill="#DCDDE1" stroke="#DCDDE1" stroke-width="0"/><rect x="106.29979454868142" y="277.6666666666667" width="17.998912700017293" height="189.33333333333331" fill="#DCDDE1" stroke="#DCDDE1" stroke-width="0"/><rect x="125.89933650877285" y="286.73333333333335" width="17.998912700017293" height="180.26666666666665" fill="#DCDDE1" stroke="#DCDDE1" stroke-width="0"/><rect x="145.49887846886426" y="232.33333333333334" width="17.998912700017293" height="234.66666666666666" fill="#DCDDE1" stroke="#DCDDE1" stroke-width="0"/><rect x="165.0984204289557" y="440.8666666666667" width="17.998912700017293" height="26.133333333333326" fill="#DCDDE1" stroke="#DCDDE1" stroke-width="0"/><rect x="184.69796238904712" y="422.73333333333335" width="17.998912700017293" height="44.26666666666665" fill="#DCDDE1" stroke="#DCDDE1" stroke-width="0"/><rect x="204.29750434913853" y="268.59999999999997" width="17.998912700017293" height="198.40000000000003" fill="#DCDDE1" stroke="#DCDDE1" stroke-width="0"/><rect x="223.89704630922998" y="304.8666666666667" width="17.998912700017293" height="162.13333333333333" fill="#DCDDE1" stroke="#DCDDE1" stroke-width="0"/><rect x="243.4965882693214" y="332.06666666666666" width="17.998912700017293" height="134.93333333333334" fill="#DCDDE1" stroke="#DCDDE1" stroke-width="0"/><rect x="263.09613022941284" y="214.20000000000002" width="17.998912700017293" height="252.79999999999998" fill="#DCDDE1" stroke="#DCDDE1" stroke-width="0"/><rect x="282.69567218950425" y="196.06666666666666" width="17.998912700017293" height="270.93333333333334" fill="#DCDDE1" stroke="#DCDDE1" stroke-width="0"/><rect x="302.29521414959567" y="459" width="17.998912700017293" height="8" fill="#DCDDE1" stroke="#DCDDE1" stroke-width="0"/><rect x="321.8947561096871" y="459" width="17.998912700017293" height="8" fill="#DCDDE1" stroke="#DCDDE1" stroke-width="0"/><rect x="341.4942980697785" y="304.8666666666667" width="17.998912700017293" height="162.13333333333333" fill="#DCDDE1" stroke="#DCDDE1" stroke-width="0"/><rect x="361.09384002986997" y="313.9333333333333" width="17.998912700017293" height="153.06666666666672" fill="#DCDDE1" stroke="#DCDDE1" stroke-width="0"/><rect x="380.6933819899614" y="277.6666666666667" width="17.998912700017293" height="189.33333333333331" fill="#DCDDE1" stroke="#DCDDE1" stroke-width="0"/><rect x="400.2929239500528" y="277.6666666666667" width="17.998912700017293" height="189.33333333333331" fill="#DCDDE1" stroke="#DCDDE1" stroke-width="0"/><rect x="419.8924659101442" y="241.4" width="17.998912700017293" height="225.6" fill="#DCDDE1" stroke="#DCDDE1" stroke-width="0"/><rect x="439.4920078702356" y="459" width="17.998912700017293" height="8" fill="#DCDDE1" stroke="#DCDDE1" stroke-width="0"/><rect x="459.0915498303271" y="459" width="17.998912700017293" height="8" fill="#DCDDE1" stroke="#DCDDE1" stroke-width="0"/><rect x="478.6910917904185" y="350.20000000000005" width="17.998912700017293" height="116.79999999999995" fill="#DCDDE1" stroke="#DCDDE1" stroke-width="0"/><rect x="498.2906337505099" y="286.73333333333335" width="17.998912700017293" height="180.26666666666665" fill="#DCDDE1" stroke="#DCDDE1" stroke-width="0"/><rect x="517.8901757106013" y="404.6" width="17.998912700017293" height="62.39999999999998" fill="#DCDDE1" stroke="#DCDDE1" stroke-width="0"/><rect x="537.4897176706927" y="286.73333333333335" width="17.998912700017293" height="180.26666666666665" fill="#DCDDE1" stroke="#DCDDE1" stroke-width="0"/><rect x="557.0892596307841" y="168.86666666666667" width="17.998912700017293" height="298.1333333333333" fill="#DCDDE1" stroke="#DCDDE1" stroke-width="0"/><rect x="576.6888015908756" y="440.8666666666667" width="17.998912700017293" height="26.133333333333326" fill="#DCDDE1" stroke="#DCDDE1" stroke-width="0"/><rect x="596.2883435509669" y="422.73333333333335" width="17.998912700017293" height="44.26666666666665" fill="#DCDDE1" stroke="#DCDDE1" stroke-width="0"/><rect x="615.8878855110585" y="78.19999999999999" width="17.998912700017293" height="388.8" fill="#DCDDE1" stroke="#DCDDE1" stroke-width="0"/><rect x="635.4874274711499" y="78.19999999999999" width="17.998912700017293" height="388.8" fill="#DCDDE1" stroke="#DCDDE1" stroke-width="0"/><rect x="655.0869694312413" y="223.26666666666668" width="17.998912700017293" height="243.73333333333332" fill="#DCDDE1" stroke="#DCDDE1" stroke-width="0"/></g><g class="bar-plot-4"><rect x="86.70025258858999" y="313.9333333333333" width="17.998912700017293" height="153.06666666666672" fill="#B8E994" stroke="#B8E994" stroke-width="0"/><rect x="106.29979454868142" y="277.6666666666667" width="17.998912700017293" height="189.33333333333331" fill="#B8E994" stroke="#B8E994" stroke-width="0"/><rect x="125.89933650877285" y="286.73333333333335" width="17.998912700017293" height="180.26666666666665" fill="#B8E994" stroke="#B8E994" stroke-width="0"/><rect x="145.49887846886426" y="223.26666666666668" width="17.998912700017293" height="243.73333333333332" fill="#B8E994" stroke="#B8E994" stroke-width="0"/><rect x="165.0984204289557" y="440.8666666666667" width="17.998912700017293" height="26.133333333333326" fill="#B8E994" stroke="#B8E994" stroke-width="0"/><rect x="184.69796238904712" y="422.73333333333335" width="17.998912700017293" height="44.26666666666665" fill="#B8E994" stroke="#B8E994" stroke-width="0"/><rect x="204.29750434913853" y="268.59999999999997" width="17.998912700017293" height="198.40000000000003" fill="#B8E994" stroke="#B8E994" stroke-width="0"/><rect x="223.89704630922998" y="295.79999999999995" width="17.998912700017293" height="171.20000000000005" fill="#B8E994" stroke="#B8E994" stroke-width="0"/><rect x="243.4965882693214" y="332.06666666666666" width="17.998912700017293" height="134.93333333333334" fill="#B8E994" stroke="#B8E994" stroke-width="0"/><rect x="263.09613022941284" y="205.13333333333333" width="17.998912700017293" height="261.8666666666667" fill="#B8E994" stroke="#B8E994" stroke-width="0"/><rect x="282.69567218950425" y="196.06666666666666" width="17.998912700017293" height="270.93333333333334" fill="#B8E994" stroke="#B8E994" stroke-width="0"/><rect x="302.29521414959567" y="459" width="17.998912700017293" height="8" fill="#B8E994" stroke="#B8E994" stroke-width="0"/><rect x="321.8947561096871" y="459" width="17.998912700017293" height="8" fill="#B8E994" stroke="#B8E994" stroke-width="0"/><rect x="341.4942980697785" y="295.79999999999995" width="17.998912700017293" height="171.20000000000005" fill="#B8E994" stroke="#B8E994" stroke-width="0"/><rect x="361.09384002986997" y="313.9333333333333" width="17.998912700017293" height="153.06666666666672" fill="#B8E994" stroke="#B8E994" stroke-width="0"/><rect x="380.6933819899614" y="277.6666666666667" width="17.998912700017293" height="189.33333333333331" fill="#B8E994" stroke="#B8E994" stroke-width="0"/><rect x="400.2929239500528" y="277.6666666666667" width="17.998912700017293" height="189.33333333333331" fill="#B8E994" stroke="#B8E994" stroke-width="0"/><rect x="419.8924659101442" y="241.4" width="17.998912700017293" height="225.6" fill="#B8E994" stroke="#B8E994" stroke-width="0"/><rect x="439.4920078702356" y="459" width="17.998912700017293" height="8" fill="#B8E994" stroke="#B8E994" stroke-width="0"/><rect x="459.0915498303271" y="459" width="17.998912700017293" height="8" fill="#B8E994" stroke="#B8E994" stroke-width="0"/><rect x="478.6910917904185" y="332.06666666666666" width="17.998912700017293" height="134.93333333333334" fill="#B8E994" stroke="#B8E994" stroke-width="0"/><rect x="498.2906337505099" y="277.6666666666667" width="17.998912700017293" height="189.33333333333331" fill="#B8E994" stroke="#B8E994" stroke-width="0"/><rect x="517.8901757106013" y="404.6" width="17.998912700017293" height="62.39999999999998" fill="#B8E994" stroke="#B8E994" stroke-width="0"/><rect x="537.4897176706927" y="286.73333333333335" width="17.998912700017293" height="180.26666666666665" fill="#B8E994" stroke="#B8E994" stroke-width="0"/><rect x="557.0892596307841" y="168.86666666666667" width="17.998912700017293" height="298.1333333333333" fill="#B8E994" stroke="#B8E994" stroke-width="0"/><rect x="576.6888015908756" y="440.8666666666667" width="17.998912700017293" height="26.133333333333326" fill="#B8E994" stroke="#B8E994" stroke-width="0"/><rect x="596.2883435509669" y="422.73333333333335" width="17.998912700017293" height="44.26666666666665" fill="#B8E994" stroke="#B8E994" stroke-width="0"/><rect x="615.8878855110585" y="78.19999999999999" width="17.998912700017293" height="388.8" fill="#B8E994" stroke="#B8E994" stroke-width="0"/><rect x="635.4874274711499" y="78.19999999999999" width="17.998912700017293" height="388.8" fill="#B8E994" stroke="#B8E994" stroke-width="0"/><rect x="655.0869694312413" y="214.20000000000002" width="17.998912700017293" height="252.79999999999998" fill="#B8E994" stroke="#B8E994" stroke-width="0"/></g><g class="bar-plot-5"><rect x="86.70025258858999" y="304.8666666666667" width="17.998912700017293" height="162.13333333333333" fill="#D1A36F" stroke="#D1A36F" stroke-width="0"/><rect x="106.29979454868142" y="259.5333333333333" width="17.998912700017293" height="207.4666666666667" fill="#D1A36F" stroke="#D1A36F" stroke-width="0"/><rect x="125.89933650877285" y="268.59999999999997" width="17.998912700017293" height="198.40000000000003" fill="#D1A36F" stroke="#D1A36F" stroke-width="0"/><rect x="145.49887846886426" y="177.93333333333334" width="17.998912700017293" height="289.06666666666666" fill="#D1A36F" stroke="#D1A36F" stroke-width="0"/><rect x="165.0984204289557" y="431.8" width="17.998912700017293" height="35.19999999999999" fill="#D1A36F" stroke="#D1A36F" stroke-width="0"/><rect x="184.69796238904712" y="422.73333333333335" width="17.998912700017293" height="44.26666666666665" fill="#D1A36F" stroke="#D1A36F" stroke-width="0"/><rect x="204.29750434913853" y="214.20000000000002" width="17.998912700017293" height="252.79999999999998" fill="#D1A36F" stroke="#D1A36F" stroke-width="0"/><rect x="223.89704630922998" y="286.73333333333335" width="17.998912700017293" height="180.26666666666665" fill="#D1A36F" stroke="#D1A36F" stroke-width="0"/><rect x="243.4965882693214" y="304.8666666666667" width="17.998912700017293" height="162.13333333333333" fill="#D1A36F" stroke="#D1A36F" stroke-width="0"/><rect x="263.09613022941284" y="205.13333333333333" width="17.998912700017293" height="261.8666666666667" fill="#D1A36F" stroke="#D1A36F" stroke-width="0"/><rect x="282.69567218950425" y="168.86666666666667" width="17.998912700017293" height="298.1333333333333" fill="#D1A36F" stroke="#D1A36F" stroke-width="0"/><rect x="302.29521414959567" y="459" width="17.998912700017293" height="8" fill="#D1A36F" stroke="#D1A36F" stroke-width="0"/><rect x="321.8947561096871" y="449.93333333333334" width="17.998912700017293" height="17.066666666666663" fill="#D1A36F" stroke="#D1A36F" stroke-width="0"/><rect x="341.4942980697785" y="277.6666666666667" width="17.998912700017293" height="189.33333333333331" fill="#D1A36F" stroke="#D1A36F" stroke-width="0"/><rect x="361.09384002986997" y="304.8666666666667" width="17.998912700017293" height="162.13333333333333" fill="#D1A36F" stroke="#D1A36F" stroke-width="0"/><rect x="380.6933819899614" y="268.59999999999997" width="17.998912700017293" height="198.40000000000003" fill="#D1A36F" stroke="#D1A36F" stroke-width="0"/><rect x="400.2929239500528" y="268.59999999999997" width="17.998912700017293" height="198.40000000000003" fill="#D1A36F" stroke="#D1A36F" stroke-width="0"/><rect x="419.8924659101442" y="223.26666666666668" width="17.998912700017293" height="243.73333333333332" fill="#D1A36F" stroke="#D1A36F" stroke-width="0"/><rect x="439.4920078702356" y="459" width="17.998912700017293" height="8" fill="#D1A36F" stroke="#D1A36F" stroke-width="0"/><rect x="459.0915498303271" y="459" width="17.998912700017293" height="8" fill="#D1A36F" stroke="#D1A36F" stroke-width="0"/><rect x="478.6910917904185" y="313.9333333333333" width="17.998912700017293" height="153.06666666666672" fill="#D1A36F" stroke="#D1A36F" stroke-width="0"/><rect x="498.2906337505099" y="277.6666666666667" width="17.998912700017293" height="189.33333333333331" fill="#D1A36F" stroke="#D1A36F" stroke-width="0"/><rect x="517.8901757106013" y="395.53333333333336" width="17.998912700017293" height="71.46666666666664" fill="#D1A36F" stroke="#D1A36F" stroke-width="0"/><rect x="537.4897176706927" y="286.73333333333335" width="17.998912700017293" height="180.26666666666665" fill="#D1A36F" stroke="#D1A36F" stroke-width="0"/><rect x="557.0892596307841" y="159.8" width="17.998912700017293" height="307.2" fill="#D1A36F" stroke="#D1A36F" stroke-width="0"/><rect x="576.6888015908756" y="431.8" width="17.998912700017293" height="35.19999999999999" fill="#D1A36F" stroke="#D1A36F" stroke-width="0"/><rect x="596.2883435509669" y="413.6666666666667" width="17.998912700017293" height="53.333333333333314" fill="#D1A36F" stroke="#D1A36F" stroke-width="0"/><rect x="615.8878855110585" y="78.19999999999999" width="17.998912700017293" height="388.8" fill="#D1A36F" stroke="#D1A36F" stroke-width="0"/><rect x="635.4874274711499" y="51" width="17.998912700017293" height="416" fill="#D1A36F" stroke="#D1A36F" stroke-width="0"/><rect x="655.0869694312413" y="187.00000000000003" width="17.998912700017293" height="280" fill="#D1A36F" stroke="#D1A36F" stroke-width="0"/></g></g><g class="bottom-axis"><g class="axis-line"><path d="M 59.78613471984863,468 L 700,468" fill="none" stroke="#131300" stroke-width="2"/></g><g class="label"><text x="0" y="0" fill="#131300" font-size="14" dominant-baseline="text-before-edge" text-anchor="middle" transform="translate(95.69970893859863, 479) rotate(0)">2026-05-26</text><text x="0" y="0" fill="#131300" font-size="14" dominant-baseline="text-before-edge" text-anchor="middle" transform="translate(115.29925089869006, 479) rotate(0)">2026-05-27</text><text x="0" y="0" fill="#131300" font-size="14" dominant-baseline="text-before-edge" text-anchor="middle" transform="translate(134.8987928587815, 479) rotate(0)">2026-05-28</text><text x="0" y="0" fill="#131300" font-size="14" dominant-baseline="text-before-edge" text-anchor="middle" transform="translate(154.4983348188729, 479) rotate(0)">2026-05-29</text><text x="0" y="0" fill="#131300" font-size="14" dominant-baseline="text-before-edge" text-anchor="middle" transform="translate(174.09787677896435, 479) rotate(0)">2026-05-30</text><text x="0" y="0" fill="#131300" font-size="14" dominant-baseline="text-before-edge" text-anchor="middle" transform="translate(193.69741873905576, 479) rotate(0)">2026-05-31</text><text x="0" y="0" fill="#131300" font-size="14" dominant-baseline="text-before-edge" text-anchor="middle" transform="translate(213.29696069914718, 479) rotate(0)">2026-06-01</text><text x="0" y="0" fill="#131300" font-size="14" dominant-baseline="text-before-edge" text-anchor="middle" transform="translate(232.89650265923862, 479) rotate(0)">2026-06-02</text><text x="0" y="0" fill="#131300" font-size="14" dominant-baseline="text-before-edge" text-anchor="middle" transform="translate(252.49604461933004, 479) rotate(0)">2026-06-03</text><text x="0" y="0" fill="#131300" font-size="14" dominant-baseline="text-before-edge" text-anchor="middle" transform="translate(272.0955865794215, 479) rotate(0)">2026-06-04</text><text x="0" y="0" fill="#131300" font-size="14" dominant-baseline="text-before-edge" text-anchor="middle" transform="translate(291.6951285395129, 479) rotate(0)">2026-06-05</text><text x="0" y="0" fill="#131300" font-size="14" dominant-baseline="text-before-edge" text-anchor="middle" transform="translate(311.2946704996043, 479) rotate(0)">2026-06-06</text><text x="0" y="0" fill="#131300" font-size="14" dominant-baseline="text-before-edge" text-anchor="middle" transform="translate(330.8942124596957, 479) rotate(0)">2026-06-07</text><text x="0" y="0" fill="#131300" font-size="14" dominant-baseline="text-before-edge" text-anchor="middle" transform="translate(350.49375441978714, 479) rotate(0)">2026-06-08</text><text x="0" y="0" fill="#131300" font-size="14" dominant-baseline="text-before-edge" text-anchor="middle" transform="translate(370.0932963798786, 479) rotate(0)">2026-06-09</text><text x="0" y="0" fill="#131300" font-size="14" dominant-baseline="text-before-edge" text-anchor="middle" transform="translate(389.69283833997, 479) rotate(0)">2026-06-10</text><text x="0" y="0" fill="#131300" font-size="14" dominant-baseline="text-before-edge" text-anchor="middle" transform="translate(409.29238030006144, 479) rotate(0)">2026-06-11</text><text x="0" y="0" fill="#131300" font-size="14" dominant-baseline="text-before-edge" text-anchor="middle" transform="translate(428.89192226015285, 479) rotate(0)">2026-06-12</text><text x="0" y="0" fill="#131300" font-size="14" dominant-baseline="text-before-edge" text-anchor="middle" transform="translate(448.49146422024427, 479) rotate(0)">2026-06-13</text><text x="0" y="0" fill="#131300" font-size="14" dominant-baseline="text-before-edge" text-anchor="middle" transform="translate(468.09100618033574, 479) rotate(0)">2026-06-14</text><text x="0" y="0" fill="#131300" font-size="14" dominant-baseline="text-before-edge" text-anchor="middle" transform="translate(487.69054814042715, 479) rotate(0)">2026-06-15</text><text x="0" y="0" fill="#131300" font-size="14" dominant-baseline="text-before-edge" text-anchor="middle" transform="translate(507.29009010051857, 479) rotate(0)">2026-06-16</text><text x="0" y="0" fill="#131300" font-size="14" dominant-baseline="text-before-edge" text-anchor="middle" transform="translate(526.88963206061, 479) rotate(0)">2026-06-17</text><text x="0" y="0" fill="#131300" font-size="14" dominant-baseline="text-before-edge" text-anchor="middle" transform="translate(546.4891740207014, 479) rotate(0)">2026-06-18</text><text x="0" y="0" fill="#131300" font-size="14" dominant-baseline="text-before-edge" text-anchor="middle" transform="translate(566.0887159807928, 479) rotate(0)">2026-06-19</text><text x="0" y="0" fill="#131300" font-size="14" dominant-baseline="text-before-edge" text-anchor="middle" transform="translate(585.6882579408843, 479) rotate(0)">2026-06-20</text><text x="0" y="0" fill="#131300" font-size="14" dominant-baseline="text-before-edge" text-anchor="middle" transform="translate(605.2877999009756, 479) rotate(0)">2026-06-21</text><text x="0" y="0" fill="#131300" font-size="14" dominant-baseline="text-before-edge" text-anchor="middle" transform="translate(624.8873418610672, 479) rotate(0)">2026-06-22</text><text x="0" y="0" fill="#131300" font-size="14" dominant-baseline="text-before-edge" text-anchor="middle" transform="translate(644.4868838211586, 479) rotate(0)">2026-06-23</text><text x="0" y="0" fill="#131300" font-size="14" dominant-baseline="text-before-edge" text-anchor="middle" transform="translate(664.08642578125, 479) rotate(0)">2026-06-24</text></g><g class="ticks"><path d="M 95.69970893859863,469 L 95.69970893859863,474" fill="none" stroke="#131300" stroke-width="2"/><path d="M 115.29925089869006,469 L 115.29925089869006,474" fill="none" stroke="#131300" stroke-width="2"/><path d="M 134.8987928587815,469 L 134.8987928587815,474" fill="none" stroke="#131300" stroke-width="2"/><path d="M 154.4983348188729,469 L 154.4983348188729,474" fill="none" stroke="#131300" stroke-width="2"/><path d="M 174.09787677896435,469 L 174.09787677896435,474" fill="none" stroke="#131300" stroke-width="2"/><path d="M 193.69741873905576,469 L 193.69741873905576,474" fill="none" stroke="#131300" stroke-width="2"/><path d="M 213.29696069914718,469 L 213.29696069914718,474" fill="none" stroke="#131300" stroke-width="2"/><path d="M 232.89650265923862,469 L 232.89650265923862,474" fill="none" stroke="#131300" stroke-width="2"/><path d="M 252.49604461933004,469 L 252.49604461933004,474" fill="none" stroke="#131300" stroke-width="2"/><path d="M 272.0955865794215,469 L 272.0955865794215,474" fill="none" stroke="#131300" stroke-width="2"/><path d="M 291.6951285395129,469 L 291.6951285395129,474" fill="none" stroke="#131300" stroke-width="2"/><path d="M 311.2946704996043,469 L 311.2946704996043,474" fill="none" stroke="#131300" stroke-width="2"/><path d="M 330.8942124596957,469 L 330.8942124596957,474" fill="none" stroke="#131300" stroke-width="2"/><path d="M 350.49375441978714,469 L 350.49375441978714,474" fill="none" stroke="#131300" stroke-width="2"/><path d="M 370.0932963798786,469 L 370.0932963798786,474" fill="none" stroke="#131300" stroke-width="2"/><path d="M 389.69283833997,469 L 389.69283833997,474" fill="none" stroke="#131300" stroke-width="2"/><path d="M 409.29238030006144,469 L 409.29238030006144,474" fill="none" stroke="#131300" stroke-width="2"/><path d="M 428.89192226015285,469 L 428.89192226015285,474" fill="none" stroke="#131300" stroke-width="2"/><path d="M 448.49146422024427,469 L 448.49146422024427,474" fill="none" stroke="#131300" stroke-width="2"/><path d="M 468.09100618033574,469 L 468.09100618033574,474" fill="none" stroke="#131300" stroke-width="2"/><path d="M 487.69054814042715,469 L 487.69054814042715,474" fill="none" stroke="#131300" stroke-width="2"/><path d="M 507.29009010051857,469 L 507.29009010051857,474" fill="none" stroke="#131300" stroke-width="2"/><path d="M 526.88963206061,469 L 526.88963206061,474" fill="none" stroke="#131300" stroke-width="2"/><path d="M 546.4891740207014,469 L 546.4891740207014,474" fill="none" stroke="#131300" stroke-width="2"/><path d="M 566.0887159807928,469 L 566.0887159807928,474" fill="none" stroke="#131300" stroke-width="2"/><path d="M 585.6882579408843,469 L 585.6882579408843,474" fill="none" stroke="#131300" stroke-width="2"/><path d="M 605.2877999009756,469 L 605.2877999009756,474" fill="none" stroke="#131300" stroke-width="2"/><path d="M 624.8873418610672,469 L 624.8873418610672,474" fill="none" stroke="#131300" stroke-width="2"/><path d="M 644.4868838211586,469 L 644.4868838211586,474" fill="none" stroke="#131300" stroke-width="2"/><path d="M 664.08642578125,469 L 664.08642578125,474" fill="none" stroke="#131300" stroke-width="2"/></g></g><g class="left-axis"><g class="axisl-line"><path d="M 58.78613471984863,43 L 58.78613471984863,467" fill="none" stroke="#131300" stroke-width="2"/></g><g class="label"><text x="0" y="0" fill="#131300" font-size="14" dominant-baseline="middle" text-anchor="end" transform="translate(47.78613471984863, 51) rotate(0)">45</text><text x="0" y="0" fill="#131300" font-size="14" dominant-baseline="middle" text-anchor="end" transform="translate(47.78613471984863, 96.33333333333334) rotate(0)">40</text><text x="0" y="0" fill="#131300" font-size="14" dominant-baseline="middle" text-anchor="end" transform="translate(47.78613471984863, 141.66666666666666) rotate(0)">35</text><text x="0" y="0" fill="#131300" font-size="14" dominant-baseline="middle" text-anchor="end" transform="translate(47.78613471984863, 187.00000000000003) rotate(0)">30</text><text x="0" y="0" fill="#131300" font-size="14" dominant-baseline="middle" text-anchor="end" transform="translate(47.78613471984863, 232.33333333333334) rotate(0)">25</text><text x="0" y="0" fill="#131300" font-size="14" dominant-baseline="middle" text-anchor="end" transform="translate(47.78613471984863, 277.6666666666667) rotate(0)">20</text><text x="0" y="0" fill="#131300" font-size="14" dominant-baseline="middle" text-anchor="end" transform="translate(47.78613471984863, 323.00000000000006) rotate(0)">15</text><text x="0" y="0" fill="#131300" font-size="14" dominant-baseline="middle" text-anchor="end" transform="translate(47.78613471984863, 368.3333333333333) rotate(0)">10</text><text x="0" y="0" fill="#131300" font-size="14" dominant-baseline="middle" text-anchor="end" transform="translate(47.78613471984863, 413.6666666666667) rotate(0)">5</text><text x="0" y="0" fill="#131300" font-size="14" dominant-baseline="middle" text-anchor="end" transform="translate(47.78613471984863, 459) rotate(0)">0</text></g><g class="ticks"><path d="M 57.78613471984863,51 L 52.78613471984863,51" fill="none" stroke="#131300" stroke-width="2"/><path d="M 57.78613471984863,96.33333333333334 L 52.78613471984863,96.33333333333334" fill="none" stroke="#131300" stroke-width="2"/><path d="M 57.78613471984863,141.66666666666666 L 52.78613471984863,141.66666666666666" fill="none" stroke="#131300" stroke-width="2"/><path d="M 57.78613471984863,187.00000000000003 L 52.78613471984863,187.00000000000003" fill="none" stroke="#131300" stroke-width="2"/><path d="M 57.78613471984863,232.33333333333334 L 52.78613471984863,232.33333333333334" fill="none" stroke="#131300" stroke-width="2"/><path d="M 57.78613471984863,277.6666666666667 L 52.78613471984863,277.6666666666667" fill="none" stroke="#131300" stroke-width="2"/><path d="M 57.78613471984863,323.00000000000006 L 52.78613471984863,323.00000000000006" fill="none" stroke="#131300" stroke-width="2"/><path d="M 57.78613471984863,368.3333333333333 L 52.78613471984863,368.3333333333333" fill="none" stroke="#131300" stroke-width="2"/><path d="M 57.78613471984863,413.6666666666667 L 52.78613471984863,413.6666666666667" fill="none" stroke="#131300" stroke-width="2"/><path d="M 57.78613471984863,459 L 52.78613471984863,459" fill="none" stroke="#131300" stroke-width="2"/></g><g class="title"><text x="0" y="0" fill="#131300" font-size="16" dominant-baseline="text-before-edge" text-anchor="middle" transform="translate(5, 255) rotate(270)">Count</text></g></g></g><g class="mermaid-tmp-group"/></svg>