<svg id="my-svg" width="100%" xmlns="http://www.w3.org/2000/svg" xmlns:xlink="http://www.w3.org/1999/xlink" style="max-width: 700px; background-color: white;" viewBox="0 0 700 500" role="graphics-document document" aria-roledescription="xychart"><style>#my-svg{font-family:"trebuchet ms",verdana,arial,sans-serif;font-size:16px;fill:#333;}@keyframes edge-animation-frame{from{stroke-dashoffset:0;}}@keyframes dash{to{stroke-dashoffset:0;}}#my-svg .edge-animation-slow{stroke-dasharray:9,5!important;stroke-dashoffset:900;animation:dash 50s linear infinite;stroke-linecap:round;}#my-svg .edge-animation-fast{stroke-dasharray:9,5!important;stroke-dashoffset:900;animation:dash 20s linear infinite;stroke-linecap:round;}#my-svg .error-icon{fill:#552222;}#my-svg .error-text{fill:#552222;stroke:#552222;}#my-svg .edge-thickness-normal{stroke-width:1px;}#my-svg .edge-thickness-thick{stroke-width:3.5px;}#my-svg .edge-pattern-solid{stroke-dasharray:0;}#my-svg .edge-thickness-invisible{stroke-width:0;fill:none;}#my-svg .edge-pattern-dashed{stroke-dasharray:3;}#my-svg .edge-pattern-dotted{stroke-dasharray:2;}#my-svg .marker{fill:#333333;stroke:#333333;}#my-svg .marker.cross{stroke:#333333;}#my-svg svg{font-family:"trebuchet ms",verdana,arial,sans-serif;font-size:16px;}#my-svg p{margin:0;}#my-svg .node .neo-node{stroke:#9370DB;}#my-svg [data-look="neo"].node rect,#my-svg [data-look="neo"].cluster rect,#my-svg [data-look="neo"].node polygon{stroke:#9370DB;filter:drop-shadow(1px 2px 2px rgba(185, 185, 185, 1));}#my-svg [data-look="neo"].node path{stroke:#9370DB;stroke-width:1px;}#my-svg [data-look="neo"].node .outer-path{filter:drop-shadow(1px 2px 2px rgba(185, 185, 185, 1));}#my-svg [data-look="neo"].node .neo-line path{stroke:#9370DB;filter:none;}#my-svg [data-look="neo"].node circle{stroke:#9370DB;filter:drop-shadow(1px 2px 2px rgba(185, 185, 185, 1));}#my-svg [data-look="neo"].node circle .state-start{fill:#000000;}#my-svg [data-look="neo"].icon-shape .icon{fill:#9370DB;filter:drop-shadow(1px 2px 2px rgba(185, 185, 185, 1));}#my-svg [data-look="neo"].icon-shape .icon-neo path{stroke:#9370DB;filter:drop-shadow(1px 2px 2px rgba(185, 185, 185, 1));}#my-svg :root{--mermaid-font-family:"trebuchet ms",verdana,arial,sans-serif;}</style><g/><g class="main"><rect width="700" height="500" class="background" fill="white"/><g class="chart-title"><text x="0" y="0" fill="#131300" font-size="20" dominant-baseline="middle" text-anchor="middle" transform="translate(350, 21.5) rotate(0)">GC News — TYPE_EN per day (last 30 days)</text></g><g class="plot"><g class="bar-plot-0"><rect x="86.70025258858999" y="441.63829787234044" width="17.998912700017293" height="25.361702127659555" fill="#ECECFF" stroke="#ECECFF" stroke-width="0"/><rect x="106.29979454868142" y="450.3191489361702" width="17.998912700017293" height="16.680851063829778" fill="#ECECFF" stroke="#ECECFF" stroke-width="0"/><rect x="125.89933650877285" y="459" width="17.998912700017293" height="8" fill="#ECECFF" stroke="#ECECFF" stroke-width="0"/><rect x="145.49887846886426" y="432.95744680851067" width="17.998912700017293" height="34.04255319148933" fill="#ECECFF" stroke="#ECECFF" stroke-width="0"/><rect x="165.0984204289557" y="459" width="17.998912700017293" height="8" fill="#ECECFF" stroke="#ECECFF" stroke-width="0"/><rect x="184.69796238904712" y="459" width="17.998912700017293" height="8" fill="#ECECFF" stroke="#ECECFF" stroke-width="0"/><rect x="204.29750434913853" y="432.95744680851067" width="17.998912700017293" height="34.04255319148933" fill="#ECECFF" stroke="#ECECFF" stroke-width="0"/><rect x="223.89704630922998" y="450.3191489361702" width="17.998912700017293" height="16.680851063829778" fill="#ECECFF" stroke="#ECECFF" stroke-width="0"/><rect x="243.4965882693214" y="441.63829787234044" width="17.998912700017293" height="25.361702127659555" fill="#ECECFF" stroke="#ECECFF" stroke-width="0"/><rect x="263.09613022941284" y="450.3191489361702" width="17.998912700017293" height="16.680851063829778" fill="#ECECFF" stroke="#ECECFF" stroke-width="0"/><rect x="282.69567218950425" y="415.59574468085106" width="17.998912700017293" height="51.404255319148945" fill="#ECECFF" stroke="#ECECFF" stroke-width="0"/><rect x="302.29521414959567" y="459" width="17.998912700017293" height="8" fill="#ECECFF" stroke="#ECECFF" stroke-width="0"/><rect x="321.8947561096871" y="459" width="17.998912700017293" height="8" fill="#ECECFF" stroke="#ECECFF" stroke-width="0"/><rect x="341.4942980697785" y="450.3191489361702" width="17.998912700017293" height="16.680851063829778" fill="#ECECFF" stroke="#ECECFF" stroke-width="0"/><rect x="361.09384002986997" y="450.3191489361702" width="17.998912700017293" height="16.680851063829778" fill="#ECECFF" stroke="#ECECFF" stroke-width="0"/><rect x="380.6933819899614" y="459" width="17.998912700017293" height="8" fill="#ECECFF" stroke="#ECECFF" stroke-width="0"/><rect x="400.2929239500528" y="450.3191489361702" width="17.998912700017293" height="16.680851063829778" fill="#ECECFF" stroke="#ECECFF" stroke-width="0"/><rect x="419.8924659101442" y="450.3191489361702" width="17.998912700017293" height="16.680851063829778" fill="#ECECFF" stroke="#ECECFF" stroke-width="0"/><rect x="439.4920078702356" y="459" width="17.998912700017293" height="8" fill="#ECECFF" stroke="#ECECFF" stroke-width="0"/><rect x="459.0915498303271" y="459" width="17.998912700017293" height="8" fill="#ECECFF" stroke="#ECECFF" stroke-width="0"/><rect x="478.6910917904185" y="441.63829787234044" width="17.998912700017293" height="25.361702127659555" fill="#ECECFF" stroke="#ECECFF" stroke-width="0"/><rect x="498.2906337505099" y="450.3191489361702" width="17.998912700017293" height="16.680851063829778" fill="#ECECFF" stroke="#ECECFF" stroke-width="0"/><rect x="517.8901757106013" y="441.63829787234044" width="17.998912700017293" height="25.361702127659555" fill="#ECECFF" stroke="#ECECFF" stroke-width="0"/><rect x="537.4897176706927" y="459" width="17.998912700017293" height="8" fill="#ECECFF" stroke="#ECECFF" stroke-width="0"/><rect x="557.0892596307841" y="415.59574468085106" width="17.998912700017293" height="51.404255319148945" fill="#ECECFF" stroke="#ECECFF" stroke-width="0"/><rect x="576.6888015908756" y="459" width="17.998912700017293" height="8" fill="#ECECFF" stroke="#ECECFF" stroke-width="0"/><rect x="596.2883435509669" y="459" width="17.998912700017293" height="8" fill="#ECECFF" stroke="#ECECFF" stroke-width="0"/><rect x="615.8878855110585" y="441.63829787234044" width="17.998912700017293" height="25.361702127659555" fill="#ECECFF" stroke="#ECECFF" stroke-width="0"/><rect x="635.4874274711499" y="406.9148936170213" width="17.998912700017293" height="60.08510638297872" fill="#ECECFF" stroke="#ECECFF" stroke-width="0"/><rect x="655.0869694312413" y="441.63829787234044" width="17.998912700017293" height="25.361702127659555" fill="#ECECFF" stroke="#ECECFF" stroke-width="0"/></g><g class="bar-plot-1"><rect x="86.70025258858999" y="398.2340425531915" width="17.998912700017293" height="68.7659574468085" fill="#8493A6" stroke="#8493A6" stroke-width="0"/><rect x="106.29979454868142" y="398.2340425531915" width="17.998912700017293" height="68.7659574468085" fill="#8493A6" stroke="#8493A6" stroke-width="0"/><rect x="125.89933650877285" y="346.1489361702127" width="17.998912700017293" height="120.85106382978728" fill="#8493A6" stroke="#8493A6" stroke-width="0"/><rect x="145.49887846886426" y="406.9148936170213" width="17.998912700017293" height="60.08510638297872" fill="#8493A6" stroke="#8493A6" stroke-width="0"/><rect x="165.0984204289557" y="459" width="17.998912700017293" height="8" fill="#8493A6" stroke="#8493A6" stroke-width="0"/><rect x="184.69796238904712" y="441.63829787234044" width="17.998912700017293" height="25.361702127659555" fill="#8493A6" stroke="#8493A6" stroke-width="0"/><rect x="204.29750434913853" y="406.9148936170213" width="17.998912700017293" height="60.08510638297872" fill="#8493A6" stroke="#8493A6" stroke-width="0"/><rect x="223.89704630922998" y="415.59574468085106" width="17.998912700017293" height="51.404255319148945" fill="#8493A6" stroke="#8493A6" stroke-width="0"/><rect x="243.4965882693214" y="372.1914893617021" width="17.998912700017293" height="94.80851063829789" fill="#8493A6" stroke="#8493A6" stroke-width="0"/><rect x="263.09613022941284" y="346.1489361702127" width="17.998912700017293" height="120.85106382978728" fill="#8493A6" stroke="#8493A6" stroke-width="0"/><rect x="282.69567218950425" y="406.9148936170213" width="17.998912700017293" height="60.08510638297872" fill="#8493A6" stroke="#8493A6" stroke-width="0"/><rect x="302.29521414959567" y="459" width="17.998912700017293" height="8" fill="#8493A6" stroke="#8493A6" stroke-width="0"/><rect x="321.8947561096871" y="450.3191489361702" width="17.998912700017293" height="16.680851063829778" fill="#8493A6" stroke="#8493A6" stroke-width="0"/><rect x="341.4942980697785" y="450.3191489361702" width="17.998912700017293" height="16.680851063829778" fill="#8493A6" stroke="#8493A6" stroke-width="0"/><rect x="361.09384002986997" y="398.2340425531915" width="17.998912700017293" height="68.7659574468085" fill="#8493A6" stroke="#8493A6" stroke-width="0"/><rect x="380.6933819899614" y="424.27659574468083" width="17.998912700017293" height="42.72340425531917" fill="#8493A6" stroke="#8493A6" stroke-width="0"/><rect x="400.2929239500528" y="346.1489361702127" width="17.998912700017293" height="120.85106382978728" fill="#8493A6" stroke="#8493A6" stroke-width="0"/><rect x="419.8924659101442" y="320.1063829787234" width="17.998912700017293" height="146.8936170212766" fill="#8493A6" stroke="#8493A6" stroke-width="0"/><rect x="439.4920078702356" y="459" width="17.998912700017293" height="8" fill="#8493A6" stroke="#8493A6" stroke-width="0"/><rect x="459.0915498303271" y="450.3191489361702" width="17.998912700017293" height="16.680851063829778" fill="#8493A6" stroke="#8493A6" stroke-width="0"/><rect x="478.6910917904185" y="424.27659574468083" width="17.998912700017293" height="42.72340425531917" fill="#8493A6" stroke="#8493A6" stroke-width="0"/><rect x="498.2906337505099" y="406.9148936170213" width="17.998912700017293" height="60.08510638297872" fill="#8493A6" stroke="#8493A6" stroke-width="0"/><rect x="517.8901757106013" y="398.2340425531915" width="17.998912700017293" height="68.7659574468085" fill="#8493A6" stroke="#8493A6" stroke-width="0"/><rect x="537.4897176706927" y="372.1914893617021" width="17.998912700017293" height="94.80851063829789" fill="#8493A6" stroke="#8493A6" stroke-width="0"/><rect x="557.0892596307841" y="276.70212765957444" width="17.998912700017293" height="190.29787234042556" fill="#8493A6" stroke="#8493A6" stroke-width="0"/><rect x="576.6888015908756" y="459" width="17.998912700017293" height="8" fill="#8493A6" stroke="#8493A6" stroke-width="0"/><rect x="596.2883435509669" y="459" width="17.998912700017293" height="8" fill="#8493A6" stroke="#8493A6" stroke-width="0"/><rect x="615.8878855110585" y="363.51063829787233" width="17.998912700017293" height="103.48936170212767" fill="#8493A6" stroke="#8493A6" stroke-width="0"/><rect x="635.4874274711499" y="302.74468085106383" width="17.998912700017293" height="164.25531914893617" fill="#8493A6" stroke="#8493A6" stroke-width="0"/><rect x="655.0869694312413" y="354.82978723404256" width="17.998912700017293" height="112.17021276595744" fill="#8493A6" stroke="#8493A6" stroke-width="0"/></g><g class="bar-plot-2"><rect x="86.70025258858999" y="320.1063829787234" width="17.998912700017293" height="146.8936170212766" fill="#FFC3A0" stroke="#FFC3A0" stroke-width="0"/><rect x="106.29979454868142" y="311.4255319148936" width="17.998912700017293" height="155.5744680851064" fill="#FFC3A0" stroke="#FFC3A0" stroke-width="0"/><rect x="125.89933650877285" y="250.6595744680851" width="17.998912700017293" height="216.3404255319149" fill="#FFC3A0" stroke="#FFC3A0" stroke-width="0"/><rect x="145.49887846886426" y="250.6595744680851" width="17.998912700017293" height="216.3404255319149" fill="#FFC3A0" stroke="#FFC3A0" stroke-width="0"/><rect x="165.0984204289557" y="450.3191489361702" width="17.998912700017293" height="16.680851063829778" fill="#FFC3A0" stroke="#FFC3A0" stroke-width="0"/><rect x="184.69796238904712" y="441.63829787234044" width="17.998912700017293" height="25.361702127659555" fill="#FFC3A0" stroke="#FFC3A0" stroke-width="0"/><rect x="204.29750434913853" y="328.78723404255317" width="17.998912700017293" height="138.21276595744683" fill="#FFC3A0" stroke="#FFC3A0" stroke-width="0"/><rect x="223.89704630922998" y="276.70212765957444" width="17.998912700017293" height="190.29787234042556" fill="#FFC3A0" stroke="#FFC3A0" stroke-width="0"/><rect x="243.4965882693214" y="250.6595744680851" width="17.998912700017293" height="216.3404255319149" fill="#FFC3A0" stroke="#FFC3A0" stroke-width="0"/><rect x="263.09613022941284" y="268.02127659574467" width="17.998912700017293" height="198.97872340425533" fill="#FFC3A0" stroke="#FFC3A0" stroke-width="0"/><rect x="282.69567218950425" y="103.08510638297871" width="17.998912700017293" height="363.9148936170213" fill="#FFC3A0" stroke="#FFC3A0" stroke-width="0"/><rect x="302.29521414959567" y="450.3191489361702" width="17.998912700017293" height="16.680851063829778" fill="#FFC3A0" stroke="#FFC3A0" stroke-width="0"/><rect x="321.8947561096871" y="450.3191489361702" width="17.998912700017293" height="16.680851063829778" fill="#FFC3A0" stroke="#FFC3A0" stroke-width="0"/><rect x="341.4942980697785" y="389.55319148936167" width="17.998912700017293" height="77.44680851063833" fill="#FFC3A0" stroke="#FFC3A0" stroke-width="0"/><rect x="361.09384002986997" y="363.51063829787233" width="17.998912700017293" height="103.48936170212767" fill="#FFC3A0" stroke="#FFC3A0" stroke-width="0"/><rect x="380.6933819899614" y="354.82978723404256" width="17.998912700017293" height="112.17021276595744" fill="#FFC3A0" stroke="#FFC3A0" stroke-width="0"/><rect x="400.2929239500528" y="294.063829787234" width="17.998912700017293" height="172.936170212766" fill="#FFC3A0" stroke="#FFC3A0" stroke-width="0"/><rect x="419.8924659101442" y="146.48936170212767" width="17.998912700017293" height="320.51063829787233" fill="#FFC3A0" stroke="#FFC3A0" stroke-width="0"/><rect x="439.4920078702356" y="415.59574468085106" width="17.998912700017293" height="51.404255319148945" fill="#FFC3A0" stroke="#FFC3A0" stroke-width="0"/><rect x="459.0915498303271" y="441.63829787234044" width="17.998912700017293" height="25.361702127659555" fill="#FFC3A0" stroke="#FFC3A0" stroke-width="0"/><rect x="478.6910917904185" y="311.4255319148936" width="17.998912700017293" height="155.5744680851064" fill="#FFC3A0" stroke="#FFC3A0" stroke-width="0"/><rect x="498.2906337505099" y="372.1914893617021" width="17.998912700017293" height="94.80851063829789" fill="#FFC3A0" stroke="#FFC3A0" stroke-width="0"/><rect x="517.8901757106013" y="302.74468085106383" width="17.998912700017293" height="164.25531914893617" fill="#FFC3A0" stroke="#FFC3A0" stroke-width="0"/><rect x="537.4897176706927" y="259.3404255319149" width="17.998912700017293" height="207.6595744680851" fill="#FFC3A0" stroke="#FFC3A0" stroke-width="0"/><rect x="557.0892596307841" y="137.80851063829786" width="17.998912700017293" height="329.1914893617021" fill="#FFC3A0" stroke="#FFC3A0" stroke-width="0"/><rect x="576.6888015908756" y="459" width="17.998912700017293" height="8" fill="#FFC3A0" stroke="#FFC3A0" stroke-width="0"/><rect x="596.2883435509669" y="450.3191489361702" width="17.998912700017293" height="16.680851063829778" fill="#FFC3A0" stroke="#FFC3A0" stroke-width="0"/><rect x="615.8878855110585" y="172.531914893617" width="17.998912700017293" height="294.468085106383" fill="#FFC3A0" stroke="#FFC3A0" stroke-width="0"/><rect x="635.4874274711499" y="94.40425531914894" width="17.998912700017293" height="372.59574468085106" fill="#FFC3A0" stroke="#FFC3A0" stroke-width="0"/><rect x="655.0869694312413" y="189.8936170212766" width="17.998912700017293" height="277.1063829787234" fill="#FFC3A0" stroke="#FFC3A0" stroke-width="0"/></g><g class="bar-plot-3"><rect x="86.70025258858999" y="320.1063829787234" width="17.998912700017293" height="146.8936170212766" fill="#DCDDE1" stroke="#DCDDE1" stroke-width="0"/><rect x="106.29979454868142" y="311.4255319148936" width="17.998912700017293" height="155.5744680851064" fill="#DCDDE1" stroke="#DCDDE1" stroke-width="0"/><rect x="125.89933650877285" y="250.6595744680851" width="17.998912700017293" height="216.3404255319149" fill="#DCDDE1" stroke="#DCDDE1" stroke-width="0"/><rect x="145.49887846886426" y="250.6595744680851" width="17.998912700017293" height="216.3404255319149" fill="#DCDDE1" stroke="#DCDDE1" stroke-width="0"/><rect x="165.0984204289557" y="450.3191489361702" width="17.998912700017293" height="16.680851063829778" fill="#DCDDE1" stroke="#DCDDE1" stroke-width="0"/><rect x="184.69796238904712" y="441.63829787234044" width="17.998912700017293" height="25.361702127659555" fill="#DCDDE1" stroke="#DCDDE1" stroke-width="0"/><rect x="204.29750434913853" y="328.78723404255317" width="17.998912700017293" height="138.21276595744683" fill="#DCDDE1" stroke="#DCDDE1" stroke-width="0"/><rect x="223.89704630922998" y="268.02127659574467" width="17.998912700017293" height="198.97872340425533" fill="#DCDDE1" stroke="#DCDDE1" stroke-width="0"/><rect x="243.4965882693214" y="250.6595744680851" width="17.998912700017293" height="216.3404255319149" fill="#DCDDE1" stroke="#DCDDE1" stroke-width="0"/><rect x="263.09613022941284" y="268.02127659574467" width="17.998912700017293" height="198.97872340425533" fill="#DCDDE1" stroke="#DCDDE1" stroke-width="0"/><rect x="282.69567218950425" y="94.40425531914894" width="17.998912700017293" height="372.59574468085106" fill="#DCDDE1" stroke="#DCDDE1" stroke-width="0"/><rect x="302.29521414959567" y="441.63829787234044" width="17.998912700017293" height="25.361702127659555" fill="#DCDDE1" stroke="#DCDDE1" stroke-width="0"/><rect x="321.8947561096871" y="450.3191489361702" width="17.998912700017293" height="16.680851063829778" fill="#DCDDE1" stroke="#DCDDE1" stroke-width="0"/><rect x="341.4942980697785" y="389.55319148936167" width="17.998912700017293" height="77.44680851063833" fill="#DCDDE1" stroke="#DCDDE1" stroke-width="0"/><rect x="361.09384002986997" y="354.82978723404256" width="17.998912700017293" height="112.17021276595744" fill="#DCDDE1" stroke="#DCDDE1" stroke-width="0"/><rect x="380.6933819899614" y="354.82978723404256" width="17.998912700017293" height="112.17021276595744" fill="#DCDDE1" stroke="#DCDDE1" stroke-width="0"/><rect x="400.2929239500528" y="294.063829787234" width="17.998912700017293" height="172.936170212766" fill="#DCDDE1" stroke="#DCDDE1" stroke-width="0"/><rect x="419.8924659101442" y="146.48936170212767" width="17.998912700017293" height="320.51063829787233" fill="#DCDDE1" stroke="#DCDDE1" stroke-width="0"/><rect x="439.4920078702356" y="415.59574468085106" width="17.998912700017293" height="51.404255319148945" fill="#DCDDE1" stroke="#DCDDE1" stroke-width="0"/><rect x="459.0915498303271" y="441.63829787234044" width="17.998912700017293" height="25.361702127659555" fill="#DCDDE1" stroke="#DCDDE1" stroke-width="0"/><rect x="478.6910917904185" y="311.4255319148936" width="17.998912700017293" height="155.5744680851064" fill="#DCDDE1" stroke="#DCDDE1" stroke-width="0"/><rect x="498.2906337505099" y="363.51063829787233" width="17.998912700017293" height="103.48936170212767" fill="#DCDDE1" stroke="#DCDDE1" stroke-width="0"/><rect x="517.8901757106013" y="294.063829787234" width="17.998912700017293" height="172.936170212766" fill="#DCDDE1" stroke="#DCDDE1" stroke-width="0"/><rect x="537.4897176706927" y="259.3404255319149" width="17.998912700017293" height="207.6595744680851" fill="#DCDDE1" stroke="#DCDDE1" stroke-width="0"/><rect x="557.0892596307841" y="137.80851063829786" width="17.998912700017293" height="329.1914893617021" fill="#DCDDE1" stroke="#DCDDE1" stroke-width="0"/><rect x="576.6888015908756" y="459" width="17.998912700017293" height="8" fill="#DCDDE1" stroke="#DCDDE1" stroke-width="0"/><rect x="596.2883435509669" y="450.3191489361702" width="17.998912700017293" height="16.680851063829778" fill="#DCDDE1" stroke="#DCDDE1" stroke-width="0"/><rect x="615.8878855110585" y="163.85106382978722" width="17.998912700017293" height="303.1489361702128" fill="#DCDDE1" stroke="#DCDDE1" stroke-width="0"/><rect x="635.4874274711499" y="94.40425531914894" width="17.998912700017293" height="372.59574468085106" fill="#DCDDE1" stroke="#DCDDE1" stroke-width="0"/><rect x="655.0869694312413" y="163.85106382978722" width="17.998912700017293" height="303.1489361702128" fill="#DCDDE1" stroke="#DCDDE1" stroke-width="0"/></g><g class="bar-plot-4"><rect x="86.70025258858999" y="302.74468085106383" width="17.998912700017293" height="164.25531914893617" fill="#B8E994" stroke="#B8E994" stroke-width="0"/><rect x="106.29979454868142" y="311.4255319148936" width="17.998912700017293" height="155.5744680851064" fill="#B8E994" stroke="#B8E994" stroke-width="0"/><rect x="125.89933650877285" y="250.6595744680851" width="17.998912700017293" height="216.3404255319149" fill="#B8E994" stroke="#B8E994" stroke-width="0"/><rect x="145.49887846886426" y="250.6595744680851" width="17.998912700017293" height="216.3404255319149" fill="#B8E994" stroke="#B8E994" stroke-width="0"/><rect x="165.0984204289557" y="450.3191489361702" width="17.998912700017293" height="16.680851063829778" fill="#B8E994" stroke="#B8E994" stroke-width="0"/><rect x="184.69796238904712" y="441.63829787234044" width="17.998912700017293" height="25.361702127659555" fill="#B8E994" stroke="#B8E994" stroke-width="0"/><rect x="204.29750434913853" y="328.78723404255317" width="17.998912700017293" height="138.21276595744683" fill="#B8E994" stroke="#B8E994" stroke-width="0"/><rect x="223.89704630922998" y="268.02127659574467" width="17.998912700017293" height="198.97872340425533" fill="#B8E994" stroke="#B8E994" stroke-width="0"/><rect x="243.4965882693214" y="250.6595744680851" width="17.998912700017293" height="216.3404255319149" fill="#B8E994" stroke="#B8E994" stroke-width="0"/><rect x="263.09613022941284" y="259.3404255319149" width="17.998912700017293" height="207.6595744680851" fill="#B8E994" stroke="#B8E994" stroke-width="0"/><rect x="282.69567218950425" y="85.72340425531915" width="17.998912700017293" height="381.27659574468083" fill="#B8E994" stroke="#B8E994" stroke-width="0"/><rect x="302.29521414959567" y="441.63829787234044" width="17.998912700017293" height="25.361702127659555" fill="#B8E994" stroke="#B8E994" stroke-width="0"/><rect x="321.8947561096871" y="450.3191489361702" width="17.998912700017293" height="16.680851063829778" fill="#B8E994" stroke="#B8E994" stroke-width="0"/><rect x="341.4942980697785" y="389.55319148936167" width="17.998912700017293" height="77.44680851063833" fill="#B8E994" stroke="#B8E994" stroke-width="0"/><rect x="361.09384002986997" y="337.46808510638294" width="17.998912700017293" height="129.53191489361706" fill="#B8E994" stroke="#B8E994" stroke-width="0"/><rect x="380.6933819899614" y="337.46808510638294" width="17.998912700017293" height="129.53191489361706" fill="#B8E994" stroke="#B8E994" stroke-width="0"/><rect x="400.2929239500528" y="285.3829787234043" width="17.998912700017293" height="181.61702127659572" fill="#B8E994" stroke="#B8E994" stroke-width="0"/><rect x="419.8924659101442" y="137.80851063829786" width="17.998912700017293" height="329.1914893617021" fill="#B8E994" stroke="#B8E994" stroke-width="0"/><rect x="439.4920078702356" y="415.59574468085106" width="17.998912700017293" height="51.404255319148945" fill="#B8E994" stroke="#B8E994" stroke-width="0"/><rect x="459.0915498303271" y="441.63829787234044" width="17.998912700017293" height="25.361702127659555" fill="#B8E994" stroke="#B8E994" stroke-width="0"/><rect x="478.6910917904185" y="302.74468085106383" width="17.998912700017293" height="164.25531914893617" fill="#B8E994" stroke="#B8E994" stroke-width="0"/><rect x="498.2906337505099" y="354.82978723404256" width="17.998912700017293" height="112.17021276595744" fill="#B8E994" stroke="#B8E994" stroke-width="0"/><rect x="517.8901757106013" y="285.3829787234043" width="17.998912700017293" height="181.61702127659572" fill="#B8E994" stroke="#B8E994" stroke-width="0"/><rect x="537.4897176706927" y="259.3404255319149" width="17.998912700017293" height="207.6595744680851" fill="#B8E994" stroke="#B8E994" stroke-width="0"/><rect x="557.0892596307841" y="129.1276595744681" width="17.998912700017293" height="337.8723404255319" fill="#B8E994" stroke="#B8E994" stroke-width="0"/><rect x="576.6888015908756" y="459" width="17.998912700017293" height="8" fill="#B8E994" stroke="#B8E994" stroke-width="0"/><rect x="596.2883435509669" y="450.3191489361702" width="17.998912700017293" height="16.680851063829778" fill="#B8E994" stroke="#B8E994" stroke-width="0"/><rect x="615.8878855110585" y="163.85106382978722" width="17.998912700017293" height="303.1489361702128" fill="#B8E994" stroke="#B8E994" stroke-width="0"/><rect x="635.4874274711499" y="85.72340425531915" width="17.998912700017293" height="381.27659574468083" fill="#B8E994" stroke="#B8E994" stroke-width="0"/><rect x="655.0869694312413" y="163.85106382978722" width="17.998912700017293" height="303.1489361702128" fill="#B8E994" stroke="#B8E994" stroke-width="0"/></g><g class="bar-plot-5"><rect x="86.70025258858999" y="268.02127659574467" width="17.998912700017293" height="198.97872340425533" fill="#D1A36F" stroke="#D1A36F" stroke-width="0"/><rect x="106.29979454868142" y="302.74468085106383" width="17.998912700017293" height="164.25531914893617" fill="#D1A36F" stroke="#D1A36F" stroke-width="0"/><rect x="125.89933650877285" y="224.61702127659572" width="17.998912700017293" height="242.38297872340428" fill="#D1A36F" stroke="#D1A36F" stroke-width="0"/><rect x="145.49887846886426" y="233.29787234042553" width="17.998912700017293" height="233.70212765957447" fill="#D1A36F" stroke="#D1A36F" stroke-width="0"/><rect x="165.0984204289557" y="450.3191489361702" width="17.998912700017293" height="16.680851063829778" fill="#D1A36F" stroke="#D1A36F" stroke-width="0"/><rect x="184.69796238904712" y="441.63829787234044" width="17.998912700017293" height="25.361702127659555" fill="#D1A36F" stroke="#D1A36F" stroke-width="0"/><rect x="204.29750434913853" y="302.74468085106383" width="17.998912700017293" height="164.25531914893617" fill="#D1A36F" stroke="#D1A36F" stroke-width="0"/><rect x="223.89704630922998" y="268.02127659574467" width="17.998912700017293" height="198.97872340425533" fill="#D1A36F" stroke="#D1A36F" stroke-width="0"/><rect x="243.4965882693214" y="241.97872340425533" width="17.998912700017293" height="225.02127659574467" fill="#D1A36F" stroke="#D1A36F" stroke-width="0"/><rect x="263.09613022941284" y="241.97872340425533" width="17.998912700017293" height="225.02127659574467" fill="#D1A36F" stroke="#D1A36F" stroke-width="0"/><rect x="282.69567218950425" y="85.72340425531915" width="17.998912700017293" height="381.27659574468083" fill="#D1A36F" stroke="#D1A36F" stroke-width="0"/><rect x="302.29521414959567" y="432.95744680851067" width="17.998912700017293" height="34.04255319148933" fill="#D1A36F" stroke="#D1A36F" stroke-width="0"/><rect x="321.8947561096871" y="441.63829787234044" width="17.998912700017293" height="25.361702127659555" fill="#D1A36F" stroke="#D1A36F" stroke-width="0"/><rect x="341.4942980697785" y="363.51063829787233" width="17.998912700017293" height="103.48936170212767" fill="#D1A36F" stroke="#D1A36F" stroke-width="0"/><rect x="361.09384002986997" y="328.78723404255317" width="17.998912700017293" height="138.21276595744683" fill="#D1A36F" stroke="#D1A36F" stroke-width="0"/><rect x="380.6933819899614" y="337.46808510638294" width="17.998912700017293" height="129.53191489361706" fill="#D1A36F" stroke="#D1A36F" stroke-width="0"/><rect x="400.2929239500528" y="285.3829787234043" width="17.998912700017293" height="181.61702127659572" fill="#D1A36F" stroke="#D1A36F" stroke-width="0"/><rect x="419.8924659101442" y="103.08510638297871" width="17.998912700017293" height="363.9148936170213" fill="#D1A36F" stroke="#D1A36F" stroke-width="0"/><rect x="439.4920078702356" y="415.59574468085106" width="17.998912700017293" height="51.404255319148945" fill="#D1A36F" stroke="#D1A36F" stroke-width="0"/><rect x="459.0915498303271" y="424.27659574468083" width="17.998912700017293" height="42.72340425531917" fill="#D1A36F" stroke="#D1A36F" stroke-width="0"/><rect x="478.6910917904185" y="276.70212765957444" width="17.998912700017293" height="190.29787234042556" fill="#D1A36F" stroke="#D1A36F" stroke-width="0"/><rect x="498.2906337505099" y="337.46808510638294" width="17.998912700017293" height="129.53191489361706" fill="#D1A36F" stroke="#D1A36F" stroke-width="0"/><rect x="517.8901757106013" y="285.3829787234043" width="17.998912700017293" height="181.61702127659572" fill="#D1A36F" stroke="#D1A36F" stroke-width="0"/><rect x="537.4897176706927" y="250.6595744680851" width="17.998912700017293" height="216.3404255319149" fill="#D1A36F" stroke="#D1A36F" stroke-width="0"/><rect x="557.0892596307841" y="103.08510638297871" width="17.998912700017293" height="363.9148936170213" fill="#D1A36F" stroke="#D1A36F" stroke-width="0"/><rect x="576.6888015908756" y="459" width="17.998912700017293" height="8" fill="#D1A36F" stroke="#D1A36F" stroke-width="0"/><rect x="596.2883435509669" y="441.63829787234044" width="17.998912700017293" height="25.361702127659555" fill="#D1A36F" stroke="#D1A36F" stroke-width="0"/><rect x="615.8878855110585" y="163.85106382978722" width="17.998912700017293" height="303.1489361702128" fill="#D1A36F" stroke="#D1A36F" stroke-width="0"/><rect x="635.4874274711499" y="51" width="17.998912700017293" height="416" fill="#D1A36F" stroke="#D1A36F" stroke-width="0"/><rect x="655.0869694312413" y="155.17021276595744" width="17.998912700017293" height="311.82978723404256" fill="#D1A36F" stroke="#D1A36F" stroke-width="0"/></g></g><g class="bottom-axis"><g class="axis-line"><path d="M 59.78613471984863,468 L 700,468" fill="none" stroke="#131300" stroke-width="2"/></g><g class="label"><text x="0" y="0" fill="#131300" font-size="14" dominant-baseline="text-before-edge" text-anchor="middle" transform="translate(95.69970893859863, 479) rotate(0)">2026-04-14</text><text x="0" y="0" fill="#131300" font-size="14" dominant-baseline="text-before-edge" text-anchor="middle" transform="translate(115.29925089869006, 479) rotate(0)">2026-04-15</text><text x="0" y="0" fill="#131300" font-size="14" dominant-baseline="text-before-edge" text-anchor="middle" transform="translate(134.8987928587815, 479) rotate(0)">2026-04-16</text><text x="0" y="0" fill="#131300" font-size="14" dominant-baseline="text-before-edge" text-anchor="middle" transform="translate(154.4983348188729, 479) rotate(0)">2026-04-17</text><text x="0" y="0" fill="#131300" font-size="14" dominant-baseline="text-before-edge" text-anchor="middle" transform="translate(174.09787677896435, 479) rotate(0)">2026-04-18</text><text x="0" y="0" fill="#131300" font-size="14" dominant-baseline="text-before-edge" text-anchor="middle" transform="translate(193.69741873905576, 479) rotate(0)">2026-04-19</text><text x="0" y="0" fill="#131300" font-size="14" dominant-baseline="text-before-edge" text-anchor="middle" transform="translate(213.29696069914718, 479) rotate(0)">2026-04-20</text><text x="0" y="0" fill="#131300" font-size="14" dominant-baseline="text-before-edge" text-anchor="middle" transform="translate(232.89650265923862, 479) rotate(0)">2026-04-21</text><text x="0" y="0" fill="#131300" font-size="14" dominant-baseline="text-before-edge" text-anchor="middle" transform="translate(252.49604461933004, 479) rotate(0)">2026-04-22</text><text x="0" y="0" fill="#131300" font-size="14" dominant-baseline="text-before-edge" text-anchor="middle" transform="translate(272.0955865794215, 479) rotate(0)">2026-04-23</text><text x="0" y="0" fill="#131300" font-size="14" dominant-baseline="text-before-edge" text-anchor="middle" transform="translate(291.6951285395129, 479) rotate(0)">2026-04-24</text><text x="0" y="0" fill="#131300" font-size="14" dominant-baseline="text-before-edge" text-anchor="middle" transform="translate(311.2946704996043, 479) rotate(0)">2026-04-25</text><text x="0" y="0" fill="#131300" font-size="14" dominant-baseline="text-before-edge" text-anchor="middle" transform="translate(330.8942124596957, 479) rotate(0)">2026-04-26</text><text x="0" y="0" fill="#131300" font-size="14" dominant-baseline="text-before-edge" text-anchor="middle" transform="translate(350.49375441978714, 479) rotate(0)">2026-04-27</text><text x="0" y="0" fill="#131300" font-size="14" dominant-baseline="text-before-edge" text-anchor="middle" transform="translate(370.0932963798786, 479) rotate(0)">2026-04-28</text><text x="0" y="0" fill="#131300" font-size="14" dominant-baseline="text-before-edge" text-anchor="middle" transform="translate(389.69283833997, 479) rotate(0)">2026-04-29</text><text x="0" y="0" fill="#131300" font-size="14" dominant-baseline="text-before-edge" text-anchor="middle" transform="translate(409.29238030006144, 479) rotate(0)">2026-04-30</text><text x="0" y="0" fill="#131300" font-size="14" dominant-baseline="text-before-edge" text-anchor="middle" transform="translate(428.89192226015285, 479) rotate(0)">2026-05-01</text><text x="0" y="0" fill="#131300" font-size="14" dominant-baseline="text-before-edge" text-anchor="middle" transform="translate(448.49146422024427, 479) rotate(0)">2026-05-02</text><text x="0" y="0" fill="#131300" font-size="14" dominant-baseline="text-before-edge" text-anchor="middle" transform="translate(468.09100618033574, 479) rotate(0)">2026-05-03</text><text x="0" y="0" fill="#131300" font-size="14" dominant-baseline="text-before-edge" text-anchor="middle" transform="translate(487.69054814042715, 479) rotate(0)">2026-05-04</text><text x="0" y="0" fill="#131300" font-size="14" dominant-baseline="text-before-edge" text-anchor="middle" transform="translate(507.29009010051857, 479) rotate(0)">2026-05-05</text><text x="0" y="0" fill="#131300" font-size="14" dominant-baseline="text-before-edge" text-anchor="middle" transform="translate(526.88963206061, 479) rotate(0)">2026-05-06</text><text x="0" y="0" fill="#131300" font-size="14" dominant-baseline="text-before-edge" text-anchor="middle" transform="translate(546.4891740207014, 479) rotate(0)">2026-05-07</text><text x="0" y="0" fill="#131300" font-size="14" dominant-baseline="text-before-edge" text-anchor="middle" transform="translate(566.0887159807928, 479) rotate(0)">2026-05-08</text><text x="0" y="0" fill="#131300" font-size="14" dominant-baseline="text-before-edge" text-anchor="middle" transform="translate(585.6882579408843, 479) rotate(0)">2026-05-09</text><text x="0" y="0" fill="#131300" font-size="14" dominant-baseline="text-before-edge" text-anchor="middle" transform="translate(605.2877999009756, 479) rotate(0)">2026-05-10</text><text x="0" y="0" fill="#131300" font-size="14" dominant-baseline="text-before-edge" text-anchor="middle" transform="translate(624.8873418610672, 479) rotate(0)">2026-05-11</text><text x="0" y="0" fill="#131300" font-size="14" dominant-baseline="text-before-edge" text-anchor="middle" transform="translate(644.4868838211586, 479) rotate(0)">2026-05-12</text><text x="0" y="0" fill="#131300" font-size="14" dominant-baseline="text-before-edge" text-anchor="middle" transform="translate(664.08642578125, 479) rotate(0)">2026-05-13</text></g><g class="ticks"><path d="M 95.69970893859863,469 L 95.69970893859863,474" fill="none" stroke="#131300" stroke-width="2"/><path d="M 115.29925089869006,469 L 115.29925089869006,474" fill="none" stroke="#131300" stroke-width="2"/><path d="M 134.8987928587815,469 L 134.8987928587815,474" fill="none" stroke="#131300" stroke-width="2"/><path d="M 154.4983348188729,469 L 154.4983348188729,474" fill="none" stroke="#131300" stroke-width="2"/><path d="M 174.09787677896435,469 L 174.09787677896435,474" fill="none" stroke="#131300" stroke-width="2"/><path d="M 193.69741873905576,469 L 193.69741873905576,474" fill="none" stroke="#131300" stroke-width="2"/><path d="M 213.29696069914718,469 L 213.29696069914718,474" fill="none" stroke="#131300" stroke-width="2"/><path d="M 232.89650265923862,469 L 232.89650265923862,474" fill="none" stroke="#131300" stroke-width="2"/><path d="M 252.49604461933004,469 L 252.49604461933004,474" fill="none" stroke="#131300" stroke-width="2"/><path d="M 272.0955865794215,469 L 272.0955865794215,474" fill="none" stroke="#131300" stroke-width="2"/><path d="M 291.6951285395129,469 L 291.6951285395129,474" fill="none" stroke="#131300" stroke-width="2"/><path d="M 311.2946704996043,469 L 311.2946704996043,474" fill="none" stroke="#131300" stroke-width="2"/><path d="M 330.8942124596957,469 L 330.8942124596957,474" fill="none" stroke="#131300" stroke-width="2"/><path d="M 350.49375441978714,469 L 350.49375441978714,474" fill="none" stroke="#131300" stroke-width="2"/><path d="M 370.0932963798786,469 L 370.0932963798786,474" fill="none" stroke="#131300" stroke-width="2"/><path d="M 389.69283833997,469 L 389.69283833997,474" fill="none" stroke="#131300" stroke-width="2"/><path d="M 409.29238030006144,469 L 409.29238030006144,474" fill="none" stroke="#131300" stroke-width="2"/><path d="M 428.89192226015285,469 L 428.89192226015285,474" fill="none" stroke="#131300" stroke-width="2"/><path d="M 448.49146422024427,469 L 448.49146422024427,474" fill="none" stroke="#131300" stroke-width="2"/><path d="M 468.09100618033574,469 L 468.09100618033574,474" fill="none" stroke="#131300" stroke-width="2"/><path d="M 487.69054814042715,469 L 487.69054814042715,474" fill="none" stroke="#131300" stroke-width="2"/><path d="M 507.29009010051857,469 L 507.29009010051857,474" fill="none" stroke="#131300" stroke-width="2"/><path d="M 526.88963206061,469 L 526.88963206061,474" fill="none" stroke="#131300" stroke-width="2"/><path d="M 546.4891740207014,469 L 546.4891740207014,474" fill="none" stroke="#131300" stroke-width="2"/><path d="M 566.0887159807928,469 L 566.0887159807928,474" fill="none" stroke="#131300" stroke-width="2"/><path d="M 585.6882579408843,469 L 585.6882579408843,474" fill="none" stroke="#131300" stroke-width="2"/><path d="M 605.2877999009756,469 L 605.2877999009756,474" fill="none" stroke="#131300" stroke-width="2"/><path d="M 624.8873418610672,469 L 624.8873418610672,474" fill="none" stroke="#131300" stroke-width="2"/><path d="M 644.4868838211586,469 L 644.4868838211586,474" fill="none" stroke="#131300" stroke-width="2"/><path d="M 664.08642578125,469 L 664.08642578125,474" fill="none" stroke="#131300" stroke-width="2"/></g></g><g class="left-axis"><g class="axisl-line"><path d="M 58.78613471984863,43 L 58.78613471984863,467" fill="none" stroke="#131300" stroke-width="2"/></g><g class="label"><text x="0" y="0" fill="#131300" font-size="14" dominant-baseline="middle" text-anchor="end" transform="translate(47.78613471984863, 68.36170212765956) rotate(0)">45</text><text x="0" y="0" fill="#131300" font-size="14" dominant-baseline="middle" text-anchor="end" transform="translate(47.78613471984863, 111.7659574468085) rotate(0)">40</text><text x="0" y="0" fill="#131300" font-size="14" dominant-baseline="middle" text-anchor="end" transform="translate(47.78613471984863, 155.17021276595744) rotate(0)">35</text><text x="0" y="0" fill="#131300" font-size="14" dominant-baseline="middle" text-anchor="end" transform="translate(47.78613471984863, 198.57446808510636) rotate(0)">30</text><text x="0" y="0" fill="#131300" font-size="14" dominant-baseline="middle" text-anchor="end" transform="translate(47.78613471984863, 241.97872340425533) rotate(0)">25</text><text x="0" y="0" fill="#131300" font-size="14" dominant-baseline="middle" text-anchor="end" transform="translate(47.78613471984863, 285.3829787234043) rotate(0)">20</text><text x="0" y="0" fill="#131300" font-size="14" dominant-baseline="middle" text-anchor="end" transform="translate(47.78613471984863, 328.78723404255317) rotate(0)">15</text><text x="0" y="0" fill="#131300" font-size="14" dominant-baseline="middle" text-anchor="end" transform="translate(47.78613471984863, 372.1914893617021) rotate(0)">10</text><text x="0" y="0" fill="#131300" font-size="14" dominant-baseline="middle" text-anchor="end" transform="translate(47.78613471984863, 415.59574468085106) rotate(0)">5</text><text x="0" y="0" fill="#131300" font-size="14" dominant-baseline="middle" text-anchor="end" transform="translate(47.78613471984863, 459) rotate(0)">0</text></g><g class="ticks"><path d="M 57.78613471984863,68.36170212765956 L 52.78613471984863,68.36170212765956" fill="none" stroke="#131300" stroke-width="2"/><path d="M 57.78613471984863,111.7659574468085 L 52.78613471984863,111.7659574468085" fill="none" stroke="#131300" stroke-width="2"/><path d="M 57.78613471984863,155.17021276595744 L 52.78613471984863,155.17021276595744" fill="none" stroke="#131300" stroke-width="2"/><path d="M 57.78613471984863,198.57446808510636 L 52.78613471984863,198.57446808510636" fill="none" stroke="#131300" stroke-width="2"/><path d="M 57.78613471984863,241.97872340425533 L 52.78613471984863,241.97872340425533" fill="none" stroke="#131300" stroke-width="2"/><path d="M 57.78613471984863,285.3829787234043 L 52.78613471984863,285.3829787234043" fill="none" stroke="#131300" stroke-width="2"/><path d="M 57.78613471984863,328.78723404255317 L 52.78613471984863,328.78723404255317" fill="none" stroke="#131300" stroke-width="2"/><path d="M 57.78613471984863,372.1914893617021 L 52.78613471984863,372.1914893617021" fill="none" stroke="#131300" stroke-width="2"/><path d="M 57.78613471984863,415.59574468085106 L 52.78613471984863,415.59574468085106" fill="none" stroke="#131300" stroke-width="2"/><path d="M 57.78613471984863,459 L 52.78613471984863,459" fill="none" stroke="#131300" stroke-width="2"/></g><g class="title"><text x="0" y="0" fill="#131300" font-size="16" dominant-baseline="text-before-edge" text-anchor="middle" transform="translate(5, 255) rotate(270)">Count</text></g></g></g><g class="mermaid-tmp-group"/></svg>